M48
;Layer_Color=9474304
;FILE_FORMAT=2:5
INCH,LZ
;TYPE=PLATED
T1F00S00C0.01200
T2F00S00C0.01400
T3F00S00C0.03543
T4F00S00C0.03937
%
T01
X00941Y-00478
X01006Y-00507
Y-00432
X0107453Y-004024
Y-0047
X0111453Y-004362
Y-003686
X0129453Y-003855
Y-0042775
Y-0047
X00751Y-0045
X00724
X00697
X0057623Y-0049973
X0050123
X0035123
X00354Y-00368
X0008873Y-0037473
X00098Y-00489
X008002Y-0036087
X00793Y-00086
X00587Y-00189
X0035909Y-0016063
X003281Y-0016089
X002981Y-0015789
X0026817Y-00158
X00218Y-0008185
X00189Y-00065
X00138Y00038
X00134Y001
X0027269Y0009331
Y0005
X00316
X0035931
Y0009331
X00316
Y0000669
X0035931
X0027269
X00485Y0000889
X00483Y0003689
X0051188Y0009363
X0050123Y0015027
X00438Y00137
X00411Y00182
X00316Y00234
X00288Y0023135
X0008873Y0022527
Y0037527
X0015049Y0038094
X0012623Y0060027
X0035123
X0046373
Y0052527
X00366Y00457
X0057623Y0060027
X0060965Y00314
X00629Y00295
X00648Y00277
X00614Y00253
X00624Y0020664
X0069057Y0034853
X00022Y-0005
X0005123Y-0014973
Y-0029973
X0012623
X0107453Y-003348
X0111453Y-00301
X0107453Y-00221
X0111453Y-00181
X0107453Y-00141
X0111453Y-00101
X0107453Y-00061
X0111453Y-00021
X01006Y-00037
Y00038
Y00113
X0107453Y00119
X0111453Y00159
X0107453Y00199
X01006Y00188
X0111453Y00239
X0107453Y00279
X0111453Y00319
Y00399
Y00479
Y00559
X0107453Y00599
Y00519
Y00439
X01006Y00497
Y00572
X0129453Y00549
Y00599
Y00499
Y00449
Y00399
Y00319
Y00269
Y00219
Y00169
Y-00021
Y-00071
Y-00121
Y-00171
Y-00221
Y-00301
Y-0034325
X01006Y-00187
Y-00112
T02
X0025313Y-0051259
X002182Y-0047727
X0018886Y-0043598
X0083519Y-0040424
X0087219
X0090919
X0090533Y-0027147
X0087319Y-0027124
X0084105Y-00271
X00794Y-00174
X0079418Y-00146
X0077018Y-0016
X0074549Y-0007058
X0069349Y-0003258
X00635Y0002989
Y0007465
X0069626Y0008874
X00757Y00075
X00788Y0010749
X00776Y00135
X00663Y00136
X0058636Y00135
X00564Y0001156
X00506Y-0007558
X00478Y-00076
X0084105Y00005
X0087319Y0000476
X0090533Y0000453
Y0021388
X0087319Y0021412
X0084105Y0021435
Y00349
X0087319Y0034876
X0090533Y0034853
X00788Y00432
Y00467
X00767Y004495
X00775Y00575
X0080092Y00591
Y00558
X00224Y00573
X0025592Y0061085
X0019164Y0053425
X00081Y00193
T03
X014Y-005
Y-004
X00636Y-0044
X00536
X0Y-004
Y-005
Y-003
Y-002
Y-001
Y0
Y001
Y002
Y003
Y004
Y005
Y006
X00232Y00395
Y-00303
X014Y-003
Y-002
Y-001
Y0
Y005
Y006
T04
X014Y001
Y002
Y003
Y004
M30
