M48
; DRILL file {KiCad 7.0.8-7.0.8~ubuntu22.04.1} date jeu. 16 nov. 2023 11:24:11
; FORMAT={-:-/ absolute / inch / decimal}
; #@! TF.CreationDate,2023-11-16T11:24:11+01:00
; #@! TF.GenerationSoftware,Kicad,Pcbnew,7.0.8-7.0.8~ubuntu22.04.1
; #@! TF.FileFunction,Plated,1,2,PTH
FMAT,2
INCH
; #@! TA.AperFunction,Plated,PTH,ViaDrill
T1C0.0315
; #@! TA.AperFunction,Plated,PTH,ComponentDrill
T2C0.0374
; #@! TA.AperFunction,Plated,PTH,ComponentDrill
T3C0.0394
%
G90
G05
T1
X0.8976Y-1.4409
X0.9626Y-1.7815
X0.9646Y-3.1654
X0.9921Y-1.3724
X1.1024Y-1.1516
X1.1181Y-1.0945
X1.1496Y-1.378
X1.1846Y-2.7909
X1.189Y-2.689
X1.1904Y-2.5909
X1.1927Y-2.4909
X1.1969Y-2.3937
X1.2224Y-2.2461
X1.2402Y-1.2638
X1.2618Y-1.502
X1.3346Y-1.2165
X1.3465Y-2.0866
X1.3465Y-2.1496
X1.3543Y-2.4882
X1.3583Y-2.2874
X1.3583Y-2.689
X1.3622Y-2.5906
X1.3673Y-2.3909
X1.374Y-1.937
X1.3819Y-2.9016
X1.4148Y-1.2013
X1.4252Y-2.7913
X1.4843Y-3.1614
X1.4946Y-1.1947
X1.5197Y-1.378
X1.5528Y-1.205
X1.5984Y-1.3386
X1.622Y-1.5591
X1.6535Y-1.2126
X1.7047Y-2.9488
X1.7231Y-1.3803
X1.7244Y-1.5512
X1.8543Y-1.3268
X2.3189Y-1.6772
X2.3661Y-1.7677
X2.3701Y-1.5827
X2.5315Y-1.9803
X2.5472Y-2.4882
X2.5709Y-2.9567
X2.7244Y-1.7717
X2.75Y-1.9567
X2.752Y-1.3799
X2.7835Y-2.3504
X2.7992Y-1.1949
X2.9035Y-2.998
T2
X1.9488Y-1.4173
X2.0472Y-1.4173
X2.1457Y-1.4173
X2.2441Y-1.4173
T3
X1.0244Y-1.5185
X1.0244Y-1.6185
X1.0244Y-1.7185
X1.0244Y-1.8185
X1.0244Y-1.9185
X1.0244Y-2.0185
X1.0244Y-2.1185
X1.0244Y-2.2185
X1.0244Y-2.4185
X1.0244Y-2.5185
X1.0244Y-2.6185
X1.0244Y-2.7185
X1.0244Y-2.8185
X1.0244Y-2.9185
X1.2559Y-1.1339
X1.2685Y-1.8909
X1.2685Y-1.9909
X1.2685Y-2.0909
X1.2685Y-2.1909
X1.2685Y-2.2909
X1.2685Y-2.3909
X1.2685Y-2.4909
X1.2685Y-2.5909
X1.2685Y-2.6909
X1.2685Y-2.7909
X1.2685Y-2.8909
X1.2685Y-2.9909
X1.3559Y-1.1339
X1.422Y-1.4567
X1.4559Y-1.1339
X1.522Y-1.4567
X1.5559Y-1.1339
X1.622Y-1.4567
X1.6559Y-1.1339
X1.722Y-1.4567
X1.7559Y-1.1339
X2.5098Y-1.4173
X2.6083Y-1.4173
X2.6685Y-1.8909
X2.6685Y-1.9909
X2.6685Y-2.0909
X2.6685Y-2.1909
X2.6685Y-2.2909
X2.6685Y-2.3909
X2.6685Y-2.4909
X2.6685Y-2.5909
X2.6685Y-2.6909
X2.6685Y-2.7909
X2.6685Y-2.8909
X2.6685Y-2.9909
X2.9126Y-1.1585
X2.9126Y-1.2585
X2.9126Y-1.3585
X2.9126Y-1.4585
X2.9126Y-1.5585
X2.9126Y-1.6585
X2.9126Y-1.7585
X2.9126Y-1.8585
X2.9126Y-1.9585
X2.9126Y-2.0585
X2.9126Y-2.2185
X2.9126Y-2.3185
X2.9126Y-2.4185
X2.9126Y-2.5185
X2.9126Y-2.6185
X2.9126Y-2.7185
X2.9126Y-2.8185
X2.9126Y-2.9185
T0
M30
