%TF.GenerationSoftware,KiCad,Pcbnew,7.0.8-7.0.8~ubuntu22.04.1*%
%TF.CreationDate,2023-11-15T17:47:51+01:00*%
%TF.ProjectId,adapt_TMC2590,61646170-745f-4544-9d43-323539302e6b,rev?*%
%TF.SameCoordinates,Original*%
%TF.FileFunction,Copper,L2,Bot*%
%TF.FilePolarity,Positive*%
%FSLAX46Y46*%
G04 Gerber Fmt 4.6, Leading zero omitted, Abs format (unit mm)*
G04 Created by KiCad (PCBNEW 7.0.8-7.0.8~ubuntu22.04.1) date 2023-11-15 17:47:51*
%MOMM*%
%LPD*%
G01*
G04 APERTURE LIST*
G04 Aperture macros list*
%AMRoundRect*
0 Rectangle with rounded corners*
0 $1 Rounding radius*
0 $2 $3 $4 $5 $6 $7 $8 $9 X,Y pos of 4 corners*
0 Add a 4 corners polygon primitive as box body*
4,1,4,$2,$3,$4,$5,$6,$7,$8,$9,$2,$3,0*
0 Add four circle primitives for the rounded corners*
1,1,$1+$1,$2,$3*
1,1,$1+$1,$4,$5*
1,1,$1+$1,$6,$7*
1,1,$1+$1,$8,$9*
0 Add four rect primitives between the rounded corners*
20,1,$1+$1,$2,$3,$4,$5,0*
20,1,$1+$1,$4,$5,$6,$7,0*
20,1,$1+$1,$6,$7,$8,$9,0*
20,1,$1+$1,$8,$9,$2,$3,0*%
G04 Aperture macros list end*
%TA.AperFunction,ComponentPad*%
%ADD10RoundRect,0.250000X0.600000X0.750000X-0.600000X0.750000X-0.600000X-0.750000X0.600000X-0.750000X0*%
%TD*%
%TA.AperFunction,ComponentPad*%
%ADD11O,1.700000X2.000000*%
%TD*%
%TA.AperFunction,ComponentPad*%
%ADD12C,1.524000*%
%TD*%
%TA.AperFunction,ComponentPad*%
%ADD13R,1.700000X1.700000*%
%TD*%
%TA.AperFunction,ComponentPad*%
%ADD14O,1.700000X1.700000*%
%TD*%
%TA.AperFunction,ComponentPad*%
%ADD15RoundRect,0.250000X0.600000X0.725000X-0.600000X0.725000X-0.600000X-0.725000X0.600000X-0.725000X0*%
%TD*%
%TA.AperFunction,ComponentPad*%
%ADD16O,1.700000X1.950000*%
%TD*%
%TA.AperFunction,ViaPad*%
%ADD17C,1.200000*%
%TD*%
%TA.AperFunction,Conductor*%
%ADD18C,0.500000*%
%TD*%
%TA.AperFunction,Conductor*%
%ADD19C,1.000000*%
%TD*%
%TA.AperFunction,Conductor*%
%ADD20C,1.500000*%
%TD*%
G04 APERTURE END LIST*
D10*
%TO.P,J1,1,Pin_1*%
%TO.N,VS*%
X66250000Y-36000000D03*
D11*
%TO.P,J1,2,Pin_2*%
%TO.N,GND*%
X63750000Y-36000000D03*
%TD*%
D12*
%TO.P,U2,1,VCC_IO*%
%TO.N,+3.3V*%
X32220000Y-48030000D03*
%TO.P,U2,2,GND*%
%TO.N,GND*%
X32220000Y-50570000D03*
%TO.P,U2,3,DIR*%
%TO.N,/DIR*%
X32220000Y-53110000D03*
%TO.P,U2,4,STEP*%
%TO.N,/TIM1_STEP*%
X32220000Y-55650000D03*
%TO.P,U2,5,SDO*%
%TO.N,/SPI3_MISO*%
X32220000Y-58190000D03*
%TO.P,U2,6,SDI*%
%TO.N,/SPI3_MOSI*%
X32220000Y-60730000D03*
%TO.P,U2,7,SCK*%
%TO.N,/SPI3_SCK*%
X32220000Y-63270000D03*
%TO.P,U2,8,CSN*%
%TO.N,/CSN*%
X32220000Y-65810000D03*
%TO.P,U2,9,GND*%
%TO.N,GND*%
X32220000Y-68350000D03*
%TO.P,U2,10,DRV_ENN*%
%TO.N,/DRV_ENN*%
X32220000Y-70890000D03*
%TO.P,U2,11,CLK16*%
%TO.N,unconnected-(U2-CLK16-Pad11)*%
X32220000Y-73430000D03*
%TO.P,U2,12,SG_TST*%
%TO.N,unconnected-(U2-SG_TST-Pad12)*%
X32220000Y-75970000D03*
%TO.P,U2,13,GND*%
%TO.N,GND*%
X67780000Y-75970000D03*
%TO.P,U2,14,GND*%
X67780000Y-73430000D03*
%TO.P,U2,15,GND*%
X67780000Y-70890000D03*
%TO.P,U2,16,GND*%
X67780000Y-68350000D03*
%TO.P,U2,17,GND*%
X67780000Y-65810000D03*
%TO.P,U2,18,GND*%
X67780000Y-63270000D03*
%TO.P,U2,19,B2*%
%TO.N,Net-(J2-Pin_4)*%
X67780000Y-60730000D03*
%TO.P,U2,20,B1*%
%TO.N,Net-(J2-Pin_3)*%
X67780000Y-58190000D03*
%TO.P,U2,21,A2*%
%TO.N,Net-(J2-Pin_2)*%
X67780000Y-55650000D03*
%TO.P,U2,22,A1*%
%TO.N,Net-(J2-Pin_1)*%
X67780000Y-53110000D03*
%TO.P,U2,23,GND*%
%TO.N,GND*%
X67780000Y-50570000D03*
%TO.P,U2,24,VS*%
%TO.N,VS*%
X67780000Y-48030000D03*
%TD*%
%TO.P,U1,D10,PB8*%
%TO.N,unconnected-(U1-PB8-PadD10)*%
X75250000Y-29426000D03*
%TO.P,U1,D9,PB9*%
%TO.N,unconnected-(U1-PB9-PadD9)*%
X75250000Y-31966000D03*
%TO.P,U1,D8,AVDD*%
%TO.N,unconnected-(U1-AVDD-PadD8)*%
X75250000Y-34506000D03*
%TO.P,U1,D7,GND*%
%TO.N,GND*%
X75250000Y-37046000D03*
%TO.P,U1,D6,PA5*%
%TO.N,unconnected-(U1-PA5-PadD6)*%
X75250000Y-39586000D03*
%TO.P,U1,D5,PA6*%
%TO.N,unconnected-(U1-PA6-PadD5)*%
X75250000Y-42126000D03*
%TO.P,U1,D4,PA7*%
%TO.N,unconnected-(U1-PA7-PadD4)*%
X75250000Y-44666000D03*
%TO.P,U1,D3,PB6*%
%TO.N,unconnected-(U1-PB6-PadD3)*%
X75250000Y-47206000D03*
%TO.P,U1,D2,PC7*%
%TO.N,unconnected-(U1-PC7-PadD2)*%
X75250000Y-49746000D03*
%TO.P,U1,D1,PA9*%
%TO.N,unconnected-(U1-PA9-PadD1)*%
X75250000Y-52286000D03*
%TO.P,U1,C8,PA8*%
%TO.N,/TIM1_STEP*%
X75250000Y-56350000D03*
%TO.P,U1,C7,PB10*%
%TO.N,/DIR*%
X75250000Y-58890000D03*
%TO.P,U1,C6,PB4*%
%TO.N,/SPI3_MISO*%
X75250000Y-61430000D03*
%TO.P,U1,C5,PB5*%
%TO.N,/SPI3_MOSI*%
X75250000Y-63970000D03*
%TO.P,U1,C4,PB3*%
%TO.N,/SPI3_SCK*%
X75250000Y-66510000D03*
%TO.P,U1,C3,PA10*%
%TO.N,/CSN*%
X75250000Y-69050000D03*
%TO.P,U1,C2,PC4/PA2*%
%TO.N,/DRV_ENN*%
X75250000Y-71590000D03*
%TO.P,U1,C1,PC5/PA3*%
%TO.N,unconnected-(U1-PC5{slash}PA3-PadC1)*%
X75250000Y-74130000D03*
%TO.P,U1,B6,PC0/PA15*%
%TO.N,unconnected-(U1-PC0{slash}PA15-PadB6)*%
X24750000Y-74130000D03*
%TO.P,U1,B5,PC1/PB9*%
%TO.N,unconnected-(U1-PC1{slash}PB9-PadB5)*%
X24750000Y-71590000D03*
%TO.P,U1,B4,PB0*%
%TO.N,unconnected-(U1-PB0-PadB4)*%
X24750000Y-69050000D03*
%TO.P,U1,B3,PA4*%
%TO.N,unconnected-(U1-PA4-PadB3)*%
X24750000Y-66510000D03*
%TO.P,U1,B2,PA1*%
%TO.N,unconnected-(U1-PA1-PadB2)*%
X24750000Y-63970000D03*
%TO.P,U1,B1,PA0*%
%TO.N,unconnected-(U1-PA0-PadB1)*%
X24750000Y-61430000D03*
%TO.P,U1,A8,VIN*%
%TO.N,unconnected-(U1-VIN-PadA8)*%
X24750000Y-56350000D03*
%TO.P,U1,A7,GND*%
%TO.N,GND*%
X24750000Y-53810000D03*
%TO.P,U1,A6,GND*%
X24750000Y-51270000D03*
%TO.P,U1,A5,+5V*%
%TO.N,unconnected-(U1-+5V-PadA5)*%
X24750000Y-48730000D03*
%TO.P,U1,A4,+3V3*%
%TO.N,+3.3V*%
X24750000Y-46190000D03*
%TO.P,U1,A3,NRST*%
%TO.N,unconnected-(U1-NRST-PadA3)*%
X24750000Y-43650000D03*
%TO.P,U1,A2,IOREF*%
%TO.N,unconnected-(U1-IOREF-PadA2)*%
X24750000Y-41110000D03*
%TO.P,U1,A1,NC*%
%TO.N,unconnected-(U1-NC-PadA1)*%
X24750000Y-38570000D03*
%TD*%
D13*
%TO.P,J4,1,Pin_1*%
%TO.N,/TIM1_STEP*%
X43740000Y-37000000D03*
D14*
%TO.P,J4,2,Pin_2*%
%TO.N,/DIR*%
X41200000Y-37000000D03*
%TO.P,J4,3,Pin_3*%
%TO.N,/DRV_ENN*%
X38660000Y-37000000D03*
%TO.P,J4,4,Pin_4*%
%TO.N,GND*%
X36120000Y-37000000D03*
%TD*%
D13*
%TO.P,J3,1,Pin_1*%
%TO.N,/SPI3_MISO*%
X44600000Y-28800000D03*
D14*
%TO.P,J3,2,Pin_2*%
%TO.N,/SPI3_MOSI*%
X42060000Y-28800000D03*
%TO.P,J3,3,Pin_3*%
%TO.N,/SPI3_SCK*%
X39520000Y-28800000D03*
%TO.P,J3,4,Pin_4*%
%TO.N,/CSN*%
X36980000Y-28800000D03*
%TO.P,J3,5,Pin_5*%
%TO.N,/DRV_ENN*%
X34440000Y-28800000D03*
%TO.P,J3,6,Pin_6*%
%TO.N,GND*%
X31900000Y-28800000D03*
%TD*%
D15*
%TO.P,J2,1,Pin_1*%
%TO.N,Net-(J2-Pin_1)*%
X57000000Y-36000000D03*
D16*
%TO.P,J2,2,Pin_2*%
%TO.N,Net-(J2-Pin_2)*%
X54500000Y-36000000D03*
%TO.P,J2,3,Pin_3*%
%TO.N,Net-(J2-Pin_3)*%
X52000000Y-36000000D03*
%TO.P,J2,4,Pin_4*%
%TO.N,Net-(J2-Pin_4)*%
X49500000Y-36000000D03*
%TD*%
D17*
%TO.N,GND*%
X69900000Y-35050000D03*
X69850000Y-49700000D03*
X40600000Y-34000000D03*
X32400000Y-39400000D03*
X34900000Y-49200000D03*
X64300000Y-50300000D03*
X70700000Y-59700000D03*
X64700000Y-63200000D03*
X58900000Y-42600000D03*
X60100000Y-44900000D03*
X60200000Y-40200000D03*
X71700000Y-28600000D03*
X24500000Y-80400000D03*
X35100000Y-73700000D03*
X37700000Y-80300000D03*
X74100000Y-80700000D03*
X65300000Y-75100000D03*
X43300000Y-74900000D03*
%TO.N,/TIM1_STEP*%
X43765993Y-35059647D03*
%TO.N,/DIR*%
X47100000Y-33700000D03*
%TO.N,/SPI3_MISO*%
X34500000Y-58100000D03*
%TO.N,GND*%
X34500000Y-68300000D03*
X30200000Y-68300000D03*
%TO.N,/DRV_ENN*%
X36200000Y-70900000D03*
%TO.N,/CSN*%
X34600000Y-65800000D03*
%TO.N,/SPI3_SCK*%
X34400000Y-63200000D03*
%TO.N,/SPI3_MOSI*%
X34730000Y-60730000D03*
%TO.N,/DIR*%
X34200000Y-53000000D03*
%TO.N,/TIM1_STEP*%
X34200000Y-54600000D03*
X43800000Y-39400000D03*
%TO.N,/DIR*%
X41200000Y-39600000D03*
%TO.N,VS*%
X69200000Y-45000000D03*
%TO.N,/SPI3_MISO*%
X30549500Y-57000000D03*
%TO.N,+3.3V*%
X23400000Y-45400000D03*
%TO.N,/SPI3_MISO*%
X42000000Y-30800000D03*
%TO.N,GND*%
X28400000Y-27800000D03*
X31400000Y-31800000D03*
%TO.N,+3.3V*%
X32000000Y-46200000D03*
%TO.N,/DRV_ENN*%
X30090000Y-70890000D03*
%TO.N,/CSN*%
X30235000Y-65810000D03*
%TO.N,/SPI3_SCK*%
X30295000Y-63270000D03*
%TO.N,/SPI3_MOSI*%
X30400000Y-60800000D03*
X39440492Y-30607143D03*
%TO.N,/DRV_ENN*%
X38600000Y-35000000D03*
%TO.N,/SPI3_SCK*%
X37963790Y-30346645D03*
%TO.N,/CSN*%
X35936508Y-30512726D03*
%TO.N,/DRV_ENN*%
X33900000Y-30900000D03*
%TO.N,/CSN*%
X29200000Y-35000000D03*
%TO.N,+3.3V*%
X26200000Y-36600000D03*
%TO.N,/CSN*%
X25199500Y-34858932D03*
%TO.N,GND*%
X22800000Y-36600000D03*
%TO.N,+3.3V*%
X25000000Y-27200000D03*
%TD*%
D18*
%TO.N,/DRV_ENN*%
X34440000Y-28800000D02*
X33900000Y-29340000D01*
X33900000Y-29340000D02*
X33900000Y-30900000D01*
X33900000Y-30900000D02*
X38000000Y-35000000D01*
X38000000Y-35000000D02*
X38600000Y-35000000D01*
D19*
%TO.N,Net-(J2-Pin_1)*%
X57000000Y-36000000D02*
X57000000Y-46500000D01*
X57000000Y-46500000D02*
X63610000Y-53110000D01*
X63610000Y-53110000D02*
X67780000Y-53110000D01*
%TO.N,Net-(J2-Pin_2)*%
X54500000Y-36000000D02*
X54500000Y-47100000D01*
X54500000Y-47100000D02*
X63050000Y-55650000D01*
X63050000Y-55650000D02*
X67780000Y-55650000D01*
%TO.N,Net-(J2-Pin_4)*%
X49500000Y-36000000D02*
X49500000Y-47900000D01*
X49500000Y-47900000D02*
X62330000Y-60730000D01*
X62330000Y-60730000D02*
X67780000Y-60730000D01*
D18*
%TO.N,/TIM1_STEP*%
X43765993Y-35059647D02*
X43765993Y-36974007D01*
X43765993Y-36974007D02*
X43740000Y-37000000D01*
%TO.N,/DIR*%
X47100000Y-33700000D02*
X43500000Y-33700000D01*
X43500000Y-33700000D02*
X41200000Y-36000000D01*
X41200000Y-36000000D02*
X41200000Y-37000000D01*
%TO.N,/TIM1_STEP*%
X43800000Y-39400000D02*
X43800000Y-37060000D01*
X43800000Y-37060000D02*
X43740000Y-37000000D01*
%TO.N,/SPI3_MISO*%
X34500000Y-58100000D02*
X32310000Y-58100000D01*
X32310000Y-58100000D02*
X32220000Y-58190000D01*
%TO.N,/DRV_ENN*%
X32230000Y-70900000D02*
X32220000Y-70890000D01*
X36200000Y-70900000D02*
X32230000Y-70900000D01*
%TO.N,/CSN*%
X32230000Y-65800000D02*
X32220000Y-65810000D01*
X34600000Y-65800000D02*
X32230000Y-65800000D01*
%TO.N,/SPI3_SCK*%
X34400000Y-63200000D02*
X32290000Y-63200000D01*
X32290000Y-63200000D02*
X32220000Y-63270000D01*
%TO.N,/SPI3_MOSI*%
X34730000Y-60730000D02*
X32220000Y-60730000D01*
%TO.N,/TIM1_STEP*%
X34200000Y-54600000D02*
X33150000Y-55650000D01*
X33150000Y-55650000D02*
X32220000Y-55650000D01*
%TO.N,/DIR*%
X34090000Y-53110000D02*
X34200000Y-53000000D01*
X32220000Y-53110000D02*
X34090000Y-53110000D01*
X41200000Y-37000000D02*
X41200000Y-39600000D01*
D20*
%TO.N,VS*%
X68800000Y-45400000D02*
X69200000Y-45000000D01*
X66250000Y-45400000D02*
X68800000Y-45400000D01*
X66250000Y-36000000D02*
X66250000Y-45400000D01*
X66250000Y-45400000D02*
X66250000Y-46500000D01*
X66250000Y-46500000D02*
X67780000Y-48030000D01*
D19*
%TO.N,Net-(J2-Pin_3)*%
X67780000Y-58190000D02*
X62713044Y-58190000D01*
X62713044Y-58190000D02*
X52000000Y-47476956D01*
X52000000Y-47476956D02*
X52000000Y-36000000D01*
D18*
%TO.N,/SPI3_MOSI*%
X40252857Y-30607143D02*
X42060000Y-28800000D01*
%TO.N,/SPI3_MISO*%
X42000000Y-30800000D02*
X42600000Y-30800000D01*
X42600000Y-30800000D02*
X44600000Y-28800000D01*
%TO.N,/SPI3_MOSI*%
X39440492Y-30607143D02*
X40252857Y-30607143D01*
X30400000Y-60800000D02*
X32150000Y-60800000D01*
X32150000Y-60800000D02*
X32220000Y-60730000D01*
%TO.N,/SPI3_MISO*%
X32220000Y-58190000D02*
X31739500Y-58190000D01*
X31739500Y-58190000D02*
X30549500Y-57000000D01*
%TO.N,+3.3V*%
X32220000Y-48030000D02*
X32220000Y-46420000D01*
X32220000Y-46420000D02*
X32000000Y-46200000D01*
X32000000Y-46200000D02*
X31990000Y-46190000D01*
X31990000Y-46190000D02*
X24750000Y-46190000D01*
%TO.N,/SPI3_SCK*%
X37963790Y-30346645D02*
X37963790Y-30111084D01*
X37963790Y-30111084D02*
X39274874Y-28800000D01*
X39274874Y-28800000D02*
X39520000Y-28800000D01*
%TO.N,/CSN*%
X25000000Y-35000000D02*
X25531750Y-34468250D01*
X25531750Y-34468250D02*
X28668250Y-34468250D01*
X28668250Y-34468250D02*
X29200000Y-35000000D01*
%TO.N,+3.3V*%
X25256497Y-36600000D02*
X26200000Y-36600000D01*
%TO.N,/CSN*%
X36980000Y-28800000D02*
X36980000Y-29752078D01*
X36980000Y-29752078D02*
X35866039Y-30866039D01*
%TO.N,/SPI3_SCK*%
X32220000Y-63270000D02*
X30295000Y-63270000D01*
%TO.N,/CSN*%
X32220000Y-65810000D02*
X30235000Y-65810000D01*
%TO.N,/DRV_ENN*%
X30090000Y-70890000D02*
X32220000Y-70890000D01*
%TO.N,+3.3V*%
X24050000Y-28150000D02*
X24050000Y-35393503D01*
X24050000Y-35393503D02*
X25256497Y-36600000D01*
X25000000Y-27200000D02*
X24050000Y-28150000D01*
%TD*%
%TA.AperFunction,Conductor*%
%TO.N,GND*%
G36*
X75251619Y-26420584D02*
G01*
X75383628Y-26427503D01*
X75567027Y-26437803D01*
X75573212Y-26438465D01*
X75725647Y-26462608D01*
X75888194Y-26490226D01*
X75893811Y-26491453D01*
X76046693Y-26532418D01*
X76121103Y-26553855D01*
X76201724Y-26577082D01*
X76206759Y-26578769D01*
X76356183Y-26636127D01*
X76504007Y-26697358D01*
X76508412Y-26699388D01*
X76571220Y-26731391D01*
X76651921Y-26772511D01*
X76727428Y-26814241D01*
X76791480Y-26849641D01*
X76795215Y-26851882D01*
X76869487Y-26900115D01*
X76930872Y-26939980D01*
X77011118Y-26996917D01*
X77060764Y-27032142D01*
X77063886Y-27034510D01*
X77188748Y-27135621D01*
X77191034Y-27137567D01*
X77308721Y-27242738D01*
X77311248Y-27245128D01*
X77424870Y-27358750D01*
X77427260Y-27361277D01*
X77532431Y-27478964D01*
X77534383Y-27481258D01*
X77630854Y-27600390D01*
X77635480Y-27606102D01*
X77637862Y-27609243D01*
X77730019Y-27739127D01*
X77783758Y-27821875D01*
X77818106Y-27874767D01*
X77820364Y-27878531D01*
X77897488Y-28018078D01*
X77970604Y-28161575D01*
X77972643Y-28165997D01*
X78033877Y-28313829D01*
X78091221Y-28463217D01*
X78092916Y-28468273D01*
X78137579Y-28623297D01*
X78178541Y-28776171D01*
X78179778Y-28781835D01*
X78198248Y-28890534D01*
X78200000Y-28911306D01*
X78200000Y-80638692D01*
X78198248Y-80659464D01*
X78179778Y-80768163D01*
X78178541Y-80773826D01*
X78137579Y-80926702D01*
X78092916Y-81081725D01*
X78091221Y-81086781D01*
X78033877Y-81236170D01*
X77972643Y-81384001D01*
X77970604Y-81388423D01*
X77897488Y-81531921D01*
X77820364Y-81671467D01*
X77818097Y-81675246D01*
X77730019Y-81810872D01*
X77637862Y-81940755D01*
X77635480Y-81943896D01*
X77534385Y-82068738D01*
X77532431Y-82071034D01*
X77427260Y-82188721D01*
X77424870Y-82191248D01*
X77311248Y-82304870D01*
X77308721Y-82307260D01*
X77191034Y-82412431D01*
X77188738Y-82414385D01*
X77063896Y-82515480D01*
X77060755Y-82517862D01*
X76930872Y-82610019D01*
X76795246Y-82698097D01*
X76791467Y-82700364D01*
X76651921Y-82777488D01*
X76508423Y-82850604D01*
X76504001Y-82852643D01*
X76356170Y-82913877D01*
X76206781Y-82971221D01*
X76201725Y-82972916D01*
X76046702Y-83017579D01*
X75893827Y-83058541D01*
X75888163Y-83059778D01*
X75725630Y-83087394D01*
X75573240Y-83111530D01*
X75567013Y-83112196D01*
X75383382Y-83122509D01*
X75251622Y-83129415D01*
X75248376Y-83129500D01*
X24751624Y-83129500D01*
X24748378Y-83129415D01*
X24616617Y-83122509D01*
X24432985Y-83112196D01*
X24426758Y-83111530D01*
X24274369Y-83087394D01*
X24111835Y-83059778D01*
X24106171Y-83058541D01*
X23953297Y-83017579D01*
X23798273Y-82972916D01*
X23793217Y-82971221D01*
X23643829Y-82913877D01*
X23495997Y-82852643D01*
X23491575Y-82850604D01*
X23348078Y-82777488D01*
X23208531Y-82700364D01*
X23204767Y-82698106D01*
X23151875Y-82663758D01*
X23069127Y-82610019D01*
X22939243Y-82517862D01*
X22936102Y-82515480D01*
X22811260Y-82414385D01*
X22808964Y-82412431D01*
X22691277Y-82307260D01*
X22688750Y-82304870D01*
X22575128Y-82191248D01*
X22572738Y-82188721D01*
X22467567Y-82071034D01*
X22465613Y-82068738D01*
X22426848Y-82020867D01*
X22364510Y-81943886D01*
X22362136Y-81940755D01*
X22269980Y-81810872D01*
X22237406Y-81760715D01*
X22181882Y-81675215D01*
X22179641Y-81671480D01*
X22144241Y-81607428D01*
X22102511Y-81531921D01*
X22062899Y-81454180D01*
X22029388Y-81388412D01*
X22027358Y-81384007D01*
X21966122Y-81236170D01*
X21908769Y-81086759D01*
X21907082Y-81081724D01*
X21862420Y-80926702D01*
X21857316Y-80907652D01*
X21821454Y-80773816D01*
X21820222Y-80768173D01*
X21792607Y-80605643D01*
X21792320Y-80603830D01*
X21790791Y-80584863D01*
X21768063Y-74130002D01*
X23482677Y-74130002D01*
X23501929Y-74350062D01*
X23501930Y-74350070D01*
X23559104Y-74563445D01*
X23559105Y-74563447D01*
X23559106Y-74563450D01*
X23633006Y-74721930D01*
X23652466Y-74763662D01*
X23652468Y-74763666D01*
X23779170Y-74944615D01*
X23779175Y-74944621D01*
X23935378Y-75100824D01*
X23935384Y-75100829D01*
X24116333Y-75227531D01*
X24116335Y-75227532D01*
X24116338Y-75227534D01*
X24316550Y-75320894D01*
X24529932Y-75378070D01*
X24687123Y-75391822D01*
X24749998Y-75397323D01*
X24750000Y-75397323D01*
X24750002Y-75397323D01*
X24805017Y-75392509D01*
X24970068Y-75378070D01*
X25183450Y-75320894D01*
X25383662Y-75227534D01*
X25564620Y-75100826D01*
X25720826Y-74944620D01*
X25847534Y-74763662D01*
X25940894Y-74563450D01*
X25998070Y-74350068D01*
X26017323Y-74130000D01*
X26017164Y-74128187D01*
X25998070Y-73909937D01*
X25998070Y-73909932D01*
X25940894Y-73696550D01*
X25847534Y-73496339D01*
X25720826Y-73315380D01*
X25564620Y-73159174D01*
X25564616Y-73159171D01*
X25564615Y-73159170D01*
X25383666Y-73032468D01*
X25383658Y-73032464D01*
X25254811Y-72972382D01*
X25202371Y-72926210D01*
X25183219Y-72859017D01*
X25203435Y-72792135D01*
X25254811Y-72747618D01*
X25288709Y-72731811D01*
X25383662Y-72687534D01*
X25564620Y-72560826D01*
X25720826Y-72404620D01*
X25847534Y-72223662D01*
X25940894Y-72023450D01*
X25998070Y-71810068D01*
X26017323Y-71590000D01*
X26017164Y-71588187D01*
X25998070Y-71369937D01*
X25998070Y-71369932D01*
X25940894Y-71156550D01*
X25847534Y-70956339D01*
X25720826Y-70775380D01*
X25564620Y-70619174D01*
X25564616Y-70619171D01*
X25564615Y-70619170D01*
X25383666Y-70492468D01*
X25383658Y-70492464D01*
X25254811Y-70432382D01*
X25202371Y-70386210D01*
X25183219Y-70319017D01*
X25203435Y-70252135D01*
X25254811Y-70207618D01*
X25288709Y-70191811D01*
X25383662Y-70147534D01*
X25564620Y-70020826D01*
X25720826Y-69864620D01*
X25847534Y-69683662D01*
X25940894Y-69483450D01*
X25998070Y-69270068D01*
X26017323Y-69050000D01*
X26017164Y-69048187D01*
X25998070Y-68829937D01*
X25998070Y-68829932D01*
X25940894Y-68616550D01*
X25847534Y-68416339D01*
X25720826Y-68235380D01*
X25564620Y-68079174D01*
X25564616Y-68079171D01*
X25564615Y-68079170D01*
X25383666Y-67952468D01*
X25383658Y-67952464D01*
X25254811Y-67892382D01*
X25202371Y-67846210D01*
X25183219Y-67779017D01*
X25203435Y-67712135D01*
X25254811Y-67667618D01*
X25288709Y-67651811D01*
X25383662Y-67607534D01*
X25564620Y-67480826D01*
X25720826Y-67324620D01*
X25847534Y-67143662D01*
X25940894Y-66943450D01*
X25998070Y-66730068D01*
X26017323Y-66510000D01*
X26017164Y-66508187D01*
X25998070Y-66289937D01*
X25998070Y-66289932D01*
X25940894Y-66076550D01*
X25847534Y-65876339D01*
X25720826Y-65695380D01*
X25564620Y-65539174D01*
X25564616Y-65539171D01*
X25564615Y-65539170D01*
X25383666Y-65412468D01*
X25383658Y-65412464D01*
X25254811Y-65352382D01*
X25202371Y-65306210D01*
X25183219Y-65239017D01*
X25203435Y-65172135D01*
X25254811Y-65127618D01*
X25288709Y-65111811D01*
X25383662Y-65067534D01*
X25564620Y-64940826D01*
X25720826Y-64784620D01*
X25847534Y-64603662D01*
X25940894Y-64403450D01*
X25998070Y-64190068D01*
X26017323Y-63970000D01*
X26017164Y-63968187D01*
X25998070Y-63749937D01*
X25998070Y-63749932D01*
X25940894Y-63536550D01*
X25847534Y-63336339D01*
X25752069Y-63200000D01*
X25720827Y-63155381D01*
X25680284Y-63114838D01*
X25564620Y-62999174D01*
X25564616Y-62999171D01*
X25564615Y-62999170D01*
X25383666Y-62872468D01*
X25383658Y-62872464D01*
X25254811Y-62812382D01*
X25202371Y-62766210D01*
X25183219Y-62699017D01*
X25203435Y-62632135D01*
X25254811Y-62587618D01*
X25288709Y-62571811D01*
X25383662Y-62527534D01*
X25564620Y-62400826D01*
X25720826Y-62244620D01*
X25847534Y-62063662D01*
X25940894Y-61863450D01*
X25998070Y-61650068D01*
X26017323Y-61430000D01*
X25998070Y-61209932D01*
X25940894Y-60996550D01*
X25847534Y-60796339D01*
X25720826Y-60615380D01*
X25564620Y-60459174D01*
X25564616Y-60459171D01*
X25564615Y-60459170D01*
X25383666Y-60332468D01*
X25383662Y-60332466D01*
X25306648Y-60296554D01*
X25183450Y-60239106D01*
X25183447Y-60239105D01*
X25183445Y-60239104D01*
X24970070Y-60181930D01*
X24970062Y-60181929D01*
X24750002Y-60162677D01*
X24749998Y-60162677D01*
X24529937Y-60181929D01*
X24529929Y-60181930D01*
X24316554Y-60239104D01*
X24316548Y-60239107D01*
X24116340Y-60332465D01*
X24116338Y-60332466D01*
X23935377Y-60459175D01*
X23779175Y-60615377D01*
X23652466Y-60796338D01*
X23652465Y-60796340D01*
X23559107Y-60996548D01*
X23559104Y-60996554D01*
X23501930Y-61209929D01*
X23501929Y-61209937D01*
X23482677Y-61429997D01*
X23482677Y-61430002D01*
X23501929Y-61650062D01*
X23501930Y-61650070D01*
X23559104Y-61863445D01*
X23559105Y-61863447D01*
X23559106Y-61863450D01*
X23633006Y-62021930D01*
X23652466Y-62063662D01*
X23652468Y-62063666D01*
X23779170Y-62244615D01*
X23779175Y-62244621D01*
X23935378Y-62400824D01*
X23935384Y-62400829D01*
X24116333Y-62527531D01*
X24116335Y-62527532D01*
X24116338Y-62527534D01*
X24211291Y-62571811D01*
X24245189Y-62587618D01*
X24297628Y-62633790D01*
X24316780Y-62700984D01*
X24296564Y-62767865D01*
X24245189Y-62812382D01*
X24116340Y-62872465D01*
X24116338Y-62872466D01*
X23935377Y-62999175D01*
X23779175Y-63155377D01*
X23652466Y-63336338D01*
X23652465Y-63336340D01*
X23559107Y-63536548D01*
X23559104Y-63536554D01*
X23501930Y-63749929D01*
X23501929Y-63749937D01*
X23482677Y-63969997D01*
X23482677Y-63970002D01*
X23501929Y-64190062D01*
X23501930Y-64190070D01*
X23559104Y-64403445D01*
X23559105Y-64403447D01*
X23559106Y-64403450D01*
X23633006Y-64561930D01*
X23652466Y-64603662D01*
X23652468Y-64603666D01*
X23779170Y-64784615D01*
X23779175Y-64784621D01*
X23935378Y-64940824D01*
X23935384Y-64940829D01*
X24116333Y-65067531D01*
X24116335Y-65067532D01*
X24116338Y-65067534D01*
X24211291Y-65111811D01*
X24245189Y-65127618D01*
X24297628Y-65173790D01*
X24316780Y-65240984D01*
X24296564Y-65307865D01*
X24245189Y-65352382D01*
X24116340Y-65412465D01*
X24116338Y-65412466D01*
X23935377Y-65539175D01*
X23779175Y-65695377D01*
X23652466Y-65876338D01*
X23652465Y-65876340D01*
X23559107Y-66076548D01*
X23559104Y-66076554D01*
X23501930Y-66289929D01*
X23501929Y-66289937D01*
X23482677Y-66509997D01*
X23482677Y-66510002D01*
X23501929Y-66730062D01*
X23501930Y-66730070D01*
X23559104Y-66943445D01*
X23559105Y-66943447D01*
X23559106Y-66943450D01*
X23623239Y-67080984D01*
X23652466Y-67143662D01*
X23652468Y-67143666D01*
X23779170Y-67324615D01*
X23779175Y-67324621D01*
X23935378Y-67480824D01*
X23935384Y-67480829D01*
X24116333Y-67607531D01*
X24116335Y-67607532D01*
X24116338Y-67607534D01*
X24211291Y-67651811D01*
X24245189Y-67667618D01*
X24297628Y-67713790D01*
X24316780Y-67780984D01*
X24296564Y-67847865D01*
X24245189Y-67892382D01*
X24116340Y-67952465D01*
X24116338Y-67952466D01*
X23935377Y-68079175D01*
X23779175Y-68235377D01*
X23652466Y-68416338D01*
X23652465Y-68416340D01*
X23559107Y-68616548D01*
X23559104Y-68616554D01*
X23501930Y-68829929D01*
X23501929Y-68829937D01*
X23482677Y-69049997D01*
X23482677Y-69050002D01*
X23501929Y-69270062D01*
X23501930Y-69270070D01*
X23559104Y-69483445D01*
X23559105Y-69483447D01*
X23559106Y-69483450D01*
X23633006Y-69641930D01*
X23652466Y-69683662D01*
X23652468Y-69683666D01*
X23779170Y-69864615D01*
X23779175Y-69864621D01*
X23935378Y-70020824D01*
X23935384Y-70020829D01*
X24116333Y-70147531D01*
X24116335Y-70147532D01*
X24116338Y-70147534D01*
X24211291Y-70191811D01*
X24245189Y-70207618D01*
X24297628Y-70253790D01*
X24316780Y-70320984D01*
X24296564Y-70387865D01*
X24245189Y-70432382D01*
X24116340Y-70492465D01*
X24116338Y-70492466D01*
X23935377Y-70619175D01*
X23779175Y-70775377D01*
X23652466Y-70956338D01*
X23652465Y-70956340D01*
X23559107Y-71156548D01*
X23559104Y-71156554D01*
X23501930Y-71369929D01*
X23501929Y-71369937D01*
X23482677Y-71589997D01*
X23482677Y-71590002D01*
X23501929Y-71810062D01*
X23501930Y-71810070D01*
X23559104Y-72023445D01*
X23559105Y-72023447D01*
X23559106Y-72023450D01*
X23633006Y-72181930D01*
X23652466Y-72223662D01*
X23652468Y-72223666D01*
X23779170Y-72404615D01*
X23779175Y-72404621D01*
X23935378Y-72560824D01*
X23935384Y-72560829D01*
X24116333Y-72687531D01*
X24116335Y-72687532D01*
X24116338Y-72687534D01*
X24211291Y-72731811D01*
X24245189Y-72747618D01*
X24297628Y-72793790D01*
X24316780Y-72860984D01*
X24296564Y-72927865D01*
X24245189Y-72972382D01*
X24116340Y-73032465D01*
X24116338Y-73032466D01*
X23935377Y-73159175D01*
X23779175Y-73315377D01*
X23652466Y-73496338D01*
X23652465Y-73496340D01*
X23559107Y-73696548D01*
X23559104Y-73696554D01*
X23501930Y-73909929D01*
X23501929Y-73909937D01*
X23482677Y-74129997D01*
X23482677Y-74130002D01*
X21768063Y-74130002D01*
X21750500Y-69142000D01*
X21750500Y-29421622D01*
X21750585Y-29418376D01*
X21757497Y-29286486D01*
X21762021Y-29205937D01*
X21767803Y-29102968D01*
X21768464Y-29096791D01*
X21792611Y-28944331D01*
X21820227Y-28781796D01*
X21821451Y-28776196D01*
X21862425Y-28623279D01*
X21907083Y-28468268D01*
X21908764Y-28463254D01*
X21966123Y-28313827D01*
X22027371Y-28165962D01*
X22029387Y-28161588D01*
X22102500Y-28018098D01*
X22102512Y-28018078D01*
X22179656Y-27878494D01*
X22181880Y-27874788D01*
X22269981Y-27739124D01*
X22362151Y-27609224D01*
X22364505Y-27606120D01*
X22465665Y-27481198D01*
X22467527Y-27479010D01*
X22572773Y-27361239D01*
X22575092Y-27358787D01*
X22688787Y-27245092D01*
X22691239Y-27242773D01*
X22809010Y-27137527D01*
X22811198Y-27135665D01*
X22936120Y-27034505D01*
X22939224Y-27032151D01*
X23069124Y-26939981D01*
X23204788Y-26851880D01*
X23208494Y-26849656D01*
X23348077Y-26772511D01*
X23491588Y-26699387D01*
X23495962Y-26697371D01*
X23643827Y-26636123D01*
X23793254Y-26578764D01*
X23798261Y-26577085D01*
X23857043Y-26560151D01*
X23926908Y-26560507D01*
X23985493Y-26598581D01*
X24014193Y-26662284D01*
X24003897Y-26731391D01*
X24002368Y-26734576D01*
X23969421Y-26800743D01*
X23969417Y-26800752D01*
X23913602Y-26996917D01*
X23894438Y-27203742D01*
X23868652Y-27268679D01*
X23858648Y-27279982D01*
X23564358Y-27574272D01*
X23550729Y-27586051D01*
X23531468Y-27600390D01*
X23497898Y-27640397D01*
X23494253Y-27644376D01*
X23488409Y-27650222D01*
X23468059Y-27675959D01*
X23418695Y-27734789D01*
X23414729Y-27740819D01*
X23414682Y-27740788D01*
X23410630Y-27747147D01*
X23410679Y-27747177D01*
X23406889Y-27753321D01*
X23374424Y-27822941D01*
X23339960Y-27891566D01*
X23337488Y-27898357D01*
X23337432Y-27898336D01*
X23334960Y-27905450D01*
X23335015Y-27905469D01*
X23332742Y-27912327D01*
X23329315Y-27928926D01*
X23317207Y-27987565D01*
X23304001Y-28043284D01*
X23299498Y-28062286D01*
X23298661Y-28069454D01*
X23298601Y-28069447D01*
X23297835Y-28076945D01*
X23297895Y-28076951D01*
X23297265Y-28084140D01*
X23299500Y-28160916D01*
X23299500Y-35329797D01*
X23298191Y-35347766D01*
X23294710Y-35371528D01*
X23299264Y-35423567D01*
X23299500Y-35428973D01*
X23299500Y-35437212D01*
X23303306Y-35469777D01*
X23310000Y-35546294D01*
X23311461Y-35553370D01*
X23311403Y-35553381D01*
X23313034Y-35560740D01*
X23313092Y-35560727D01*
X23314757Y-35567753D01*
X23341025Y-35639927D01*
X23365185Y-35712834D01*
X23368236Y-35719377D01*
X23368182Y-35719401D01*
X23371470Y-35726191D01*
X23371521Y-35726166D01*
X23374761Y-35732616D01*
X23374762Y-35732617D01*
X23374763Y-35732620D01*
X23416965Y-35796786D01*
X23457287Y-35862158D01*
X23461766Y-35867822D01*
X23461719Y-35867859D01*
X23466482Y-35873705D01*
X23466528Y-35873667D01*
X23471173Y-35879203D01*
X23527018Y-35931889D01*
X24680764Y-37085634D01*
X24692546Y-37099267D01*
X24705558Y-37116745D01*
X24729802Y-37182274D01*
X24714770Y-37250507D01*
X24665234Y-37299782D01*
X24616903Y-37314321D01*
X24529936Y-37321929D01*
X24529929Y-37321930D01*
X24316554Y-37379104D01*
X24316548Y-37379107D01*
X24116340Y-37472465D01*
X24116338Y-37472466D01*
X23935377Y-37599175D01*
X23779175Y-37755377D01*
X23652466Y-37936338D01*
X23652465Y-37936340D01*
X23559107Y-38136548D01*
X23559104Y-38136554D01*
X23501930Y-38349929D01*
X23501929Y-38349937D01*
X23482677Y-38569997D01*
X23482677Y-38570002D01*
X23501929Y-38790062D01*
X23501930Y-38790070D01*
X23559104Y-39003445D01*
X23559105Y-39003447D01*
X23559106Y-39003450D01*
X23628631Y-39152548D01*
X23652466Y-39203662D01*
X23652468Y-39203666D01*
X23779170Y-39384615D01*
X23779175Y-39384621D01*
X23935378Y-39540824D01*
X23935384Y-39540829D01*
X24116333Y-39667531D01*
X24116335Y-39667532D01*
X24116338Y-39667534D01*
X24235748Y-39723215D01*
X24245189Y-39727618D01*
X24297628Y-39773790D01*
X24316780Y-39840984D01*
X24296564Y-39907865D01*
X24245189Y-39952382D01*
X24116340Y-40012465D01*
X24116338Y-40012466D01*
X23935377Y-40139175D01*
X23779175Y-40295377D01*
X23652466Y-40476338D01*
X23652465Y-40476340D01*
X23559107Y-40676548D01*
X23559104Y-40676554D01*
X23501930Y-40889929D01*
X23501929Y-40889937D01*
X23482677Y-41109997D01*
X23482677Y-41110002D01*
X23501929Y-41330062D01*
X23501930Y-41330070D01*
X23559104Y-41543445D01*
X23559105Y-41543447D01*
X23559106Y-41543450D01*
X23628631Y-41692548D01*
X23652466Y-41743662D01*
X23652468Y-41743666D01*
X23779170Y-41924615D01*
X23779175Y-41924621D01*
X23935378Y-42080824D01*
X23935384Y-42080829D01*
X24116333Y-42207531D01*
X24116335Y-42207532D01*
X24116338Y-42207534D01*
X24235748Y-42263215D01*
X24245189Y-42267618D01*
X24297628Y-42313790D01*
X24316780Y-42380984D01*
X24296564Y-42447865D01*
X24245189Y-42492382D01*
X24116340Y-42552465D01*
X24116338Y-42552466D01*
X23935377Y-42679175D01*
X23779175Y-42835377D01*
X23652466Y-43016338D01*
X23652465Y-43016340D01*
X23559107Y-43216548D01*
X23559104Y-43216554D01*
X23501930Y-43429929D01*
X23501929Y-43429937D01*
X23482677Y-43649997D01*
X23482677Y-43650002D01*
X23501929Y-43870062D01*
X23501930Y-43870070D01*
X23559104Y-44083445D01*
X23559105Y-44083447D01*
X23559106Y-44083450D01*
X23572970Y-44113181D01*
X23577593Y-44123095D01*
X23588085Y-44192173D01*
X23559565Y-44255957D01*
X23501089Y-44294196D01*
X23465211Y-44299500D01*
X23298024Y-44299500D01*
X23097544Y-44336976D01*
X23097541Y-44336976D01*
X23097541Y-44336977D01*
X22907364Y-44410651D01*
X22907357Y-44410655D01*
X22733960Y-44518017D01*
X22733958Y-44518019D01*
X22583237Y-44655418D01*
X22460327Y-44818178D01*
X22369422Y-45000739D01*
X22369417Y-45000752D01*
X22313602Y-45196917D01*
X22294785Y-45399999D01*
X22294785Y-45400000D01*
X22313602Y-45603082D01*
X22369417Y-45799247D01*
X22369422Y-45799260D01*
X22460327Y-45981821D01*
X22583237Y-46144581D01*
X22733958Y-46281980D01*
X22733960Y-46281982D01*
X22833141Y-46343392D01*
X22907363Y-46389348D01*
X23097544Y-46463024D01*
X23298024Y-46500500D01*
X23298026Y-46500500D01*
X23431013Y-46500500D01*
X23498052Y-46520185D01*
X23543807Y-46572989D01*
X23550787Y-46592405D01*
X23559104Y-46623446D01*
X23559105Y-46623448D01*
X23559106Y-46623450D01*
X23630546Y-46776655D01*
X23652466Y-46823662D01*
X23652468Y-46823666D01*
X23779170Y-47004615D01*
X23779175Y-47004621D01*
X23935378Y-47160824D01*
X23935384Y-47160829D01*
X24116333Y-47287531D01*
X24116335Y-47287532D01*
X24116338Y-47287534D01*
X24199003Y-47326081D01*
X24245189Y-47347618D01*
X24297628Y-47393790D01*
X24316780Y-47460984D01*
X24296564Y-47527865D01*
X24245189Y-47572382D01*
X24116340Y-47632465D01*
X24116338Y-47632466D01*
X23935377Y-47759175D01*
X23779175Y-47915377D01*
X23652466Y-48096338D01*
X23652465Y-48096340D01*
X23559107Y-48296548D01*
X23559104Y-48296554D01*
X23501930Y-48509929D01*
X23501929Y-48509937D01*
X23482677Y-48729997D01*
X23482677Y-48730002D01*
X23501929Y-48950062D01*
X23501930Y-48950070D01*
X23559104Y-49163445D01*
X23559105Y-49163447D01*
X23559106Y-49163450D01*
X23623368Y-49301260D01*
X23652466Y-49363662D01*
X23652468Y-49363666D01*
X23779170Y-49544615D01*
X23779175Y-49544621D01*
X23935378Y-49700824D01*
X23935384Y-49700829D01*
X24116333Y-49827531D01*
X24116335Y-49827532D01*
X24116338Y-49827534D01*
X24211291Y-49871811D01*
X24245781Y-49887894D01*
X24298220Y-49934066D01*
X24317372Y-50001260D01*
X24297156Y-50068141D01*
X24245781Y-50112658D01*
X24116586Y-50172903D01*
X24051812Y-50218257D01*
X24051811Y-50218258D01*
X24722554Y-50889000D01*
X24718431Y-50889000D01*
X24624579Y-50904661D01*
X24512749Y-50965180D01*
X24426629Y-51058731D01*
X24375552Y-51175177D01*
X24369894Y-51243447D01*
X23698258Y-50571811D01*
X23698257Y-50571812D01*
X23652903Y-50636586D01*
X23559579Y-50836720D01*
X23559575Y-50836729D01*
X23502426Y-51050013D01*
X23502424Y-51050023D01*
X23483179Y-51269999D01*
X23483179Y-51270000D01*
X23502424Y-51489976D01*
X23502426Y-51489986D01*
X23559575Y-51703270D01*
X23559580Y-51703284D01*
X23652899Y-51903407D01*
X23652900Y-51903409D01*
X23698258Y-51968187D01*
X24365096Y-51301349D01*
X24365051Y-51301898D01*
X24396266Y-51425162D01*
X24465813Y-51531612D01*
X24566157Y-51609713D01*
X24686422Y-51651000D01*
X24722553Y-51651000D01*
X24051811Y-52321741D01*
X24116582Y-52367094D01*
X24116588Y-52367098D01*
X24246373Y-52427618D01*
X24298812Y-52473790D01*
X24317964Y-52540984D01*
X24297748Y-52607865D01*
X24246373Y-52652382D01*
X24116586Y-52712903D01*
X24051812Y-52758257D01*
X24051811Y-52758258D01*
X24722554Y-53429000D01*
X24718431Y-53429000D01*
X24624579Y-53444661D01*
X24512749Y-53505180D01*
X24426629Y-53598731D01*
X24375552Y-53715177D01*
X24369894Y-53783447D01*
X23698258Y-53111811D01*
X23698257Y-53111812D01*
X23652903Y-53176586D01*
X23559579Y-53376720D01*
X23559575Y-53376729D01*
X23502426Y-53590013D01*
X23502424Y-53590023D01*
X23483179Y-53809999D01*
X23483179Y-53810000D01*
X23502424Y-54029976D01*
X23502426Y-54029986D01*
X23559575Y-54243270D01*
X23559580Y-54243284D01*
X23652899Y-54443407D01*
X23652900Y-54443409D01*
X23698258Y-54508187D01*
X24365096Y-53841349D01*
X24365051Y-53841898D01*
X24396266Y-53965162D01*
X24465813Y-54071612D01*
X24566157Y-54149713D01*
X24686422Y-54191000D01*
X24722553Y-54191000D01*
X24051811Y-54861741D01*
X24116582Y-54907094D01*
X24116588Y-54907098D01*
X24245781Y-54967342D01*
X24298220Y-55013514D01*
X24317372Y-55080708D01*
X24297156Y-55147589D01*
X24245781Y-55192106D01*
X24116340Y-55252465D01*
X24116338Y-55252466D01*
X23935377Y-55379175D01*
X23779175Y-55535377D01*
X23652466Y-55716338D01*
X23652465Y-55716340D01*
X23559107Y-55916548D01*
X23559104Y-55916554D01*
X23501930Y-56129929D01*
X23501929Y-56129937D01*
X23482677Y-56349997D01*
X23482677Y-56350002D01*
X23501929Y-56570062D01*
X23501930Y-56570070D01*
X23559104Y-56783445D01*
X23559105Y-56783447D01*
X23559106Y-56783450D01*
X23633006Y-56941930D01*
X23652466Y-56983662D01*
X23652468Y-56983666D01*
X23779170Y-57164615D01*
X23779175Y-57164621D01*
X23935378Y-57320824D01*
X23935384Y-57320829D01*
X24116333Y-57447531D01*
X24116335Y-57447532D01*
X24116338Y-57447534D01*
X24316550Y-57540894D01*
X24529932Y-57598070D01*
X24687123Y-57611822D01*
X24749998Y-57617323D01*
X24750000Y-57617323D01*
X24750002Y-57617323D01*
X24805017Y-57612509D01*
X24970068Y-57598070D01*
X25183450Y-57540894D01*
X25383662Y-57447534D01*
X25564620Y-57320826D01*
X25720826Y-57164620D01*
X25847534Y-56983662D01*
X25940894Y-56783450D01*
X25998070Y-56570068D01*
X26017323Y-56350000D01*
X26015994Y-56334814D01*
X26007549Y-56238277D01*
X25998070Y-56129932D01*
X25940894Y-55916550D01*
X25847534Y-55716339D01*
X25720826Y-55535380D01*
X25564620Y-55379174D01*
X25564616Y-55379171D01*
X25564615Y-55379170D01*
X25383666Y-55252468D01*
X25383658Y-55252464D01*
X25254219Y-55192106D01*
X25201779Y-55145934D01*
X25182627Y-55078741D01*
X25202843Y-55011859D01*
X25254219Y-54967342D01*
X25383408Y-54907100D01*
X25383420Y-54907093D01*
X25448186Y-54861742D01*
X25448187Y-54861740D01*
X24777448Y-54191000D01*
X24781569Y-54191000D01*
X24875421Y-54175339D01*
X24987251Y-54114820D01*
X25073371Y-54021269D01*
X25124448Y-53904823D01*
X25130105Y-53836552D01*
X25801740Y-54508187D01*
X25801742Y-54508186D01*
X25847093Y-54443420D01*
X25847100Y-54443408D01*
X25940419Y-54243284D01*
X25940424Y-54243270D01*
X25997573Y-54029986D01*
X25997575Y-54029976D01*
X26016821Y-53810000D01*
X26016821Y-53809999D01*
X25997575Y-53590023D01*
X25997573Y-53590013D01*
X25940424Y-53376729D01*
X25940420Y-53376720D01*
X25847098Y-53176590D01*
X25801740Y-53111811D01*
X25134903Y-53778648D01*
X25134949Y-53778102D01*
X25103734Y-53654838D01*
X25034187Y-53548388D01*
X24933843Y-53470287D01*
X24813578Y-53429000D01*
X24777447Y-53429000D01*
X25448187Y-52758258D01*
X25383409Y-52712900D01*
X25383407Y-52712899D01*
X25253627Y-52652382D01*
X25201187Y-52606210D01*
X25182035Y-52539017D01*
X25202251Y-52472135D01*
X25253627Y-52427618D01*
X25383408Y-52367100D01*
X25383420Y-52367093D01*
X25448186Y-52321742D01*
X25448187Y-52321740D01*
X24777448Y-51651000D01*
X24781569Y-51651000D01*
X24875421Y-51635339D01*
X24987251Y-51574820D01*
X25073371Y-51481269D01*
X25124448Y-51364823D01*
X25130105Y-51296552D01*
X25801740Y-51968187D01*
X25801742Y-51968186D01*
X25847093Y-51903420D01*
X25847100Y-51903408D01*
X25940419Y-51703284D01*
X25940424Y-51703270D01*
X25997573Y-51489986D01*
X25997575Y-51489976D01*
X26016821Y-51270000D01*
X26016821Y-51269999D01*
X25997575Y-51050023D01*
X25997573Y-51050013D01*
X25940424Y-50836729D01*
X25940420Y-50836720D01*
X25847098Y-50636590D01*
X25801740Y-50571811D01*
X25134903Y-51238648D01*
X25134949Y-51238102D01*
X25103734Y-51114838D01*
X25034187Y-51008388D01*
X24933843Y-50930287D01*
X24813578Y-50889000D01*
X24777447Y-50889000D01*
X25448187Y-50218258D01*
X25383409Y-50172900D01*
X25383407Y-50172899D01*
X25254219Y-50112658D01*
X25201779Y-50066486D01*
X25182627Y-49999293D01*
X25202843Y-49932411D01*
X25254219Y-49887894D01*
X25288709Y-49871811D01*
X25383662Y-49827534D01*
X25564620Y-49700826D01*
X25720826Y-49544620D01*
X25847534Y-49363662D01*
X25940894Y-49163450D01*
X25998070Y-48950068D01*
X26017323Y-48730000D01*
X25998070Y-48509932D01*
X25940894Y-48296550D01*
X25847534Y-48096339D01*
X25763531Y-47976370D01*
X25720827Y-47915381D01*
X25645108Y-47839662D01*
X25564620Y-47759174D01*
X25564616Y-47759171D01*
X25564615Y-47759170D01*
X25383666Y-47632468D01*
X25383658Y-47632464D01*
X25254811Y-47572382D01*
X25202371Y-47526210D01*
X25183219Y-47459017D01*
X25203435Y-47392135D01*
X25254811Y-47347618D01*
X25273359Y-47338969D01*
X25383662Y-47287534D01*
X25564620Y-47160826D01*
X25720826Y-47004620D01*
X25721603Y-47003509D01*
X25728700Y-46993376D01*
X25783277Y-46949751D01*
X25830274Y-46940500D01*
X31130724Y-46940500D01*
X31197763Y-46960185D01*
X31214257Y-46972858D01*
X31263418Y-47017675D01*
X31299699Y-47077386D01*
X31297938Y-47147233D01*
X31267562Y-47196990D01*
X31249175Y-47215377D01*
X31122466Y-47396338D01*
X31122465Y-47396340D01*
X31029107Y-47596548D01*
X31029104Y-47596554D01*
X30971930Y-47809929D01*
X30971929Y-47809937D01*
X30952677Y-48029997D01*
X30952677Y-48030002D01*
X30971929Y-48250062D01*
X30971930Y-48250070D01*
X31029104Y-48463445D01*
X31029105Y-48463447D01*
X31029106Y-48463450D01*
X31122466Y-48663662D01*
X31122468Y-48663666D01*
X31249170Y-48844615D01*
X31249175Y-48844621D01*
X31405378Y-49000824D01*
X31405384Y-49000829D01*
X31586333Y-49127531D01*
X31586335Y-49127532D01*
X31586338Y-49127534D01*
X31663363Y-49163451D01*
X31715781Y-49187894D01*
X31768220Y-49234066D01*
X31787372Y-49301260D01*
X31767156Y-49368141D01*
X31715781Y-49412658D01*
X31586586Y-49472903D01*
X31521812Y-49518257D01*
X31521811Y-49518258D01*
X32192554Y-50189000D01*
X32188431Y-50189000D01*
X32094579Y-50204661D01*
X31982749Y-50265180D01*
X31896629Y-50358731D01*
X31845552Y-50475177D01*
X31839894Y-50543447D01*
X31168258Y-49871811D01*
X31168257Y-49871812D01*
X31122903Y-49936586D01*
X31029579Y-50136720D01*
X31029575Y-50136729D01*
X30972426Y-50350013D01*
X30972424Y-50350023D01*
X30953179Y-50569999D01*
X30953179Y-50570000D01*
X30972424Y-50789976D01*
X30972426Y-50789986D01*
X31029575Y-51003270D01*
X31029580Y-51003284D01*
X31122899Y-51203407D01*
X31122900Y-51203409D01*
X31168258Y-51268187D01*
X31835096Y-50601349D01*
X31835051Y-50601898D01*
X31866266Y-50725162D01*
X31935813Y-50831612D01*
X32036157Y-50909713D01*
X32156422Y-50951000D01*
X32192553Y-50951000D01*
X31521811Y-51621741D01*
X31586582Y-51667094D01*
X31586588Y-51667098D01*
X31715781Y-51727342D01*
X31768220Y-51773514D01*
X31787372Y-51840708D01*
X31767156Y-51907589D01*
X31715781Y-51952106D01*
X31586340Y-52012465D01*
X31586338Y-52012466D01*
X31405377Y-52139175D01*
X31249175Y-52295377D01*
X31122466Y-52476338D01*
X31122465Y-52476340D01*
X31029107Y-52676548D01*
X31029104Y-52676554D01*
X30971930Y-52889929D01*
X30971929Y-52889937D01*
X30952677Y-53109997D01*
X30952677Y-53110002D01*
X30971929Y-53330062D01*
X30971930Y-53330070D01*
X31029104Y-53543445D01*
X31029105Y-53543447D01*
X31029106Y-53543450D01*
X31054884Y-53598731D01*
X31122466Y-53743662D01*
X31122468Y-53743666D01*
X31249170Y-53924615D01*
X31249175Y-53924621D01*
X31405378Y-54080824D01*
X31405384Y-54080829D01*
X31586333Y-54207531D01*
X31586335Y-54207532D01*
X31586338Y-54207534D01*
X31672374Y-54247653D01*
X31715189Y-54267618D01*
X31767628Y-54313790D01*
X31786780Y-54380984D01*
X31766564Y-54447865D01*
X31715189Y-54492382D01*
X31586340Y-54552465D01*
X31586338Y-54552466D01*
X31405377Y-54679175D01*
X31249175Y-54835377D01*
X31122466Y-55016338D01*
X31122465Y-55016340D01*
X31029107Y-55216548D01*
X31029104Y-55216554D01*
X30971930Y-55429929D01*
X30971929Y-55429937D01*
X30952677Y-55649997D01*
X30952677Y-55650002D01*
X30965640Y-55798181D01*
X30951873Y-55866681D01*
X30903257Y-55916864D01*
X30835229Y-55932797D01*
X30819332Y-55930877D01*
X30651476Y-55899500D01*
X30447524Y-55899500D01*
X30247044Y-55936976D01*
X30247041Y-55936976D01*
X30247041Y-55936977D01*
X30056864Y-56010651D01*
X30056857Y-56010655D01*
X29883460Y-56118017D01*
X29883458Y-56118019D01*
X29732737Y-56255418D01*
X29609827Y-56418178D01*
X29518922Y-56600739D01*
X29518917Y-56600752D01*
X29463102Y-56796917D01*
X29444285Y-56999999D01*
X29444285Y-57000000D01*
X29463102Y-57203082D01*
X29518917Y-57399247D01*
X29518922Y-57399260D01*
X29609827Y-57581821D01*
X29732737Y-57744581D01*
X29883458Y-57881980D01*
X29883460Y-57881982D01*
X29943521Y-57919170D01*
X30056863Y-57989348D01*
X30247044Y-58063024D01*
X30447524Y-58100500D01*
X30537270Y-58100500D01*
X30604309Y-58120185D01*
X30624951Y-58136819D01*
X30975422Y-58487289D01*
X31007516Y-58542876D01*
X31029104Y-58623444D01*
X31029105Y-58623446D01*
X31029106Y-58623450D01*
X31056325Y-58681821D01*
X31122466Y-58823662D01*
X31122468Y-58823666D01*
X31249170Y-59004615D01*
X31249175Y-59004621D01*
X31405378Y-59160824D01*
X31405384Y-59160829D01*
X31586333Y-59287531D01*
X31586335Y-59287532D01*
X31586338Y-59287534D01*
X31663363Y-59323451D01*
X31715189Y-59347618D01*
X31767628Y-59393790D01*
X31786780Y-59460984D01*
X31766564Y-59527865D01*
X31715189Y-59572382D01*
X31586340Y-59632465D01*
X31586338Y-59632466D01*
X31405381Y-59759172D01*
X31353903Y-59810651D01*
X31249174Y-59915380D01*
X31249173Y-59915382D01*
X31245347Y-59919208D01*
X31243818Y-59917679D01*
X31193375Y-59951211D01*
X31123513Y-59952291D01*
X31073070Y-59924427D01*
X31066041Y-59918019D01*
X31066034Y-59918015D01*
X31066032Y-59918013D01*
X30892642Y-59810655D01*
X30892635Y-59810651D01*
X30759751Y-59759172D01*
X30702456Y-59736976D01*
X30501976Y-59699500D01*
X30298024Y-59699500D01*
X30097544Y-59736976D01*
X30097541Y-59736976D01*
X30097541Y-59736977D01*
X29907364Y-59810651D01*
X29907357Y-59810655D01*
X29733960Y-59918017D01*
X29733958Y-59918019D01*
X29583237Y-60055418D01*
X29460327Y-60218178D01*
X29369422Y-60400739D01*
X29369417Y-60400752D01*
X29313602Y-60596917D01*
X29294785Y-60799999D01*
X29294785Y-60800000D01*
X29313602Y-61003082D01*
X29369417Y-61199247D01*
X29369422Y-61199260D01*
X29460327Y-61381821D01*
X29583237Y-61544581D01*
X29698945Y-61650062D01*
X29727390Y-61675993D01*
X29733958Y-61681980D01*
X29733960Y-61681982D01*
X29812320Y-61730500D01*
X29907363Y-61789348D01*
X30097544Y-61863024D01*
X30298024Y-61900500D01*
X30298026Y-61900500D01*
X30501974Y-61900500D01*
X30501976Y-61900500D01*
X30702456Y-61863024D01*
X30892637Y-61789348D01*
X31066041Y-61681981D01*
X31146199Y-61608906D01*
X31209001Y-61578290D01*
X31278388Y-61586487D01*
X31317417Y-61612863D01*
X31405378Y-61700824D01*
X31405384Y-61700829D01*
X31586333Y-61827531D01*
X31586335Y-61827532D01*
X31586338Y-61827534D01*
X31663363Y-61863451D01*
X31715189Y-61887618D01*
X31767628Y-61933790D01*
X31786780Y-62000984D01*
X31766564Y-62067865D01*
X31715189Y-62112382D01*
X31586340Y-62172465D01*
X31586338Y-62172466D01*
X31405377Y-62299175D01*
X31249174Y-62455378D01*
X31246588Y-62459072D01*
X31192009Y-62502694D01*
X31122510Y-62509883D01*
X31061479Y-62479580D01*
X30961041Y-62388019D01*
X30961039Y-62388017D01*
X30787642Y-62280655D01*
X30787635Y-62280651D01*
X30626578Y-62218258D01*
X30597456Y-62206976D01*
X30396976Y-62169500D01*
X30193024Y-62169500D01*
X29992544Y-62206976D01*
X29992541Y-62206976D01*
X29992541Y-62206977D01*
X29802364Y-62280651D01*
X29802357Y-62280655D01*
X29628960Y-62388017D01*
X29628958Y-62388019D01*
X29478237Y-62525418D01*
X29355327Y-62688178D01*
X29264422Y-62870739D01*
X29264417Y-62870752D01*
X29208602Y-63066917D01*
X29189785Y-63269999D01*
X29189785Y-63270000D01*
X29208602Y-63473082D01*
X29264417Y-63669247D01*
X29264422Y-63669260D01*
X29355327Y-63851821D01*
X29478237Y-64014581D01*
X29628958Y-64151980D01*
X29628960Y-64151982D01*
X29628962Y-64151983D01*
X29802363Y-64259348D01*
X29992544Y-64333024D01*
X30193024Y-64370500D01*
X30193026Y-64370500D01*
X30396974Y-64370500D01*
X30396976Y-64370500D01*
X30597456Y-64333024D01*
X30787637Y-64259348D01*
X30961041Y-64151981D01*
X31061482Y-64060417D01*
X31124282Y-64029802D01*
X31193669Y-64037999D01*
X31246592Y-64080933D01*
X31249172Y-64084618D01*
X31249173Y-64084619D01*
X31249174Y-64084620D01*
X31405380Y-64240826D01*
X31405383Y-64240828D01*
X31405384Y-64240829D01*
X31586333Y-64367531D01*
X31586335Y-64367532D01*
X31586338Y-64367534D01*
X31663363Y-64403451D01*
X31715189Y-64427618D01*
X31767628Y-64473790D01*
X31786780Y-64540984D01*
X31766564Y-64607865D01*
X31715189Y-64652382D01*
X31586340Y-64712465D01*
X31586338Y-64712466D01*
X31405377Y-64839175D01*
X31249173Y-64995379D01*
X31241300Y-65006624D01*
X31186723Y-65050249D01*
X31139726Y-65059500D01*
X31093307Y-65059500D01*
X31026268Y-65039815D01*
X31009769Y-65027137D01*
X30901041Y-64928019D01*
X30901039Y-64928017D01*
X30727642Y-64820655D01*
X30727635Y-64820651D01*
X30566578Y-64758258D01*
X30537456Y-64746976D01*
X30336976Y-64709500D01*
X30133024Y-64709500D01*
X29932544Y-64746976D01*
X29932541Y-64746976D01*
X29932541Y-64746977D01*
X29742364Y-64820651D01*
X29742357Y-64820655D01*
X29568960Y-64928017D01*
X29568958Y-64928019D01*
X29418237Y-65065418D01*
X29295327Y-65228178D01*
X29204422Y-65410739D01*
X29204417Y-65410752D01*
X29148602Y-65606917D01*
X29129785Y-65809999D01*
X29129785Y-65810000D01*
X29148602Y-66013082D01*
X29204417Y-66209247D01*
X29204422Y-66209260D01*
X29295327Y-66391821D01*
X29418237Y-66554581D01*
X29568958Y-66691980D01*
X29568960Y-66691982D01*
X29630462Y-66730062D01*
X29742363Y-66799348D01*
X29932544Y-66873024D01*
X30133024Y-66910500D01*
X30133026Y-66910500D01*
X30336974Y-66910500D01*
X30336976Y-66910500D01*
X30537456Y-66873024D01*
X30727637Y-66799348D01*
X30901041Y-66691981D01*
X30987267Y-66613376D01*
X31009769Y-66592863D01*
X31072573Y-66562246D01*
X31093307Y-66560500D01*
X31139726Y-66560500D01*
X31206765Y-66580185D01*
X31241300Y-66613376D01*
X31249171Y-66624617D01*
X31249173Y-66624619D01*
X31249174Y-66624620D01*
X31405380Y-66780826D01*
X31405383Y-66780828D01*
X31405384Y-66780829D01*
X31586333Y-66907531D01*
X31586335Y-66907532D01*
X31586338Y-66907534D01*
X31663363Y-66943451D01*
X31715781Y-66967894D01*
X31768220Y-67014066D01*
X31787372Y-67081260D01*
X31767156Y-67148141D01*
X31715781Y-67192658D01*
X31586586Y-67252903D01*
X31521812Y-67298257D01*
X31521811Y-67298258D01*
X32192554Y-67969000D01*
X32188431Y-67969000D01*
X32094579Y-67984661D01*
X31982749Y-68045180D01*
X31896629Y-68138731D01*
X31845552Y-68255177D01*
X31839894Y-68323447D01*
X31168258Y-67651811D01*
X31168257Y-67651812D01*
X31122903Y-67716586D01*
X31029579Y-67916720D01*
X31029575Y-67916729D01*
X30972426Y-68130013D01*
X30972424Y-68130023D01*
X30953179Y-68349999D01*
X30953179Y-68350000D01*
X30972424Y-68569976D01*
X30972426Y-68569986D01*
X31029575Y-68783270D01*
X31029580Y-68783284D01*
X31122899Y-68983407D01*
X31122900Y-68983409D01*
X31168258Y-69048187D01*
X31835096Y-68381349D01*
X31835051Y-68381898D01*
X31866266Y-68505162D01*
X31935813Y-68611612D01*
X32036157Y-68689713D01*
X32156422Y-68731000D01*
X32192553Y-68731000D01*
X31521811Y-69401741D01*
X31586582Y-69447094D01*
X31586588Y-69447098D01*
X31715781Y-69507342D01*
X31768220Y-69553514D01*
X31787372Y-69620708D01*
X31767156Y-69687589D01*
X31715781Y-69732106D01*
X31586340Y-69792465D01*
X31586338Y-69792466D01*
X31405377Y-69919175D01*
X31249173Y-70075379D01*
X31241300Y-70086624D01*
X31186723Y-70130249D01*
X31139726Y-70139500D01*
X30948307Y-70139500D01*
X30881268Y-70119815D01*
X30864769Y-70107137D01*
X30756041Y-70008019D01*
X30756039Y-70008017D01*
X30582642Y-69900655D01*
X30582635Y-69900651D01*
X30421578Y-69838258D01*
X30392456Y-69826976D01*
X30191976Y-69789500D01*
X29988024Y-69789500D01*
X29787544Y-69826976D01*
X29787541Y-69826976D01*
X29787541Y-69826977D01*
X29597364Y-69900651D01*
X29597357Y-69900655D01*
X29423960Y-70008017D01*
X29423958Y-70008019D01*
X29273237Y-70145418D01*
X29150327Y-70308178D01*
X29059422Y-70490739D01*
X29059417Y-70490752D01*
X29003602Y-70686917D01*
X28984785Y-70889999D01*
X28984785Y-70890000D01*
X29003602Y-71093082D01*
X29059417Y-71289247D01*
X29059422Y-71289260D01*
X29150327Y-71471821D01*
X29273237Y-71634581D01*
X29423958Y-71771980D01*
X29423960Y-71771982D01*
X29440111Y-71781982D01*
X29597363Y-71879348D01*
X29787544Y-71953024D01*
X29988024Y-71990500D01*
X29988026Y-71990500D01*
X30191974Y-71990500D01*
X30191976Y-71990500D01*
X30392456Y-71953024D01*
X30582637Y-71879348D01*
X30756041Y-71771981D01*
X30834022Y-71700892D01*
X30864769Y-71672863D01*
X30927573Y-71642246D01*
X30948307Y-71640500D01*
X31139726Y-71640500D01*
X31206765Y-71660185D01*
X31241300Y-71693376D01*
X31249171Y-71704617D01*
X31249173Y-71704619D01*
X31249174Y-71704620D01*
X31405380Y-71860826D01*
X31405383Y-71860828D01*
X31405384Y-71860829D01*
X31586333Y-71987531D01*
X31586335Y-71987532D01*
X31586338Y-71987534D01*
X31663363Y-72023451D01*
X31715189Y-72047618D01*
X31767628Y-72093790D01*
X31786780Y-72160984D01*
X31766564Y-72227865D01*
X31715189Y-72272382D01*
X31586340Y-72332465D01*
X31586338Y-72332466D01*
X31405377Y-72459175D01*
X31249175Y-72615377D01*
X31122466Y-72796338D01*
X31122465Y-72796340D01*
X31029107Y-72996548D01*
X31029104Y-72996554D01*
X30971930Y-73209929D01*
X30971929Y-73209937D01*
X30952677Y-73429997D01*
X30952677Y-73430002D01*
X30971929Y-73650062D01*
X30971930Y-73650070D01*
X31029104Y-73863445D01*
X31029105Y-73863447D01*
X31029106Y-73863450D01*
X31122347Y-74063407D01*
X31122466Y-74063662D01*
X31122468Y-74063666D01*
X31249170Y-74244615D01*
X31249175Y-74244621D01*
X31405378Y-74400824D01*
X31405384Y-74400829D01*
X31586333Y-74527531D01*
X31586335Y-74527532D01*
X31586338Y-74527534D01*
X31663363Y-74563451D01*
X31715189Y-74587618D01*
X31767628Y-74633790D01*
X31786780Y-74700984D01*
X31766564Y-74767865D01*
X31715189Y-74812382D01*
X31586340Y-74872465D01*
X31586338Y-74872466D01*
X31405377Y-74999175D01*
X31249175Y-75155377D01*
X31122466Y-75336338D01*
X31122465Y-75336340D01*
X31029107Y-75536548D01*
X31029104Y-75536554D01*
X30971930Y-75749929D01*
X30971929Y-75749937D01*
X30952677Y-75969997D01*
X30952677Y-75970002D01*
X30971929Y-76190062D01*
X30971930Y-76190070D01*
X31029104Y-76403445D01*
X31029105Y-76403447D01*
X31029106Y-76403450D01*
X31122347Y-76603407D01*
X31122466Y-76603662D01*
X31122468Y-76603666D01*
X31249170Y-76784615D01*
X31249175Y-76784621D01*
X31405378Y-76940824D01*
X31405384Y-76940829D01*
X31586333Y-77067531D01*
X31586335Y-77067532D01*
X31586338Y-77067534D01*
X31786550Y-77160894D01*
X31999932Y-77218070D01*
X32157123Y-77231822D01*
X32219998Y-77237323D01*
X32220000Y-77237323D01*
X32220002Y-77237323D01*
X32275017Y-77232509D01*
X32440068Y-77218070D01*
X32653450Y-77160894D01*
X32853662Y-77067534D01*
X33034620Y-76940826D01*
X33190826Y-76784620D01*
X33317534Y-76603662D01*
X33410894Y-76403450D01*
X33468070Y-76190068D01*
X33487323Y-75970000D01*
X33484532Y-75938102D01*
X33473748Y-75814838D01*
X33468070Y-75749932D01*
X33410894Y-75536550D01*
X33317534Y-75336339D01*
X33190826Y-75155380D01*
X33034620Y-74999174D01*
X33034616Y-74999171D01*
X33034615Y-74999170D01*
X32853666Y-74872468D01*
X32853658Y-74872464D01*
X32724811Y-74812382D01*
X32672371Y-74766210D01*
X32653219Y-74699017D01*
X32673435Y-74632135D01*
X32724811Y-74587618D01*
X32776637Y-74563451D01*
X32853662Y-74527534D01*
X33034620Y-74400826D01*
X33190826Y-74244620D01*
X33317534Y-74063662D01*
X33410894Y-73863450D01*
X33468070Y-73650068D01*
X33487323Y-73430000D01*
X33484532Y-73398102D01*
X33473748Y-73274838D01*
X33468070Y-73209932D01*
X33410894Y-72996550D01*
X33317534Y-72796339D01*
X33190826Y-72615380D01*
X33034620Y-72459174D01*
X33034616Y-72459171D01*
X33034615Y-72459170D01*
X32853666Y-72332468D01*
X32853658Y-72332464D01*
X32724811Y-72272382D01*
X32672371Y-72226210D01*
X32653219Y-72159017D01*
X32673435Y-72092135D01*
X32724811Y-72047618D01*
X32776637Y-72023451D01*
X32853662Y-71987534D01*
X33034620Y-71860826D01*
X33190826Y-71704620D01*
X33191195Y-71704092D01*
X33191699Y-71703374D01*
X33192226Y-71702952D01*
X33194305Y-71700475D01*
X33194803Y-71700892D01*
X33246277Y-71659750D01*
X33293272Y-71650500D01*
X35341693Y-71650500D01*
X35408732Y-71670185D01*
X35425231Y-71682863D01*
X35533958Y-71781980D01*
X35533960Y-71781982D01*
X35579311Y-71810062D01*
X35707363Y-71889348D01*
X35897544Y-71963024D01*
X36098024Y-72000500D01*
X36098026Y-72000500D01*
X36301974Y-72000500D01*
X36301976Y-72000500D01*
X36502456Y-71963024D01*
X36692637Y-71889348D01*
X36866041Y-71781981D01*
X37016764Y-71644579D01*
X37139673Y-71481821D01*
X37230582Y-71299250D01*
X37286397Y-71103083D01*
X37305215Y-70900000D01*
X37286397Y-70696917D01*
X37230582Y-70500750D01*
X37226458Y-70492468D01*
X37173548Y-70386210D01*
X37139673Y-70318179D01*
X37044245Y-70191812D01*
X37016762Y-70155418D01*
X36866041Y-70018019D01*
X36866039Y-70018017D01*
X36692642Y-69910655D01*
X36692635Y-69910651D01*
X36505765Y-69838258D01*
X36502456Y-69836976D01*
X36301976Y-69799500D01*
X36098024Y-69799500D01*
X35897544Y-69836976D01*
X35897541Y-69836976D01*
X35897541Y-69836977D01*
X35707364Y-69910651D01*
X35707357Y-69910655D01*
X35533960Y-70018017D01*
X35533958Y-70018019D01*
X35425231Y-70117137D01*
X35362427Y-70147754D01*
X35341693Y-70149500D01*
X33307276Y-70149500D01*
X33240237Y-70129815D01*
X33205701Y-70096624D01*
X33190825Y-70075379D01*
X33123463Y-70008017D01*
X33034620Y-69919174D01*
X33034616Y-69919171D01*
X33034615Y-69919170D01*
X32853666Y-69792468D01*
X32853658Y-69792464D01*
X32724219Y-69732106D01*
X32671779Y-69685934D01*
X32652627Y-69618741D01*
X32672843Y-69551859D01*
X32724219Y-69507342D01*
X32853408Y-69447100D01*
X32853420Y-69447093D01*
X32918186Y-69401742D01*
X32918187Y-69401740D01*
X32247448Y-68731000D01*
X32251569Y-68731000D01*
X32345421Y-68715339D01*
X32457251Y-68654820D01*
X32543371Y-68561269D01*
X32594448Y-68444823D01*
X32600105Y-68376552D01*
X33271740Y-69048187D01*
X33271742Y-69048186D01*
X33317093Y-68983420D01*
X33317100Y-68983408D01*
X33410419Y-68783284D01*
X33410424Y-68783270D01*
X33467573Y-68569986D01*
X33467575Y-68569976D01*
X33486821Y-68350000D01*
X33486821Y-68349999D01*
X33467575Y-68130023D01*
X33467573Y-68130013D01*
X33410424Y-67916729D01*
X33410420Y-67916720D01*
X33317098Y-67716590D01*
X33271740Y-67651811D01*
X32604903Y-68318648D01*
X32604949Y-68318102D01*
X32573734Y-68194838D01*
X32504187Y-68088388D01*
X32403843Y-68010287D01*
X32283578Y-67969000D01*
X32247447Y-67969000D01*
X32918187Y-67298258D01*
X32853409Y-67252900D01*
X32853407Y-67252899D01*
X32724219Y-67192658D01*
X32671779Y-67146486D01*
X32652627Y-67079293D01*
X32672843Y-67012411D01*
X32724219Y-66967894D01*
X32776637Y-66943451D01*
X32853662Y-66907534D01*
X33034620Y-66780826D01*
X33190826Y-66624620D01*
X33205701Y-66603375D01*
X33260278Y-66559752D01*
X33307276Y-66550500D01*
X33741693Y-66550500D01*
X33808732Y-66570185D01*
X33825231Y-66582863D01*
X33933958Y-66681980D01*
X33933960Y-66681982D01*
X34033141Y-66743392D01*
X34107363Y-66789348D01*
X34297544Y-66863024D01*
X34498024Y-66900500D01*
X34498026Y-66900500D01*
X34701974Y-66900500D01*
X34701976Y-66900500D01*
X34902456Y-66863024D01*
X35092637Y-66789348D01*
X35266041Y-66681981D01*
X35397384Y-66562246D01*
X35416762Y-66544581D01*
X35442875Y-66510002D01*
X35539673Y-66381821D01*
X35630582Y-66199250D01*
X35686397Y-66003083D01*
X35705215Y-65800000D01*
X35695520Y-65695377D01*
X35686397Y-65596917D01*
X35669968Y-65539175D01*
X35630582Y-65400750D01*
X35539673Y-65218179D01*
X35471285Y-65127618D01*
X35416762Y-65055418D01*
X35266041Y-64918019D01*
X35266039Y-64918017D01*
X35092642Y-64810655D01*
X35092635Y-64810651D01*
X34997546Y-64773814D01*
X34902456Y-64736976D01*
X34701976Y-64699500D01*
X34498024Y-64699500D01*
X34297544Y-64736976D01*
X34297541Y-64736976D01*
X34297541Y-64736977D01*
X34107364Y-64810651D01*
X34107357Y-64810655D01*
X33933960Y-64918017D01*
X33933958Y-64918019D01*
X33825231Y-65017137D01*
X33762427Y-65047754D01*
X33741693Y-65049500D01*
X33293272Y-65049500D01*
X33226233Y-65029815D01*
X33194524Y-64999341D01*
X33194305Y-64999525D01*
X33192595Y-64997487D01*
X33191699Y-64996626D01*
X33190827Y-64995381D01*
X33113463Y-64918017D01*
X33034620Y-64839174D01*
X33034616Y-64839171D01*
X33034615Y-64839170D01*
X32853666Y-64712468D01*
X32853658Y-64712464D01*
X32724811Y-64652382D01*
X32672371Y-64606210D01*
X32653219Y-64539017D01*
X32673435Y-64472135D01*
X32724811Y-64427618D01*
X32776637Y-64403451D01*
X32853662Y-64367534D01*
X33034620Y-64240826D01*
X33190826Y-64084620D01*
X33247714Y-64003374D01*
X33302291Y-63959751D01*
X33349288Y-63950500D01*
X33541693Y-63950500D01*
X33608732Y-63970185D01*
X33625231Y-63982863D01*
X33733958Y-64081980D01*
X33733960Y-64081982D01*
X33833141Y-64143392D01*
X33907363Y-64189348D01*
X34097544Y-64263024D01*
X34298024Y-64300500D01*
X34298026Y-64300500D01*
X34501974Y-64300500D01*
X34501976Y-64300500D01*
X34702456Y-64263024D01*
X34892637Y-64189348D01*
X35066041Y-64081981D01*
X35216764Y-63944579D01*
X35339673Y-63781821D01*
X35430582Y-63599250D01*
X35486397Y-63403083D01*
X35505215Y-63200000D01*
X35501080Y-63155380D01*
X35486397Y-62996917D01*
X35463501Y-62916446D01*
X35430582Y-62800750D01*
X35414207Y-62767865D01*
X35369495Y-62678070D01*
X35339673Y-62618179D01*
X35271219Y-62527531D01*
X35216762Y-62455418D01*
X35066041Y-62318019D01*
X35066039Y-62318017D01*
X34892642Y-62210655D01*
X34892635Y-62210651D01*
X34786411Y-62169500D01*
X34702456Y-62136976D01*
X34501976Y-62099500D01*
X34298024Y-62099500D01*
X34097544Y-62136976D01*
X34097541Y-62136976D01*
X34097541Y-62136977D01*
X33907364Y-62210651D01*
X33907357Y-62210655D01*
X33733960Y-62318017D01*
X33733958Y-62318019D01*
X33625231Y-62417137D01*
X33562427Y-62447754D01*
X33541693Y-62449500D01*
X33236308Y-62449500D01*
X33169269Y-62429815D01*
X33148627Y-62413181D01*
X33034621Y-62299175D01*
X33034615Y-62299170D01*
X32853666Y-62172468D01*
X32853658Y-62172464D01*
X32724811Y-62112382D01*
X32672371Y-62066210D01*
X32653219Y-61999017D01*
X32673435Y-61932135D01*
X32724811Y-61887618D01*
X32776637Y-61863451D01*
X32853662Y-61827534D01*
X33034620Y-61700826D01*
X33190826Y-61544620D01*
X33191603Y-61543509D01*
X33198700Y-61533376D01*
X33253277Y-61489751D01*
X33300274Y-61480500D01*
X33871693Y-61480500D01*
X33938732Y-61500185D01*
X33955231Y-61512863D01*
X34063958Y-61611980D01*
X34063960Y-61611982D01*
X34101961Y-61635511D01*
X34237363Y-61719348D01*
X34427544Y-61793024D01*
X34628024Y-61830500D01*
X34628026Y-61830500D01*
X34831974Y-61830500D01*
X34831976Y-61830500D01*
X35032456Y-61793024D01*
X35222637Y-61719348D01*
X35396041Y-61611981D01*
X35546764Y-61474579D01*
X35669673Y-61311821D01*
X35760582Y-61129250D01*
X35816397Y-60933083D01*
X35835215Y-60730000D01*
X35816397Y-60526917D01*
X35760582Y-60330750D01*
X35731518Y-60272382D01*
X35676049Y-60160984D01*
X35669673Y-60148179D01*
X35610704Y-60070091D01*
X35546762Y-59985418D01*
X35396041Y-59848019D01*
X35396039Y-59848017D01*
X35222642Y-59740655D01*
X35222635Y-59740651D01*
X35100099Y-59693181D01*
X35032456Y-59666976D01*
X34831976Y-59629500D01*
X34628024Y-59629500D01*
X34427544Y-59666976D01*
X34427541Y-59666976D01*
X34427541Y-59666977D01*
X34237364Y-59740651D01*
X34237357Y-59740655D01*
X34063960Y-59848017D01*
X34063958Y-59848019D01*
X33955231Y-59947137D01*
X33892427Y-59977754D01*
X33871693Y-59979500D01*
X33300274Y-59979500D01*
X33233235Y-59959815D01*
X33198700Y-59926624D01*
X33190828Y-59915382D01*
X33123463Y-59848017D01*
X33034620Y-59759174D01*
X33034616Y-59759171D01*
X33034615Y-59759170D01*
X32853666Y-59632468D01*
X32853658Y-59632464D01*
X32724811Y-59572382D01*
X32672371Y-59526210D01*
X32653219Y-59459017D01*
X32673435Y-59392135D01*
X32724811Y-59347618D01*
X32776637Y-59323451D01*
X32853662Y-59287534D01*
X33034620Y-59160826D01*
X33190826Y-59004620D01*
X33261717Y-58903376D01*
X33316294Y-58859752D01*
X33363292Y-58850500D01*
X33641693Y-58850500D01*
X33708732Y-58870185D01*
X33725231Y-58882863D01*
X33833958Y-58981980D01*
X33833960Y-58981982D01*
X33846012Y-58989444D01*
X34007363Y-59089348D01*
X34197544Y-59163024D01*
X34398024Y-59200500D01*
X34398026Y-59200500D01*
X34601974Y-59200500D01*
X34601976Y-59200500D01*
X34802456Y-59163024D01*
X34992637Y-59089348D01*
X35166041Y-58981981D01*
X35316764Y-58844579D01*
X35439673Y-58681821D01*
X35530582Y-58499250D01*
X35586397Y-58303083D01*
X35605215Y-58100000D01*
X35586397Y-57896917D01*
X35530582Y-57700750D01*
X35529763Y-57699106D01*
X35450984Y-57540895D01*
X35439673Y-57518179D01*
X35331837Y-57375381D01*
X35316762Y-57355418D01*
X35166041Y-57218019D01*
X35166039Y-57218017D01*
X34992642Y-57110655D01*
X34992635Y-57110651D01*
X34810592Y-57040128D01*
X34802456Y-57036976D01*
X34601976Y-56999500D01*
X34398024Y-56999500D01*
X34197544Y-57036976D01*
X34197541Y-57036976D01*
X34197541Y-57036977D01*
X34007364Y-57110651D01*
X34007357Y-57110655D01*
X33833960Y-57218017D01*
X33833958Y-57218019D01*
X33725231Y-57317137D01*
X33662427Y-57347754D01*
X33641693Y-57349500D01*
X33216308Y-57349500D01*
X33149269Y-57329815D01*
X33128627Y-57313181D01*
X33034621Y-57219175D01*
X33034615Y-57219170D01*
X32853666Y-57092468D01*
X32853658Y-57092464D01*
X32724811Y-57032382D01*
X32672371Y-56986210D01*
X32653219Y-56919017D01*
X32673435Y-56852135D01*
X32724811Y-56807618D01*
X32776637Y-56783451D01*
X32853662Y-56747534D01*
X33034620Y-56620826D01*
X33190826Y-56464620D01*
X33206013Y-56442930D01*
X33260587Y-56399306D01*
X33296783Y-56390524D01*
X33302797Y-56389999D01*
X33302801Y-56389997D01*
X33309866Y-56388539D01*
X33309878Y-56388598D01*
X33317243Y-56386965D01*
X33317229Y-56386906D01*
X33324246Y-56385241D01*
X33324255Y-56385241D01*
X33396423Y-56358974D01*
X33469334Y-56334814D01*
X33469343Y-56334807D01*
X33475882Y-56331760D01*
X33475908Y-56331816D01*
X33482690Y-56328532D01*
X33482663Y-56328478D01*
X33489106Y-56325240D01*
X33489117Y-56325237D01*
X33553283Y-56283034D01*
X33618656Y-56242712D01*
X33618662Y-56242705D01*
X33624325Y-56238229D01*
X33624363Y-56238277D01*
X33630195Y-56233526D01*
X33630156Y-56233479D01*
X33635694Y-56228831D01*
X33635693Y-56228831D01*
X33635696Y-56228830D01*
X33688386Y-56172980D01*
X34124549Y-55736819D01*
X34185872Y-55703334D01*
X34212230Y-55700500D01*
X34301974Y-55700500D01*
X34301976Y-55700500D01*
X34502456Y-55663024D01*
X34692637Y-55589348D01*
X34866041Y-55481981D01*
X35016764Y-55344579D01*
X35139673Y-55181821D01*
X35230582Y-54999250D01*
X35286397Y-54803083D01*
X35305215Y-54600000D01*
X35296707Y-54508187D01*
X35286397Y-54396917D01*
X35262274Y-54312135D01*
X35230582Y-54200750D01*
X35225727Y-54191000D01*
X35181657Y-54102494D01*
X35139673Y-54018179D01*
X35031342Y-53874726D01*
X35006651Y-53809366D01*
X35021216Y-53741031D01*
X35031343Y-53725273D01*
X35084533Y-53654838D01*
X35139673Y-53581821D01*
X35230582Y-53399250D01*
X35286397Y-53203083D01*
X35305215Y-53000000D01*
X35286397Y-52796917D01*
X35230582Y-52600750D01*
X35139673Y-52418179D01*
X35066847Y-52321742D01*
X35016762Y-52255418D01*
X34866041Y-52118019D01*
X34866039Y-52118017D01*
X34692642Y-52010655D01*
X34692635Y-52010651D01*
X34541511Y-51952106D01*
X34502456Y-51936976D01*
X34301976Y-51899500D01*
X34098024Y-51899500D01*
X33897544Y-51936976D01*
X33897541Y-51936976D01*
X33897541Y-51936977D01*
X33707364Y-52010651D01*
X33707357Y-52010655D01*
X33533960Y-52118017D01*
X33533958Y-52118019D01*
X33383236Y-52255419D01*
X33369129Y-52274100D01*
X33313019Y-52315733D01*
X33243307Y-52320422D01*
X33182497Y-52287051D01*
X33150864Y-52255418D01*
X33034620Y-52139174D01*
X33034616Y-52139171D01*
X33034615Y-52139170D01*
X32853666Y-52012468D01*
X32853658Y-52012464D01*
X32724219Y-51952106D01*
X32671779Y-51905934D01*
X32652627Y-51838741D01*
X32672843Y-51771859D01*
X32724219Y-51727342D01*
X32853408Y-51667100D01*
X32853420Y-51667093D01*
X32918186Y-51621742D01*
X32918187Y-51621740D01*
X32247448Y-50951000D01*
X32251569Y-50951000D01*
X32345421Y-50935339D01*
X32457251Y-50874820D01*
X32543371Y-50781269D01*
X32594448Y-50664823D01*
X32600105Y-50596552D01*
X33271740Y-51268187D01*
X33271742Y-51268186D01*
X33317093Y-51203420D01*
X33317100Y-51203408D01*
X33410419Y-51003284D01*
X33410424Y-51003270D01*
X33467573Y-50789986D01*
X33467575Y-50789976D01*
X33486821Y-50570000D01*
X33486821Y-50569999D01*
X33467575Y-50350023D01*
X33467573Y-50350013D01*
X33410424Y-50136729D01*
X33410420Y-50136720D01*
X33317098Y-49936590D01*
X33271740Y-49871811D01*
X32604903Y-50538648D01*
X32604949Y-50538102D01*
X32573734Y-50414838D01*
X32504187Y-50308388D01*
X32403843Y-50230287D01*
X32283578Y-50189000D01*
X32247447Y-50189000D01*
X32918187Y-49518258D01*
X32853409Y-49472900D01*
X32853407Y-49472899D01*
X32724219Y-49412658D01*
X32671779Y-49366486D01*
X32652627Y-49299293D01*
X32672843Y-49232411D01*
X32724219Y-49187894D01*
X32776637Y-49163451D01*
X32853662Y-49127534D01*
X33034620Y-49000826D01*
X33190826Y-48844620D01*
X33317534Y-48663662D01*
X33410894Y-48463450D01*
X33468070Y-48250068D01*
X33486530Y-48039067D01*
X33487323Y-48030002D01*
X33487323Y-48029997D01*
X33469533Y-47826656D01*
X33468070Y-47809932D01*
X33410894Y-47596550D01*
X33317534Y-47396339D01*
X33216697Y-47252328D01*
X33190827Y-47215381D01*
X33115472Y-47140026D01*
X33034620Y-47059174D01*
X33034616Y-47059171D01*
X33034610Y-47059166D01*
X33023375Y-47051299D01*
X32979751Y-46996722D01*
X32970500Y-46949726D01*
X32970500Y-46749075D01*
X32983500Y-46693803D01*
X33030581Y-46599253D01*
X33030903Y-46598123D01*
X33086397Y-46403083D01*
X33105215Y-46200000D01*
X33096733Y-46108468D01*
X33086397Y-45996917D01*
X33068303Y-45933323D01*
X33030582Y-45800750D01*
X33029840Y-45799260D01*
X32986272Y-45711764D01*
X32939673Y-45618179D01*
X32835794Y-45480621D01*
X32816762Y-45455418D01*
X32666041Y-45318019D01*
X32666039Y-45318017D01*
X32492642Y-45210655D01*
X32492635Y-45210651D01*
X32397546Y-45173814D01*
X32302456Y-45136976D01*
X32101976Y-45099500D01*
X31898024Y-45099500D01*
X31697544Y-45136976D01*
X31697541Y-45136976D01*
X31697541Y-45136977D01*
X31507364Y-45210651D01*
X31507357Y-45210655D01*
X31333960Y-45318017D01*
X31333958Y-45318019D01*
X31236201Y-45407137D01*
X31173397Y-45437754D01*
X31152663Y-45439500D01*
X25830274Y-45439500D01*
X25763235Y-45419815D01*
X25728700Y-45386624D01*
X25720828Y-45375382D01*
X25645108Y-45299662D01*
X25564620Y-45219174D01*
X25564616Y-45219171D01*
X25564615Y-45219170D01*
X25383666Y-45092468D01*
X25383658Y-45092464D01*
X25254811Y-45032382D01*
X25202371Y-44986210D01*
X25183219Y-44919017D01*
X25203435Y-44852135D01*
X25254811Y-44807618D01*
X25260802Y-44804824D01*
X25383662Y-44747534D01*
X25564620Y-44620826D01*
X25720826Y-44464620D01*
X25847534Y-44283662D01*
X25940894Y-44083450D01*
X25998070Y-43870068D01*
X26017323Y-43650000D01*
X25998070Y-43429932D01*
X25940894Y-43216550D01*
X25847534Y-43016339D01*
X25720826Y-42835380D01*
X25564620Y-42679174D01*
X25564616Y-42679171D01*
X25564615Y-42679170D01*
X25383666Y-42552468D01*
X25383658Y-42552464D01*
X25254811Y-42492382D01*
X25202371Y-42446210D01*
X25183219Y-42379017D01*
X25203435Y-42312135D01*
X25254811Y-42267618D01*
X25260802Y-42264824D01*
X25383662Y-42207534D01*
X25564620Y-42080826D01*
X25720826Y-41924620D01*
X25847534Y-41743662D01*
X25940894Y-41543450D01*
X25998070Y-41330068D01*
X26017323Y-41110000D01*
X25998070Y-40889932D01*
X25940894Y-40676550D01*
X25847534Y-40476339D01*
X25720826Y-40295380D01*
X25564620Y-40139174D01*
X25564616Y-40139171D01*
X25564615Y-40139170D01*
X25383666Y-40012468D01*
X25383658Y-40012464D01*
X25254811Y-39952382D01*
X25202371Y-39906210D01*
X25183219Y-39839017D01*
X25203435Y-39772135D01*
X25254811Y-39727618D01*
X25260802Y-39724824D01*
X25383662Y-39667534D01*
X25564620Y-39540826D01*
X25720826Y-39384620D01*
X25847534Y-39203662D01*
X25940894Y-39003450D01*
X25998070Y-38790068D01*
X26017323Y-38570000D01*
X25998070Y-38349932D01*
X25940894Y-38136550D01*
X25847534Y-37936339D01*
X25794033Y-37859931D01*
X25771706Y-37793725D01*
X25788718Y-37725958D01*
X25839666Y-37678146D01*
X25908376Y-37665468D01*
X25918354Y-37666914D01*
X26098024Y-37700500D01*
X26098027Y-37700500D01*
X26301974Y-37700500D01*
X26301976Y-37700500D01*
X26502456Y-37663024D01*
X26692637Y-37589348D01*
X26866041Y-37481981D01*
X27000122Y-37359750D01*
X27016762Y-37344581D01*
X27025671Y-37332784D01*
X27139673Y-37181821D01*
X27230582Y-36999250D01*
X27286397Y-36803083D01*
X27305215Y-36600000D01*
X27304164Y-36588663D01*
X27286397Y-36396917D01*
X27277309Y-36364977D01*
X27230582Y-36200750D01*
X27139673Y-36018179D01*
X27046342Y-35894588D01*
X27016762Y-35855418D01*
X26866041Y-35718019D01*
X26866039Y-35718017D01*
X26692642Y-35610655D01*
X26692635Y-35610651D01*
X26563765Y-35560727D01*
X26502456Y-35536976D01*
X26301976Y-35499500D01*
X26301975Y-35499500D01*
X26301964Y-35499498D01*
X26298629Y-35499189D01*
X26297133Y-35498595D01*
X26296341Y-35498447D01*
X26296370Y-35498291D01*
X26233693Y-35473400D01*
X26193009Y-35416597D01*
X26189493Y-35346816D01*
X26199073Y-35320456D01*
X26215495Y-35287474D01*
X26262998Y-35236241D01*
X26326494Y-35218750D01*
X28024421Y-35218750D01*
X28091460Y-35238435D01*
X28137215Y-35291239D01*
X28143687Y-35308815D01*
X28169417Y-35399247D01*
X28169422Y-35399260D01*
X28260327Y-35581821D01*
X28383237Y-35744581D01*
X28533958Y-35881980D01*
X28533960Y-35881982D01*
X28575487Y-35907694D01*
X28707363Y-35989348D01*
X28897544Y-36063024D01*
X29098024Y-36100500D01*
X29098026Y-36100500D01*
X29301974Y-36100500D01*
X29301976Y-36100500D01*
X29502456Y-36063024D01*
X29692637Y-35989348D01*
X29866041Y-35881981D01*
X30006353Y-35754070D01*
X30016762Y-35744581D01*
X30016764Y-35744579D01*
X30139673Y-35581821D01*
X30230582Y-35399250D01*
X30286397Y-35203083D01*
X30305215Y-35000000D01*
X30286397Y-34796917D01*
X30230582Y-34600750D01*
X30225322Y-34590187D01*
X30178668Y-34496492D01*
X30139673Y-34418179D01*
X30039803Y-34285929D01*
X30016762Y-34255418D01*
X29866041Y-34118019D01*
X29866039Y-34118017D01*
X29692642Y-34010655D01*
X29692635Y-34010651D01*
X29570631Y-33963387D01*
X29502456Y-33936976D01*
X29301976Y-33899500D01*
X29301974Y-33899500D01*
X29203143Y-33899500D01*
X29136104Y-33879815D01*
X29123438Y-33870490D01*
X29083463Y-33836947D01*
X29077430Y-33832979D01*
X29077462Y-33832930D01*
X29071103Y-33828878D01*
X29071072Y-33828929D01*
X29064930Y-33825141D01*
X29064928Y-33825140D01*
X29064927Y-33825139D01*
X29025724Y-33806858D01*
X28995308Y-33792674D01*
X28961144Y-33775517D01*
X28926683Y-33758210D01*
X28926681Y-33758209D01*
X28926680Y-33758209D01*
X28919895Y-33755739D01*
X28919915Y-33755683D01*
X28912799Y-33753209D01*
X28912781Y-33753265D01*
X28905921Y-33750992D01*
X28878091Y-33745246D01*
X28830684Y-33735457D01*
X28781722Y-33723853D01*
X28755969Y-33717749D01*
X28748797Y-33716911D01*
X28748803Y-33716851D01*
X28741305Y-33716085D01*
X28741300Y-33716145D01*
X28734110Y-33715515D01*
X28657333Y-33717750D01*
X25595455Y-33717750D01*
X25577485Y-33716441D01*
X25553722Y-33712960D01*
X25509262Y-33716851D01*
X25501681Y-33717514D01*
X25496280Y-33717750D01*
X25488039Y-33717750D01*
X25466329Y-33720287D01*
X25455474Y-33721556D01*
X25440169Y-33722895D01*
X25378949Y-33728251D01*
X25371882Y-33729710D01*
X25371870Y-33729655D01*
X25364503Y-33731288D01*
X25364517Y-33731345D01*
X25357492Y-33733009D01*
X25308191Y-33750954D01*
X25265781Y-33758432D01*
X25097524Y-33758432D01*
X25060334Y-33765383D01*
X24947284Y-33786516D01*
X24877769Y-33779484D01*
X24823091Y-33735987D01*
X24800609Y-33669833D01*
X24800500Y-33664627D01*
X24800500Y-29050000D01*
X30569364Y-29050000D01*
X30626567Y-29263486D01*
X30626570Y-29263492D01*
X30726399Y-29477578D01*
X30861894Y-29671082D01*
X31028917Y-29838105D01*
X31222421Y-29973600D01*
X31436507Y-30073429D01*
X31436516Y-30073433D01*
X31650000Y-30130634D01*
X31650000Y-29235501D01*
X31757685Y-29284680D01*
X31864237Y-29300000D01*
X31935763Y-29300000D01*
X32042315Y-29284680D01*
X32150000Y-29235501D01*
X32150000Y-30130633D01*
X32363483Y-30073433D01*
X32363492Y-30073429D01*
X32577578Y-29973600D01*
X32771082Y-29838105D01*
X32937819Y-29671369D01*
X32999142Y-29637884D01*
X33068834Y-29642868D01*
X33124767Y-29684740D01*
X33149184Y-29750204D01*
X33149500Y-29759050D01*
X33149500Y-30040261D01*
X33129815Y-30107300D01*
X33109040Y-30131897D01*
X33083235Y-30155421D01*
X32960327Y-30318178D01*
X32869422Y-30500739D01*
X32869417Y-30500752D01*
X32813602Y-30696917D01*
X32794785Y-30899999D01*
X32794785Y-30900000D01*
X32813602Y-31103082D01*
X32869417Y-31299247D01*
X32869422Y-31299260D01*
X32960327Y-31481821D01*
X33083237Y-31644581D01*
X33233958Y-31781980D01*
X33233960Y-31781982D01*
X33245857Y-31789348D01*
X33407363Y-31889348D01*
X33597544Y-31963024D01*
X33798024Y-32000500D01*
X33887770Y-32000500D01*
X33954809Y-32020185D01*
X33975451Y-32036819D01*
X37424267Y-35485634D01*
X37436048Y-35499266D01*
X37441356Y-35506396D01*
X37450390Y-35518530D01*
X37490420Y-35552119D01*
X37494392Y-35555759D01*
X37499360Y-35560727D01*
X37500224Y-35561591D01*
X37500227Y-35561594D01*
X37525947Y-35581931D01*
X37584788Y-35631304D01*
X37590818Y-35635270D01*
X37590785Y-35635319D01*
X37597143Y-35639369D01*
X37597175Y-35639319D01*
X37603320Y-35643109D01*
X37603323Y-35643111D01*
X37672936Y-35675572D01*
X37740814Y-35709662D01*
X37778544Y-35741101D01*
X37779375Y-35740344D01*
X37783235Y-35744578D01*
X37783236Y-35744579D01*
X37802703Y-35762326D01*
X37805670Y-35765030D01*
X37841952Y-35824740D01*
X37840193Y-35894588D01*
X37800950Y-35952396D01*
X37793264Y-35958238D01*
X37788602Y-35961502D01*
X37788595Y-35961508D01*
X37621508Y-36128594D01*
X37491269Y-36314595D01*
X37436692Y-36358219D01*
X37367193Y-36365412D01*
X37304839Y-36333890D01*
X37288119Y-36314594D01*
X37158113Y-36128926D01*
X37158108Y-36128920D01*
X36991082Y-35961894D01*
X36797578Y-35826399D01*
X36583492Y-35726570D01*
X36583486Y-35726567D01*
X36370000Y-35669364D01*
X36370000Y-36564498D01*
X36262315Y-36515320D01*
X36155763Y-36500000D01*
X36084237Y-36500000D01*
X35977685Y-36515320D01*
X35870000Y-36564498D01*
X35870000Y-35669364D01*
X35869999Y-35669364D01*
X35656513Y-35726567D01*
X35656507Y-35726570D01*
X35442422Y-35826399D01*
X35442420Y-35826400D01*
X35248926Y-35961886D01*
X35248920Y-35961891D01*
X35081891Y-36128920D01*
X35081886Y-36128926D01*
X34946400Y-36322420D01*
X34946399Y-36322422D01*
X34846570Y-36536507D01*
X34846567Y-36536513D01*
X34789364Y-36749999D01*
X34789364Y-36750000D01*
X35686314Y-36750000D01*
X35660507Y-36790156D01*
X35620000Y-36928111D01*
X35620000Y-37071889D01*
X35660507Y-37209844D01*
X35686314Y-37250000D01*
X34789364Y-37250000D01*
X34846567Y-37463486D01*
X34846570Y-37463492D01*
X34946399Y-37677578D01*
X35081894Y-37871082D01*
X35248917Y-38038105D01*
X35442421Y-38173600D01*
X35656507Y-38273429D01*
X35656516Y-38273433D01*
X35870000Y-38330634D01*
X35870000Y-37435501D01*
X35977685Y-37484680D01*
X36084237Y-37500000D01*
X36155763Y-37500000D01*
X36262315Y-37484680D01*
X36370000Y-37435501D01*
X36370000Y-38330633D01*
X36583483Y-38273433D01*
X36583492Y-38273429D01*
X36797578Y-38173600D01*
X36991082Y-38038105D01*
X37158105Y-37871082D01*
X37288119Y-37685405D01*
X37342696Y-37641781D01*
X37412195Y-37634588D01*
X37474549Y-37666110D01*
X37491269Y-37685405D01*
X37621505Y-37871401D01*
X37788599Y-38038495D01*
X37873210Y-38097740D01*
X37982165Y-38174032D01*
X37982167Y-38174033D01*
X37982170Y-38174035D01*
X38196337Y-38273903D01*
X38424592Y-38335063D01*
X38601034Y-38350500D01*
X38659999Y-38355659D01*
X38660000Y-38355659D01*
X38660001Y-38355659D01*
X38718966Y-38350500D01*
X38895408Y-38335063D01*
X39123663Y-38273903D01*
X39337830Y-38174035D01*
X39531401Y-38038495D01*
X39698495Y-37871401D01*
X39828425Y-37685842D01*
X39883002Y-37642217D01*
X39952500Y-37635023D01*
X40014855Y-37666546D01*
X40031575Y-37685842D01*
X40161501Y-37871396D01*
X40161506Y-37871402D01*
X40328595Y-38038492D01*
X40328598Y-38038494D01*
X40328599Y-38038495D01*
X40396623Y-38086125D01*
X40440248Y-38140701D01*
X40449500Y-38187700D01*
X40449500Y-38740261D01*
X40429815Y-38807300D01*
X40409040Y-38831897D01*
X40383235Y-38855421D01*
X40260327Y-39018178D01*
X40169422Y-39200739D01*
X40169417Y-39200752D01*
X40113602Y-39396917D01*
X40094785Y-39599999D01*
X40094785Y-39600000D01*
X40113602Y-39803082D01*
X40169417Y-39999247D01*
X40169422Y-39999260D01*
X40260327Y-40181821D01*
X40383237Y-40344581D01*
X40533958Y-40481980D01*
X40533960Y-40481982D01*
X40563868Y-40500500D01*
X40707363Y-40589348D01*
X40897544Y-40663024D01*
X41098024Y-40700500D01*
X41098026Y-40700500D01*
X41301974Y-40700500D01*
X41301976Y-40700500D01*
X41502456Y-40663024D01*
X41692637Y-40589348D01*
X41866041Y-40481981D01*
X42016764Y-40344579D01*
X42139673Y-40181821D01*
X42230582Y-39999250D01*
X42286397Y-39803083D01*
X42305215Y-39600000D01*
X42303917Y-39585997D01*
X42286397Y-39396917D01*
X42277580Y-39365929D01*
X42230582Y-39200750D01*
X42228673Y-39196917D01*
X42186272Y-39111764D01*
X42139673Y-39018179D01*
X42016764Y-38855421D01*
X41990960Y-38831897D01*
X41954680Y-38772185D01*
X41950500Y-38740261D01*
X41950500Y-38187700D01*
X41970185Y-38120661D01*
X42003375Y-38086126D01*
X42071401Y-38038495D01*
X42193329Y-37916566D01*
X42254648Y-37883084D01*
X42324340Y-37888068D01*
X42380274Y-37929939D01*
X42397189Y-37960917D01*
X42446202Y-38092328D01*
X42446206Y-38092335D01*
X42532452Y-38207544D01*
X42532455Y-38207547D01*
X42647664Y-38293793D01*
X42647671Y-38293797D01*
X42692618Y-38310561D01*
X42782517Y-38344091D01*
X42842127Y-38350500D01*
X42925501Y-38350499D01*
X42992538Y-38370183D01*
X43038294Y-38422986D01*
X43049500Y-38474499D01*
X43049500Y-38540261D01*
X43029815Y-38607300D01*
X43009040Y-38631897D01*
X42983235Y-38655421D01*
X42860327Y-38818178D01*
X42769422Y-39000739D01*
X42769417Y-39000752D01*
X42713602Y-39196917D01*
X42694785Y-39399999D01*
X42694785Y-39400000D01*
X42713602Y-39603082D01*
X42769417Y-39799247D01*
X42769422Y-39799260D01*
X42860327Y-39981821D01*
X42983237Y-40144581D01*
X43133958Y-40281980D01*
X43133960Y-40281982D01*
X43233141Y-40343392D01*
X43307363Y-40389348D01*
X43497544Y-40463024D01*
X43698024Y-40500500D01*
X43698026Y-40500500D01*
X43901974Y-40500500D01*
X43901976Y-40500500D01*
X44102456Y-40463024D01*
X44292637Y-40389348D01*
X44466041Y-40281981D01*
X44616764Y-40144579D01*
X44739673Y-39981821D01*
X44830582Y-39799250D01*
X44886397Y-39603083D01*
X44905215Y-39400000D01*
X44886397Y-39196917D01*
X44830582Y-39000750D01*
X44806476Y-38952339D01*
X44758217Y-38855421D01*
X44739673Y-38818179D01*
X44616764Y-38655421D01*
X44590960Y-38631897D01*
X44554680Y-38572185D01*
X44550500Y-38540261D01*
X44550500Y-38471276D01*
X44570185Y-38404237D01*
X44622989Y-38358482D01*
X44661247Y-38347986D01*
X44697483Y-38344091D01*
X44832331Y-38293796D01*
X44947546Y-38207546D01*
X45033796Y-38092331D01*
X45084091Y-37957483D01*
X45090500Y-37897873D01*
X45090499Y-36183966D01*
X48149500Y-36183966D01*
X48164936Y-36360403D01*
X48164938Y-36360413D01*
X48226094Y-36588655D01*
X48226096Y-36588659D01*
X48226097Y-36588663D01*
X48237671Y-36613483D01*
X48325964Y-36802828D01*
X48325965Y-36802830D01*
X48461504Y-36996400D01*
X48463173Y-36998069D01*
X48463675Y-36998989D01*
X48464986Y-37000551D01*
X48464672Y-37000814D01*
X48496664Y-37059389D01*
X48499500Y-37085758D01*
X48499500Y-47887283D01*
X48497243Y-47976362D01*
X48497243Y-47976370D01*
X48505174Y-48020615D01*
X48506855Y-48029997D01*
X48508064Y-48036739D01*
X48508718Y-48041404D01*
X48514925Y-48102430D01*
X48514927Y-48102444D01*
X48525208Y-48135213D01*
X48527079Y-48142837D01*
X48533142Y-48176652D01*
X48533142Y-48176655D01*
X48533212Y-48176829D01*
X48554165Y-48229285D01*
X48555894Y-48233612D01*
X48557474Y-48238051D01*
X48575841Y-48296588D01*
X48575844Y-48296595D01*
X48592509Y-48326619D01*
X48595879Y-48333714D01*
X48608622Y-48365614D01*
X48608627Y-48365624D01*
X48642377Y-48416833D01*
X48644818Y-48420863D01*
X48674588Y-48474498D01*
X48674589Y-48474499D01*
X48674591Y-48474502D01*
X48696968Y-48500567D01*
X48701693Y-48506835D01*
X48714263Y-48525906D01*
X48720598Y-48535519D01*
X48763978Y-48578899D01*
X48767169Y-48582343D01*
X48807131Y-48628892D01*
X48807130Y-48628892D01*
X48834299Y-48649923D01*
X48840186Y-48655107D01*
X61613547Y-61428467D01*
X61674941Y-61493053D01*
X61674944Y-61493055D01*
X61674947Y-61493058D01*
X61703403Y-61512863D01*
X61725303Y-61528106D01*
X61729044Y-61530926D01*
X61776593Y-61569698D01*
X61807045Y-61585604D01*
X61813758Y-61589672D01*
X61841951Y-61609295D01*
X61898329Y-61633489D01*
X61902578Y-61635507D01*
X61956951Y-61663909D01*
X61984489Y-61671788D01*
X61989974Y-61673358D01*
X61997368Y-61675990D01*
X62028942Y-61689540D01*
X62028945Y-61689540D01*
X62028946Y-61689541D01*
X62089022Y-61701887D01*
X62093600Y-61703010D01*
X62107501Y-61706987D01*
X62152582Y-61719887D01*
X62186839Y-61722495D01*
X62194614Y-61723586D01*
X62228255Y-61730500D01*
X62228259Y-61730500D01*
X62289598Y-61730500D01*
X62294304Y-61730678D01*
X62329062Y-61733325D01*
X62355475Y-61735337D01*
X62355475Y-61735336D01*
X62355476Y-61735337D01*
X62389559Y-61730996D01*
X62397389Y-61730500D01*
X66968662Y-61730500D01*
X67035701Y-61750185D01*
X67039767Y-61752912D01*
X67146338Y-61827534D01*
X67223363Y-61863451D01*
X67275781Y-61887894D01*
X67328220Y-61934066D01*
X67347372Y-62001260D01*
X67327156Y-62068141D01*
X67275781Y-62112658D01*
X67146586Y-62172903D01*
X67081812Y-62218257D01*
X67081811Y-62218258D01*
X67752554Y-62889000D01*
X67748431Y-62889000D01*
X67654579Y-62904661D01*
X67542749Y-62965180D01*
X67456629Y-63058731D01*
X67405552Y-63175177D01*
X67399894Y-63243447D01*
X66728258Y-62571811D01*
X66728257Y-62571812D01*
X66682903Y-62636586D01*
X66589579Y-62836720D01*
X66589575Y-62836729D01*
X66532426Y-63050013D01*
X66532424Y-63050023D01*
X66513179Y-63269999D01*
X66513179Y-63270000D01*
X66532424Y-63489976D01*
X66532426Y-63489986D01*
X66589575Y-63703270D01*
X66589580Y-63703284D01*
X66682899Y-63903407D01*
X66682900Y-63903409D01*
X66728258Y-63968187D01*
X67395096Y-63301349D01*
X67395051Y-63301898D01*
X67426266Y-63425162D01*
X67495813Y-63531612D01*
X67596157Y-63609713D01*
X67716422Y-63651000D01*
X67752553Y-63651000D01*
X67081811Y-64321741D01*
X67146582Y-64367094D01*
X67146588Y-64367098D01*
X67276373Y-64427618D01*
X67328812Y-64473790D01*
X67347964Y-64540984D01*
X67327748Y-64607865D01*
X67276373Y-64652382D01*
X67146586Y-64712903D01*
X67081812Y-64758257D01*
X67081811Y-64758258D01*
X67752554Y-65429000D01*
X67748431Y-65429000D01*
X67654579Y-65444661D01*
X67542749Y-65505180D01*
X67456629Y-65598731D01*
X67405552Y-65715177D01*
X67399894Y-65783447D01*
X66728258Y-65111811D01*
X66728257Y-65111812D01*
X66682903Y-65176586D01*
X66589579Y-65376720D01*
X66589575Y-65376729D01*
X66532426Y-65590013D01*
X66532424Y-65590023D01*
X66513179Y-65809999D01*
X66513179Y-65810000D01*
X66532424Y-66029976D01*
X66532426Y-66029986D01*
X66589575Y-66243270D01*
X66589580Y-66243284D01*
X66682899Y-66443407D01*
X66682900Y-66443409D01*
X66728258Y-66508187D01*
X67395096Y-65841349D01*
X67395051Y-65841898D01*
X67426266Y-65965162D01*
X67495813Y-66071612D01*
X67596157Y-66149713D01*
X67716422Y-66191000D01*
X67752553Y-66191000D01*
X67081811Y-66861741D01*
X67146582Y-66907094D01*
X67146588Y-66907098D01*
X67276373Y-66967618D01*
X67328812Y-67013790D01*
X67347964Y-67080984D01*
X67327748Y-67147865D01*
X67276373Y-67192382D01*
X67146586Y-67252903D01*
X67081812Y-67298257D01*
X67081811Y-67298258D01*
X67752554Y-67969000D01*
X67748431Y-67969000D01*
X67654579Y-67984661D01*
X67542749Y-68045180D01*
X67456629Y-68138731D01*
X67405552Y-68255177D01*
X67399894Y-68323447D01*
X66728258Y-67651811D01*
X66728257Y-67651812D01*
X66682903Y-67716586D01*
X66589579Y-67916720D01*
X66589575Y-67916729D01*
X66532426Y-68130013D01*
X66532424Y-68130023D01*
X66513179Y-68349999D01*
X66513179Y-68350000D01*
X66532424Y-68569976D01*
X66532426Y-68569986D01*
X66589575Y-68783270D01*
X66589580Y-68783284D01*
X66682899Y-68983407D01*
X66682900Y-68983409D01*
X66728258Y-69048187D01*
X67395096Y-68381349D01*
X67395051Y-68381898D01*
X67426266Y-68505162D01*
X67495813Y-68611612D01*
X67596157Y-68689713D01*
X67716422Y-68731000D01*
X67752553Y-68731000D01*
X67081811Y-69401741D01*
X67146582Y-69447094D01*
X67146588Y-69447098D01*
X67276373Y-69507618D01*
X67328812Y-69553790D01*
X67347964Y-69620984D01*
X67327748Y-69687865D01*
X67276373Y-69732382D01*
X67146586Y-69792903D01*
X67081812Y-69838257D01*
X67081811Y-69838258D01*
X67752554Y-70509000D01*
X67748431Y-70509000D01*
X67654579Y-70524661D01*
X67542749Y-70585180D01*
X67456629Y-70678731D01*
X67405552Y-70795177D01*
X67399894Y-70863447D01*
X66728258Y-70191811D01*
X66728257Y-70191812D01*
X66682903Y-70256586D01*
X66589579Y-70456720D01*
X66589575Y-70456729D01*
X66532426Y-70670013D01*
X66532424Y-70670023D01*
X66513179Y-70889999D01*
X66513179Y-70890000D01*
X66532424Y-71109976D01*
X66532426Y-71109986D01*
X66589575Y-71323270D01*
X66589580Y-71323284D01*
X66682899Y-71523407D01*
X66682900Y-71523409D01*
X66728258Y-71588187D01*
X67395096Y-70921349D01*
X67395051Y-70921898D01*
X67426266Y-71045162D01*
X67495813Y-71151612D01*
X67596157Y-71229713D01*
X67716422Y-71271000D01*
X67752553Y-71271000D01*
X67081811Y-71941741D01*
X67146582Y-71987094D01*
X67146588Y-71987098D01*
X67276373Y-72047618D01*
X67328812Y-72093790D01*
X67347964Y-72160984D01*
X67327748Y-72227865D01*
X67276373Y-72272382D01*
X67146586Y-72332903D01*
X67081812Y-72378257D01*
X67081811Y-72378258D01*
X67752554Y-73049000D01*
X67748431Y-73049000D01*
X67654579Y-73064661D01*
X67542749Y-73125180D01*
X67456629Y-73218731D01*
X67405552Y-73335177D01*
X67399894Y-73403447D01*
X66728258Y-72731811D01*
X66728257Y-72731812D01*
X66682903Y-72796586D01*
X66589579Y-72996720D01*
X66589575Y-72996729D01*
X66532426Y-73210013D01*
X66532424Y-73210023D01*
X66513179Y-73429999D01*
X66513179Y-73430000D01*
X66532424Y-73649976D01*
X66532426Y-73649986D01*
X66589575Y-73863270D01*
X66589580Y-73863284D01*
X66682899Y-74063407D01*
X66682900Y-74063409D01*
X66728258Y-74128187D01*
X67395096Y-73461349D01*
X67395051Y-73461898D01*
X67426266Y-73585162D01*
X67495813Y-73691612D01*
X67596157Y-73769713D01*
X67716422Y-73811000D01*
X67752553Y-73811000D01*
X67081811Y-74481741D01*
X67146582Y-74527094D01*
X67146588Y-74527098D01*
X67276373Y-74587618D01*
X67328812Y-74633790D01*
X67347964Y-74700984D01*
X67327748Y-74767865D01*
X67276373Y-74812382D01*
X67146586Y-74872903D01*
X67081812Y-74918257D01*
X67081811Y-74918258D01*
X67752554Y-75589000D01*
X67748431Y-75589000D01*
X67654579Y-75604661D01*
X67542749Y-75665180D01*
X67456629Y-75758731D01*
X67405552Y-75875177D01*
X67399894Y-75943447D01*
X66728258Y-75271811D01*
X66728257Y-75271812D01*
X66682903Y-75336586D01*
X66589579Y-75536720D01*
X66589575Y-75536729D01*
X66532426Y-75750013D01*
X66532424Y-75750023D01*
X66513179Y-75969999D01*
X66513179Y-75970000D01*
X66532424Y-76189976D01*
X66532426Y-76189986D01*
X66589575Y-76403270D01*
X66589580Y-76403284D01*
X66682899Y-76603407D01*
X66682900Y-76603409D01*
X66728258Y-76668187D01*
X67395096Y-76001349D01*
X67395051Y-76001898D01*
X67426266Y-76125162D01*
X67495813Y-76231612D01*
X67596157Y-76309713D01*
X67716422Y-76351000D01*
X67752553Y-76351000D01*
X67081811Y-77021741D01*
X67146582Y-77067094D01*
X67146592Y-77067100D01*
X67346715Y-77160419D01*
X67346729Y-77160424D01*
X67560013Y-77217573D01*
X67560023Y-77217575D01*
X67779999Y-77236821D01*
X67780001Y-77236821D01*
X67999976Y-77217575D01*
X67999986Y-77217573D01*
X68213270Y-77160424D01*
X68213284Y-77160419D01*
X68413408Y-77067100D01*
X68413420Y-77067093D01*
X68478186Y-77021742D01*
X68478187Y-77021740D01*
X67807448Y-76351000D01*
X67811569Y-76351000D01*
X67905421Y-76335339D01*
X68017251Y-76274820D01*
X68103371Y-76181269D01*
X68154448Y-76064823D01*
X68160105Y-75996552D01*
X68831740Y-76668187D01*
X68831742Y-76668186D01*
X68877093Y-76603420D01*
X68877100Y-76603408D01*
X68970419Y-76403284D01*
X68970424Y-76403270D01*
X69027573Y-76189986D01*
X69027575Y-76189976D01*
X69046821Y-75970000D01*
X69046821Y-75969999D01*
X69027575Y-75750023D01*
X69027573Y-75750013D01*
X68970424Y-75536729D01*
X68970420Y-75536720D01*
X68877098Y-75336590D01*
X68831740Y-75271811D01*
X68164903Y-75938648D01*
X68164949Y-75938102D01*
X68133734Y-75814838D01*
X68064187Y-75708388D01*
X67963843Y-75630287D01*
X67843578Y-75589000D01*
X67807447Y-75589000D01*
X68478187Y-74918258D01*
X68413409Y-74872900D01*
X68413407Y-74872899D01*
X68283627Y-74812382D01*
X68231187Y-74766210D01*
X68212035Y-74699017D01*
X68232251Y-74632135D01*
X68283627Y-74587618D01*
X68413408Y-74527100D01*
X68413420Y-74527093D01*
X68478186Y-74481742D01*
X68478187Y-74481740D01*
X68126450Y-74130002D01*
X73982677Y-74130002D01*
X74001929Y-74350062D01*
X74001930Y-74350070D01*
X74059104Y-74563445D01*
X74059105Y-74563447D01*
X74059106Y-74563450D01*
X74133006Y-74721930D01*
X74152466Y-74763662D01*
X74152468Y-74763666D01*
X74279170Y-74944615D01*
X74279175Y-74944621D01*
X74435378Y-75100824D01*
X74435384Y-75100829D01*
X74616333Y-75227531D01*
X74616335Y-75227532D01*
X74616338Y-75227534D01*
X74816550Y-75320894D01*
X75029932Y-75378070D01*
X75187123Y-75391822D01*
X75249998Y-75397323D01*
X75250000Y-75397323D01*
X75250002Y-75397323D01*
X75305017Y-75392509D01*
X75470068Y-75378070D01*
X75683450Y-75320894D01*
X75883662Y-75227534D01*
X76064620Y-75100826D01*
X76220826Y-74944620D01*
X76347534Y-74763662D01*
X76440894Y-74563450D01*
X76498070Y-74350068D01*
X76517323Y-74130000D01*
X76517164Y-74128187D01*
X76498070Y-73909937D01*
X76498070Y-73909932D01*
X76440894Y-73696550D01*
X76347534Y-73496339D01*
X76220826Y-73315380D01*
X76064620Y-73159174D01*
X76064616Y-73159171D01*
X76064615Y-73159170D01*
X75883666Y-73032468D01*
X75883658Y-73032464D01*
X75754811Y-72972382D01*
X75702371Y-72926210D01*
X75683219Y-72859017D01*
X75703435Y-72792135D01*
X75754811Y-72747618D01*
X75788709Y-72731811D01*
X75883662Y-72687534D01*
X76064620Y-72560826D01*
X76220826Y-72404620D01*
X76347534Y-72223662D01*
X76440894Y-72023450D01*
X76498070Y-71810068D01*
X76517323Y-71590000D01*
X76517164Y-71588187D01*
X76498070Y-71369937D01*
X76498070Y-71369932D01*
X76440894Y-71156550D01*
X76347534Y-70956339D01*
X76220826Y-70775380D01*
X76064620Y-70619174D01*
X76064616Y-70619171D01*
X76064615Y-70619170D01*
X75883666Y-70492468D01*
X75883658Y-70492464D01*
X75754811Y-70432382D01*
X75702371Y-70386210D01*
X75683219Y-70319017D01*
X75703435Y-70252135D01*
X75754811Y-70207618D01*
X75788709Y-70191811D01*
X75883662Y-70147534D01*
X76064620Y-70020826D01*
X76220826Y-69864620D01*
X76347534Y-69683662D01*
X76440894Y-69483450D01*
X76498070Y-69270068D01*
X76517323Y-69050000D01*
X76517164Y-69048187D01*
X76498070Y-68829937D01*
X76498070Y-68829932D01*
X76440894Y-68616550D01*
X76347534Y-68416339D01*
X76220826Y-68235380D01*
X76064620Y-68079174D01*
X76064616Y-68079171D01*
X76064615Y-68079170D01*
X75883666Y-67952468D01*
X75883658Y-67952464D01*
X75754811Y-67892382D01*
X75702371Y-67846210D01*
X75683219Y-67779017D01*
X75703435Y-67712135D01*
X75754811Y-67667618D01*
X75788709Y-67651811D01*
X75883662Y-67607534D01*
X76064620Y-67480826D01*
X76220826Y-67324620D01*
X76347534Y-67143662D01*
X76440894Y-66943450D01*
X76498070Y-66730068D01*
X76517323Y-66510000D01*
X76517164Y-66508187D01*
X76498070Y-66289937D01*
X76498070Y-66289932D01*
X76440894Y-66076550D01*
X76347534Y-65876339D01*
X76220826Y-65695380D01*
X76064620Y-65539174D01*
X76064616Y-65539171D01*
X76064615Y-65539170D01*
X75883666Y-65412468D01*
X75883658Y-65412464D01*
X75754811Y-65352382D01*
X75702371Y-65306210D01*
X75683219Y-65239017D01*
X75703435Y-65172135D01*
X75754811Y-65127618D01*
X75788709Y-65111811D01*
X75883662Y-65067534D01*
X76064620Y-64940826D01*
X76220826Y-64784620D01*
X76347534Y-64603662D01*
X76440894Y-64403450D01*
X76498070Y-64190068D01*
X76517323Y-63970000D01*
X76517164Y-63968187D01*
X76498070Y-63749937D01*
X76498070Y-63749932D01*
X76440894Y-63536550D01*
X76347534Y-63336339D01*
X76252069Y-63200000D01*
X76220827Y-63155381D01*
X76180284Y-63114838D01*
X76064620Y-62999174D01*
X76064616Y-62999171D01*
X76064615Y-62999170D01*
X75883666Y-62872468D01*
X75883658Y-62872464D01*
X75754811Y-62812382D01*
X75702371Y-62766210D01*
X75683219Y-62699017D01*
X75703435Y-62632135D01*
X75754811Y-62587618D01*
X75788709Y-62571811D01*
X75883662Y-62527534D01*
X76064620Y-62400826D01*
X76220826Y-62244620D01*
X76347534Y-62063662D01*
X76440894Y-61863450D01*
X76498070Y-61650068D01*
X76517323Y-61430000D01*
X76498070Y-61209932D01*
X76440894Y-60996550D01*
X76347534Y-60796339D01*
X76220826Y-60615380D01*
X76064620Y-60459174D01*
X76064616Y-60459171D01*
X76064615Y-60459170D01*
X75883666Y-60332468D01*
X75883658Y-60332464D01*
X75754811Y-60272382D01*
X75702371Y-60226210D01*
X75683219Y-60159017D01*
X75703435Y-60092135D01*
X75754811Y-60047618D01*
X75760802Y-60044824D01*
X75883662Y-59987534D01*
X76064620Y-59860826D01*
X76220826Y-59704620D01*
X76347534Y-59523662D01*
X76440894Y-59323450D01*
X76498070Y-59110068D01*
X76517323Y-58890000D01*
X76515589Y-58870185D01*
X76498070Y-58669937D01*
X76498070Y-58669932D01*
X76440894Y-58456550D01*
X76347534Y-58256339D01*
X76238065Y-58100000D01*
X76220827Y-58075381D01*
X76208468Y-58063022D01*
X76064620Y-57919174D01*
X76064616Y-57919171D01*
X76064615Y-57919170D01*
X75883666Y-57792468D01*
X75883658Y-57792464D01*
X75754811Y-57732382D01*
X75702371Y-57686210D01*
X75683219Y-57619017D01*
X75703435Y-57552135D01*
X75754811Y-57507618D01*
X75760802Y-57504824D01*
X75883662Y-57447534D01*
X76064620Y-57320826D01*
X76220826Y-57164620D01*
X76347534Y-56983662D01*
X76440894Y-56783450D01*
X76498070Y-56570068D01*
X76517323Y-56350000D01*
X76515994Y-56334814D01*
X76507549Y-56238277D01*
X76498070Y-56129932D01*
X76440894Y-55916550D01*
X76347534Y-55716339D01*
X76220826Y-55535380D01*
X76064620Y-55379174D01*
X76064616Y-55379171D01*
X76064615Y-55379170D01*
X75883666Y-55252468D01*
X75883662Y-55252466D01*
X75806648Y-55216554D01*
X75683450Y-55159106D01*
X75683447Y-55159105D01*
X75683445Y-55159104D01*
X75470070Y-55101930D01*
X75470062Y-55101929D01*
X75250002Y-55082677D01*
X75249998Y-55082677D01*
X75029937Y-55101929D01*
X75029929Y-55101930D01*
X74816554Y-55159104D01*
X74816548Y-55159107D01*
X74616340Y-55252465D01*
X74616338Y-55252466D01*
X74435377Y-55379175D01*
X74279175Y-55535377D01*
X74152466Y-55716338D01*
X74152465Y-55716340D01*
X74059107Y-55916548D01*
X74059104Y-55916554D01*
X74001930Y-56129929D01*
X74001929Y-56129937D01*
X73982677Y-56349997D01*
X73982677Y-56350002D01*
X74001929Y-56570062D01*
X74001930Y-56570070D01*
X74059104Y-56783445D01*
X74059105Y-56783447D01*
X74059106Y-56783450D01*
X74133006Y-56941930D01*
X74152466Y-56983662D01*
X74152468Y-56983666D01*
X74279170Y-57164615D01*
X74279175Y-57164621D01*
X74435378Y-57320824D01*
X74435384Y-57320829D01*
X74616333Y-57447531D01*
X74616335Y-57447532D01*
X74616338Y-57447534D01*
X74735748Y-57503215D01*
X74745189Y-57507618D01*
X74797628Y-57553790D01*
X74816780Y-57620984D01*
X74796564Y-57687865D01*
X74745189Y-57732382D01*
X74616340Y-57792465D01*
X74616338Y-57792466D01*
X74435377Y-57919175D01*
X74279175Y-58075377D01*
X74152466Y-58256338D01*
X74152465Y-58256340D01*
X74059107Y-58456548D01*
X74059104Y-58456554D01*
X74001930Y-58669929D01*
X74001929Y-58669937D01*
X73982677Y-58889997D01*
X73982677Y-58890002D01*
X74001929Y-59110062D01*
X74001930Y-59110070D01*
X74059104Y-59323445D01*
X74059105Y-59323447D01*
X74059106Y-59323450D01*
X74133006Y-59481930D01*
X74152466Y-59523662D01*
X74152468Y-59523666D01*
X74279170Y-59704615D01*
X74279175Y-59704621D01*
X74435378Y-59860824D01*
X74435384Y-59860829D01*
X74616333Y-59987531D01*
X74616335Y-59987532D01*
X74616338Y-59987534D01*
X74683586Y-60018892D01*
X74745189Y-60047618D01*
X74797628Y-60093790D01*
X74816780Y-60160984D01*
X74796564Y-60227865D01*
X74745189Y-60272382D01*
X74616340Y-60332465D01*
X74616338Y-60332466D01*
X74435377Y-60459175D01*
X74279175Y-60615377D01*
X74152466Y-60796338D01*
X74152465Y-60796340D01*
X74059107Y-60996548D01*
X74059104Y-60996554D01*
X74001930Y-61209929D01*
X74001929Y-61209937D01*
X73982677Y-61429997D01*
X73982677Y-61430002D01*
X74001929Y-61650062D01*
X74001930Y-61650070D01*
X74059104Y-61863445D01*
X74059105Y-61863447D01*
X74059106Y-61863450D01*
X74133006Y-62021930D01*
X74152466Y-62063662D01*
X74152468Y-62063666D01*
X74279170Y-62244615D01*
X74279175Y-62244621D01*
X74435378Y-62400824D01*
X74435384Y-62400829D01*
X74616333Y-62527531D01*
X74616335Y-62527532D01*
X74616338Y-62527534D01*
X74711291Y-62571811D01*
X74745189Y-62587618D01*
X74797628Y-62633790D01*
X74816780Y-62700984D01*
X74796564Y-62767865D01*
X74745189Y-62812382D01*
X74616340Y-62872465D01*
X74616338Y-62872466D01*
X74435377Y-62999175D01*
X74279175Y-63155377D01*
X74152466Y-63336338D01*
X74152465Y-63336340D01*
X74059107Y-63536548D01*
X74059104Y-63536554D01*
X74001930Y-63749929D01*
X74001929Y-63749937D01*
X73982677Y-63969997D01*
X73982677Y-63970002D01*
X74001929Y-64190062D01*
X74001930Y-64190070D01*
X74059104Y-64403445D01*
X74059105Y-64403447D01*
X74059106Y-64403450D01*
X74133006Y-64561930D01*
X74152466Y-64603662D01*
X74152468Y-64603666D01*
X74279170Y-64784615D01*
X74279175Y-64784621D01*
X74435378Y-64940824D01*
X74435384Y-64940829D01*
X74616333Y-65067531D01*
X74616335Y-65067532D01*
X74616338Y-65067534D01*
X74711291Y-65111811D01*
X74745189Y-65127618D01*
X74797628Y-65173790D01*
X74816780Y-65240984D01*
X74796564Y-65307865D01*
X74745189Y-65352382D01*
X74616340Y-65412465D01*
X74616338Y-65412466D01*
X74435377Y-65539175D01*
X74279175Y-65695377D01*
X74152466Y-65876338D01*
X74152465Y-65876340D01*
X74059107Y-66076548D01*
X74059104Y-66076554D01*
X74001930Y-66289929D01*
X74001929Y-66289937D01*
X73982677Y-66509997D01*
X73982677Y-66510002D01*
X74001929Y-66730062D01*
X74001930Y-66730070D01*
X74059104Y-66943445D01*
X74059105Y-66943447D01*
X74059106Y-66943450D01*
X74123239Y-67080984D01*
X74152466Y-67143662D01*
X74152468Y-67143666D01*
X74279170Y-67324615D01*
X74279175Y-67324621D01*
X74435378Y-67480824D01*
X74435384Y-67480829D01*
X74616333Y-67607531D01*
X74616335Y-67607532D01*
X74616338Y-67607534D01*
X74711291Y-67651811D01*
X74745189Y-67667618D01*
X74797628Y-67713790D01*
X74816780Y-67780984D01*
X74796564Y-67847865D01*
X74745189Y-67892382D01*
X74616340Y-67952465D01*
X74616338Y-67952466D01*
X74435377Y-68079175D01*
X74279175Y-68235377D01*
X74152466Y-68416338D01*
X74152465Y-68416340D01*
X74059107Y-68616548D01*
X74059104Y-68616554D01*
X74001930Y-68829929D01*
X74001929Y-68829937D01*
X73982677Y-69049997D01*
X73982677Y-69050002D01*
X74001929Y-69270062D01*
X74001930Y-69270070D01*
X74059104Y-69483445D01*
X74059105Y-69483447D01*
X74059106Y-69483450D01*
X74133006Y-69641930D01*
X74152466Y-69683662D01*
X74152468Y-69683666D01*
X74279170Y-69864615D01*
X74279175Y-69864621D01*
X74435378Y-70020824D01*
X74435384Y-70020829D01*
X74616333Y-70147531D01*
X74616335Y-70147532D01*
X74616338Y-70147534D01*
X74711291Y-70191811D01*
X74745189Y-70207618D01*
X74797628Y-70253790D01*
X74816780Y-70320984D01*
X74796564Y-70387865D01*
X74745189Y-70432382D01*
X74616340Y-70492465D01*
X74616338Y-70492466D01*
X74435377Y-70619175D01*
X74279175Y-70775377D01*
X74152466Y-70956338D01*
X74152465Y-70956340D01*
X74059107Y-71156548D01*
X74059104Y-71156554D01*
X74001930Y-71369929D01*
X74001929Y-71369937D01*
X73982677Y-71589997D01*
X73982677Y-71590002D01*
X74001929Y-71810062D01*
X74001930Y-71810070D01*
X74059104Y-72023445D01*
X74059105Y-72023447D01*
X74059106Y-72023450D01*
X74133006Y-72181930D01*
X74152466Y-72223662D01*
X74152468Y-72223666D01*
X74279170Y-72404615D01*
X74279175Y-72404621D01*
X74435378Y-72560824D01*
X74435384Y-72560829D01*
X74616333Y-72687531D01*
X74616335Y-72687532D01*
X74616338Y-72687534D01*
X74711291Y-72731811D01*
X74745189Y-72747618D01*
X74797628Y-72793790D01*
X74816780Y-72860984D01*
X74796564Y-72927865D01*
X74745189Y-72972382D01*
X74616340Y-73032465D01*
X74616338Y-73032466D01*
X74435377Y-73159175D01*
X74279175Y-73315377D01*
X74152466Y-73496338D01*
X74152465Y-73496340D01*
X74059107Y-73696548D01*
X74059104Y-73696554D01*
X74001930Y-73909929D01*
X74001929Y-73909937D01*
X73982677Y-74129997D01*
X73982677Y-74130002D01*
X68126450Y-74130002D01*
X67807448Y-73811000D01*
X67811569Y-73811000D01*
X67905421Y-73795339D01*
X68017251Y-73734820D01*
X68103371Y-73641269D01*
X68154448Y-73524823D01*
X68160105Y-73456552D01*
X68831740Y-74128187D01*
X68831742Y-74128186D01*
X68877093Y-74063420D01*
X68877100Y-74063408D01*
X68970419Y-73863284D01*
X68970424Y-73863270D01*
X69027573Y-73649986D01*
X69027575Y-73649976D01*
X69046821Y-73430000D01*
X69046821Y-73429999D01*
X69027575Y-73210023D01*
X69027573Y-73210013D01*
X68970424Y-72996729D01*
X68970420Y-72996720D01*
X68877098Y-72796590D01*
X68831740Y-72731811D01*
X68164903Y-73398648D01*
X68164949Y-73398102D01*
X68133734Y-73274838D01*
X68064187Y-73168388D01*
X67963843Y-73090287D01*
X67843578Y-73049000D01*
X67807447Y-73049000D01*
X68478187Y-72378258D01*
X68413409Y-72332900D01*
X68413407Y-72332899D01*
X68283627Y-72272382D01*
X68231187Y-72226210D01*
X68212035Y-72159017D01*
X68232251Y-72092135D01*
X68283627Y-72047618D01*
X68413408Y-71987100D01*
X68413420Y-71987093D01*
X68478186Y-71941742D01*
X68478187Y-71941740D01*
X67807448Y-71271000D01*
X67811569Y-71271000D01*
X67905421Y-71255339D01*
X68017251Y-71194820D01*
X68103371Y-71101269D01*
X68154448Y-70984823D01*
X68160105Y-70916552D01*
X68831740Y-71588187D01*
X68831742Y-71588186D01*
X68877093Y-71523420D01*
X68877100Y-71523408D01*
X68970419Y-71323284D01*
X68970424Y-71323270D01*
X69027573Y-71109986D01*
X69027575Y-71109976D01*
X69046821Y-70890000D01*
X69046821Y-70889999D01*
X69027575Y-70670023D01*
X69027573Y-70670013D01*
X68970424Y-70456729D01*
X68970420Y-70456720D01*
X68877098Y-70256590D01*
X68831740Y-70191811D01*
X68164903Y-70858648D01*
X68164949Y-70858102D01*
X68133734Y-70734838D01*
X68064187Y-70628388D01*
X67963843Y-70550287D01*
X67843578Y-70509000D01*
X67807447Y-70509000D01*
X68478187Y-69838258D01*
X68413409Y-69792900D01*
X68413407Y-69792899D01*
X68283627Y-69732382D01*
X68231187Y-69686210D01*
X68212035Y-69619017D01*
X68232251Y-69552135D01*
X68283627Y-69507618D01*
X68413408Y-69447100D01*
X68413420Y-69447093D01*
X68478186Y-69401742D01*
X68478187Y-69401740D01*
X67807448Y-68731000D01*
X67811569Y-68731000D01*
X67905421Y-68715339D01*
X68017251Y-68654820D01*
X68103371Y-68561269D01*
X68154448Y-68444823D01*
X68160105Y-68376552D01*
X68831740Y-69048187D01*
X68831742Y-69048186D01*
X68877093Y-68983420D01*
X68877100Y-68983408D01*
X68970419Y-68783284D01*
X68970424Y-68783270D01*
X69027573Y-68569986D01*
X69027575Y-68569976D01*
X69046821Y-68350000D01*
X69046821Y-68349999D01*
X69027575Y-68130023D01*
X69027573Y-68130013D01*
X68970424Y-67916729D01*
X68970420Y-67916720D01*
X68877098Y-67716590D01*
X68831740Y-67651811D01*
X68164903Y-68318648D01*
X68164949Y-68318102D01*
X68133734Y-68194838D01*
X68064187Y-68088388D01*
X67963843Y-68010287D01*
X67843578Y-67969000D01*
X67807447Y-67969000D01*
X68478187Y-67298258D01*
X68413409Y-67252900D01*
X68413407Y-67252899D01*
X68283627Y-67192382D01*
X68231187Y-67146210D01*
X68212035Y-67079017D01*
X68232251Y-67012135D01*
X68283627Y-66967618D01*
X68413408Y-66907100D01*
X68413420Y-66907093D01*
X68478186Y-66861742D01*
X68478187Y-66861740D01*
X67807448Y-66191000D01*
X67811569Y-66191000D01*
X67905421Y-66175339D01*
X68017251Y-66114820D01*
X68103371Y-66021269D01*
X68154448Y-65904823D01*
X68160105Y-65836552D01*
X68831740Y-66508187D01*
X68831742Y-66508186D01*
X68877093Y-66443420D01*
X68877100Y-66443408D01*
X68970419Y-66243284D01*
X68970424Y-66243270D01*
X69027573Y-66029986D01*
X69027575Y-66029976D01*
X69046821Y-65810000D01*
X69046821Y-65809999D01*
X69027575Y-65590023D01*
X69027573Y-65590013D01*
X68970424Y-65376729D01*
X68970420Y-65376720D01*
X68877098Y-65176590D01*
X68831740Y-65111811D01*
X68164903Y-65778648D01*
X68164949Y-65778102D01*
X68133734Y-65654838D01*
X68064187Y-65548388D01*
X67963843Y-65470287D01*
X67843578Y-65429000D01*
X67807447Y-65429000D01*
X68478187Y-64758258D01*
X68413409Y-64712900D01*
X68413407Y-64712899D01*
X68283627Y-64652382D01*
X68231187Y-64606210D01*
X68212035Y-64539017D01*
X68232251Y-64472135D01*
X68283627Y-64427618D01*
X68413408Y-64367100D01*
X68413420Y-64367093D01*
X68478186Y-64321742D01*
X68478187Y-64321740D01*
X67807448Y-63651000D01*
X67811569Y-63651000D01*
X67905421Y-63635339D01*
X68017251Y-63574820D01*
X68103371Y-63481269D01*
X68154448Y-63364823D01*
X68160105Y-63296552D01*
X68831740Y-63968187D01*
X68831742Y-63968186D01*
X68877093Y-63903420D01*
X68877100Y-63903408D01*
X68970419Y-63703284D01*
X68970424Y-63703270D01*
X69027573Y-63489986D01*
X69027575Y-63489976D01*
X69046821Y-63270000D01*
X69046821Y-63269999D01*
X69027575Y-63050023D01*
X69027573Y-63050013D01*
X68970424Y-62836729D01*
X68970420Y-62836720D01*
X68877098Y-62636590D01*
X68831740Y-62571811D01*
X68164903Y-63238648D01*
X68164949Y-63238102D01*
X68133734Y-63114838D01*
X68064187Y-63008388D01*
X67963843Y-62930287D01*
X67843578Y-62889000D01*
X67807447Y-62889000D01*
X68478187Y-62218258D01*
X68413409Y-62172900D01*
X68413407Y-62172899D01*
X68284219Y-62112658D01*
X68231779Y-62066486D01*
X68212627Y-61999293D01*
X68232843Y-61932411D01*
X68284219Y-61887894D01*
X68336637Y-61863451D01*
X68413662Y-61827534D01*
X68594620Y-61700826D01*
X68750826Y-61544620D01*
X68877534Y-61363662D01*
X68970894Y-61163450D01*
X69028070Y-60950068D01*
X69047323Y-60730000D01*
X69028070Y-60509932D01*
X68970894Y-60296550D01*
X68877534Y-60096339D01*
X68795723Y-59979500D01*
X68750827Y-59915381D01*
X68683463Y-59848017D01*
X68594620Y-59759174D01*
X68594616Y-59759171D01*
X68594615Y-59759170D01*
X68413666Y-59632468D01*
X68413658Y-59632464D01*
X68284811Y-59572382D01*
X68232371Y-59526210D01*
X68213219Y-59459017D01*
X68233435Y-59392135D01*
X68284811Y-59347618D01*
X68336637Y-59323451D01*
X68413662Y-59287534D01*
X68594620Y-59160826D01*
X68750826Y-59004620D01*
X68877534Y-58823662D01*
X68970894Y-58623450D01*
X69028070Y-58410068D01*
X69047323Y-58190000D01*
X69028070Y-57969932D01*
X68970894Y-57756550D01*
X68877534Y-57556339D01*
X68750826Y-57375380D01*
X68594620Y-57219174D01*
X68594616Y-57219171D01*
X68594615Y-57219170D01*
X68413666Y-57092468D01*
X68413658Y-57092464D01*
X68284811Y-57032382D01*
X68232371Y-56986210D01*
X68213219Y-56919017D01*
X68233435Y-56852135D01*
X68284811Y-56807618D01*
X68336637Y-56783451D01*
X68413662Y-56747534D01*
X68594620Y-56620826D01*
X68750826Y-56464620D01*
X68877534Y-56283662D01*
X68970894Y-56083450D01*
X69028070Y-55870068D01*
X69047323Y-55650000D01*
X69028070Y-55429932D01*
X68970894Y-55216550D01*
X68877534Y-55016339D01*
X68769284Y-54861741D01*
X68750827Y-54835381D01*
X68718528Y-54803082D01*
X68594620Y-54679174D01*
X68594616Y-54679171D01*
X68594615Y-54679170D01*
X68413666Y-54552468D01*
X68413658Y-54552464D01*
X68284811Y-54492382D01*
X68232371Y-54446210D01*
X68213219Y-54379017D01*
X68233435Y-54312135D01*
X68284811Y-54267618D01*
X68327626Y-54247653D01*
X68413662Y-54207534D01*
X68594620Y-54080826D01*
X68750826Y-53924620D01*
X68877534Y-53743662D01*
X68970894Y-53543450D01*
X69028070Y-53330068D01*
X69042509Y-53165017D01*
X69047323Y-53110002D01*
X69047323Y-53109997D01*
X69028070Y-52889937D01*
X69028070Y-52889932D01*
X68970894Y-52676550D01*
X68877534Y-52476339D01*
X68769284Y-52321741D01*
X68750827Y-52295381D01*
X68741448Y-52286002D01*
X73982677Y-52286002D01*
X74001929Y-52506062D01*
X74001930Y-52506070D01*
X74059104Y-52719445D01*
X74059105Y-52719447D01*
X74059106Y-52719450D01*
X74138601Y-52889929D01*
X74152466Y-52919662D01*
X74152468Y-52919666D01*
X74279170Y-53100615D01*
X74279175Y-53100621D01*
X74435378Y-53256824D01*
X74435384Y-53256829D01*
X74616333Y-53383531D01*
X74616335Y-53383532D01*
X74616338Y-53383534D01*
X74816550Y-53476894D01*
X75029932Y-53534070D01*
X75187123Y-53547822D01*
X75249998Y-53553323D01*
X75250000Y-53553323D01*
X75250002Y-53553323D01*
X75306409Y-53548388D01*
X75470068Y-53534070D01*
X75683450Y-53476894D01*
X75883662Y-53383534D01*
X76064620Y-53256826D01*
X76220826Y-53100620D01*
X76347534Y-52919662D01*
X76440894Y-52719450D01*
X76498070Y-52506068D01*
X76516502Y-52295381D01*
X76517323Y-52286002D01*
X76517323Y-52285997D01*
X76504478Y-52139175D01*
X76498070Y-52065932D01*
X76440894Y-51852550D01*
X76347534Y-51652339D01*
X76233847Y-51489976D01*
X76220827Y-51471381D01*
X76174608Y-51425162D01*
X76064620Y-51315174D01*
X76064616Y-51315171D01*
X76064615Y-51315170D01*
X75883666Y-51188468D01*
X75883658Y-51188464D01*
X75754811Y-51128382D01*
X75702371Y-51082210D01*
X75683219Y-51015017D01*
X75703435Y-50948135D01*
X75754811Y-50903618D01*
X75786159Y-50889000D01*
X75883662Y-50843534D01*
X76064620Y-50716826D01*
X76220826Y-50560620D01*
X76347534Y-50379662D01*
X76440894Y-50179450D01*
X76498070Y-49966068D01*
X76517323Y-49746000D01*
X76498070Y-49525932D01*
X76440894Y-49312550D01*
X76347534Y-49112339D01*
X76233913Y-48950070D01*
X76220827Y-48931381D01*
X76220823Y-48931377D01*
X76064620Y-48775174D01*
X76064616Y-48775171D01*
X76064615Y-48775170D01*
X75883666Y-48648468D01*
X75883658Y-48648464D01*
X75754811Y-48588382D01*
X75702371Y-48542210D01*
X75683219Y-48475017D01*
X75703435Y-48408135D01*
X75754811Y-48363618D01*
X75760802Y-48360824D01*
X75883662Y-48303534D01*
X76064620Y-48176826D01*
X76220826Y-48020620D01*
X76347534Y-47839662D01*
X76440894Y-47639450D01*
X76498070Y-47426068D01*
X76513270Y-47252328D01*
X76517323Y-47206002D01*
X76517323Y-47205997D01*
X76504772Y-47062535D01*
X76498070Y-46985932D01*
X76440894Y-46772550D01*
X76347534Y-46572339D01*
X76245272Y-46426293D01*
X76220827Y-46391381D01*
X76174965Y-46345519D01*
X76064620Y-46235174D01*
X76064616Y-46235171D01*
X76064615Y-46235170D01*
X75883666Y-46108468D01*
X75883658Y-46108464D01*
X75754811Y-46048382D01*
X75702371Y-46002210D01*
X75683219Y-45935017D01*
X75703435Y-45868135D01*
X75754811Y-45823618D01*
X75803847Y-45800752D01*
X75883662Y-45763534D01*
X76064620Y-45636826D01*
X76220826Y-45480620D01*
X76347534Y-45299662D01*
X76440894Y-45099450D01*
X76498070Y-44886068D01*
X76517323Y-44666000D01*
X76516397Y-44655421D01*
X76510103Y-44583474D01*
X76498070Y-44445932D01*
X76440894Y-44232550D01*
X76347534Y-44032339D01*
X76233913Y-43870070D01*
X76220827Y-43851381D01*
X76184348Y-43814902D01*
X76064620Y-43695174D01*
X76064616Y-43695171D01*
X76064615Y-43695170D01*
X75883666Y-43568468D01*
X75883658Y-43568464D01*
X75754811Y-43508382D01*
X75702371Y-43462210D01*
X75683219Y-43395017D01*
X75703435Y-43328135D01*
X75754811Y-43283618D01*
X75760802Y-43280824D01*
X75883662Y-43223534D01*
X76064620Y-43096826D01*
X76220826Y-42940620D01*
X76347534Y-42759662D01*
X76440894Y-42559450D01*
X76498070Y-42346068D01*
X76517323Y-42126000D01*
X76498070Y-41905932D01*
X76440894Y-41692550D01*
X76347534Y-41492339D01*
X76233913Y-41330070D01*
X76220827Y-41311381D01*
X76220823Y-41311377D01*
X76064620Y-41155174D01*
X76064616Y-41155171D01*
X76064615Y-41155170D01*
X75883666Y-41028468D01*
X75883658Y-41028464D01*
X75754811Y-40968382D01*
X75702371Y-40922210D01*
X75683219Y-40855017D01*
X75703435Y-40788135D01*
X75754811Y-40743618D01*
X75760802Y-40740824D01*
X75883662Y-40683534D01*
X76064620Y-40556826D01*
X76220826Y-40400620D01*
X76347534Y-40219662D01*
X76440894Y-40019450D01*
X76498070Y-39806068D01*
X76512509Y-39641017D01*
X76517323Y-39586002D01*
X76517323Y-39585997D01*
X76501050Y-39399999D01*
X76498070Y-39365932D01*
X76440894Y-39152550D01*
X76347534Y-38952339D01*
X76233913Y-38790070D01*
X76220827Y-38771381D01*
X76189707Y-38740261D01*
X76064620Y-38615174D01*
X76064616Y-38615171D01*
X76064615Y-38615170D01*
X75883666Y-38488468D01*
X75883658Y-38488464D01*
X75754219Y-38428106D01*
X75701779Y-38381934D01*
X75682627Y-38314741D01*
X75702843Y-38247859D01*
X75754219Y-38203342D01*
X75883408Y-38143100D01*
X75883420Y-38143093D01*
X75948186Y-38097742D01*
X75948187Y-38097740D01*
X75277448Y-37427000D01*
X75281569Y-37427000D01*
X75375421Y-37411339D01*
X75487251Y-37350820D01*
X75573371Y-37257269D01*
X75624448Y-37140823D01*
X75630105Y-37072552D01*
X76301740Y-37744187D01*
X76301742Y-37744186D01*
X76347093Y-37679420D01*
X76347100Y-37679408D01*
X76440419Y-37479284D01*
X76440424Y-37479270D01*
X76497573Y-37265986D01*
X76497575Y-37265976D01*
X76516821Y-37046000D01*
X76516821Y-37045999D01*
X76497575Y-36826023D01*
X76497573Y-36826013D01*
X76440424Y-36612729D01*
X76440420Y-36612720D01*
X76347098Y-36412590D01*
X76301740Y-36347811D01*
X75634903Y-37014648D01*
X75634949Y-37014102D01*
X75603734Y-36890838D01*
X75534187Y-36784388D01*
X75433843Y-36706287D01*
X75313578Y-36665000D01*
X75277447Y-36665000D01*
X75948187Y-35994258D01*
X75883409Y-35948900D01*
X75883407Y-35948899D01*
X75754219Y-35888658D01*
X75701779Y-35842486D01*
X75682627Y-35775293D01*
X75702843Y-35708411D01*
X75754219Y-35663894D01*
X75798788Y-35643111D01*
X75883662Y-35603534D01*
X76064620Y-35476826D01*
X76220826Y-35320620D01*
X76347534Y-35139662D01*
X76440894Y-34939450D01*
X76498070Y-34726068D01*
X76514786Y-34535000D01*
X76517323Y-34506002D01*
X76517323Y-34505997D01*
X76498070Y-34285937D01*
X76498070Y-34285932D01*
X76440894Y-34072550D01*
X76347534Y-33872339D01*
X76262567Y-33750993D01*
X76220827Y-33691381D01*
X76194073Y-33664627D01*
X76064620Y-33535174D01*
X76064616Y-33535171D01*
X76064615Y-33535170D01*
X75883666Y-33408468D01*
X75883658Y-33408464D01*
X75754811Y-33348382D01*
X75702371Y-33302210D01*
X75683219Y-33235017D01*
X75703435Y-33168135D01*
X75754811Y-33123618D01*
X75766477Y-33118178D01*
X75883662Y-33063534D01*
X76064620Y-32936826D01*
X76220826Y-32780620D01*
X76347534Y-32599662D01*
X76440894Y-32399450D01*
X76498070Y-32186068D01*
X76517323Y-31966000D01*
X76517062Y-31963022D01*
X76501224Y-31781982D01*
X76498070Y-31745932D01*
X76440894Y-31532550D01*
X76347534Y-31332339D01*
X76245048Y-31185973D01*
X76220827Y-31151381D01*
X76160668Y-31091222D01*
X76064620Y-30995174D01*
X76064616Y-30995171D01*
X76064615Y-30995170D01*
X75883666Y-30868468D01*
X75883658Y-30868464D01*
X75754811Y-30808382D01*
X75702371Y-30762210D01*
X75683219Y-30695017D01*
X75703435Y-30628135D01*
X75754811Y-30583618D01*
X75760802Y-30580824D01*
X75883662Y-30523534D01*
X76064620Y-30396826D01*
X76220826Y-30240620D01*
X76347534Y-30059662D01*
X76440894Y-29859450D01*
X76498070Y-29646068D01*
X76517323Y-29426000D01*
X76516789Y-29419901D01*
X76504959Y-29284680D01*
X76498070Y-29205932D01*
X76440894Y-28992550D01*
X76347534Y-28792339D01*
X76229196Y-28623333D01*
X76220827Y-28611381D01*
X76159445Y-28549999D01*
X76064620Y-28455174D01*
X76064616Y-28455171D01*
X76064615Y-28455170D01*
X75883666Y-28328468D01*
X75883662Y-28328466D01*
X75822616Y-28300000D01*
X75683450Y-28235106D01*
X75683447Y-28235105D01*
X75683445Y-28235104D01*
X75470070Y-28177930D01*
X75470062Y-28177929D01*
X75250002Y-28158677D01*
X75249998Y-28158677D01*
X75029937Y-28177929D01*
X75029929Y-28177930D01*
X74816554Y-28235104D01*
X74816548Y-28235107D01*
X74616340Y-28328465D01*
X74616338Y-28328466D01*
X74435377Y-28455175D01*
X74279175Y-28611377D01*
X74152466Y-28792338D01*
X74152465Y-28792340D01*
X74059107Y-28992548D01*
X74059104Y-28992554D01*
X74001930Y-29205929D01*
X74001929Y-29205937D01*
X73982677Y-29425997D01*
X73982677Y-29426002D01*
X74001929Y-29646062D01*
X74001930Y-29646070D01*
X74059104Y-29859445D01*
X74059105Y-29859447D01*
X74059106Y-29859450D01*
X74143419Y-30040261D01*
X74152466Y-30059662D01*
X74152468Y-30059666D01*
X74279170Y-30240615D01*
X74279175Y-30240621D01*
X74435378Y-30396824D01*
X74435384Y-30396829D01*
X74616333Y-30523531D01*
X74616335Y-30523532D01*
X74616338Y-30523534D01*
X74735748Y-30579215D01*
X74745189Y-30583618D01*
X74797628Y-30629790D01*
X74816780Y-30696984D01*
X74796564Y-30763865D01*
X74745189Y-30808382D01*
X74616340Y-30868465D01*
X74616338Y-30868466D01*
X74435377Y-30995175D01*
X74279175Y-31151377D01*
X74152466Y-31332338D01*
X74152465Y-31332340D01*
X74059107Y-31532548D01*
X74059104Y-31532554D01*
X74001930Y-31745929D01*
X74001929Y-31745937D01*
X73982677Y-31965997D01*
X73982677Y-31966002D01*
X74001929Y-32186062D01*
X74001930Y-32186070D01*
X74059104Y-32399445D01*
X74059105Y-32399447D01*
X74059106Y-32399450D01*
X74152390Y-32599500D01*
X74152466Y-32599662D01*
X74152468Y-32599666D01*
X74279170Y-32780615D01*
X74279175Y-32780621D01*
X74435378Y-32936824D01*
X74435384Y-32936829D01*
X74616333Y-33063531D01*
X74616335Y-33063532D01*
X74616338Y-33063534D01*
X74733523Y-33118178D01*
X74745189Y-33123618D01*
X74797628Y-33169790D01*
X74816780Y-33236984D01*
X74796564Y-33303865D01*
X74745189Y-33348382D01*
X74616340Y-33408465D01*
X74616338Y-33408466D01*
X74435377Y-33535175D01*
X74279175Y-33691377D01*
X74152466Y-33872338D01*
X74152465Y-33872340D01*
X74059107Y-34072548D01*
X74059104Y-34072554D01*
X74001930Y-34285929D01*
X74001929Y-34285937D01*
X73982677Y-34505997D01*
X73982677Y-34506002D01*
X74001929Y-34726062D01*
X74001930Y-34726070D01*
X74059104Y-34939445D01*
X74059105Y-34939447D01*
X74059106Y-34939450D01*
X74115154Y-35059646D01*
X74152466Y-35139662D01*
X74152468Y-35139666D01*
X74279170Y-35320615D01*
X74279175Y-35320621D01*
X74435378Y-35476824D01*
X74435384Y-35476829D01*
X74616333Y-35603531D01*
X74616335Y-35603532D01*
X74616338Y-35603534D01*
X74701212Y-35643111D01*
X74745781Y-35663894D01*
X74798220Y-35710066D01*
X74817372Y-35777260D01*
X74797156Y-35844141D01*
X74745781Y-35888658D01*
X74616586Y-35948903D01*
X74551812Y-35994257D01*
X74551811Y-35994258D01*
X75222554Y-36665000D01*
X75218431Y-36665000D01*
X75124579Y-36680661D01*
X75012749Y-36741180D01*
X74926629Y-36834731D01*
X74875552Y-36951177D01*
X74869894Y-37019447D01*
X74198258Y-36347811D01*
X74198257Y-36347812D01*
X74152903Y-36412586D01*
X74059579Y-36612720D01*
X74059575Y-36612729D01*
X74002426Y-36826013D01*
X74002424Y-36826023D01*
X73983179Y-37045999D01*
X73983179Y-37046000D01*
X74002424Y-37265976D01*
X74002426Y-37265986D01*
X74059575Y-37479270D01*
X74059580Y-37479284D01*
X74152899Y-37679407D01*
X74152900Y-37679409D01*
X74198258Y-37744187D01*
X74865096Y-37077349D01*
X74865051Y-37077898D01*
X74896266Y-37201162D01*
X74965813Y-37307612D01*
X75066157Y-37385713D01*
X75186422Y-37427000D01*
X75222553Y-37427000D01*
X74551811Y-38097741D01*
X74616582Y-38143094D01*
X74616588Y-38143098D01*
X74745781Y-38203342D01*
X74798220Y-38249514D01*
X74817372Y-38316708D01*
X74797156Y-38383589D01*
X74745781Y-38428106D01*
X74616340Y-38488465D01*
X74616338Y-38488466D01*
X74435377Y-38615175D01*
X74279175Y-38771377D01*
X74152466Y-38952338D01*
X74152465Y-38952340D01*
X74059107Y-39152548D01*
X74059104Y-39152554D01*
X74001930Y-39365929D01*
X74001929Y-39365937D01*
X73982677Y-39585997D01*
X73982677Y-39586002D01*
X74001929Y-39806062D01*
X74001930Y-39806070D01*
X74059104Y-40019445D01*
X74059105Y-40019447D01*
X74059106Y-40019450D01*
X74134821Y-40181821D01*
X74152466Y-40219662D01*
X74152468Y-40219666D01*
X74279170Y-40400615D01*
X74279175Y-40400621D01*
X74435378Y-40556824D01*
X74435384Y-40556829D01*
X74616333Y-40683531D01*
X74616335Y-40683532D01*
X74616338Y-40683534D01*
X74735748Y-40739215D01*
X74745189Y-40743618D01*
X74797628Y-40789790D01*
X74816780Y-40856984D01*
X74796564Y-40923865D01*
X74745189Y-40968382D01*
X74616340Y-41028465D01*
X74616338Y-41028466D01*
X74435377Y-41155175D01*
X74279175Y-41311377D01*
X74152466Y-41492338D01*
X74152465Y-41492340D01*
X74059107Y-41692548D01*
X74059104Y-41692554D01*
X74001930Y-41905929D01*
X74001929Y-41905937D01*
X73982677Y-42125997D01*
X73982677Y-42126002D01*
X74001929Y-42346062D01*
X74001930Y-42346070D01*
X74059104Y-42559445D01*
X74059105Y-42559447D01*
X74059106Y-42559450D01*
X74152466Y-42759662D01*
X74152468Y-42759666D01*
X74279170Y-42940615D01*
X74279175Y-42940621D01*
X74435378Y-43096824D01*
X74435384Y-43096829D01*
X74616333Y-43223531D01*
X74616335Y-43223532D01*
X74616338Y-43223534D01*
X74735748Y-43279215D01*
X74745189Y-43283618D01*
X74797628Y-43329790D01*
X74816780Y-43396984D01*
X74796564Y-43463865D01*
X74745189Y-43508382D01*
X74616340Y-43568465D01*
X74616338Y-43568466D01*
X74435377Y-43695175D01*
X74279175Y-43851377D01*
X74152466Y-44032338D01*
X74152465Y-44032340D01*
X74059107Y-44232548D01*
X74059104Y-44232554D01*
X74001930Y-44445929D01*
X74001929Y-44445937D01*
X73982677Y-44665997D01*
X73982677Y-44666002D01*
X74001929Y-44886062D01*
X74001930Y-44886070D01*
X74059104Y-45099445D01*
X74059105Y-45099447D01*
X74059106Y-45099450D01*
X74110960Y-45210651D01*
X74152466Y-45299662D01*
X74152468Y-45299666D01*
X74279170Y-45480615D01*
X74279175Y-45480621D01*
X74435378Y-45636824D01*
X74435384Y-45636829D01*
X74616333Y-45763531D01*
X74616335Y-45763532D01*
X74616338Y-45763534D01*
X74696153Y-45800752D01*
X74745189Y-45823618D01*
X74797628Y-45869790D01*
X74816780Y-45936984D01*
X74796564Y-46003865D01*
X74745189Y-46048382D01*
X74616340Y-46108465D01*
X74616338Y-46108466D01*
X74435377Y-46235175D01*
X74279175Y-46391377D01*
X74152466Y-46572338D01*
X74152465Y-46572340D01*
X74059107Y-46772548D01*
X74059104Y-46772554D01*
X74001930Y-46985929D01*
X74001929Y-46985937D01*
X73982677Y-47205997D01*
X73982677Y-47206002D01*
X74001929Y-47426062D01*
X74001930Y-47426070D01*
X74059104Y-47639445D01*
X74059105Y-47639447D01*
X74059106Y-47639450D01*
X74124908Y-47780563D01*
X74152466Y-47839662D01*
X74152468Y-47839666D01*
X74279170Y-48020615D01*
X74279175Y-48020621D01*
X74435378Y-48176824D01*
X74435384Y-48176829D01*
X74616333Y-48303531D01*
X74616335Y-48303532D01*
X74616338Y-48303534D01*
X74735748Y-48359215D01*
X74745189Y-48363618D01*
X74797628Y-48409790D01*
X74816780Y-48476984D01*
X74796564Y-48543865D01*
X74745189Y-48588382D01*
X74616340Y-48648465D01*
X74616338Y-48648466D01*
X74435377Y-48775175D01*
X74279175Y-48931377D01*
X74152466Y-49112338D01*
X74152465Y-49112340D01*
X74059107Y-49312548D01*
X74059104Y-49312554D01*
X74001930Y-49525929D01*
X74001929Y-49525937D01*
X73982677Y-49745997D01*
X73982677Y-49746002D01*
X74001929Y-49966062D01*
X74001930Y-49966070D01*
X74059104Y-50179445D01*
X74059105Y-50179447D01*
X74059106Y-50179450D01*
X74119231Y-50308388D01*
X74152466Y-50379662D01*
X74152468Y-50379666D01*
X74279170Y-50560615D01*
X74279175Y-50560621D01*
X74435378Y-50716824D01*
X74435384Y-50716829D01*
X74616333Y-50843531D01*
X74616335Y-50843532D01*
X74616338Y-50843534D01*
X74713841Y-50889000D01*
X74745189Y-50903618D01*
X74797628Y-50949790D01*
X74816780Y-51016984D01*
X74796564Y-51083865D01*
X74745189Y-51128382D01*
X74616340Y-51188465D01*
X74616338Y-51188466D01*
X74435377Y-51315175D01*
X74279175Y-51471377D01*
X74152466Y-51652338D01*
X74152465Y-51652340D01*
X74059107Y-51852548D01*
X74059104Y-51852554D01*
X74001930Y-52065929D01*
X74001929Y-52065937D01*
X73982677Y-52285997D01*
X73982677Y-52286002D01*
X68741448Y-52286002D01*
X68710864Y-52255418D01*
X68594620Y-52139174D01*
X68594616Y-52139171D01*
X68594615Y-52139170D01*
X68413666Y-52012468D01*
X68413658Y-52012464D01*
X68284219Y-51952106D01*
X68231779Y-51905934D01*
X68212627Y-51838741D01*
X68232843Y-51771859D01*
X68284219Y-51727342D01*
X68413408Y-51667100D01*
X68413420Y-51667093D01*
X68478186Y-51621742D01*
X68478187Y-51621740D01*
X67807448Y-50951000D01*
X67811569Y-50951000D01*
X67905421Y-50935339D01*
X68017251Y-50874820D01*
X68103371Y-50781269D01*
X68154448Y-50664823D01*
X68160105Y-50596552D01*
X68831740Y-51268187D01*
X68831742Y-51268186D01*
X68877093Y-51203420D01*
X68877100Y-51203408D01*
X68970419Y-51003284D01*
X68970424Y-51003270D01*
X69027573Y-50789986D01*
X69027575Y-50789976D01*
X69046821Y-50570000D01*
X69046821Y-50569999D01*
X69027575Y-50350023D01*
X69027573Y-50350013D01*
X68970424Y-50136729D01*
X68970420Y-50136720D01*
X68877098Y-49936590D01*
X68831740Y-49871811D01*
X68164903Y-50538648D01*
X68164949Y-50538102D01*
X68133734Y-50414838D01*
X68064187Y-50308388D01*
X67963843Y-50230287D01*
X67843578Y-50189000D01*
X67807447Y-50189000D01*
X68478187Y-49518258D01*
X68413409Y-49472900D01*
X68413407Y-49472899D01*
X68284219Y-49412658D01*
X68231779Y-49366486D01*
X68212627Y-49299293D01*
X68232843Y-49232411D01*
X68284219Y-49187894D01*
X68336637Y-49163451D01*
X68413662Y-49127534D01*
X68594620Y-49000826D01*
X68750826Y-48844620D01*
X68877534Y-48663662D01*
X68970894Y-48463450D01*
X69028070Y-48250068D01*
X69046530Y-48039067D01*
X69047323Y-48030002D01*
X69047323Y-48029997D01*
X69029533Y-47826656D01*
X69028070Y-47809932D01*
X68970894Y-47596550D01*
X68877534Y-47396339D01*
X68776697Y-47252328D01*
X68750827Y-47215381D01*
X68675472Y-47140026D01*
X68594620Y-47059174D01*
X68546889Y-47025752D01*
X68530333Y-47011859D01*
X68380655Y-46862181D01*
X68347170Y-46800858D01*
X68352154Y-46731166D01*
X68394026Y-46675233D01*
X68459490Y-46650816D01*
X68468336Y-46650500D01*
X68726293Y-46650500D01*
X68733231Y-46650889D01*
X68771827Y-46655238D01*
X68771829Y-46655237D01*
X68771830Y-46655238D01*
X68789586Y-46654040D01*
X68840032Y-46650639D01*
X68844188Y-46650500D01*
X68856147Y-46650500D01*
X68856155Y-46650500D01*
X68898123Y-46646722D01*
X68996412Y-46640096D01*
X69000646Y-46639028D01*
X69019841Y-46635767D01*
X69024188Y-46635377D01*
X69119165Y-46609164D01*
X69214683Y-46585096D01*
X69218655Y-46583291D01*
X69236962Y-46576654D01*
X69241170Y-46575493D01*
X69329935Y-46532746D01*
X69419626Y-46492007D01*
X69423220Y-46489516D01*
X69440035Y-46479724D01*
X69443973Y-46477829D01*
X69523676Y-46419921D01*
X69604654Y-46363820D01*
X69607743Y-46360730D01*
X69622545Y-46348088D01*
X69626078Y-46345522D01*
X69694153Y-46274320D01*
X70123944Y-45844530D01*
X70232068Y-45715019D01*
X70343153Y-45519245D01*
X70417498Y-45306783D01*
X70431374Y-45219174D01*
X70452710Y-45084463D01*
X70450831Y-45000750D01*
X70447659Y-44859423D01*
X70402508Y-44638904D01*
X70395256Y-44620826D01*
X70318706Y-44429989D01*
X70198947Y-44239395D01*
X70047087Y-44073253D01*
X70047081Y-44073248D01*
X69867994Y-43936891D01*
X69867990Y-43936889D01*
X69667434Y-43834701D01*
X69667430Y-43834699D01*
X69451851Y-43769964D01*
X69228178Y-43744763D01*
X69228167Y-43744762D01*
X69003589Y-43759903D01*
X69003586Y-43759903D01*
X68785320Y-43814902D01*
X68785317Y-43814903D01*
X68580377Y-43907991D01*
X68580367Y-43907997D01*
X68395353Y-44036174D01*
X68395341Y-44036184D01*
X68318345Y-44113181D01*
X68257022Y-44146666D01*
X68230664Y-44149500D01*
X67624500Y-44149500D01*
X67557461Y-44129815D01*
X67511706Y-44077011D01*
X67500500Y-44025500D01*
X67500500Y-37160132D01*
X67518960Y-37095036D01*
X67534814Y-37069334D01*
X67589999Y-36902797D01*
X67600500Y-36800009D01*
X67600499Y-35199992D01*
X67597682Y-35172420D01*
X67589999Y-35097203D01*
X67589998Y-35097200D01*
X67577554Y-35059646D01*
X67534814Y-34930666D01*
X67442712Y-34781344D01*
X67318656Y-34657288D01*
X67169334Y-34565186D01*
X67002797Y-34510001D01*
X67002795Y-34510000D01*
X66900010Y-34499500D01*
X65599998Y-34499500D01*
X65599981Y-34499501D01*
X65497203Y-34510000D01*
X65497200Y-34510001D01*
X65330668Y-34565185D01*
X65330663Y-34565187D01*
X65181342Y-34657289D01*
X65057288Y-34781343D01*
X65057285Y-34781347D01*
X64961550Y-34936558D01*
X64909602Y-34983283D01*
X64840640Y-34994504D01*
X64776558Y-34966661D01*
X64768331Y-34959143D01*
X64621078Y-34811891D01*
X64427578Y-34676399D01*
X64213492Y-34576570D01*
X64213486Y-34576567D01*
X64000000Y-34519364D01*
X64000000Y-35564498D01*
X63892315Y-35515320D01*
X63785763Y-35500000D01*
X63714237Y-35500000D01*
X63607685Y-35515320D01*
X63500000Y-35564498D01*
X63500000Y-34519364D01*
X63499999Y-34519364D01*
X63286513Y-34576567D01*
X63286507Y-34576570D01*
X63072422Y-34676399D01*
X63072420Y-34676400D01*
X62878926Y-34811886D01*
X62878920Y-34811891D01*
X62711891Y-34978920D01*
X62711886Y-34978926D01*
X62576400Y-35172420D01*
X62576399Y-35172422D01*
X62476570Y-35386507D01*
X62476566Y-35386516D01*
X62415432Y-35614673D01*
X62415430Y-35614684D01*
X62403592Y-35749999D01*
X62403593Y-35750000D01*
X63316314Y-35750000D01*
X63290507Y-35790156D01*
X63250000Y-35928111D01*
X63250000Y-36071889D01*
X63290507Y-36209844D01*
X63316314Y-36250000D01*
X62403592Y-36250000D01*
X62415430Y-36385315D01*
X62415432Y-36385326D01*
X62476566Y-36613483D01*
X62476570Y-36613492D01*
X62576399Y-36827577D01*
X62576400Y-36827579D01*
X62711886Y-37021073D01*
X62711891Y-37021079D01*
X62878917Y-37188105D01*
X63072421Y-37323600D01*
X63286507Y-37423429D01*
X63286516Y-37423433D01*
X63500000Y-37480634D01*
X63500000Y-36435501D01*
X63607685Y-36484680D01*
X63714237Y-36500000D01*
X63785763Y-36500000D01*
X63892315Y-36484680D01*
X64000000Y-36435501D01*
X64000000Y-37480634D01*
X64213483Y-37423433D01*
X64213492Y-37423429D01*
X64427577Y-37323600D01*
X64427579Y-37323599D01*
X64621073Y-37188113D01*
X64621079Y-37188108D01*
X64768331Y-37040857D01*
X64829654Y-37007372D01*
X64899346Y-37012356D01*
X64955279Y-37054228D01*
X64961550Y-37063440D01*
X64981038Y-37095034D01*
X64999500Y-37160132D01*
X64999500Y-45370551D01*
X64999438Y-45373307D01*
X64997350Y-45419815D01*
X64995710Y-45456327D01*
X64995710Y-45456329D01*
X64998938Y-45480163D01*
X64999500Y-45488494D01*
X64999500Y-46426293D01*
X64999110Y-46433231D01*
X64996792Y-46453804D01*
X64994762Y-46471823D01*
X64994761Y-46471831D01*
X64999359Y-46540013D01*
X64999500Y-46544186D01*
X64999500Y-46556156D01*
X65003277Y-46598124D01*
X65009903Y-46696407D01*
X65009903Y-46696412D01*
X65010972Y-46700652D01*
X65014230Y-46719824D01*
X65014623Y-46724190D01*
X65040835Y-46819165D01*
X65064903Y-46914681D01*
X65066715Y-46918670D01*
X65073340Y-46936944D01*
X65074504Y-46941162D01*
X65074507Y-46941170D01*
X65117253Y-47029935D01*
X65157993Y-47119626D01*
X65157994Y-47119629D01*
X65160483Y-47123221D01*
X65170269Y-47140026D01*
X65172166Y-47143965D01*
X65172174Y-47143979D01*
X65230078Y-47223676D01*
X65286180Y-47304655D01*
X65289273Y-47307748D01*
X65301907Y-47322539D01*
X65304478Y-47326078D01*
X65304481Y-47326081D01*
X65375679Y-47394153D01*
X66761859Y-48780333D01*
X66775752Y-48796889D01*
X66809174Y-48844620D01*
X66809175Y-48844621D01*
X66809176Y-48844622D01*
X66965378Y-49000824D01*
X66965384Y-49000829D01*
X67146333Y-49127531D01*
X67146335Y-49127532D01*
X67146338Y-49127534D01*
X67223363Y-49163451D01*
X67275781Y-49187894D01*
X67328220Y-49234066D01*
X67347372Y-49301260D01*
X67327156Y-49368141D01*
X67275781Y-49412658D01*
X67146586Y-49472903D01*
X67081812Y-49518257D01*
X67081811Y-49518258D01*
X67752554Y-50189000D01*
X67748431Y-50189000D01*
X67654579Y-50204661D01*
X67542749Y-50265180D01*
X67456629Y-50358731D01*
X67405552Y-50475177D01*
X67399894Y-50543447D01*
X66728258Y-49871811D01*
X66728257Y-49871812D01*
X66682903Y-49936586D01*
X66589579Y-50136720D01*
X66589575Y-50136729D01*
X66532426Y-50350013D01*
X66532424Y-50350023D01*
X66513179Y-50569999D01*
X66513179Y-50570000D01*
X66532424Y-50789976D01*
X66532426Y-50789986D01*
X66589575Y-51003270D01*
X66589580Y-51003284D01*
X66682899Y-51203407D01*
X66682900Y-51203409D01*
X66728258Y-51268187D01*
X67395096Y-50601349D01*
X67395051Y-50601898D01*
X67426266Y-50725162D01*
X67495813Y-50831612D01*
X67596157Y-50909713D01*
X67716422Y-50951000D01*
X67752553Y-50951000D01*
X67081811Y-51621741D01*
X67146582Y-51667094D01*
X67146588Y-51667098D01*
X67275781Y-51727342D01*
X67328220Y-51773514D01*
X67347372Y-51840708D01*
X67327156Y-51907589D01*
X67275781Y-51952106D01*
X67146340Y-52012465D01*
X67146338Y-52012466D01*
X67076691Y-52061233D01*
X67039784Y-52087075D01*
X66973580Y-52109402D01*
X66968663Y-52109500D01*
X64075782Y-52109500D01*
X64008743Y-52089815D01*
X63988101Y-52073181D01*
X58036819Y-46121899D01*
X58003334Y-46060576D01*
X58000500Y-46034218D01*
X58000500Y-37428957D01*
X58020185Y-37361918D01*
X58059407Y-37323416D01*
X58068656Y-37317712D01*
X58192712Y-37193656D01*
X58284814Y-37044334D01*
X58339999Y-36877797D01*
X58350500Y-36775009D01*
X58350499Y-35224992D01*
X58339999Y-35122203D01*
X58284814Y-34955666D01*
X58192712Y-34806344D01*
X58068656Y-34682288D01*
X57975888Y-34625069D01*
X57919336Y-34590187D01*
X57919331Y-34590185D01*
X57894570Y-34581980D01*
X57752797Y-34535001D01*
X57752795Y-34535000D01*
X57650010Y-34524500D01*
X56349998Y-34524500D01*
X56349981Y-34524501D01*
X56247203Y-34535000D01*
X56247200Y-34535001D01*
X56080668Y-34590185D01*
X56080663Y-34590187D01*
X55931342Y-34682289D01*
X55807289Y-34806342D01*
X55711821Y-34961121D01*
X55659873Y-35007845D01*
X55590910Y-35019068D01*
X55526828Y-34991224D01*
X55518601Y-34983705D01*
X55371402Y-34836506D01*
X55371395Y-34836501D01*
X55177834Y-34700967D01*
X55177830Y-34700965D01*
X55090836Y-34660399D01*
X54963663Y-34601097D01*
X54963659Y-34601096D01*
X54963655Y-34601094D01*
X54735413Y-34539938D01*
X54735403Y-34539936D01*
X54500001Y-34519341D01*
X54499999Y-34519341D01*
X54264596Y-34539936D01*
X54264586Y-34539938D01*
X54036344Y-34601094D01*
X54036335Y-34601098D01*
X53822171Y-34700964D01*
X53822169Y-34700965D01*
X53628597Y-34836505D01*
X53461505Y-35003597D01*
X53351575Y-35160595D01*
X53296998Y-35204220D01*
X53227500Y-35211414D01*
X53165145Y-35179891D01*
X53148425Y-35160595D01*
X53038494Y-35003597D01*
X52871402Y-34836506D01*
X52871395Y-34836501D01*
X52677834Y-34700967D01*
X52677830Y-34700965D01*
X52590836Y-34660399D01*
X52463663Y-34601097D01*
X52463659Y-34601096D01*
X52463655Y-34601094D01*
X52235413Y-34539938D01*
X52235403Y-34539936D01*
X52000001Y-34519341D01*
X51999999Y-34519341D01*
X51764596Y-34539936D01*
X51764586Y-34539938D01*
X51536344Y-34601094D01*
X51536335Y-34601098D01*
X51322171Y-34700964D01*
X51322169Y-34700965D01*
X51128597Y-34836505D01*
X50961505Y-35003597D01*
X50851575Y-35160595D01*
X50796998Y-35204220D01*
X50727500Y-35211414D01*
X50665145Y-35179891D01*
X50648425Y-35160595D01*
X50538494Y-35003597D01*
X50371402Y-34836506D01*
X50371395Y-34836501D01*
X50177834Y-34700967D01*
X50177830Y-34700965D01*
X50090836Y-34660399D01*
X49963663Y-34601097D01*
X49963659Y-34601096D01*
X49963655Y-34601094D01*
X49735413Y-34539938D01*
X49735403Y-34539936D01*
X49500001Y-34519341D01*
X49499999Y-34519341D01*
X49264596Y-34539936D01*
X49264586Y-34539938D01*
X49036344Y-34601094D01*
X49036335Y-34601098D01*
X48822171Y-34700964D01*
X48822169Y-34700965D01*
X48628597Y-34836505D01*
X48461505Y-35003597D01*
X48325965Y-35197169D01*
X48325964Y-35197171D01*
X48226098Y-35411335D01*
X48226094Y-35411344D01*
X48164938Y-35639586D01*
X48164936Y-35639596D01*
X48149500Y-35816034D01*
X48149500Y-36183966D01*
X45090499Y-36183966D01*
X45090499Y-36102128D01*
X45084091Y-36042517D01*
X45075013Y-36018178D01*
X45033797Y-35907671D01*
X45033793Y-35907664D01*
X44947547Y-35792455D01*
X44947544Y-35792452D01*
X44832335Y-35706206D01*
X44832324Y-35706200D01*
X44827385Y-35704358D01*
X44771453Y-35662484D01*
X44747039Y-35597019D01*
X44759723Y-35532906D01*
X44776882Y-35498447D01*
X44796575Y-35458897D01*
X44852390Y-35262730D01*
X44871208Y-35059647D01*
X44852390Y-34856564D01*
X44796575Y-34660397D01*
X44795027Y-34657289D01*
X44781326Y-34629772D01*
X44769065Y-34560986D01*
X44795938Y-34496492D01*
X44853414Y-34456764D01*
X44892326Y-34450500D01*
X46241693Y-34450500D01*
X46308732Y-34470185D01*
X46325231Y-34482863D01*
X46433958Y-34581980D01*
X46433960Y-34581982D01*
X46464832Y-34601097D01*
X46607363Y-34689348D01*
X46797544Y-34763024D01*
X46998024Y-34800500D01*
X46998026Y-34800500D01*
X47201974Y-34800500D01*
X47201976Y-34800500D01*
X47402456Y-34763024D01*
X47592637Y-34689348D01*
X47766041Y-34581981D01*
X47916764Y-34444579D01*
X48039673Y-34281821D01*
X48130582Y-34099250D01*
X48186397Y-33903083D01*
X48205215Y-33700000D01*
X48186397Y-33496917D01*
X48130582Y-33300750D01*
X48109260Y-33257930D01*
X48086272Y-33211764D01*
X48039673Y-33118179D01*
X47943653Y-32991028D01*
X47916762Y-32955418D01*
X47766041Y-32818019D01*
X47766039Y-32818017D01*
X47592642Y-32710655D01*
X47592635Y-32710651D01*
X47497546Y-32673814D01*
X47402456Y-32636976D01*
X47201976Y-32599500D01*
X46998024Y-32599500D01*
X46797544Y-32636976D01*
X46797541Y-32636976D01*
X46797541Y-32636977D01*
X46607364Y-32710651D01*
X46607357Y-32710655D01*
X46433960Y-32818017D01*
X46433958Y-32818019D01*
X46325231Y-32917137D01*
X46262427Y-32947754D01*
X46241693Y-32949500D01*
X43563705Y-32949500D01*
X43545735Y-32948191D01*
X43521972Y-32944710D01*
X43476890Y-32948655D01*
X43469933Y-32949264D01*
X43464532Y-32949500D01*
X43456287Y-32949500D01*
X43430222Y-32952546D01*
X43423705Y-32953308D01*
X43418403Y-32953771D01*
X43347201Y-32960001D01*
X43340134Y-32961461D01*
X43340122Y-32961404D01*
X43332753Y-32963038D01*
X43332767Y-32963095D01*
X43325739Y-32964760D01*
X43253568Y-32991028D01*
X43180665Y-33015186D01*
X43180663Y-33015186D01*
X43180660Y-33015188D01*
X43174123Y-33018236D01*
X43174098Y-33018184D01*
X43167310Y-33021470D01*
X43167336Y-33021521D01*
X43160885Y-33024761D01*
X43096723Y-33066961D01*
X43031346Y-33107285D01*
X43025682Y-33111765D01*
X43025646Y-33111719D01*
X43019798Y-33116484D01*
X43019835Y-33116528D01*
X43014310Y-33121164D01*
X43014304Y-33121169D01*
X43014304Y-33121170D01*
X42961614Y-33177017D01*
X40714358Y-35424272D01*
X40700729Y-35436051D01*
X40681468Y-35450390D01*
X40647898Y-35490397D01*
X40644253Y-35494376D01*
X40638409Y-35500222D01*
X40618059Y-35525959D01*
X40568695Y-35584789D01*
X40564729Y-35590819D01*
X40564682Y-35590788D01*
X40560630Y-35597147D01*
X40560679Y-35597177D01*
X40556889Y-35603321D01*
X40524424Y-35672941D01*
X40489960Y-35741566D01*
X40487488Y-35748357D01*
X40487432Y-35748336D01*
X40484960Y-35755450D01*
X40485015Y-35755469D01*
X40482742Y-35762326D01*
X40470679Y-35820750D01*
X40437844Y-35882424D01*
X40420366Y-35897248D01*
X40346602Y-35948899D01*
X40328604Y-35961502D01*
X40328595Y-35961508D01*
X40161505Y-36128597D01*
X40031575Y-36314158D01*
X39976998Y-36357783D01*
X39907500Y-36364977D01*
X39845145Y-36333454D01*
X39828425Y-36314158D01*
X39698494Y-36128597D01*
X39531402Y-35961506D01*
X39531401Y-35961505D01*
X39454551Y-35907694D01*
X39410926Y-35853117D01*
X39403734Y-35783618D01*
X39426719Y-35731396D01*
X39539673Y-35581821D01*
X39630582Y-35399250D01*
X39686397Y-35203083D01*
X39705215Y-35000000D01*
X39686397Y-34796917D01*
X39630582Y-34600750D01*
X39625322Y-34590187D01*
X39578668Y-34496492D01*
X39539673Y-34418179D01*
X39439803Y-34285929D01*
X39416762Y-34255418D01*
X39266041Y-34118019D01*
X39266039Y-34118017D01*
X39092642Y-34010655D01*
X39092635Y-34010651D01*
X38970631Y-33963387D01*
X38902456Y-33936976D01*
X38701976Y-33899500D01*
X38498024Y-33899500D01*
X38346739Y-33927779D01*
X38297538Y-33936977D01*
X38157228Y-33991333D01*
X38087605Y-33997194D01*
X38025865Y-33964484D01*
X38024754Y-33963387D01*
X35886274Y-31824907D01*
X35852789Y-31763584D01*
X35857773Y-31693892D01*
X35899645Y-31637959D01*
X35965109Y-31613542D01*
X35973955Y-31613226D01*
X36038482Y-31613226D01*
X36038484Y-31613226D01*
X36238964Y-31575750D01*
X36429145Y-31502074D01*
X36602549Y-31394707D01*
X36753272Y-31257305D01*
X36876181Y-31094547D01*
X36895536Y-31055675D01*
X36943038Y-31004440D01*
X37010701Y-30987018D01*
X37077041Y-31008943D01*
X37105490Y-31036222D01*
X37147024Y-31091222D01*
X37147026Y-31091225D01*
X37297748Y-31228625D01*
X37297750Y-31228627D01*
X37344067Y-31257305D01*
X37471153Y-31335993D01*
X37661334Y-31409669D01*
X37861814Y-31447145D01*
X37861816Y-31447145D01*
X38065764Y-31447145D01*
X38065766Y-31447145D01*
X38266246Y-31409669D01*
X38456427Y-31335993D01*
X38466650Y-31329662D01*
X38534010Y-31311104D01*
X38600710Y-31331910D01*
X38619397Y-31347963D01*
X38619491Y-31347860D01*
X38622984Y-31351045D01*
X38623561Y-31351540D01*
X38623724Y-31351719D01*
X38687293Y-31409669D01*
X38766434Y-31481816D01*
X38774450Y-31489123D01*
X38774452Y-31489125D01*
X38844593Y-31532554D01*
X38947855Y-31596491D01*
X39138036Y-31670167D01*
X39338516Y-31707643D01*
X39338518Y-31707643D01*
X39542466Y-31707643D01*
X39542468Y-31707643D01*
X39742948Y-31670167D01*
X39933129Y-31596491D01*
X40106533Y-31489124D01*
X40155510Y-31444474D01*
X40215261Y-31390006D01*
X40278065Y-31359389D01*
X40292975Y-31358133D01*
X40292959Y-31357853D01*
X40296557Y-31357643D01*
X40296566Y-31357643D01*
X40308184Y-31356284D01*
X40329133Y-31353836D01*
X40341885Y-31352720D01*
X40405654Y-31347142D01*
X40405662Y-31347139D01*
X40412723Y-31345682D01*
X40412735Y-31345741D01*
X40420100Y-31344108D01*
X40420086Y-31344049D01*
X40427103Y-31342384D01*
X40427112Y-31342384D01*
X40499280Y-31316117D01*
X40572191Y-31291957D01*
X40572200Y-31291950D01*
X40578739Y-31288903D01*
X40578765Y-31288959D01*
X40585547Y-31285675D01*
X40585520Y-31285621D01*
X40591963Y-31282383D01*
X40591974Y-31282380D01*
X40656140Y-31240177D01*
X40721513Y-31199855D01*
X40721519Y-31199848D01*
X40727182Y-31195372D01*
X40727219Y-31195420D01*
X40733061Y-31190661D01*
X40733021Y-31190614D01*
X40738544Y-31185978D01*
X40738553Y-31185973D01*
X40763726Y-31159289D01*
X40824047Y-31124035D01*
X40893854Y-31126988D01*
X40950983Y-31167213D01*
X40966511Y-31194292D01*
X40966862Y-31194118D01*
X41060327Y-31381821D01*
X41183237Y-31544581D01*
X41333958Y-31681980D01*
X41333960Y-31681982D01*
X41433141Y-31743392D01*
X41507363Y-31789348D01*
X41697544Y-31863024D01*
X41898024Y-31900500D01*
X41898026Y-31900500D01*
X42101974Y-31900500D01*
X42101976Y-31900500D01*
X42302456Y-31863024D01*
X42492637Y-31789348D01*
X42666041Y-31681981D01*
X42816764Y-31544579D01*
X42819439Y-31541036D01*
X42875541Y-31499395D01*
X42879380Y-31498052D01*
X42919334Y-31484814D01*
X42919342Y-31484808D01*
X42925882Y-31481760D01*
X42925908Y-31481816D01*
X42932690Y-31478532D01*
X42932663Y-31478478D01*
X42939106Y-31475240D01*
X42939117Y-31475237D01*
X43003283Y-31433034D01*
X43068656Y-31392712D01*
X43068662Y-31392705D01*
X43074325Y-31388229D01*
X43074362Y-31388277D01*
X43080204Y-31383518D01*
X43080164Y-31383471D01*
X43085686Y-31378836D01*
X43085696Y-31378830D01*
X43111274Y-31351719D01*
X43138386Y-31322982D01*
X44274548Y-30186818D01*
X44335871Y-30153333D01*
X44362229Y-30150499D01*
X45497871Y-30150499D01*
X45497872Y-30150499D01*
X45557483Y-30144091D01*
X45692331Y-30093796D01*
X45807546Y-30007546D01*
X45893796Y-29892331D01*
X45944091Y-29757483D01*
X45950500Y-29697873D01*
X45950499Y-27902128D01*
X45944091Y-27842517D01*
X45942810Y-27839083D01*
X45893797Y-27707671D01*
X45893793Y-27707664D01*
X45807547Y-27592455D01*
X45807544Y-27592452D01*
X45692335Y-27506206D01*
X45692328Y-27506202D01*
X45557482Y-27455908D01*
X45557483Y-27455908D01*
X45497883Y-27449501D01*
X45497881Y-27449500D01*
X45497873Y-27449500D01*
X45497864Y-27449500D01*
X43702129Y-27449500D01*
X43702123Y-27449501D01*
X43642516Y-27455908D01*
X43507671Y-27506202D01*
X43507664Y-27506206D01*
X43392455Y-27592452D01*
X43392452Y-27592455D01*
X43306206Y-27707664D01*
X43306203Y-27707669D01*
X43257189Y-27839083D01*
X43215317Y-27895016D01*
X43149853Y-27919433D01*
X43081580Y-27904581D01*
X43053326Y-27883430D01*
X42931402Y-27761506D01*
X42931395Y-27761501D01*
X42910938Y-27747177D01*
X42854518Y-27707671D01*
X42737834Y-27625967D01*
X42737830Y-27625965D01*
X42737828Y-27625964D01*
X42523663Y-27526097D01*
X42523659Y-27526096D01*
X42523655Y-27526094D01*
X42295413Y-27464938D01*
X42295403Y-27464936D01*
X42060001Y-27444341D01*
X42059999Y-27444341D01*
X41824596Y-27464936D01*
X41824586Y-27464938D01*
X41596344Y-27526094D01*
X41596335Y-27526098D01*
X41382171Y-27625964D01*
X41382169Y-27625965D01*
X41188597Y-27761505D01*
X41021505Y-27928597D01*
X40891575Y-28114158D01*
X40836998Y-28157783D01*
X40767500Y-28164977D01*
X40705145Y-28133454D01*
X40688425Y-28114158D01*
X40558494Y-27928597D01*
X40391402Y-27761506D01*
X40391395Y-27761501D01*
X40370938Y-27747177D01*
X40314518Y-27707671D01*
X40197834Y-27625967D01*
X40197830Y-27625965D01*
X40197828Y-27625964D01*
X39983663Y-27526097D01*
X39983659Y-27526096D01*
X39983655Y-27526094D01*
X39755413Y-27464938D01*
X39755403Y-27464936D01*
X39520001Y-27444341D01*
X39519999Y-27444341D01*
X39284596Y-27464936D01*
X39284586Y-27464938D01*
X39056344Y-27526094D01*
X39056335Y-27526098D01*
X38842171Y-27625964D01*
X38842169Y-27625965D01*
X38648597Y-27761505D01*
X38481505Y-27928597D01*
X38351575Y-28114158D01*
X38296998Y-28157783D01*
X38227500Y-28164977D01*
X38165145Y-28133454D01*
X38148425Y-28114158D01*
X38018494Y-27928597D01*
X37851402Y-27761506D01*
X37851395Y-27761501D01*
X37830938Y-27747177D01*
X37774518Y-27707671D01*
X37657834Y-27625967D01*
X37657830Y-27625965D01*
X37657828Y-27625964D01*
X37443663Y-27526097D01*
X37443659Y-27526096D01*
X37443655Y-27526094D01*
X37215413Y-27464938D01*
X37215403Y-27464936D01*
X36980001Y-27444341D01*
X36979999Y-27444341D01*
X36744596Y-27464936D01*
X36744586Y-27464938D01*
X36516344Y-27526094D01*
X36516335Y-27526098D01*
X36302171Y-27625964D01*
X36302169Y-27625965D01*
X36108597Y-27761505D01*
X35941505Y-27928597D01*
X35811575Y-28114158D01*
X35756998Y-28157783D01*
X35687500Y-28164977D01*
X35625145Y-28133454D01*
X35608425Y-28114158D01*
X35478494Y-27928597D01*
X35311402Y-27761506D01*
X35311395Y-27761501D01*
X35290938Y-27747177D01*
X35234518Y-27707671D01*
X35117834Y-27625967D01*
X35117830Y-27625965D01*
X35117828Y-27625964D01*
X34903663Y-27526097D01*
X34903659Y-27526096D01*
X34903655Y-27526094D01*
X34675413Y-27464938D01*
X34675403Y-27464936D01*
X34440001Y-27444341D01*
X34439999Y-27444341D01*
X34204596Y-27464936D01*
X34204586Y-27464938D01*
X33976344Y-27526094D01*
X33976335Y-27526098D01*
X33762171Y-27625964D01*
X33762169Y-27625965D01*
X33568597Y-27761505D01*
X33401508Y-27928594D01*
X33271269Y-28114595D01*
X33216692Y-28158219D01*
X33147193Y-28165412D01*
X33084839Y-28133890D01*
X33068119Y-28114594D01*
X32938113Y-27928926D01*
X32938108Y-27928920D01*
X32771082Y-27761894D01*
X32577578Y-27626399D01*
X32363492Y-27526570D01*
X32363486Y-27526567D01*
X32150000Y-27469364D01*
X32150000Y-28364498D01*
X32042315Y-28315320D01*
X31935763Y-28300000D01*
X31864237Y-28300000D01*
X31757685Y-28315320D01*
X31650000Y-28364498D01*
X31650000Y-27469364D01*
X31649999Y-27469364D01*
X31436513Y-27526567D01*
X31436507Y-27526570D01*
X31222422Y-27626399D01*
X31222420Y-27626400D01*
X31028926Y-27761886D01*
X31028920Y-27761891D01*
X30861891Y-27928920D01*
X30861886Y-27928926D01*
X30726400Y-28122420D01*
X30726399Y-28122422D01*
X30626570Y-28336507D01*
X30626567Y-28336513D01*
X30569364Y-28549999D01*
X30569364Y-28550000D01*
X31466314Y-28550000D01*
X31440507Y-28590156D01*
X31400000Y-28728111D01*
X31400000Y-28871889D01*
X31440507Y-29009844D01*
X31466314Y-29050000D01*
X30569364Y-29050000D01*
X24800500Y-29050000D01*
X24800500Y-28512230D01*
X24820185Y-28445191D01*
X24836819Y-28424549D01*
X24924549Y-28336819D01*
X24985872Y-28303334D01*
X25012230Y-28300500D01*
X25101974Y-28300500D01*
X25101976Y-28300500D01*
X25302456Y-28263024D01*
X25492637Y-28189348D01*
X25666041Y-28081981D01*
X25816764Y-27944579D01*
X25939673Y-27781821D01*
X26030582Y-27599250D01*
X26086397Y-27403083D01*
X26105215Y-27200000D01*
X26086397Y-26996917D01*
X26030582Y-26800750D01*
X26001759Y-26742866D01*
X25939670Y-26618173D01*
X25936654Y-26613302D01*
X25937926Y-26612513D01*
X25915772Y-26553855D01*
X25930343Y-26485522D01*
X25979545Y-26435913D01*
X26039419Y-26420500D01*
X75248378Y-26420500D01*
X75251619Y-26420584D01*
G37*
%TD.AperFunction*%
%TD*%
M02*
