%TF.GenerationSoftware,KiCad,Pcbnew,7.0.8-7.0.8~ubuntu22.04.1*%
%TF.CreationDate,2023-11-16T11:24:09+01:00*%
%TF.ProjectId,adapt_TMC2590,61646170-745f-4544-9d43-323539302e6b,rev?*%
%TF.SameCoordinates,Original*%
%TF.FileFunction,Copper,L1,Top*%
%TF.FilePolarity,Positive*%
%FSLAX46Y46*%
G04 Gerber Fmt 4.6, Leading zero omitted, Abs format (unit mm)*
G04 Created by KiCad (PCBNEW 7.0.8-7.0.8~ubuntu22.04.1) date 2023-11-16 11:24:09*
%MOMM*%
%LPD*%
G01*
G04 APERTURE LIST*
G04 Aperture macros list*
%AMRoundRect*
0 Rectangle with rounded corners*
0 $1 Rounding radius*
0 $2 $3 $4 $5 $6 $7 $8 $9 X,Y pos of 4 corners*
0 Add a 4 corners polygon primitive as box body*
4,1,4,$2,$3,$4,$5,$6,$7,$8,$9,$2,$3,0*
0 Add four circle primitives for the rounded corners*
1,1,$1+$1,$2,$3*
1,1,$1+$1,$4,$5*
1,1,$1+$1,$6,$7*
1,1,$1+$1,$8,$9*
0 Add four rect primitives between the rounded corners*
20,1,$1+$1,$2,$3,$4,$5,0*
20,1,$1+$1,$4,$5,$6,$7,0*
20,1,$1+$1,$6,$7,$8,$9,0*
20,1,$1+$1,$8,$9,$2,$3,0*%
G04 Aperture macros list end*
%TA.AperFunction,ComponentPad*%
%ADD10C,1.700000*%
%TD*%
%TA.AperFunction,SMDPad,CuDef*%
%ADD11RoundRect,0.237500X-0.237500X0.250000X-0.237500X-0.250000X0.237500X-0.250000X0.237500X0.250000X0*%
%TD*%
%TA.AperFunction,ComponentPad*%
%ADD12RoundRect,0.250000X0.600000X0.725000X-0.600000X0.725000X-0.600000X-0.725000X0.600000X-0.725000X0*%
%TD*%
%TA.AperFunction,ComponentPad*%
%ADD13O,1.700000X1.950000*%
%TD*%
%TA.AperFunction,ComponentPad*%
%ADD14R,1.700000X1.700000*%
%TD*%
%TA.AperFunction,ComponentPad*%
%ADD15O,1.700000X1.700000*%
%TD*%
%TA.AperFunction,SMDPad,CuDef*%
%ADD16RoundRect,0.237500X0.237500X-0.287500X0.237500X0.287500X-0.237500X0.287500X-0.237500X-0.287500X0*%
%TD*%
%TA.AperFunction,ComponentPad*%
%ADD17RoundRect,0.250000X0.600000X0.750000X-0.600000X0.750000X-0.600000X-0.750000X0.600000X-0.750000X0*%
%TD*%
%TA.AperFunction,ComponentPad*%
%ADD18O,1.700000X2.000000*%
%TD*%
%TA.AperFunction,SMDPad,CuDef*%
%ADD19RoundRect,0.237500X0.300000X0.237500X-0.300000X0.237500X-0.300000X-0.237500X0.300000X-0.237500X0*%
%TD*%
%TA.AperFunction,SMDPad,CuDef*%
%ADD20RoundRect,0.250000X1.500000X0.550000X-1.500000X0.550000X-1.500000X-0.550000X1.500000X-0.550000X0*%
%TD*%
%TA.AperFunction,ViaPad*%
%ADD21C,1.200000*%
%TD*%
%TA.AperFunction,Conductor*%
%ADD22C,0.500000*%
%TD*%
%TA.AperFunction,Conductor*%
%ADD23C,1.500000*%
%TD*%
G04 APERTURE END LIST*
D10*
%TO.P,U1,A1,NC*%
%TO.N,unconnected-(U1-NC-PadA1)*%
X26020000Y-38570000D03*
%TO.P,U1,A2,IOREF*%
%TO.N,unconnected-(U1-IOREF-PadA2)*%
X26020000Y-41110000D03*
%TO.P,U1,A3,NRST*%
%TO.N,unconnected-(U1-NRST-PadA3)*%
X26020000Y-43650000D03*
%TO.P,U1,A4,+3V3*%
%TO.N,+3.3V*%
X26020000Y-46190000D03*
%TO.P,U1,A5,+5V*%
%TO.N,unconnected-(U1-+5V-PadA5)*%
X26020000Y-48730000D03*
%TO.P,U1,A6,GND*%
%TO.N,GND*%
X26020000Y-51270000D03*
%TO.P,U1,A7,GND*%
X26020000Y-53810000D03*
%TO.P,U1,A8,VIN*%
%TO.N,unconnected-(U1-VIN-PadA8)*%
X26020000Y-56350000D03*
%TO.P,U1,B1,PA0*%
%TO.N,unconnected-(U1-PA0-PadB1)*%
X26020000Y-61430000D03*
%TO.P,U1,B2,PA1*%
%TO.N,unconnected-(U1-PA1-PadB2)*%
X26020000Y-63970000D03*
%TO.P,U1,B3,PA4*%
%TO.N,unconnected-(U1-PA4-PadB3)*%
X26020000Y-66510000D03*
%TO.P,U1,B4,PB0*%
%TO.N,unconnected-(U1-PB0-PadB4)*%
X26020000Y-69050000D03*
%TO.P,U1,B5,PC1/PB9*%
%TO.N,unconnected-(U1-PC1{slash}PB9-PadB5)*%
X26020000Y-71590000D03*
%TO.P,U1,B6,PC0/PA15*%
%TO.N,unconnected-(U1-PC0{slash}PA15-PadB6)*%
X26020000Y-74130000D03*
%TO.P,U1,C1,PC5/PA3*%
%TO.N,unconnected-(U1-PC5{slash}PA3-PadC1)*%
X73980000Y-74130000D03*
%TO.P,U1,C2,PC4/PA2*%
%TO.N,/DRV_ENN*%
X73980000Y-71590000D03*
%TO.P,U1,C3,PA10*%
%TO.N,/CSN*%
X73980000Y-69050000D03*
%TO.P,U1,C4,PB3*%
%TO.N,/SPI3_SCK*%
X73980000Y-66510000D03*
%TO.P,U1,C5,PB5*%
%TO.N,/SPI3_MOSI*%
X73980000Y-63970000D03*
%TO.P,U1,C6,PB4*%
%TO.N,/SPI3_MISO*%
X73980000Y-61430000D03*
%TO.P,U1,C7,PB10*%
%TO.N,/DIR*%
X73980000Y-58890000D03*
%TO.P,U1,C8,PA8*%
%TO.N,/TIM1_STEP*%
X73980000Y-56350000D03*
%TO.P,U1,D1,PA9*%
%TO.N,unconnected-(U1-PA9-PadD1)*%
X73980000Y-52286000D03*
%TO.P,U1,D2,PC7*%
%TO.N,unconnected-(U1-PC7-PadD2)*%
X73980000Y-49746000D03*
%TO.P,U1,D3,PB6*%
%TO.N,unconnected-(U1-PB6-PadD3)*%
X73980000Y-47206000D03*
%TO.P,U1,D4,PA7*%
%TO.N,unconnected-(U1-PA7-PadD4)*%
X73980000Y-44666000D03*
%TO.P,U1,D5,PA6*%
%TO.N,unconnected-(U1-PA6-PadD5)*%
X73980000Y-42126000D03*
%TO.P,U1,D6,PA5*%
%TO.N,unconnected-(U1-PA5-PadD6)*%
X73980000Y-39586000D03*
%TO.P,U1,D7,GND*%
%TO.N,GND*%
X73980000Y-37046000D03*
%TO.P,U1,D8,AVDD*%
%TO.N,unconnected-(U1-AVDD-PadD8)*%
X73980000Y-34506000D03*
%TO.P,U1,D9,PB9*%
%TO.N,unconnected-(U1-PB9-PadD9)*%
X73980000Y-31966000D03*
%TO.P,U1,D10,PB8*%
%TO.N,unconnected-(U1-PB8-PadD10)*%
X73980000Y-29426000D03*
%TD*%
%TO.P,U2,1,VCC_IO*%
%TO.N,+3.3V*%
X32220000Y-48030000D03*
%TO.P,U2,2,GND*%
%TO.N,GND*%
X32220000Y-50570000D03*
%TO.P,U2,3,DIR*%
%TO.N,/DIR*%
X32220000Y-53110000D03*
%TO.P,U2,4,STEP*%
%TO.N,/TIM1_STEP*%
X32220000Y-55650000D03*
%TO.P,U2,5,SDO*%
%TO.N,/SPI3_MISO*%
X32220000Y-58190000D03*
%TO.P,U2,6,SDI*%
%TO.N,/SPI3_MOSI*%
X32220000Y-60730000D03*
%TO.P,U2,7,SCK*%
%TO.N,/SPI3_SCK*%
X32220000Y-63270000D03*
%TO.P,U2,8,CSN*%
%TO.N,/CSN*%
X32220000Y-65810000D03*
%TO.P,U2,9,GND*%
%TO.N,GND*%
X32220000Y-68350000D03*
%TO.P,U2,10,DRV_ENN*%
%TO.N,/DRV_ENN*%
X32220000Y-70890000D03*
%TO.P,U2,11,CLK16*%
%TO.N,unconnected-(U2-CLK16-Pad11)*%
X32220000Y-73430000D03*
%TO.P,U2,12,SG_TST*%
%TO.N,unconnected-(U2-SG_TST-Pad12)*%
X32220000Y-75970000D03*
%TO.P,U2,13,GND*%
%TO.N,GND*%
X67780000Y-75970000D03*
%TO.P,U2,14,GND*%
X67780000Y-73430000D03*
%TO.P,U2,15,GND*%
X67780000Y-70890000D03*
%TO.P,U2,16,GND*%
X67780000Y-68350000D03*
%TO.P,U2,17,GND*%
X67780000Y-65810000D03*
%TO.P,U2,18,GND*%
X67780000Y-63270000D03*
%TO.P,U2,19,B2*%
%TO.N,Net-(J2-Pin_4)*%
X67780000Y-60730000D03*
%TO.P,U2,20,B1*%
%TO.N,Net-(J2-Pin_3)*%
X67780000Y-58190000D03*
%TO.P,U2,21,A2*%
%TO.N,Net-(J2-Pin_2)*%
X67780000Y-55650000D03*
%TO.P,U2,22,A1*%
%TO.N,Net-(J2-Pin_1)*%
X67780000Y-53110000D03*
%TO.P,U2,23,GND*%
%TO.N,GND*%
X67780000Y-50570000D03*
%TO.P,U2,24,VS*%
%TO.N,VS*%
X67780000Y-48030000D03*
%TD*%
D11*
%TO.P,R2,1*%
%TO.N,+3.3V*%
X25000000Y-28406250D03*
%TO.P,R2,2*%
%TO.N,Net-(D2-A)*%
X25000000Y-30231250D03*
%TD*%
%TO.P,R3,1*%
%TO.N,+3.3V*%
X26600000Y-28406250D03*
%TO.P,R3,2*%
%TO.N,Net-(D3-A)*%
X26600000Y-30231250D03*
%TD*%
D12*
%TO.P,J2,1,Pin_1*%
%TO.N,Net-(J2-Pin_1)*%
X57000000Y-36000000D03*
D13*
%TO.P,J2,2,Pin_2*%
%TO.N,Net-(J2-Pin_2)*%
X54500000Y-36000000D03*
%TO.P,J2,3,Pin_3*%
%TO.N,Net-(J2-Pin_3)*%
X52000000Y-36000000D03*
%TO.P,J2,4,Pin_4*%
%TO.N,Net-(J2-Pin_4)*%
X49500000Y-36000000D03*
%TD*%
D14*
%TO.P,J3,1,Pin_1*%
%TO.N,/SPI3_MISO*%
X44600000Y-28800000D03*
D15*
%TO.P,J3,2,Pin_2*%
%TO.N,/SPI3_MOSI*%
X42060000Y-28800000D03*
%TO.P,J3,3,Pin_3*%
%TO.N,/SPI3_SCK*%
X39520000Y-28800000D03*
%TO.P,J3,4,Pin_4*%
%TO.N,/CSN*%
X36980000Y-28800000D03*
%TO.P,J3,5,Pin_5*%
%TO.N,/DRV_ENN*%
X34440000Y-28800000D03*
%TO.P,J3,6,Pin_6*%
%TO.N,GND*%
X31900000Y-28800000D03*
%TD*%
D16*
%TO.P,D1,1,K*%
%TO.N,GND*%
X23400000Y-33518750D03*
%TO.P,D1,2,A*%
%TO.N,Net-(D1-A)*%
X23400000Y-31768750D03*
%TD*%
D17*
%TO.P,J1,1,Pin_1*%
%TO.N,VS*%
X66250000Y-36000000D03*
D18*
%TO.P,J1,2,Pin_2*%
%TO.N,GND*%
X63750000Y-36000000D03*
%TD*%
D16*
%TO.P,D3,1,K*%
%TO.N,/DRV_ENN*%
X26600000Y-33518750D03*
%TO.P,D3,2,A*%
%TO.N,Net-(D3-A)*%
X26600000Y-31768750D03*
%TD*%
D14*
%TO.P,J4,1,Pin_1*%
%TO.N,/TIM1_STEP*%
X43740000Y-37000000D03*
D15*
%TO.P,J4,2,Pin_2*%
%TO.N,/DIR*%
X41200000Y-37000000D03*
%TO.P,J4,3,Pin_3*%
%TO.N,/DRV_ENN*%
X38660000Y-37000000D03*
%TO.P,J4,4,Pin_4*%
%TO.N,GND*%
X36120000Y-37000000D03*
%TD*%
D19*
%TO.P,C2,1*%
%TO.N,VS*%
X64062500Y-47000000D03*
%TO.P,C2,2*%
%TO.N,GND*%
X62337500Y-47000000D03*
%TD*%
D20*
%TO.P,C1,1*%
%TO.N,VS*%
X68000000Y-42600000D03*
%TO.P,C1,2*%
%TO.N,GND*%
X62400000Y-42600000D03*
%TD*%
D11*
%TO.P,R1,1*%
%TO.N,+3.3V*%
X23400000Y-28406250D03*
%TO.P,R1,2*%
%TO.N,Net-(D1-A)*%
X23400000Y-30231250D03*
%TD*%
D16*
%TO.P,D2,1,K*%
%TO.N,/CSN*%
X25000000Y-33518750D03*
%TO.P,D2,2,A*%
%TO.N,Net-(D2-A)*%
X25000000Y-31768750D03*
%TD*%
D21*
%TO.N,VS*%
X69200000Y-45000000D03*
%TO.N,GND*%
X60200000Y-40200000D03*
X64700000Y-63200000D03*
X34500000Y-68300000D03*
X37700000Y-80300000D03*
X31500000Y-32100000D03*
X64300000Y-50300000D03*
X70700000Y-59700000D03*
X24500000Y-80400000D03*
X58900000Y-42600000D03*
X69900000Y-35050000D03*
X40600000Y-34000000D03*
X65300000Y-75100000D03*
X73750000Y-76150000D03*
X22800000Y-36600000D03*
X71100000Y-30350000D03*
X30200000Y-68300000D03*
X43300000Y-74900000D03*
X69850000Y-49700000D03*
X34900000Y-49200000D03*
X32050000Y-38150000D03*
X60100000Y-44900000D03*
X28400000Y-27800000D03*
X35100000Y-73700000D03*
%TO.N,/CSN*%
X30235000Y-65810000D03*
X25199500Y-34858932D03*
X29200000Y-35000000D03*
X34600000Y-65800000D03*
X35936508Y-30512726D03*
%TO.N,/DRV_ENN*%
X33900000Y-30900000D03*
X36200000Y-70900000D03*
X38600000Y-35000000D03*
X30090000Y-70890000D03*
%TO.N,/SPI3_MISO*%
X34500000Y-58100000D03*
X42000000Y-30800000D03*
X31050000Y-57050000D03*
%TO.N,/SPI3_MOSI*%
X30400000Y-60800000D03*
X34730000Y-60730000D03*
X39440492Y-30607143D03*
%TO.N,/SPI3_SCK*%
X34400000Y-63200000D03*
X30295000Y-63270000D03*
X37963790Y-30346645D03*
%TO.N,/TIM1_STEP*%
X34200000Y-54600000D03*
X43800000Y-39400000D03*
X43765993Y-35059647D03*
%TO.N,/DIR*%
X47100000Y-33700000D03*
X41200000Y-39600000D03*
X34200000Y-53000000D03*
%TO.N,+3.3V*%
X24450000Y-45250000D03*
X28000000Y-29250000D03*
%TD*%
D22*
%TO.N,/SPI3_MISO*%
X31050000Y-57050000D02*
X30700000Y-56700000D01*
X30700000Y-56700000D02*
X30700000Y-37389087D01*
X37634492Y-32703122D02*
X38970859Y-32703122D01*
X30700000Y-37389087D02*
X31370337Y-36718750D01*
X31370337Y-36718750D02*
X33618864Y-36718750D01*
X33618864Y-36718750D02*
X37634492Y-32703122D01*
X38970859Y-32703122D02*
X40823981Y-30850000D01*
X40823981Y-30850000D02*
X41950000Y-30850000D01*
X41950000Y-30850000D02*
X42000000Y-30800000D01*
X34500000Y-58100000D02*
X40800000Y-64400000D01*
X68750000Y-77600000D02*
X69250000Y-77100000D01*
X40800000Y-64400000D02*
X40800000Y-75674520D01*
X40800000Y-75674520D02*
X42725480Y-77600000D01*
X42725480Y-77600000D02*
X68750000Y-77600000D01*
X69250000Y-77100000D02*
X69250000Y-64950000D01*
X69250000Y-64950000D02*
X72770000Y-61430000D01*
X72770000Y-61430000D02*
X73980000Y-61430000D01*
%TO.N,/SPI3_MOSI*%
X34730000Y-60730000D02*
X40000000Y-66000000D01*
X40000000Y-66000000D02*
X40000000Y-76005890D01*
X40000000Y-76005890D02*
X42394110Y-78400000D01*
X70050000Y-66850000D02*
X72930000Y-63970000D01*
X42394110Y-78400000D02*
X69455890Y-78400000D01*
X69455890Y-78400000D02*
X70050000Y-77805890D01*
X70050000Y-77805890D02*
X70050000Y-66850000D01*
X72930000Y-63970000D02*
X73980000Y-63970000D01*
%TO.N,/SPI3_SCK*%
X34400000Y-63200000D02*
X36068630Y-63200000D01*
X36068630Y-63200000D02*
X39200000Y-66331370D01*
X39200000Y-66331370D02*
X39200000Y-76337260D01*
X39200000Y-76337260D02*
X42062740Y-79200000D01*
X42062740Y-79200000D02*
X69787260Y-79200000D01*
X69787260Y-79200000D02*
X70850000Y-78137260D01*
X70850000Y-78137260D02*
X70850000Y-68800000D01*
X70850000Y-68800000D02*
X73140000Y-66510000D01*
X73140000Y-66510000D02*
X73980000Y-66510000D01*
%TO.N,/CSN*%
X34600000Y-65800000D02*
X37537260Y-65800000D01*
X72800000Y-69050000D02*
X73980000Y-69050000D01*
X37537260Y-65800000D02*
X38400000Y-66662740D01*
X38400000Y-66662740D02*
X38400000Y-76668630D01*
X38400000Y-76668630D02*
X41731370Y-80000000D01*
X41731370Y-80000000D02*
X70118630Y-80000000D01*
X71650000Y-78468630D02*
X71650000Y-70200000D01*
X71650000Y-70200000D02*
X72800000Y-69050000D01*
X70118630Y-80000000D02*
X71650000Y-78468630D01*
%TO.N,/DRV_ENN*%
X73980000Y-71590000D02*
X72960000Y-71590000D01*
X72450000Y-72100000D02*
X72450000Y-78800000D01*
X72960000Y-71590000D02*
X72450000Y-72100000D01*
X72450000Y-78800000D02*
X70450000Y-80800000D01*
X70450000Y-80800000D02*
X41400000Y-80800000D01*
X41400000Y-80800000D02*
X37600000Y-77000000D01*
X37600000Y-77000000D02*
X37600000Y-72300000D01*
X37600000Y-72300000D02*
X36200000Y-70900000D01*
%TO.N,/DIR*%
X71550000Y-45200000D02*
X71550000Y-56460000D01*
X71550000Y-56460000D02*
X73980000Y-58890000D01*
%TO.N,/TIM1_STEP*%
X43740000Y-35033654D02*
X49073654Y-29700000D01*
X72350000Y-33987260D02*
X72350000Y-54720000D01*
X49073654Y-29700000D02*
X68062742Y-29700000D01*
X68062742Y-29700000D02*
X72350000Y-33987260D01*
X72350000Y-54720000D02*
X73980000Y-56350000D01*
%TO.N,/DRV_ENN*%
X27800000Y-33518750D02*
X27500000Y-33818750D01*
X27500000Y-33818750D02*
X27500000Y-68300000D01*
X27500000Y-68300000D02*
X30090000Y-70890000D01*
%TO.N,/CSN*%
X29200000Y-35000000D02*
X28300000Y-35900000D01*
X28300000Y-35900000D02*
X28300000Y-63875000D01*
X28300000Y-63875000D02*
X30235000Y-65810000D01*
%TO.N,/SPI3_SCK*%
X38437437Y-29637437D02*
X32956123Y-35118750D01*
X30350000Y-35476347D02*
X29100000Y-36726346D01*
X32956123Y-35118750D02*
X30681250Y-35118750D01*
X30681250Y-35118750D02*
X30350000Y-35450000D01*
X29100000Y-62075000D02*
X30295000Y-63270000D01*
X30350000Y-35450000D02*
X30350000Y-35476347D01*
X29100000Y-36726346D02*
X29100000Y-62075000D01*
%TO.N,/SPI3_MOSI*%
X39440492Y-30607143D02*
X38144513Y-31903122D01*
X37303122Y-31903122D02*
X33287493Y-35918750D01*
X38144513Y-31903122D02*
X37303122Y-31903122D01*
X33287493Y-35918750D02*
X31038968Y-35918750D01*
X31038968Y-35918750D02*
X29900000Y-37057717D01*
X29900000Y-37057717D02*
X29900000Y-57526346D01*
X29900000Y-57526346D02*
X30400000Y-58026346D01*
X30400000Y-58026346D02*
X30400000Y-60800000D01*
%TO.N,+3.3V*%
X26020000Y-46190000D02*
X25390000Y-46190000D01*
X25390000Y-46190000D02*
X24450000Y-45250000D01*
D23*
%TO.N,VS*%
X69200000Y-45000000D02*
X69200000Y-43800000D01*
X66750000Y-47000000D02*
X67780000Y-48030000D01*
X69200000Y-43800000D02*
X68000000Y-42600000D01*
X66250000Y-36000000D02*
X66250000Y-40850000D01*
X64062500Y-47000000D02*
X66750000Y-47000000D01*
X66250000Y-40850000D02*
X68000000Y-42600000D01*
X68000000Y-42600000D02*
X64062500Y-46537500D01*
X64062500Y-46537500D02*
X64062500Y-47000000D01*
D22*
%TO.N,GND*%
X29400000Y-28800000D02*
X28400000Y-27800000D01*
X23400000Y-36000000D02*
X23400000Y-33518750D01*
X31900000Y-31700000D02*
X31900000Y-28800000D01*
X31900000Y-28800000D02*
X29400000Y-28800000D01*
X31500000Y-32100000D02*
X31900000Y-31700000D01*
X22800000Y-36600000D02*
X23400000Y-36000000D01*
%TO.N,Net-(D1-A)*%
X23400000Y-30231250D02*
X23400000Y-31768750D01*
%TO.N,/CSN*%
X30235000Y-65810000D02*
X32220000Y-65810000D01*
X25000000Y-35000000D02*
X25000000Y-33518750D01*
X32624753Y-34318750D02*
X29881250Y-34318750D01*
X36980000Y-29752078D02*
X35866039Y-30866039D01*
X25000000Y-34659432D02*
X25199500Y-34858932D01*
X35866039Y-30866039D02*
X35866039Y-31077464D01*
X29881250Y-34318750D02*
X29200000Y-35000000D01*
X25000000Y-33518750D02*
X25000000Y-34659432D01*
X35866039Y-31077464D02*
X32624753Y-34318750D01*
X36980000Y-28800000D02*
X36980000Y-29752078D01*
X35866039Y-31077464D02*
X35866039Y-30583195D01*
X35866039Y-30583195D02*
X35936508Y-30512726D01*
%TO.N,Net-(D2-A)*%
X25000000Y-31768750D02*
X25000000Y-30231250D01*
%TO.N,/DRV_ENN*%
X34440000Y-28800000D02*
X33900000Y-29340000D01*
X32081250Y-33518750D02*
X26600000Y-33518750D01*
X38660000Y-35060000D02*
X38660000Y-37000000D01*
X33900000Y-29340000D02*
X33900000Y-31700000D01*
X38600000Y-35000000D02*
X38660000Y-35060000D01*
X33900000Y-31700000D02*
X32081250Y-33518750D01*
%TO.N,Net-(D3-A)*%
X26600000Y-31768750D02*
X26600000Y-30231250D01*
%TO.N,/SPI3_SCK*%
X30295000Y-63270000D02*
X32220000Y-63270000D01*
X37963790Y-30111084D02*
X37963790Y-30346645D01*
X38437437Y-29637437D02*
X37963790Y-30111084D01*
X39520000Y-28800000D02*
X39274873Y-28800000D01*
X39274873Y-28800000D02*
X38437437Y-29637437D01*
%TO.N,/TIM1_STEP*%
X35350000Y-52981370D02*
X42000000Y-46331370D01*
X35350000Y-53476346D02*
X35350000Y-52981370D01*
X34200000Y-54600000D02*
X34226346Y-54600000D01*
X34226346Y-54600000D02*
X35350000Y-53476346D01*
X42000000Y-41200000D02*
X43800000Y-39400000D01*
X43740000Y-35033654D02*
X43765993Y-35059647D01*
X43740000Y-35033654D02*
X43740000Y-37000000D01*
X42000000Y-46331370D02*
X42000000Y-41200000D01*
%TO.N,/DIR*%
X34200000Y-53000000D02*
X41200000Y-46000000D01*
X47100000Y-33700000D02*
X47100000Y-33300000D01*
X71550000Y-34318630D02*
X71550000Y-45200000D01*
X71550000Y-45200000D02*
X71550000Y-45400000D01*
X49900000Y-30500000D02*
X67731371Y-30500000D01*
X47100000Y-33300000D02*
X49900000Y-30500000D01*
X41200000Y-46000000D02*
X41200000Y-39600000D01*
X67731371Y-30500000D02*
X71550000Y-34318630D01*
%TO.N,+3.3V*%
X23400000Y-28406250D02*
X25000000Y-28406250D01*
X27156250Y-28406250D02*
X28000000Y-29250000D01*
X25000000Y-28406250D02*
X26600000Y-28406250D01*
X25000000Y-28406250D02*
X27156250Y-28406250D01*
%TD*%
%TA.AperFunction,Conductor*%
%TO.N,GND*%
G36*
X75251619Y-26420584D02*
G01*
X75383628Y-26427503D01*
X75567027Y-26437803D01*
X75573212Y-26438465D01*
X75725647Y-26462608D01*
X75888194Y-26490226D01*
X75893811Y-26491453D01*
X76046693Y-26532418D01*
X76139122Y-26559046D01*
X76201724Y-26577082D01*
X76206759Y-26578769D01*
X76356183Y-26636127D01*
X76504007Y-26697358D01*
X76508412Y-26699388D01*
X76574180Y-26732899D01*
X76651921Y-26772511D01*
X76727428Y-26814241D01*
X76791480Y-26849641D01*
X76795215Y-26851882D01*
X76869487Y-26900115D01*
X76930872Y-26939980D01*
X77018357Y-27002053D01*
X77060764Y-27032142D01*
X77063886Y-27034510D01*
X77188748Y-27135621D01*
X77191034Y-27137567D01*
X77308721Y-27242738D01*
X77311248Y-27245128D01*
X77424870Y-27358750D01*
X77427260Y-27361277D01*
X77532431Y-27478964D01*
X77534383Y-27481258D01*
X77609006Y-27573410D01*
X77635480Y-27606102D01*
X77637862Y-27609243D01*
X77730019Y-27739127D01*
X77759166Y-27784008D01*
X77818106Y-27874767D01*
X77820364Y-27878531D01*
X77897488Y-28018078D01*
X77970604Y-28161575D01*
X77972643Y-28165997D01*
X78033877Y-28313829D01*
X78091221Y-28463217D01*
X78092916Y-28468273D01*
X78137579Y-28623297D01*
X78178541Y-28776171D01*
X78179778Y-28781835D01*
X78198248Y-28890534D01*
X78200000Y-28911306D01*
X78200000Y-80638692D01*
X78198248Y-80659464D01*
X78179778Y-80768163D01*
X78178541Y-80773826D01*
X78137579Y-80926702D01*
X78092916Y-81081725D01*
X78091221Y-81086781D01*
X78033877Y-81236170D01*
X77972643Y-81384001D01*
X77970604Y-81388423D01*
X77897488Y-81531921D01*
X77820364Y-81671467D01*
X77818097Y-81675246D01*
X77730019Y-81810872D01*
X77637862Y-81940755D01*
X77635480Y-81943896D01*
X77534385Y-82068738D01*
X77532431Y-82071034D01*
X77427260Y-82188721D01*
X77424870Y-82191248D01*
X77311248Y-82304870D01*
X77308721Y-82307260D01*
X77191034Y-82412431D01*
X77188738Y-82414385D01*
X77063896Y-82515480D01*
X77060755Y-82517862D01*
X76930872Y-82610019D01*
X76795246Y-82698097D01*
X76791467Y-82700364D01*
X76651921Y-82777488D01*
X76508423Y-82850604D01*
X76504001Y-82852643D01*
X76356170Y-82913877D01*
X76206781Y-82971221D01*
X76201725Y-82972916D01*
X76046702Y-83017579D01*
X75893827Y-83058541D01*
X75888163Y-83059778D01*
X75725630Y-83087394D01*
X75573240Y-83111530D01*
X75567013Y-83112196D01*
X75383382Y-83122509D01*
X75251622Y-83129415D01*
X75248376Y-83129500D01*
X24751624Y-83129500D01*
X24748378Y-83129415D01*
X24616617Y-83122509D01*
X24432985Y-83112196D01*
X24426758Y-83111530D01*
X24274369Y-83087394D01*
X24111835Y-83059778D01*
X24106171Y-83058541D01*
X23953297Y-83017579D01*
X23798273Y-82972916D01*
X23793217Y-82971221D01*
X23643829Y-82913877D01*
X23495997Y-82852643D01*
X23491575Y-82850604D01*
X23348078Y-82777488D01*
X23208531Y-82700364D01*
X23204767Y-82698106D01*
X23151875Y-82663758D01*
X23069127Y-82610019D01*
X22939243Y-82517862D01*
X22936102Y-82515480D01*
X22811260Y-82414385D01*
X22808964Y-82412431D01*
X22691277Y-82307260D01*
X22688750Y-82304870D01*
X22575128Y-82191248D01*
X22572738Y-82188721D01*
X22467567Y-82071034D01*
X22465613Y-82068738D01*
X22426848Y-82020867D01*
X22364510Y-81943886D01*
X22362136Y-81940755D01*
X22269980Y-81810872D01*
X22237406Y-81760715D01*
X22181882Y-81675215D01*
X22179641Y-81671480D01*
X22115425Y-81555288D01*
X22102511Y-81531921D01*
X22053264Y-81435270D01*
X22029388Y-81388412D01*
X22027358Y-81384007D01*
X21966122Y-81236170D01*
X21908769Y-81086759D01*
X21907082Y-81081724D01*
X21862420Y-80926702D01*
X21857316Y-80907652D01*
X21821454Y-80773816D01*
X21820222Y-80768173D01*
X21792607Y-80605643D01*
X21792320Y-80603830D01*
X21790791Y-80584863D01*
X21750500Y-69142000D01*
X21750500Y-33768750D01*
X22425001Y-33768750D01*
X22425001Y-33855404D01*
X22435319Y-33956402D01*
X22489546Y-34120050D01*
X22489551Y-34120061D01*
X22580052Y-34266784D01*
X22580055Y-34266788D01*
X22701961Y-34388694D01*
X22701965Y-34388697D01*
X22848688Y-34479198D01*
X22848699Y-34479203D01*
X23012347Y-34533430D01*
X23113352Y-34543749D01*
X23150000Y-34543749D01*
X23150000Y-33768750D01*
X22425001Y-33768750D01*
X21750500Y-33768750D01*
X21750500Y-29421622D01*
X21750585Y-29418376D01*
X21751211Y-29406431D01*
X21757497Y-29286486D01*
X21758789Y-29263486D01*
X21767803Y-29102968D01*
X21768464Y-29096791D01*
X21792611Y-28944331D01*
X21820227Y-28781796D01*
X21821451Y-28776196D01*
X21862425Y-28623279D01*
X21907083Y-28468268D01*
X21908764Y-28463254D01*
X21966127Y-28313815D01*
X22027366Y-28165972D01*
X22029379Y-28161606D01*
X22102511Y-28018078D01*
X22109688Y-28005090D01*
X22179655Y-27878494D01*
X22181867Y-27874808D01*
X22262376Y-27750835D01*
X22315394Y-27705336D01*
X22384599Y-27695723D01*
X22448015Y-27725050D01*
X22485509Y-27784008D01*
X22485176Y-27853876D01*
X22484073Y-27857379D01*
X22434826Y-28005997D01*
X22434825Y-28005998D01*
X22424500Y-28107065D01*
X22424500Y-28705419D01*
X22424501Y-28705437D01*
X22434825Y-28806502D01*
X22456493Y-28871889D01*
X22488078Y-28967207D01*
X22489092Y-28970265D01*
X22489093Y-28970268D01*
X22520676Y-29021471D01*
X22579307Y-29116528D01*
X22579661Y-29117101D01*
X22693629Y-29231069D01*
X22727114Y-29292392D01*
X22722130Y-29362084D01*
X22693629Y-29406431D01*
X22579661Y-29520398D01*
X22489093Y-29667231D01*
X22489091Y-29667236D01*
X22478939Y-29697873D01*
X22434826Y-29830997D01*
X22434826Y-29830998D01*
X22434825Y-29830998D01*
X22424500Y-29932065D01*
X22424500Y-30530419D01*
X22424501Y-30530437D01*
X22434825Y-30631502D01*
X22456198Y-30696000D01*
X22489092Y-30795266D01*
X22553692Y-30900000D01*
X22563656Y-30916153D01*
X22582096Y-30983546D01*
X22563656Y-31046347D01*
X22489093Y-31167231D01*
X22489091Y-31167236D01*
X22461719Y-31249838D01*
X22434826Y-31330997D01*
X22434826Y-31330998D01*
X22434825Y-31330998D01*
X22424500Y-31432065D01*
X22424500Y-32105419D01*
X22424501Y-32105437D01*
X22434825Y-32206502D01*
X22489092Y-32370265D01*
X22489093Y-32370268D01*
X22579661Y-32517101D01*
X22618982Y-32556422D01*
X22652467Y-32617745D01*
X22647483Y-32687437D01*
X22618983Y-32731783D01*
X22580055Y-32770711D01*
X22580052Y-32770715D01*
X22489551Y-32917438D01*
X22489546Y-32917449D01*
X22435319Y-33081097D01*
X22425000Y-33182095D01*
X22425000Y-33268750D01*
X23526000Y-33268750D01*
X23593039Y-33288435D01*
X23638794Y-33341239D01*
X23650000Y-33392750D01*
X23650000Y-34543749D01*
X23686640Y-34543749D01*
X23686654Y-34543748D01*
X23787652Y-34533430D01*
X23958158Y-34476931D01*
X23958688Y-34478531D01*
X24018943Y-34469377D01*
X24082728Y-34497894D01*
X24120970Y-34556369D01*
X24121543Y-34626184D01*
X24113102Y-34655850D01*
X24094285Y-34858931D01*
X24094285Y-34858932D01*
X24113102Y-35062014D01*
X24168917Y-35258179D01*
X24168922Y-35258192D01*
X24259827Y-35440753D01*
X24382737Y-35603513D01*
X24533458Y-35740912D01*
X24533460Y-35740914D01*
X24632641Y-35802324D01*
X24706863Y-35848280D01*
X24897044Y-35921956D01*
X25097524Y-35959432D01*
X25097526Y-35959432D01*
X25301474Y-35959432D01*
X25301476Y-35959432D01*
X25501956Y-35921956D01*
X25692137Y-35848280D01*
X25865541Y-35740913D01*
X26016264Y-35603511D01*
X26139173Y-35440753D01*
X26230082Y-35258182D01*
X26285897Y-35062015D01*
X26304715Y-34858932D01*
X26288106Y-34679689D01*
X26301521Y-34611120D01*
X26349878Y-34560689D01*
X26411574Y-34544249D01*
X26625500Y-34544249D01*
X26692539Y-34563934D01*
X26738294Y-34616738D01*
X26749500Y-34668249D01*
X26749500Y-37225418D01*
X26729815Y-37292457D01*
X26677011Y-37338212D01*
X26607853Y-37348156D01*
X26573095Y-37337800D01*
X26530016Y-37317712D01*
X26483663Y-37296097D01*
X26483659Y-37296096D01*
X26483655Y-37296094D01*
X26255413Y-37234938D01*
X26255403Y-37234936D01*
X26020001Y-37214341D01*
X26019999Y-37214341D01*
X25784596Y-37234936D01*
X25784586Y-37234938D01*
X25556344Y-37296094D01*
X25556337Y-37296096D01*
X25556337Y-37296097D01*
X25543204Y-37302221D01*
X25342171Y-37395964D01*
X25342169Y-37395965D01*
X25148597Y-37531505D01*
X24981505Y-37698597D01*
X24845965Y-37892169D01*
X24845964Y-37892171D01*
X24746098Y-38106335D01*
X24746094Y-38106344D01*
X24684938Y-38334586D01*
X24684936Y-38334596D01*
X24664341Y-38569999D01*
X24664341Y-38570000D01*
X24684936Y-38805403D01*
X24684938Y-38805413D01*
X24746094Y-39033655D01*
X24746096Y-39033659D01*
X24746097Y-39033663D01*
X24787450Y-39122344D01*
X24845965Y-39247830D01*
X24845967Y-39247834D01*
X24950357Y-39396917D01*
X24980614Y-39440129D01*
X24981501Y-39441395D01*
X24981506Y-39441402D01*
X25148597Y-39608493D01*
X25148603Y-39608498D01*
X25334158Y-39738425D01*
X25377783Y-39793002D01*
X25384977Y-39862500D01*
X25353454Y-39924855D01*
X25334158Y-39941575D01*
X25148597Y-40071505D01*
X24981505Y-40238597D01*
X24845965Y-40432169D01*
X24845964Y-40432171D01*
X24746098Y-40646335D01*
X24746094Y-40646344D01*
X24684938Y-40874586D01*
X24684936Y-40874596D01*
X24664341Y-41109999D01*
X24664341Y-41110000D01*
X24684936Y-41345403D01*
X24684938Y-41345413D01*
X24746094Y-41573655D01*
X24746096Y-41573659D01*
X24746097Y-41573663D01*
X24819409Y-41730880D01*
X24845965Y-41787830D01*
X24845967Y-41787834D01*
X24981501Y-41981395D01*
X24981506Y-41981402D01*
X25148597Y-42148493D01*
X25148603Y-42148498D01*
X25334158Y-42278425D01*
X25377783Y-42333002D01*
X25384977Y-42402500D01*
X25353454Y-42464855D01*
X25334158Y-42481575D01*
X25148597Y-42611505D01*
X24981505Y-42778597D01*
X24845965Y-42972169D01*
X24845964Y-42972171D01*
X24746098Y-43186335D01*
X24746094Y-43186344D01*
X24684938Y-43414586D01*
X24684936Y-43414596D01*
X24664341Y-43649999D01*
X24664341Y-43650000D01*
X24684936Y-43885403D01*
X24684938Y-43885413D01*
X24715490Y-43999435D01*
X24713827Y-44069285D01*
X24674664Y-44127147D01*
X24610436Y-44154651D01*
X24572932Y-44153417D01*
X24551976Y-44149500D01*
X24348024Y-44149500D01*
X24147544Y-44186976D01*
X24147541Y-44186976D01*
X24147541Y-44186977D01*
X23957364Y-44260651D01*
X23957357Y-44260655D01*
X23783960Y-44368017D01*
X23783958Y-44368019D01*
X23633237Y-44505418D01*
X23510327Y-44668178D01*
X23419422Y-44850739D01*
X23419417Y-44850752D01*
X23363602Y-45046917D01*
X23344785Y-45249999D01*
X23344785Y-45250000D01*
X23363602Y-45453082D01*
X23419417Y-45649247D01*
X23419422Y-45649260D01*
X23510327Y-45831821D01*
X23633237Y-45994581D01*
X23783958Y-46131980D01*
X23783960Y-46131982D01*
X23837958Y-46165416D01*
X23957363Y-46239348D01*
X24147544Y-46313024D01*
X24348024Y-46350500D01*
X24437770Y-46350500D01*
X24504809Y-46370185D01*
X24525451Y-46386819D01*
X24705692Y-46567060D01*
X24737785Y-46622644D01*
X24746097Y-46653664D01*
X24845965Y-46867830D01*
X24845967Y-46867834D01*
X24981501Y-47061395D01*
X24981506Y-47061402D01*
X25148597Y-47228493D01*
X25148603Y-47228498D01*
X25334158Y-47358425D01*
X25377783Y-47413002D01*
X25384977Y-47482500D01*
X25353454Y-47544855D01*
X25334158Y-47561575D01*
X25148597Y-47691505D01*
X24981505Y-47858597D01*
X24845965Y-48052169D01*
X24845964Y-48052171D01*
X24746098Y-48266335D01*
X24746094Y-48266344D01*
X24684938Y-48494586D01*
X24684936Y-48494596D01*
X24664341Y-48729999D01*
X24664341Y-48730000D01*
X24684936Y-48965403D01*
X24684938Y-48965413D01*
X24746094Y-49193655D01*
X24746096Y-49193659D01*
X24746097Y-49193663D01*
X24843190Y-49401880D01*
X24845965Y-49407830D01*
X24845967Y-49407834D01*
X24954281Y-49562521D01*
X24981505Y-49601401D01*
X25148599Y-49768495D01*
X25334594Y-49898730D01*
X25378218Y-49953307D01*
X25385411Y-50022806D01*
X25353889Y-50085160D01*
X25334593Y-50101880D01*
X25258626Y-50155072D01*
X25258625Y-50155072D01*
X25887466Y-50783913D01*
X25877685Y-50785320D01*
X25746900Y-50845048D01*
X25638239Y-50939202D01*
X25560507Y-51060156D01*
X25536923Y-51140476D01*
X24905072Y-50508625D01*
X24846401Y-50592419D01*
X24746570Y-50806507D01*
X24746566Y-50806516D01*
X24685432Y-51034673D01*
X24685430Y-51034684D01*
X24664843Y-51269998D01*
X24664843Y-51270001D01*
X24685430Y-51505315D01*
X24685432Y-51505326D01*
X24746566Y-51733483D01*
X24746570Y-51733492D01*
X24846400Y-51947579D01*
X24846402Y-51947583D01*
X24905072Y-52031373D01*
X24905073Y-52031373D01*
X25536923Y-51399523D01*
X25560507Y-51479844D01*
X25638239Y-51600798D01*
X25746900Y-51694952D01*
X25877685Y-51754680D01*
X25887464Y-51756086D01*
X25258625Y-52384925D01*
X25335031Y-52438425D01*
X25378655Y-52493002D01*
X25385848Y-52562501D01*
X25354326Y-52624855D01*
X25335029Y-52641576D01*
X25258625Y-52695072D01*
X25887466Y-53323913D01*
X25877685Y-53325320D01*
X25746900Y-53385048D01*
X25638239Y-53479202D01*
X25560507Y-53600156D01*
X25536923Y-53680476D01*
X24905072Y-53048625D01*
X24846401Y-53132419D01*
X24746570Y-53346507D01*
X24746566Y-53346516D01*
X24685432Y-53574673D01*
X24685430Y-53574684D01*
X24664843Y-53809998D01*
X24664843Y-53810001D01*
X24685430Y-54045315D01*
X24685432Y-54045326D01*
X24746566Y-54273483D01*
X24746570Y-54273492D01*
X24846400Y-54487579D01*
X24846402Y-54487583D01*
X24905072Y-54571373D01*
X24905073Y-54571373D01*
X25536923Y-53939523D01*
X25560507Y-54019844D01*
X25638239Y-54140798D01*
X25746900Y-54234952D01*
X25877685Y-54294680D01*
X25887464Y-54296086D01*
X25258625Y-54924925D01*
X25334594Y-54978119D01*
X25378219Y-55032696D01*
X25385413Y-55102194D01*
X25353890Y-55164549D01*
X25334595Y-55181269D01*
X25148594Y-55311508D01*
X24981505Y-55478597D01*
X24845965Y-55672169D01*
X24845964Y-55672171D01*
X24746098Y-55886335D01*
X24746094Y-55886344D01*
X24684938Y-56114586D01*
X24684936Y-56114596D01*
X24664341Y-56349999D01*
X24664341Y-56350000D01*
X24684936Y-56585403D01*
X24684938Y-56585413D01*
X24746094Y-56813655D01*
X24746096Y-56813659D01*
X24746097Y-56813663D01*
X24835252Y-57004855D01*
X24845965Y-57027830D01*
X24845967Y-57027834D01*
X24932560Y-57151501D01*
X24981505Y-57221401D01*
X25148599Y-57388495D01*
X25245384Y-57456265D01*
X25342165Y-57524032D01*
X25342167Y-57524033D01*
X25342170Y-57524035D01*
X25556337Y-57623903D01*
X25784592Y-57685063D01*
X25963891Y-57700750D01*
X26019999Y-57705659D01*
X26020000Y-57705659D01*
X26020001Y-57705659D01*
X26076086Y-57700752D01*
X26255408Y-57685063D01*
X26483663Y-57623903D01*
X26573095Y-57582199D01*
X26642173Y-57571708D01*
X26705957Y-57600228D01*
X26744196Y-57658704D01*
X26749500Y-57694582D01*
X26749500Y-60085418D01*
X26729815Y-60152457D01*
X26677011Y-60198212D01*
X26607853Y-60208156D01*
X26573095Y-60197800D01*
X26540284Y-60182500D01*
X26483663Y-60156097D01*
X26483659Y-60156096D01*
X26483655Y-60156094D01*
X26255413Y-60094938D01*
X26255403Y-60094936D01*
X26020001Y-60074341D01*
X26019999Y-60074341D01*
X25784596Y-60094936D01*
X25784586Y-60094938D01*
X25556344Y-60156094D01*
X25556335Y-60156098D01*
X25342171Y-60255964D01*
X25342169Y-60255965D01*
X25148597Y-60391505D01*
X24981505Y-60558597D01*
X24845965Y-60752169D01*
X24845964Y-60752171D01*
X24746098Y-60966335D01*
X24746094Y-60966344D01*
X24684938Y-61194586D01*
X24684936Y-61194596D01*
X24664341Y-61429999D01*
X24664341Y-61430000D01*
X24684936Y-61665403D01*
X24684938Y-61665413D01*
X24746094Y-61893655D01*
X24746096Y-61893659D01*
X24746097Y-61893663D01*
X24836865Y-62088314D01*
X24845965Y-62107830D01*
X24845967Y-62107834D01*
X24917961Y-62210651D01*
X24966978Y-62280655D01*
X24981501Y-62301395D01*
X24981506Y-62301402D01*
X25148597Y-62468493D01*
X25148603Y-62468498D01*
X25334158Y-62598425D01*
X25377783Y-62653002D01*
X25384977Y-62722500D01*
X25353454Y-62784855D01*
X25334158Y-62801575D01*
X25148597Y-62931505D01*
X24981505Y-63098597D01*
X24845965Y-63292169D01*
X24845964Y-63292171D01*
X24761604Y-63473083D01*
X24746569Y-63505326D01*
X24746098Y-63506335D01*
X24746094Y-63506344D01*
X24684938Y-63734586D01*
X24684936Y-63734596D01*
X24664341Y-63969999D01*
X24664341Y-63970000D01*
X24684936Y-64205403D01*
X24684938Y-64205413D01*
X24746094Y-64433655D01*
X24746096Y-64433659D01*
X24746097Y-64433663D01*
X24834360Y-64622942D01*
X24845965Y-64647830D01*
X24845967Y-64647834D01*
X24932560Y-64771501D01*
X24966978Y-64820655D01*
X24981501Y-64841395D01*
X24981506Y-64841402D01*
X25148597Y-65008493D01*
X25148603Y-65008498D01*
X25334158Y-65138425D01*
X25377783Y-65193002D01*
X25384977Y-65262500D01*
X25353454Y-65324855D01*
X25334158Y-65341575D01*
X25148597Y-65471505D01*
X24981505Y-65638597D01*
X24845965Y-65832169D01*
X24845964Y-65832171D01*
X24761604Y-66013082D01*
X24746569Y-66045326D01*
X24746098Y-66046335D01*
X24746094Y-66046344D01*
X24684938Y-66274586D01*
X24684936Y-66274596D01*
X24664341Y-66509999D01*
X24664341Y-66510000D01*
X24684936Y-66745403D01*
X24684938Y-66745413D01*
X24746094Y-66973655D01*
X24746096Y-66973659D01*
X24746097Y-66973663D01*
X24843049Y-67181576D01*
X24845965Y-67187830D01*
X24845967Y-67187834D01*
X24981501Y-67381395D01*
X24981506Y-67381402D01*
X25148597Y-67548493D01*
X25148603Y-67548498D01*
X25334158Y-67678425D01*
X25377783Y-67733002D01*
X25384977Y-67802500D01*
X25353454Y-67864855D01*
X25334158Y-67881575D01*
X25148597Y-68011505D01*
X24981505Y-68178597D01*
X24845965Y-68372169D01*
X24845964Y-68372171D01*
X24758451Y-68559844D01*
X24746569Y-68585326D01*
X24746098Y-68586335D01*
X24746094Y-68586344D01*
X24684938Y-68814586D01*
X24684936Y-68814596D01*
X24664341Y-69049999D01*
X24664341Y-69050000D01*
X24684936Y-69285403D01*
X24684938Y-69285413D01*
X24746094Y-69513655D01*
X24746096Y-69513659D01*
X24746097Y-69513663D01*
X24817456Y-69666692D01*
X24845965Y-69727830D01*
X24845967Y-69727834D01*
X24932563Y-69851505D01*
X24973978Y-69910652D01*
X24981501Y-69921395D01*
X24981506Y-69921402D01*
X25148597Y-70088493D01*
X25148603Y-70088498D01*
X25334158Y-70218425D01*
X25377783Y-70273002D01*
X25384977Y-70342500D01*
X25353454Y-70404855D01*
X25334158Y-70421575D01*
X25148597Y-70551505D01*
X24981505Y-70718597D01*
X24845965Y-70912169D01*
X24845964Y-70912171D01*
X24763912Y-71088132D01*
X24746569Y-71125326D01*
X24746098Y-71126335D01*
X24746094Y-71126344D01*
X24684938Y-71354586D01*
X24684936Y-71354596D01*
X24664341Y-71589999D01*
X24664341Y-71590000D01*
X24684936Y-71825403D01*
X24684938Y-71825413D01*
X24746094Y-72053655D01*
X24746096Y-72053659D01*
X24746097Y-72053663D01*
X24835252Y-72244855D01*
X24845965Y-72267830D01*
X24845967Y-72267834D01*
X24981501Y-72461395D01*
X24981506Y-72461402D01*
X25148597Y-72628493D01*
X25148603Y-72628498D01*
X25334158Y-72758425D01*
X25377783Y-72813002D01*
X25384977Y-72882500D01*
X25353454Y-72944855D01*
X25334158Y-72961575D01*
X25148597Y-73091505D01*
X24981505Y-73258597D01*
X24845965Y-73452169D01*
X24845964Y-73452171D01*
X24815417Y-73517680D01*
X24746569Y-73665326D01*
X24746098Y-73666335D01*
X24746094Y-73666344D01*
X24684938Y-73894586D01*
X24684936Y-73894596D01*
X24664341Y-74129999D01*
X24664341Y-74130000D01*
X24684936Y-74365403D01*
X24684938Y-74365413D01*
X24746094Y-74593655D01*
X24746096Y-74593659D01*
X24746097Y-74593663D01*
X24835252Y-74784855D01*
X24845965Y-74807830D01*
X24845967Y-74807834D01*
X24879044Y-74855072D01*
X24981505Y-75001401D01*
X25148599Y-75168495D01*
X25205911Y-75208625D01*
X25342165Y-75304032D01*
X25342167Y-75304033D01*
X25342170Y-75304035D01*
X25556337Y-75403903D01*
X25784592Y-75465063D01*
X25972918Y-75481539D01*
X26019999Y-75485659D01*
X26020000Y-75485659D01*
X26020001Y-75485659D01*
X26059234Y-75482226D01*
X26255408Y-75465063D01*
X26483663Y-75403903D01*
X26697830Y-75304035D01*
X26891401Y-75168495D01*
X27058495Y-75001401D01*
X27194035Y-74807830D01*
X27293903Y-74593663D01*
X27355063Y-74365408D01*
X27375659Y-74130000D01*
X27355063Y-73894592D01*
X27293903Y-73666337D01*
X27194035Y-73452171D01*
X27178512Y-73430001D01*
X27058494Y-73258597D01*
X26891402Y-73091506D01*
X26891396Y-73091501D01*
X26705842Y-72961575D01*
X26662217Y-72906998D01*
X26655023Y-72837500D01*
X26686546Y-72775145D01*
X26705842Y-72758425D01*
X26843222Y-72662230D01*
X26891401Y-72628495D01*
X27058495Y-72461401D01*
X27194035Y-72267830D01*
X27293903Y-72053663D01*
X27355063Y-71825408D01*
X27375659Y-71590000D01*
X27355063Y-71354592D01*
X27293903Y-71126337D01*
X27194035Y-70912171D01*
X27193582Y-70911523D01*
X27058494Y-70718597D01*
X26891402Y-70551506D01*
X26891396Y-70551501D01*
X26705842Y-70421575D01*
X26662217Y-70366998D01*
X26655023Y-70297500D01*
X26686546Y-70235145D01*
X26705842Y-70218425D01*
X26810108Y-70145417D01*
X26891401Y-70088495D01*
X27058495Y-69921401D01*
X27194035Y-69727830D01*
X27293903Y-69513663D01*
X27314052Y-69438465D01*
X27350416Y-69378804D01*
X27413263Y-69348274D01*
X27482638Y-69356568D01*
X27521508Y-69382876D01*
X28948647Y-70810014D01*
X28982132Y-70871337D01*
X28984437Y-70886253D01*
X28993123Y-70979983D01*
X29003603Y-71093083D01*
X29012802Y-71125413D01*
X29059417Y-71289247D01*
X29059422Y-71289260D01*
X29150327Y-71471821D01*
X29273237Y-71634581D01*
X29423958Y-71771980D01*
X29423960Y-71771982D01*
X29440111Y-71781982D01*
X29597363Y-71879348D01*
X29787544Y-71953024D01*
X29988024Y-71990500D01*
X29988026Y-71990500D01*
X30191974Y-71990500D01*
X30191976Y-71990500D01*
X30392456Y-71953024D01*
X30582637Y-71879348D01*
X30756041Y-71771981D01*
X30906764Y-71634579D01*
X30906771Y-71634569D01*
X30907561Y-71633704D01*
X30908051Y-71633406D01*
X30911001Y-71630717D01*
X30911526Y-71631293D01*
X30967270Y-71597419D01*
X31037117Y-71599174D01*
X31094928Y-71638413D01*
X31100775Y-71646106D01*
X31181501Y-71761395D01*
X31181505Y-71761401D01*
X31348597Y-71928493D01*
X31348603Y-71928498D01*
X31534158Y-72058425D01*
X31577783Y-72113002D01*
X31584977Y-72182500D01*
X31553454Y-72244855D01*
X31534158Y-72261575D01*
X31348597Y-72391505D01*
X31181505Y-72558597D01*
X31045965Y-72752169D01*
X31045964Y-72752171D01*
X30946098Y-72966335D01*
X30946094Y-72966344D01*
X30884938Y-73194586D01*
X30884936Y-73194596D01*
X30864341Y-73429999D01*
X30864341Y-73430000D01*
X30884936Y-73665403D01*
X30884938Y-73665413D01*
X30946094Y-73893655D01*
X30946096Y-73893659D01*
X30946097Y-73893663D01*
X31045848Y-74107579D01*
X31045965Y-74107830D01*
X31045967Y-74107834D01*
X31181501Y-74301395D01*
X31181506Y-74301402D01*
X31348597Y-74468493D01*
X31348603Y-74468498D01*
X31534158Y-74598425D01*
X31577783Y-74653002D01*
X31584977Y-74722500D01*
X31553454Y-74784855D01*
X31534158Y-74801575D01*
X31348597Y-74931505D01*
X31181505Y-75098597D01*
X31045965Y-75292169D01*
X31045964Y-75292171D01*
X30946098Y-75506335D01*
X30946094Y-75506344D01*
X30884938Y-75734586D01*
X30884936Y-75734596D01*
X30864341Y-75969999D01*
X30864341Y-75970000D01*
X30884936Y-76205403D01*
X30884938Y-76205413D01*
X30946094Y-76433655D01*
X30946096Y-76433659D01*
X30946097Y-76433663D01*
X31045848Y-76647579D01*
X31045965Y-76647830D01*
X31045967Y-76647834D01*
X31144357Y-76788348D01*
X31181505Y-76841401D01*
X31348599Y-77008495D01*
X31398890Y-77043709D01*
X31542165Y-77144032D01*
X31542167Y-77144033D01*
X31542170Y-77144035D01*
X31756337Y-77243903D01*
X31756343Y-77243904D01*
X31756344Y-77243905D01*
X31811285Y-77258626D01*
X31984592Y-77305063D01*
X32147707Y-77319334D01*
X32219999Y-77325659D01*
X32220000Y-77325659D01*
X32220001Y-77325659D01*
X32292293Y-77319334D01*
X32455408Y-77305063D01*
X32683663Y-77243903D01*
X32897830Y-77144035D01*
X33091401Y-77008495D01*
X33258495Y-76841401D01*
X33394035Y-76647830D01*
X33493903Y-76433663D01*
X33555063Y-76205408D01*
X33575659Y-75970000D01*
X33555063Y-75734592D01*
X33493903Y-75506337D01*
X33394035Y-75292171D01*
X33307437Y-75168495D01*
X33258494Y-75098597D01*
X33091402Y-74931506D01*
X33091396Y-74931501D01*
X32905842Y-74801575D01*
X32862217Y-74746998D01*
X32855023Y-74677500D01*
X32886546Y-74615145D01*
X32905842Y-74598425D01*
X32982248Y-74544925D01*
X33091401Y-74468495D01*
X33258495Y-74301401D01*
X33394035Y-74107830D01*
X33493903Y-73893663D01*
X33555063Y-73665408D01*
X33575659Y-73430000D01*
X33555063Y-73194592D01*
X33493903Y-72966337D01*
X33394035Y-72752171D01*
X33307437Y-72628495D01*
X33258494Y-72558597D01*
X33091402Y-72391506D01*
X33091396Y-72391501D01*
X32905842Y-72261575D01*
X32862217Y-72206998D01*
X32855023Y-72137500D01*
X32886546Y-72075145D01*
X32905842Y-72058425D01*
X32988567Y-72000500D01*
X33091401Y-71928495D01*
X33258495Y-71761401D01*
X33394035Y-71567830D01*
X33493903Y-71353663D01*
X33555063Y-71125408D01*
X33575659Y-70890000D01*
X33572463Y-70853476D01*
X33560663Y-70718597D01*
X33555063Y-70654592D01*
X33493903Y-70426337D01*
X33394035Y-70212171D01*
X33374803Y-70184704D01*
X33258494Y-70018597D01*
X33091402Y-69851506D01*
X33091401Y-69851505D01*
X32905405Y-69721269D01*
X32861781Y-69666692D01*
X32854588Y-69597193D01*
X32886110Y-69534839D01*
X32905405Y-69518119D01*
X32981373Y-69464925D01*
X32352533Y-68836086D01*
X32362315Y-68834680D01*
X32493100Y-68774952D01*
X32601761Y-68680798D01*
X32679493Y-68559844D01*
X32703076Y-68479524D01*
X33334925Y-69111373D01*
X33334926Y-69111373D01*
X33393598Y-69027582D01*
X33393600Y-69027578D01*
X33493429Y-68813492D01*
X33493433Y-68813483D01*
X33554567Y-68585326D01*
X33554569Y-68585315D01*
X33575157Y-68350001D01*
X33575157Y-68349998D01*
X33554569Y-68114684D01*
X33554567Y-68114673D01*
X33493433Y-67886516D01*
X33493429Y-67886507D01*
X33393600Y-67672423D01*
X33393599Y-67672421D01*
X33334925Y-67588626D01*
X33334925Y-67588625D01*
X32703076Y-68220475D01*
X32679493Y-68140156D01*
X32601761Y-68019202D01*
X32493100Y-67925048D01*
X32362315Y-67865320D01*
X32352533Y-67863913D01*
X32981373Y-67235073D01*
X32981373Y-67235072D01*
X32905405Y-67181880D01*
X32861780Y-67127304D01*
X32854586Y-67057805D01*
X32886108Y-66995451D01*
X32905399Y-66978734D01*
X33091401Y-66848495D01*
X33258495Y-66681401D01*
X33394035Y-66487830D01*
X33439637Y-66390034D01*
X33485806Y-66337599D01*
X33553000Y-66318447D01*
X33619881Y-66338662D01*
X33657443Y-66377163D01*
X33660328Y-66381823D01*
X33783237Y-66544581D01*
X33933958Y-66681980D01*
X33933960Y-66681982D01*
X33950111Y-66691982D01*
X34107363Y-66789348D01*
X34297544Y-66863024D01*
X34498024Y-66900500D01*
X34498026Y-66900500D01*
X34701974Y-66900500D01*
X34701976Y-66900500D01*
X34902456Y-66863024D01*
X35092637Y-66789348D01*
X35266041Y-66681981D01*
X35337486Y-66616850D01*
X35374769Y-66582863D01*
X35437573Y-66552246D01*
X35458307Y-66550500D01*
X37175030Y-66550500D01*
X37242069Y-66570185D01*
X37262711Y-66586819D01*
X37613181Y-66937288D01*
X37646666Y-66998611D01*
X37649500Y-67024969D01*
X37649500Y-70988770D01*
X37629815Y-71055809D01*
X37577011Y-71101564D01*
X37507853Y-71111508D01*
X37444297Y-71082483D01*
X37437819Y-71076451D01*
X37341351Y-70979983D01*
X37307866Y-70918660D01*
X37305561Y-70903743D01*
X37305214Y-70900004D01*
X37305215Y-70900000D01*
X37286397Y-70696917D01*
X37230582Y-70500750D01*
X37193532Y-70426344D01*
X37151783Y-70342500D01*
X37139673Y-70318179D01*
X37059618Y-70212169D01*
X37016762Y-70155418D01*
X36866041Y-70018019D01*
X36866039Y-70018017D01*
X36692642Y-69910655D01*
X36692635Y-69910651D01*
X36597546Y-69873814D01*
X36502456Y-69836976D01*
X36301976Y-69799500D01*
X36098024Y-69799500D01*
X35897544Y-69836976D01*
X35897541Y-69836976D01*
X35897541Y-69836977D01*
X35707364Y-69910651D01*
X35707357Y-69910655D01*
X35533960Y-70018017D01*
X35533958Y-70018019D01*
X35383237Y-70155418D01*
X35260327Y-70318178D01*
X35169422Y-70500739D01*
X35169417Y-70500752D01*
X35113602Y-70696917D01*
X35094785Y-70899999D01*
X35094785Y-70900000D01*
X35113602Y-71103082D01*
X35169417Y-71299247D01*
X35169422Y-71299260D01*
X35260327Y-71481821D01*
X35383237Y-71644581D01*
X35533958Y-71781980D01*
X35533960Y-71781982D01*
X35604088Y-71825403D01*
X35707363Y-71889348D01*
X35897544Y-71963024D01*
X36098024Y-72000500D01*
X36187770Y-72000500D01*
X36254809Y-72020185D01*
X36275451Y-72036819D01*
X36813181Y-72574549D01*
X36846666Y-72635872D01*
X36849500Y-72662230D01*
X36849500Y-76936294D01*
X36848191Y-76954263D01*
X36844710Y-76978025D01*
X36849264Y-77030064D01*
X36849500Y-77035470D01*
X36849500Y-77043709D01*
X36853306Y-77076274D01*
X36860000Y-77152791D01*
X36861461Y-77159867D01*
X36861403Y-77159878D01*
X36863034Y-77167237D01*
X36863092Y-77167224D01*
X36864757Y-77174250D01*
X36891025Y-77246424D01*
X36915185Y-77319331D01*
X36918236Y-77325874D01*
X36918182Y-77325898D01*
X36921470Y-77332688D01*
X36921521Y-77332663D01*
X36924761Y-77339113D01*
X36924762Y-77339114D01*
X36924763Y-77339117D01*
X36966965Y-77403283D01*
X37007287Y-77468655D01*
X37011766Y-77474319D01*
X37011719Y-77474356D01*
X37016482Y-77480202D01*
X37016528Y-77480164D01*
X37021173Y-77485700D01*
X37077018Y-77538386D01*
X40824267Y-81285634D01*
X40836048Y-81299266D01*
X40850390Y-81318530D01*
X40890420Y-81352119D01*
X40894392Y-81355759D01*
X40900224Y-81361591D01*
X40900227Y-81361594D01*
X40925947Y-81381931D01*
X40984788Y-81431304D01*
X40990818Y-81435270D01*
X40990785Y-81435319D01*
X40997143Y-81439369D01*
X40997175Y-81439319D01*
X41003320Y-81443109D01*
X41003323Y-81443111D01*
X41072936Y-81475572D01*
X41141567Y-81510040D01*
X41141572Y-81510041D01*
X41148361Y-81512513D01*
X41148340Y-81512570D01*
X41155455Y-81515043D01*
X41155475Y-81514986D01*
X41162330Y-81517258D01*
X41233349Y-81531921D01*
X41237558Y-81532790D01*
X41312279Y-81550500D01*
X41312289Y-81550500D01*
X41319452Y-81551338D01*
X41319444Y-81551397D01*
X41326945Y-81552164D01*
X41326951Y-81552105D01*
X41334140Y-81552734D01*
X41334144Y-81552733D01*
X41334145Y-81552734D01*
X41410918Y-81550500D01*
X70386295Y-81550500D01*
X70404265Y-81551809D01*
X70428023Y-81555289D01*
X70480068Y-81550735D01*
X70485470Y-81550500D01*
X70493704Y-81550500D01*
X70493709Y-81550500D01*
X70505327Y-81549141D01*
X70526276Y-81546693D01*
X70539028Y-81545577D01*
X70602797Y-81539999D01*
X70602805Y-81539996D01*
X70609866Y-81538539D01*
X70609878Y-81538598D01*
X70617243Y-81536965D01*
X70617229Y-81536906D01*
X70624246Y-81535241D01*
X70624255Y-81535241D01*
X70696423Y-81508974D01*
X70769334Y-81484814D01*
X70769343Y-81484807D01*
X70775882Y-81481760D01*
X70775908Y-81481816D01*
X70782690Y-81478532D01*
X70782663Y-81478478D01*
X70789106Y-81475240D01*
X70789117Y-81475237D01*
X70853283Y-81433034D01*
X70918656Y-81392712D01*
X70918662Y-81392705D01*
X70924325Y-81388229D01*
X70924362Y-81388277D01*
X70930204Y-81383518D01*
X70930164Y-81383471D01*
X70935686Y-81378836D01*
X70935696Y-81378830D01*
X70962889Y-81350007D01*
X70988386Y-81322982D01*
X72181866Y-80129500D01*
X72935638Y-79375727D01*
X72949267Y-79363950D01*
X72968530Y-79349610D01*
X72968532Y-79349606D01*
X72968534Y-79349606D01*
X72986663Y-79327999D01*
X73002113Y-79309585D01*
X73005767Y-79305599D01*
X73011589Y-79299778D01*
X73031928Y-79274054D01*
X73037162Y-79267815D01*
X73081302Y-79215214D01*
X73081304Y-79215209D01*
X73085272Y-79209179D01*
X73085323Y-79209212D01*
X73089372Y-79202856D01*
X73089320Y-79202824D01*
X73093112Y-79196675D01*
X73125575Y-79127058D01*
X73160036Y-79058440D01*
X73160040Y-79058433D01*
X73160042Y-79058421D01*
X73162509Y-79051646D01*
X73162567Y-79051667D01*
X73165043Y-79044546D01*
X73164986Y-79044527D01*
X73167255Y-79037678D01*
X73167255Y-79037676D01*
X73167257Y-79037673D01*
X73182788Y-78962449D01*
X73200500Y-78887721D01*
X73200500Y-78887718D01*
X73201339Y-78880548D01*
X73201397Y-78880554D01*
X73202164Y-78873056D01*
X73202104Y-78873051D01*
X73202733Y-78865860D01*
X73200500Y-78789103D01*
X73200500Y-75451266D01*
X73220185Y-75384227D01*
X73272989Y-75338472D01*
X73342147Y-75328528D01*
X73376901Y-75338882D01*
X73516337Y-75403903D01*
X73744592Y-75465063D01*
X73932918Y-75481539D01*
X73979999Y-75485659D01*
X73980000Y-75485659D01*
X73980001Y-75485659D01*
X74019234Y-75482226D01*
X74215408Y-75465063D01*
X74443663Y-75403903D01*
X74657830Y-75304035D01*
X74851401Y-75168495D01*
X75018495Y-75001401D01*
X75154035Y-74807830D01*
X75253903Y-74593663D01*
X75315063Y-74365408D01*
X75335659Y-74130000D01*
X75315063Y-73894592D01*
X75253903Y-73666337D01*
X75154035Y-73452171D01*
X75138512Y-73430001D01*
X75018494Y-73258597D01*
X74851402Y-73091506D01*
X74851396Y-73091501D01*
X74665842Y-72961575D01*
X74622217Y-72906998D01*
X74615023Y-72837500D01*
X74646546Y-72775145D01*
X74665842Y-72758425D01*
X74803222Y-72662230D01*
X74851401Y-72628495D01*
X75018495Y-72461401D01*
X75154035Y-72267830D01*
X75253903Y-72053663D01*
X75315063Y-71825408D01*
X75335659Y-71590000D01*
X75315063Y-71354592D01*
X75253903Y-71126337D01*
X75154035Y-70912171D01*
X75153582Y-70911523D01*
X75018494Y-70718597D01*
X74851402Y-70551506D01*
X74851396Y-70551501D01*
X74665842Y-70421575D01*
X74622217Y-70366998D01*
X74615023Y-70297500D01*
X74646546Y-70235145D01*
X74665842Y-70218425D01*
X74770108Y-70145417D01*
X74851401Y-70088495D01*
X75018495Y-69921401D01*
X75154035Y-69727830D01*
X75253903Y-69513663D01*
X75315063Y-69285408D01*
X75335659Y-69050000D01*
X75315063Y-68814592D01*
X75253903Y-68586337D01*
X75154035Y-68372171D01*
X75153204Y-68370983D01*
X75018494Y-68178597D01*
X74851402Y-68011506D01*
X74851396Y-68011501D01*
X74665842Y-67881575D01*
X74622217Y-67826998D01*
X74615023Y-67757500D01*
X74646546Y-67695145D01*
X74665842Y-67678425D01*
X74714407Y-67644419D01*
X74851401Y-67548495D01*
X75018495Y-67381401D01*
X75154035Y-67187830D01*
X75253903Y-66973663D01*
X75315063Y-66745408D01*
X75335659Y-66510000D01*
X75315063Y-66274592D01*
X75253903Y-66046337D01*
X75154035Y-65832171D01*
X75138512Y-65810001D01*
X75018494Y-65638597D01*
X74851402Y-65471506D01*
X74851396Y-65471501D01*
X74665842Y-65341575D01*
X74622217Y-65286998D01*
X74615023Y-65217500D01*
X74646546Y-65155145D01*
X74665842Y-65138425D01*
X74722792Y-65098548D01*
X74851401Y-65008495D01*
X75018495Y-64841401D01*
X75154035Y-64647830D01*
X75253903Y-64433663D01*
X75315063Y-64205408D01*
X75335659Y-63970000D01*
X75334390Y-63955501D01*
X75325319Y-63851821D01*
X75315063Y-63734592D01*
X75253903Y-63506337D01*
X75154035Y-63292171D01*
X75153204Y-63290983D01*
X75018494Y-63098597D01*
X74851402Y-62931506D01*
X74851396Y-62931501D01*
X74665842Y-62801575D01*
X74622217Y-62746998D01*
X74615023Y-62677500D01*
X74646546Y-62615145D01*
X74665842Y-62598425D01*
X74718589Y-62561491D01*
X74851401Y-62468495D01*
X75018495Y-62301401D01*
X75154035Y-62107830D01*
X75253903Y-61893663D01*
X75315063Y-61665408D01*
X75335659Y-61430000D01*
X75315063Y-61194592D01*
X75253903Y-60966337D01*
X75154035Y-60752171D01*
X75153582Y-60751523D01*
X75018494Y-60558597D01*
X74851402Y-60391506D01*
X74851396Y-60391501D01*
X74665842Y-60261575D01*
X74622217Y-60206998D01*
X74615023Y-60137500D01*
X74646546Y-60075145D01*
X74665842Y-60058425D01*
X74770102Y-59985421D01*
X74851401Y-59928495D01*
X75018495Y-59761401D01*
X75154035Y-59567830D01*
X75253903Y-59353663D01*
X75315063Y-59125408D01*
X75335659Y-58890000D01*
X75315063Y-58654592D01*
X75253903Y-58426337D01*
X75154035Y-58212171D01*
X75103591Y-58140128D01*
X75018494Y-58018597D01*
X74851402Y-57851506D01*
X74851396Y-57851501D01*
X74665842Y-57721575D01*
X74622217Y-57666998D01*
X74615023Y-57597500D01*
X74646546Y-57535145D01*
X74665842Y-57518425D01*
X74709500Y-57487855D01*
X74851401Y-57388495D01*
X75018495Y-57221401D01*
X75154035Y-57027830D01*
X75253903Y-56813663D01*
X75315063Y-56585408D01*
X75335659Y-56350000D01*
X75315063Y-56114592D01*
X75253903Y-55886337D01*
X75154035Y-55672171D01*
X75147631Y-55663024D01*
X75018494Y-55478597D01*
X74851402Y-55311506D01*
X74851395Y-55311501D01*
X74657834Y-55175967D01*
X74657830Y-55175965D01*
X74633348Y-55164549D01*
X74443663Y-55076097D01*
X74443659Y-55076096D01*
X74443655Y-55076094D01*
X74215413Y-55014938D01*
X74215403Y-55014936D01*
X73980001Y-54994341D01*
X73979998Y-54994341D01*
X73766986Y-55012977D01*
X73698486Y-54999210D01*
X73668498Y-54977130D01*
X73136819Y-54445451D01*
X73103334Y-54384128D01*
X73100500Y-54357770D01*
X73100500Y-53557026D01*
X73120185Y-53489987D01*
X73172989Y-53444232D01*
X73242147Y-53434288D01*
X73295622Y-53455450D01*
X73302170Y-53460035D01*
X73516337Y-53559903D01*
X73744592Y-53621063D01*
X73932918Y-53637539D01*
X73979999Y-53641659D01*
X73980000Y-53641659D01*
X73980001Y-53641659D01*
X74019234Y-53638226D01*
X74215408Y-53621063D01*
X74443663Y-53559903D01*
X74657830Y-53460035D01*
X74851401Y-53324495D01*
X75018495Y-53157401D01*
X75154035Y-52963830D01*
X75253903Y-52749663D01*
X75315063Y-52521408D01*
X75335659Y-52286000D01*
X75315063Y-52050592D01*
X75253903Y-51822337D01*
X75154035Y-51608171D01*
X75148873Y-51600798D01*
X75018494Y-51414597D01*
X74851402Y-51247506D01*
X74851396Y-51247501D01*
X74665842Y-51117575D01*
X74622217Y-51062998D01*
X74615023Y-50993500D01*
X74646546Y-50931145D01*
X74665842Y-50914425D01*
X74764922Y-50845048D01*
X74851401Y-50784495D01*
X75018495Y-50617401D01*
X75154035Y-50423830D01*
X75253903Y-50209663D01*
X75315063Y-49981408D01*
X75335659Y-49746000D01*
X75315063Y-49510592D01*
X75253903Y-49282337D01*
X75154035Y-49068171D01*
X75082084Y-48965413D01*
X75018494Y-48874597D01*
X74851402Y-48707506D01*
X74851396Y-48707501D01*
X74665842Y-48577575D01*
X74622217Y-48522998D01*
X74615023Y-48453500D01*
X74646546Y-48391145D01*
X74665842Y-48374425D01*
X74790956Y-48286819D01*
X74851401Y-48244495D01*
X75018495Y-48077401D01*
X75154035Y-47883830D01*
X75253903Y-47669663D01*
X75315063Y-47441408D01*
X75335659Y-47206000D01*
X75315063Y-46970592D01*
X75260683Y-46767640D01*
X75253905Y-46742344D01*
X75253904Y-46742343D01*
X75253903Y-46742337D01*
X75154035Y-46528171D01*
X75129995Y-46493837D01*
X75018494Y-46334597D01*
X74851402Y-46167506D01*
X74851396Y-46167501D01*
X74665842Y-46037575D01*
X74622217Y-45982998D01*
X74615023Y-45913500D01*
X74646546Y-45851145D01*
X74665842Y-45834425D01*
X74729726Y-45789693D01*
X74851401Y-45704495D01*
X75018495Y-45537401D01*
X75154035Y-45343830D01*
X75253903Y-45129663D01*
X75315063Y-44901408D01*
X75335659Y-44666000D01*
X75333736Y-44644026D01*
X75321610Y-44505421D01*
X75315063Y-44430592D01*
X75253903Y-44202337D01*
X75154035Y-43988171D01*
X75084950Y-43889506D01*
X75018494Y-43794597D01*
X74851402Y-43627506D01*
X74851396Y-43627501D01*
X74665842Y-43497575D01*
X74622217Y-43442998D01*
X74615023Y-43373500D01*
X74646546Y-43311145D01*
X74665842Y-43294425D01*
X74700623Y-43270071D01*
X74851401Y-43164495D01*
X75018495Y-42997401D01*
X75154035Y-42803830D01*
X75253903Y-42589663D01*
X75315063Y-42361408D01*
X75335659Y-42126000D01*
X75315063Y-41890592D01*
X75253903Y-41662337D01*
X75154035Y-41448171D01*
X75096248Y-41365641D01*
X75018494Y-41254597D01*
X74851402Y-41087506D01*
X74851396Y-41087501D01*
X74665842Y-40957575D01*
X74622217Y-40902998D01*
X74615023Y-40833500D01*
X74646546Y-40771145D01*
X74665842Y-40754425D01*
X74820210Y-40646335D01*
X74851401Y-40624495D01*
X75018495Y-40457401D01*
X75154035Y-40263830D01*
X75253903Y-40049663D01*
X75315063Y-39821408D01*
X75335659Y-39586000D01*
X75315063Y-39350592D01*
X75253903Y-39122337D01*
X75154035Y-38908171D01*
X75117100Y-38855421D01*
X75018494Y-38714597D01*
X74851402Y-38547506D01*
X74851401Y-38547505D01*
X74665405Y-38417269D01*
X74621781Y-38362692D01*
X74614588Y-38293193D01*
X74646110Y-38230839D01*
X74665405Y-38214119D01*
X74741373Y-38160925D01*
X74112534Y-37532086D01*
X74122315Y-37530680D01*
X74253100Y-37470952D01*
X74361761Y-37376798D01*
X74439493Y-37255844D01*
X74463076Y-37175524D01*
X75094925Y-37807373D01*
X75094926Y-37807373D01*
X75153598Y-37723582D01*
X75153600Y-37723578D01*
X75253429Y-37509492D01*
X75253433Y-37509483D01*
X75314567Y-37281326D01*
X75314569Y-37281315D01*
X75335157Y-37046001D01*
X75335157Y-37045998D01*
X75314569Y-36810684D01*
X75314567Y-36810673D01*
X75253433Y-36582516D01*
X75253429Y-36582507D01*
X75153600Y-36368423D01*
X75153599Y-36368421D01*
X75094925Y-36284626D01*
X75094925Y-36284625D01*
X74463076Y-36916475D01*
X74439493Y-36836156D01*
X74361761Y-36715202D01*
X74253100Y-36621048D01*
X74122315Y-36561320D01*
X74112533Y-36559913D01*
X74741373Y-35931073D01*
X74741373Y-35931072D01*
X74665405Y-35877880D01*
X74621780Y-35823304D01*
X74614586Y-35753805D01*
X74646108Y-35691451D01*
X74665399Y-35674734D01*
X74851401Y-35544495D01*
X75018495Y-35377401D01*
X75154035Y-35183830D01*
X75253903Y-34969663D01*
X75315063Y-34741408D01*
X75335659Y-34506000D01*
X75315063Y-34270592D01*
X75253903Y-34042337D01*
X75154035Y-33828171D01*
X75112429Y-33768750D01*
X75018494Y-33634597D01*
X74851402Y-33467506D01*
X74851396Y-33467501D01*
X74665842Y-33337575D01*
X74622217Y-33282998D01*
X74615023Y-33213500D01*
X74646546Y-33151145D01*
X74665842Y-33134425D01*
X74742145Y-33080997D01*
X74851401Y-33004495D01*
X75018495Y-32837401D01*
X75154035Y-32643830D01*
X75253903Y-32429663D01*
X75315063Y-32201408D01*
X75335659Y-31966000D01*
X75315063Y-31730592D01*
X75253903Y-31502337D01*
X75154035Y-31288171D01*
X75153089Y-31286819D01*
X75018494Y-31094597D01*
X74851402Y-30927506D01*
X74851396Y-30927501D01*
X74665842Y-30797575D01*
X74622217Y-30742998D01*
X74615023Y-30673500D01*
X74646546Y-30611145D01*
X74665842Y-30594425D01*
X74757252Y-30530419D01*
X74851401Y-30464495D01*
X75018495Y-30297401D01*
X75154035Y-30103830D01*
X75253903Y-29889663D01*
X75315063Y-29661408D01*
X75335659Y-29426000D01*
X75315063Y-29190592D01*
X75261590Y-28991025D01*
X75253905Y-28962344D01*
X75253904Y-28962343D01*
X75253903Y-28962337D01*
X75154035Y-28748171D01*
X75124113Y-28705437D01*
X75018494Y-28554597D01*
X74851402Y-28387506D01*
X74851395Y-28387501D01*
X74833610Y-28375048D01*
X74778577Y-28336513D01*
X74657834Y-28251967D01*
X74657830Y-28251965D01*
X74657828Y-28251964D01*
X74443663Y-28152097D01*
X74443659Y-28152096D01*
X74443655Y-28152094D01*
X74215413Y-28090938D01*
X74215403Y-28090936D01*
X73980001Y-28070341D01*
X73979999Y-28070341D01*
X73744596Y-28090936D01*
X73744586Y-28090938D01*
X73516344Y-28152094D01*
X73516335Y-28152098D01*
X73302171Y-28251964D01*
X73302169Y-28251965D01*
X73108597Y-28387505D01*
X72941505Y-28554597D01*
X72805965Y-28748169D01*
X72805964Y-28748171D01*
X72706098Y-28962335D01*
X72706094Y-28962344D01*
X72644938Y-29190586D01*
X72644936Y-29190596D01*
X72624341Y-29425999D01*
X72624341Y-29426000D01*
X72644936Y-29661403D01*
X72644938Y-29661413D01*
X72706094Y-29889655D01*
X72706096Y-29889659D01*
X72706097Y-29889663D01*
X72785079Y-30059039D01*
X72805965Y-30103830D01*
X72805967Y-30103834D01*
X72941501Y-30297395D01*
X72941506Y-30297402D01*
X73108597Y-30464493D01*
X73108603Y-30464498D01*
X73294158Y-30594425D01*
X73337783Y-30649002D01*
X73344977Y-30718500D01*
X73313454Y-30780855D01*
X73294158Y-30797575D01*
X73108597Y-30927505D01*
X72941505Y-31094597D01*
X72805965Y-31288169D01*
X72805964Y-31288171D01*
X72706098Y-31502335D01*
X72706094Y-31502344D01*
X72644938Y-31730586D01*
X72644936Y-31730596D01*
X72624341Y-31965999D01*
X72624341Y-31966000D01*
X72644936Y-32201403D01*
X72644938Y-32201413D01*
X72706094Y-32429655D01*
X72706096Y-32429659D01*
X72706097Y-32429663D01*
X72765041Y-32556069D01*
X72805965Y-32643830D01*
X72805967Y-32643834D01*
X72941501Y-32837395D01*
X72941506Y-32837402D01*
X73108597Y-33004493D01*
X73108603Y-33004498D01*
X73294158Y-33134425D01*
X73337783Y-33189002D01*
X73344977Y-33258500D01*
X73313454Y-33320855D01*
X73294158Y-33337575D01*
X73108596Y-33467506D01*
X73088969Y-33487133D01*
X73027646Y-33520617D01*
X72957954Y-33515631D01*
X72916196Y-33489645D01*
X72892730Y-33467505D01*
X72872964Y-33448856D01*
X68638474Y-29214365D01*
X68626693Y-29200734D01*
X68612352Y-29181470D01*
X68572322Y-29147880D01*
X68568336Y-29144227D01*
X68562523Y-29138414D01*
X68562519Y-29138410D01*
X68536797Y-29118072D01*
X68477956Y-29068698D01*
X68477954Y-29068696D01*
X68471925Y-29064731D01*
X68471957Y-29064681D01*
X68465595Y-29060628D01*
X68465564Y-29060679D01*
X68459422Y-29056891D01*
X68459420Y-29056890D01*
X68459419Y-29056889D01*
X68413354Y-29035408D01*
X68389800Y-29024424D01*
X68355636Y-29007267D01*
X68321175Y-28989960D01*
X68321173Y-28989959D01*
X68321172Y-28989959D01*
X68314387Y-28987489D01*
X68314407Y-28987433D01*
X68307291Y-28984959D01*
X68307273Y-28985015D01*
X68300413Y-28982742D01*
X68272583Y-28976996D01*
X68225176Y-28967207D01*
X68176214Y-28955603D01*
X68150461Y-28949499D01*
X68143289Y-28948661D01*
X68143295Y-28948601D01*
X68135797Y-28947835D01*
X68135792Y-28947895D01*
X68128602Y-28947265D01*
X68051825Y-28949500D01*
X49137359Y-28949500D01*
X49119389Y-28948191D01*
X49095626Y-28944710D01*
X49051166Y-28948601D01*
X49043585Y-28949264D01*
X49038184Y-28949500D01*
X49029943Y-28949500D01*
X49008233Y-28952037D01*
X48997378Y-28953306D01*
X48982073Y-28954645D01*
X48920853Y-28960001D01*
X48913786Y-28961460D01*
X48913774Y-28961404D01*
X48906417Y-28963035D01*
X48906431Y-28963092D01*
X48899397Y-28964759D01*
X48827229Y-28991025D01*
X48754329Y-29015181D01*
X48747780Y-29018236D01*
X48747755Y-29018183D01*
X48740962Y-29021471D01*
X48740988Y-29021523D01*
X48734534Y-29024764D01*
X48670362Y-29066971D01*
X48605001Y-29107285D01*
X48599337Y-29111765D01*
X48599301Y-29111719D01*
X48593452Y-29116484D01*
X48593489Y-29116528D01*
X48587964Y-29121164D01*
X48587958Y-29121169D01*
X48587958Y-29121170D01*
X48564393Y-29146147D01*
X48535251Y-29177035D01*
X43789458Y-33922828D01*
X43728135Y-33956313D01*
X43701777Y-33959147D01*
X43664017Y-33959147D01*
X43463537Y-33996623D01*
X43463534Y-33996623D01*
X43463534Y-33996624D01*
X43273357Y-34070298D01*
X43273350Y-34070302D01*
X43099953Y-34177664D01*
X43099951Y-34177666D01*
X42949230Y-34315065D01*
X42826320Y-34477825D01*
X42735415Y-34660386D01*
X42735410Y-34660399D01*
X42679595Y-34856564D01*
X42660778Y-35059646D01*
X42660778Y-35059647D01*
X42679595Y-35262729D01*
X42735410Y-35458894D01*
X42735417Y-35458912D01*
X42764120Y-35516555D01*
X42776381Y-35585340D01*
X42749508Y-35649835D01*
X42696454Y-35688008D01*
X42647669Y-35706203D01*
X42647664Y-35706206D01*
X42532455Y-35792452D01*
X42532452Y-35792455D01*
X42446206Y-35907664D01*
X42446203Y-35907669D01*
X42397189Y-36039083D01*
X42355317Y-36095016D01*
X42289853Y-36119433D01*
X42221580Y-36104581D01*
X42193326Y-36083430D01*
X42071402Y-35961506D01*
X42071395Y-35961501D01*
X41877834Y-35825967D01*
X41877830Y-35825965D01*
X41848521Y-35812298D01*
X41663663Y-35726097D01*
X41663659Y-35726096D01*
X41663655Y-35726094D01*
X41435413Y-35664938D01*
X41435403Y-35664936D01*
X41200001Y-35644341D01*
X41199999Y-35644341D01*
X40964596Y-35664936D01*
X40964586Y-35664938D01*
X40736344Y-35726094D01*
X40736337Y-35726096D01*
X40736337Y-35726097D01*
X40722816Y-35732401D01*
X40522171Y-35825964D01*
X40522169Y-35825965D01*
X40328597Y-35961505D01*
X40161505Y-36128597D01*
X40031575Y-36314158D01*
X39976998Y-36357783D01*
X39907500Y-36364977D01*
X39845145Y-36333454D01*
X39828425Y-36314158D01*
X39698494Y-36128597D01*
X39531404Y-35961507D01*
X39463375Y-35913872D01*
X39419751Y-35859294D01*
X39410500Y-35812298D01*
X39410500Y-35794434D01*
X39430185Y-35727395D01*
X39435546Y-35719707D01*
X39539673Y-35581821D01*
X39630582Y-35399250D01*
X39686397Y-35203083D01*
X39705215Y-35000000D01*
X39686397Y-34796917D01*
X39630582Y-34600750D01*
X39626811Y-34593177D01*
X39570059Y-34479203D01*
X39539673Y-34418179D01*
X39461805Y-34315065D01*
X39416762Y-34255418D01*
X39266041Y-34118019D01*
X39266039Y-34118017D01*
X39092642Y-34010655D01*
X39092635Y-34010651D01*
X38952861Y-33956503D01*
X38902456Y-33936976D01*
X38701976Y-33899500D01*
X38498024Y-33899500D01*
X38297544Y-33936976D01*
X38297541Y-33936976D01*
X38297541Y-33936977D01*
X38107364Y-34010651D01*
X38107357Y-34010655D01*
X37933960Y-34118017D01*
X37933958Y-34118019D01*
X37783237Y-34255418D01*
X37660327Y-34418178D01*
X37569422Y-34600739D01*
X37569417Y-34600752D01*
X37513602Y-34796917D01*
X37494785Y-34999999D01*
X37494785Y-35000000D01*
X37513602Y-35203082D01*
X37569417Y-35399247D01*
X37569422Y-35399260D01*
X37660327Y-35581821D01*
X37783235Y-35744578D01*
X37805672Y-35765032D01*
X37841953Y-35824744D01*
X37840192Y-35894591D01*
X37800948Y-35952399D01*
X37793262Y-35958240D01*
X37788597Y-35961506D01*
X37621508Y-36128594D01*
X37491269Y-36314595D01*
X37436692Y-36358219D01*
X37367193Y-36365412D01*
X37304839Y-36333890D01*
X37288119Y-36314594D01*
X37158113Y-36128926D01*
X37158108Y-36128920D01*
X36991082Y-35961894D01*
X36797578Y-35826399D01*
X36583492Y-35726570D01*
X36583486Y-35726567D01*
X36370000Y-35669364D01*
X36370000Y-36564498D01*
X36262315Y-36515320D01*
X36155763Y-36500000D01*
X36084237Y-36500000D01*
X35977685Y-36515320D01*
X35870000Y-36564498D01*
X35870000Y-35649645D01*
X35861539Y-35638058D01*
X35857386Y-35568312D01*
X35890545Y-35508435D01*
X37909040Y-33489941D01*
X37970363Y-33456456D01*
X37996721Y-33453622D01*
X38907154Y-33453622D01*
X38925124Y-33454931D01*
X38948882Y-33458411D01*
X39000927Y-33453857D01*
X39006329Y-33453622D01*
X39014563Y-33453622D01*
X39014568Y-33453622D01*
X39026186Y-33452263D01*
X39047135Y-33449815D01*
X39059887Y-33448699D01*
X39123656Y-33443121D01*
X39123664Y-33443118D01*
X39130725Y-33441661D01*
X39130737Y-33441720D01*
X39138102Y-33440087D01*
X39138088Y-33440028D01*
X39145105Y-33438363D01*
X39145114Y-33438363D01*
X39217282Y-33412096D01*
X39290193Y-33387936D01*
X39290202Y-33387929D01*
X39296741Y-33384882D01*
X39296767Y-33384938D01*
X39303549Y-33381654D01*
X39303522Y-33381600D01*
X39309965Y-33378362D01*
X39309976Y-33378359D01*
X39374142Y-33336156D01*
X39439515Y-33295834D01*
X39439521Y-33295827D01*
X39445184Y-33291351D01*
X39445221Y-33291399D01*
X39451063Y-33286640D01*
X39451023Y-33286593D01*
X39456550Y-33281954D01*
X39456555Y-33281952D01*
X39465374Y-33272605D01*
X39509245Y-33226103D01*
X41098529Y-31636819D01*
X41159852Y-31603334D01*
X41186210Y-31600500D01*
X41196541Y-31600500D01*
X41263580Y-31620185D01*
X41280072Y-31632856D01*
X41333959Y-31681981D01*
X41507363Y-31789348D01*
X41697544Y-31863024D01*
X41898024Y-31900500D01*
X41898026Y-31900500D01*
X42101974Y-31900500D01*
X42101976Y-31900500D01*
X42302456Y-31863024D01*
X42492637Y-31789348D01*
X42666041Y-31681981D01*
X42816764Y-31544579D01*
X42939673Y-31381821D01*
X43030582Y-31199250D01*
X43086397Y-31003083D01*
X43105215Y-30800000D01*
X43104470Y-30791965D01*
X43086397Y-30596917D01*
X43085688Y-30594425D01*
X43030582Y-30400750D01*
X42939673Y-30218179D01*
X42826720Y-30068605D01*
X42802029Y-30003246D01*
X42816594Y-29934911D01*
X42854552Y-29892305D01*
X42858324Y-29889664D01*
X42931401Y-29838495D01*
X43053329Y-29716566D01*
X43114648Y-29683084D01*
X43184340Y-29688068D01*
X43240274Y-29729939D01*
X43257189Y-29760917D01*
X43306202Y-29892328D01*
X43306206Y-29892335D01*
X43392452Y-30007544D01*
X43392455Y-30007547D01*
X43507664Y-30093793D01*
X43507671Y-30093797D01*
X43642517Y-30144091D01*
X43642516Y-30144091D01*
X43649444Y-30144835D01*
X43702127Y-30150500D01*
X45497872Y-30150499D01*
X45557483Y-30144091D01*
X45692331Y-30093796D01*
X45807546Y-30007546D01*
X45893796Y-29892331D01*
X45944091Y-29757483D01*
X45950500Y-29697873D01*
X45950499Y-27902128D01*
X45944947Y-27850484D01*
X45944091Y-27842516D01*
X45893797Y-27707671D01*
X45893793Y-27707664D01*
X45807547Y-27592455D01*
X45807544Y-27592452D01*
X45692335Y-27506206D01*
X45692328Y-27506202D01*
X45557482Y-27455908D01*
X45557483Y-27455908D01*
X45497883Y-27449501D01*
X45497881Y-27449500D01*
X45497873Y-27449500D01*
X45497864Y-27449500D01*
X43702129Y-27449500D01*
X43702123Y-27449501D01*
X43642516Y-27455908D01*
X43507671Y-27506202D01*
X43507664Y-27506206D01*
X43392455Y-27592452D01*
X43392452Y-27592455D01*
X43306206Y-27707664D01*
X43306203Y-27707669D01*
X43257189Y-27839083D01*
X43215317Y-27895016D01*
X43149853Y-27919433D01*
X43081580Y-27904581D01*
X43053326Y-27883430D01*
X42931402Y-27761506D01*
X42931395Y-27761501D01*
X42737834Y-27625967D01*
X42737830Y-27625965D01*
X42716203Y-27615880D01*
X42523663Y-27526097D01*
X42523659Y-27526096D01*
X42523655Y-27526094D01*
X42295413Y-27464938D01*
X42295403Y-27464936D01*
X42060001Y-27444341D01*
X42059999Y-27444341D01*
X41824596Y-27464936D01*
X41824586Y-27464938D01*
X41596344Y-27526094D01*
X41596335Y-27526098D01*
X41382171Y-27625964D01*
X41382169Y-27625965D01*
X41188597Y-27761505D01*
X41021505Y-27928597D01*
X40891575Y-28114158D01*
X40836998Y-28157783D01*
X40767500Y-28164977D01*
X40705145Y-28133454D01*
X40688425Y-28114158D01*
X40558494Y-27928597D01*
X40391402Y-27761506D01*
X40391395Y-27761501D01*
X40197834Y-27625967D01*
X40197830Y-27625965D01*
X40176203Y-27615880D01*
X39983663Y-27526097D01*
X39983659Y-27526096D01*
X39983655Y-27526094D01*
X39755413Y-27464938D01*
X39755403Y-27464936D01*
X39520001Y-27444341D01*
X39519999Y-27444341D01*
X39284596Y-27464936D01*
X39284586Y-27464938D01*
X39056344Y-27526094D01*
X39056335Y-27526098D01*
X38842171Y-27625964D01*
X38842169Y-27625965D01*
X38648597Y-27761505D01*
X38481505Y-27928597D01*
X38351575Y-28114158D01*
X38296998Y-28157783D01*
X38227500Y-28164977D01*
X38165145Y-28133454D01*
X38148425Y-28114158D01*
X38018494Y-27928597D01*
X37851402Y-27761506D01*
X37851395Y-27761501D01*
X37657834Y-27625967D01*
X37657830Y-27625965D01*
X37636203Y-27615880D01*
X37443663Y-27526097D01*
X37443659Y-27526096D01*
X37443655Y-27526094D01*
X37215413Y-27464938D01*
X37215403Y-27464936D01*
X36980001Y-27444341D01*
X36979999Y-27444341D01*
X36744596Y-27464936D01*
X36744586Y-27464938D01*
X36516344Y-27526094D01*
X36516335Y-27526098D01*
X36302171Y-27625964D01*
X36302169Y-27625965D01*
X36108597Y-27761505D01*
X35941505Y-27928597D01*
X35811575Y-28114158D01*
X35756998Y-28157783D01*
X35687500Y-28164977D01*
X35625145Y-28133454D01*
X35608425Y-28114158D01*
X35478494Y-27928597D01*
X35311402Y-27761506D01*
X35311395Y-27761501D01*
X35117834Y-27625967D01*
X35117830Y-27625965D01*
X35096203Y-27615880D01*
X34903663Y-27526097D01*
X34903659Y-27526096D01*
X34903655Y-27526094D01*
X34675413Y-27464938D01*
X34675403Y-27464936D01*
X34440001Y-27444341D01*
X34439999Y-27444341D01*
X34204596Y-27464936D01*
X34204586Y-27464938D01*
X33976344Y-27526094D01*
X33976335Y-27526098D01*
X33762171Y-27625964D01*
X33762169Y-27625965D01*
X33568597Y-27761505D01*
X33401508Y-27928594D01*
X33271269Y-28114595D01*
X33216692Y-28158219D01*
X33147193Y-28165412D01*
X33084839Y-28133890D01*
X33068119Y-28114594D01*
X32938113Y-27928926D01*
X32938108Y-27928920D01*
X32771082Y-27761894D01*
X32577578Y-27626399D01*
X32363492Y-27526570D01*
X32363486Y-27526567D01*
X32150000Y-27469364D01*
X32150000Y-28364498D01*
X32042315Y-28315320D01*
X31935763Y-28300000D01*
X31864237Y-28300000D01*
X31757685Y-28315320D01*
X31650000Y-28364498D01*
X31650000Y-27469364D01*
X31649999Y-27469364D01*
X31436513Y-27526567D01*
X31436507Y-27526570D01*
X31222422Y-27626399D01*
X31222420Y-27626400D01*
X31028926Y-27761886D01*
X31028920Y-27761891D01*
X30861891Y-27928920D01*
X30861886Y-27928926D01*
X30726400Y-28122420D01*
X30726399Y-28122422D01*
X30626570Y-28336507D01*
X30626567Y-28336513D01*
X30569364Y-28549999D01*
X30569364Y-28550000D01*
X31466314Y-28550000D01*
X31440507Y-28590156D01*
X31400000Y-28728111D01*
X31400000Y-28871889D01*
X31440507Y-29009844D01*
X31466314Y-29050000D01*
X30569364Y-29050000D01*
X30626567Y-29263486D01*
X30626570Y-29263492D01*
X30726399Y-29477578D01*
X30861894Y-29671082D01*
X31028917Y-29838105D01*
X31222421Y-29973600D01*
X31436507Y-30073429D01*
X31436516Y-30073433D01*
X31650000Y-30130634D01*
X31650000Y-29235501D01*
X31757685Y-29284680D01*
X31864237Y-29300000D01*
X31935763Y-29300000D01*
X32042315Y-29284680D01*
X32150000Y-29235501D01*
X32150000Y-30130633D01*
X32363483Y-30073433D01*
X32363492Y-30073429D01*
X32577578Y-29973600D01*
X32771082Y-29838105D01*
X32937819Y-29671369D01*
X32999142Y-29637884D01*
X33068834Y-29642868D01*
X33124767Y-29684740D01*
X33149184Y-29750204D01*
X33149500Y-29759050D01*
X33149500Y-30040261D01*
X33129815Y-30107300D01*
X33109040Y-30131897D01*
X33083235Y-30155421D01*
X32960327Y-30318178D01*
X32869422Y-30500739D01*
X32869417Y-30500752D01*
X32813602Y-30696917D01*
X32794785Y-30899999D01*
X32794785Y-30900000D01*
X32813602Y-31103082D01*
X32869417Y-31299247D01*
X32869422Y-31299260D01*
X32952631Y-31466365D01*
X32964892Y-31535151D01*
X32938019Y-31599646D01*
X32929312Y-31609318D01*
X31806701Y-32731931D01*
X31745378Y-32765416D01*
X31719020Y-32768250D01*
X27863705Y-32768250D01*
X27845735Y-32766941D01*
X27821972Y-32763460D01*
X27776533Y-32767436D01*
X27769931Y-32768014D01*
X27764530Y-32768250D01*
X27469552Y-32768250D01*
X27402513Y-32748565D01*
X27381871Y-32731931D01*
X27381371Y-32731431D01*
X27347886Y-32670108D01*
X27352870Y-32600416D01*
X27381371Y-32556069D01*
X27400000Y-32537440D01*
X27420340Y-32517100D01*
X27510908Y-32370266D01*
X27565174Y-32206503D01*
X27575500Y-32105427D01*
X27575499Y-31432074D01*
X27565174Y-31330997D01*
X27510908Y-31167234D01*
X27510904Y-31167228D01*
X27510903Y-31167225D01*
X27436344Y-31046347D01*
X27417903Y-30978955D01*
X27436344Y-30916153D01*
X27446308Y-30900000D01*
X27510908Y-30795266D01*
X27565174Y-30631503D01*
X27575500Y-30530427D01*
X27575499Y-30439535D01*
X27595183Y-30372499D01*
X27647986Y-30326743D01*
X27717145Y-30316799D01*
X27722252Y-30317642D01*
X27898024Y-30350500D01*
X27898026Y-30350500D01*
X28101974Y-30350500D01*
X28101976Y-30350500D01*
X28302456Y-30313024D01*
X28492637Y-30239348D01*
X28666041Y-30131981D01*
X28816764Y-29994579D01*
X28939673Y-29831821D01*
X29030582Y-29649250D01*
X29086397Y-29453083D01*
X29105215Y-29250000D01*
X29086397Y-29046917D01*
X29030582Y-28850750D01*
X28939673Y-28668179D01*
X28861448Y-28564592D01*
X28816762Y-28505418D01*
X28666041Y-28368019D01*
X28666039Y-28368017D01*
X28492642Y-28260655D01*
X28492635Y-28260651D01*
X28336057Y-28199993D01*
X28302456Y-28186976D01*
X28101976Y-28149500D01*
X28101974Y-28149500D01*
X28012230Y-28149500D01*
X27945191Y-28129815D01*
X27924549Y-28113181D01*
X27731979Y-27920611D01*
X27720199Y-27906980D01*
X27711292Y-27895016D01*
X27705862Y-27887722D01*
X27694909Y-27878531D01*
X27665837Y-27854136D01*
X27661862Y-27850494D01*
X27658940Y-27847572D01*
X27656030Y-27844661D01*
X27630290Y-27824309D01*
X27571459Y-27774944D01*
X27565430Y-27770979D01*
X27565462Y-27770930D01*
X27559103Y-27766878D01*
X27559072Y-27766929D01*
X27552930Y-27763141D01*
X27552928Y-27763140D01*
X27552927Y-27763139D01*
X27483307Y-27730674D01*
X27445552Y-27711713D01*
X27413524Y-27688584D01*
X27298351Y-27573411D01*
X27298350Y-27573410D01*
X27151516Y-27482842D01*
X26987753Y-27428576D01*
X26987751Y-27428575D01*
X26886678Y-27418250D01*
X26313330Y-27418250D01*
X26313312Y-27418251D01*
X26212247Y-27428575D01*
X26048484Y-27482842D01*
X26048481Y-27482843D01*
X25901648Y-27573411D01*
X25887681Y-27587379D01*
X25826358Y-27620864D01*
X25756666Y-27615880D01*
X25712319Y-27587379D01*
X25698351Y-27573411D01*
X25698350Y-27573410D01*
X25551516Y-27482842D01*
X25387753Y-27428576D01*
X25387751Y-27428575D01*
X25286678Y-27418250D01*
X24713330Y-27418250D01*
X24713312Y-27418251D01*
X24612247Y-27428575D01*
X24448484Y-27482842D01*
X24448481Y-27482843D01*
X24301648Y-27573411D01*
X24287681Y-27587379D01*
X24226358Y-27620864D01*
X24156666Y-27615880D01*
X24112319Y-27587379D01*
X24098351Y-27573411D01*
X24098350Y-27573410D01*
X23951516Y-27482842D01*
X23787753Y-27428576D01*
X23787751Y-27428575D01*
X23686678Y-27418250D01*
X23113330Y-27418250D01*
X23113312Y-27418251D01*
X23012247Y-27428575D01*
X22848484Y-27482842D01*
X22848481Y-27482843D01*
X22717754Y-27563477D01*
X22650361Y-27581917D01*
X22583698Y-27560994D01*
X22538928Y-27507352D01*
X22530267Y-27438021D01*
X22560195Y-27375314D01*
X22572758Y-27361256D01*
X22575075Y-27358804D01*
X22688787Y-27245092D01*
X22691239Y-27242773D01*
X22808998Y-27137537D01*
X22811209Y-27135655D01*
X22936143Y-27034486D01*
X22939220Y-27032154D01*
X23069127Y-26939980D01*
X23079046Y-26933537D01*
X23204808Y-26851867D01*
X23208494Y-26849655D01*
X23348078Y-26772511D01*
X23360063Y-26766403D01*
X23491606Y-26699379D01*
X23495972Y-26697366D01*
X23643815Y-26636127D01*
X23793254Y-26578764D01*
X23798268Y-26577083D01*
X23953279Y-26532425D01*
X24106196Y-26491451D01*
X24111796Y-26490227D01*
X24274284Y-26462618D01*
X24426791Y-26438464D01*
X24432968Y-26437803D01*
X24616566Y-26427493D01*
X24748380Y-26420584D01*
X24751622Y-26420500D01*
X75248378Y-26420500D01*
X75251619Y-26420584D01*
G37*
%TD.AperFunction*%
%TA.AperFunction,Conductor*%
G36*
X67436181Y-31270185D02*
G01*
X67456822Y-31286818D01*
X70763182Y-34593179D01*
X70796666Y-34654500D01*
X70799500Y-34680858D01*
X70799500Y-56396294D01*
X70798191Y-56414263D01*
X70794710Y-56438025D01*
X70799264Y-56490064D01*
X70799500Y-56495470D01*
X70799500Y-56503709D01*
X70803306Y-56536274D01*
X70810000Y-56612791D01*
X70811461Y-56619867D01*
X70811403Y-56619878D01*
X70813034Y-56627237D01*
X70813092Y-56627224D01*
X70814757Y-56634250D01*
X70841025Y-56706424D01*
X70865185Y-56779331D01*
X70868236Y-56785874D01*
X70868182Y-56785898D01*
X70871470Y-56792688D01*
X70871521Y-56792663D01*
X70874761Y-56799113D01*
X70874762Y-56799114D01*
X70874763Y-56799117D01*
X70884325Y-56813655D01*
X70916965Y-56863283D01*
X70957287Y-56928655D01*
X70961766Y-56934319D01*
X70961719Y-56934356D01*
X70966482Y-56940202D01*
X70966528Y-56940164D01*
X70971173Y-56945700D01*
X71027017Y-56998385D01*
X72607130Y-58578498D01*
X72640615Y-58639821D01*
X72642977Y-58676986D01*
X72624341Y-58889997D01*
X72624341Y-58890000D01*
X72644936Y-59125403D01*
X72644938Y-59125413D01*
X72706094Y-59353655D01*
X72706096Y-59353659D01*
X72706097Y-59353663D01*
X72795252Y-59544855D01*
X72805965Y-59567830D01*
X72805967Y-59567834D01*
X72892560Y-59691501D01*
X72926978Y-59740655D01*
X72941501Y-59761395D01*
X72941506Y-59761402D01*
X73108597Y-59928493D01*
X73108603Y-59928498D01*
X73294158Y-60058425D01*
X73337783Y-60113002D01*
X73344977Y-60182500D01*
X73313454Y-60244855D01*
X73294158Y-60261575D01*
X73108597Y-60391505D01*
X72941505Y-60558597D01*
X72897190Y-60621887D01*
X72842613Y-60665512D01*
X72799115Y-60673419D01*
X72799173Y-60674081D01*
X72792051Y-60674704D01*
X72792008Y-60674712D01*
X72791972Y-60674710D01*
X72746533Y-60678686D01*
X72739931Y-60679264D01*
X72734530Y-60679500D01*
X72726289Y-60679500D01*
X72704579Y-60682037D01*
X72693724Y-60683306D01*
X72678419Y-60684645D01*
X72617199Y-60690001D01*
X72610132Y-60691460D01*
X72610120Y-60691404D01*
X72602763Y-60693035D01*
X72602777Y-60693092D01*
X72595743Y-60694759D01*
X72523575Y-60721025D01*
X72450675Y-60745181D01*
X72444126Y-60748236D01*
X72444101Y-60748183D01*
X72437308Y-60751471D01*
X72437334Y-60751523D01*
X72430880Y-60754764D01*
X72366708Y-60796971D01*
X72301347Y-60837285D01*
X72295683Y-60841765D01*
X72295647Y-60841719D01*
X72289798Y-60846484D01*
X72289835Y-60846528D01*
X72284310Y-60851164D01*
X72231597Y-60907035D01*
X69243393Y-63895238D01*
X69182070Y-63928723D01*
X69112378Y-63923739D01*
X69056445Y-63881867D01*
X69032028Y-63816403D01*
X69043330Y-63755152D01*
X69053430Y-63733492D01*
X69053433Y-63733483D01*
X69114567Y-63505326D01*
X69114569Y-63505315D01*
X69135157Y-63270001D01*
X69135157Y-63269998D01*
X69114569Y-63034684D01*
X69114567Y-63034673D01*
X69053433Y-62806516D01*
X69053429Y-62806507D01*
X68953600Y-62592423D01*
X68953599Y-62592421D01*
X68894925Y-62508626D01*
X68894925Y-62508625D01*
X68263076Y-63140475D01*
X68239493Y-63060156D01*
X68161761Y-62939202D01*
X68053100Y-62845048D01*
X67922315Y-62785320D01*
X67912533Y-62783913D01*
X68541373Y-62155073D01*
X68541373Y-62155072D01*
X68465405Y-62101880D01*
X68421780Y-62047304D01*
X68414586Y-61977805D01*
X68446108Y-61915451D01*
X68465399Y-61898734D01*
X68651401Y-61768495D01*
X68818495Y-61601401D01*
X68954035Y-61407830D01*
X69053903Y-61193663D01*
X69115063Y-60965408D01*
X69135659Y-60730000D01*
X69132463Y-60693476D01*
X69115063Y-60494596D01*
X69115063Y-60494592D01*
X69053903Y-60266337D01*
X68954035Y-60052171D01*
X68907297Y-59985421D01*
X68818494Y-59858597D01*
X68651402Y-59691506D01*
X68651396Y-59691501D01*
X68465842Y-59561575D01*
X68422217Y-59506998D01*
X68415023Y-59437500D01*
X68446546Y-59375145D01*
X68465842Y-59358425D01*
X68509313Y-59327986D01*
X68651401Y-59228495D01*
X68818495Y-59061401D01*
X68954035Y-58867830D01*
X69053903Y-58653663D01*
X69115063Y-58425408D01*
X69135659Y-58190000D01*
X69115063Y-57954592D01*
X69053903Y-57726337D01*
X68954035Y-57512171D01*
X68949772Y-57506082D01*
X68818494Y-57318597D01*
X68651402Y-57151506D01*
X68651396Y-57151501D01*
X68465842Y-57021575D01*
X68422217Y-56966998D01*
X68415023Y-56897500D01*
X68446546Y-56835145D01*
X68465842Y-56818425D01*
X68512295Y-56785898D01*
X68651401Y-56688495D01*
X68818495Y-56521401D01*
X68954035Y-56327830D01*
X69053903Y-56113663D01*
X69115063Y-55885408D01*
X69135659Y-55650000D01*
X69115063Y-55414592D01*
X69053903Y-55186337D01*
X68954035Y-54972171D01*
X68920954Y-54924925D01*
X68818494Y-54778597D01*
X68651402Y-54611506D01*
X68651396Y-54611501D01*
X68465842Y-54481575D01*
X68422217Y-54426998D01*
X68415023Y-54357500D01*
X68446546Y-54295145D01*
X68465842Y-54278425D01*
X68576773Y-54200750D01*
X68651401Y-54148495D01*
X68818495Y-53981401D01*
X68954035Y-53787830D01*
X69053903Y-53573663D01*
X69115063Y-53345408D01*
X69135659Y-53110000D01*
X69115063Y-52874592D01*
X69053903Y-52646337D01*
X68954035Y-52432171D01*
X68920954Y-52384925D01*
X68818494Y-52238597D01*
X68651402Y-52071506D01*
X68651401Y-52071505D01*
X68474422Y-51947583D01*
X68465405Y-51941269D01*
X68421781Y-51886692D01*
X68414588Y-51817193D01*
X68446110Y-51754839D01*
X68465405Y-51738119D01*
X68541373Y-51684925D01*
X67912533Y-51056086D01*
X67922315Y-51054680D01*
X68053100Y-50994952D01*
X68161761Y-50900798D01*
X68239493Y-50779844D01*
X68263076Y-50699524D01*
X68894925Y-51331373D01*
X68894926Y-51331373D01*
X68953598Y-51247582D01*
X68953600Y-51247578D01*
X69053429Y-51033492D01*
X69053433Y-51033483D01*
X69114567Y-50805326D01*
X69114569Y-50805315D01*
X69135157Y-50570001D01*
X69135157Y-50569998D01*
X69114569Y-50334684D01*
X69114567Y-50334673D01*
X69053433Y-50106516D01*
X69053429Y-50106507D01*
X68953600Y-49892423D01*
X68953599Y-49892421D01*
X68894925Y-49808626D01*
X68894925Y-49808625D01*
X68263076Y-50440475D01*
X68239493Y-50360156D01*
X68161761Y-50239202D01*
X68053100Y-50145048D01*
X67922315Y-50085320D01*
X67912533Y-50083913D01*
X68541373Y-49455073D01*
X68541373Y-49455072D01*
X68465405Y-49401880D01*
X68421780Y-49347304D01*
X68414586Y-49277805D01*
X68446108Y-49215451D01*
X68465399Y-49198734D01*
X68651401Y-49068495D01*
X68818495Y-48901401D01*
X68954035Y-48707830D01*
X69053903Y-48493663D01*
X69115063Y-48265408D01*
X69135659Y-48030000D01*
X69134413Y-48015764D01*
X69120663Y-47858597D01*
X69115063Y-47794592D01*
X69053903Y-47566337D01*
X68954035Y-47352171D01*
X68903072Y-47279387D01*
X68818494Y-47158597D01*
X68651402Y-46991506D01*
X68651395Y-46991501D01*
X68457831Y-46855965D01*
X68457829Y-46855964D01*
X68321390Y-46792341D01*
X68286114Y-46767640D01*
X67686356Y-46167882D01*
X67681719Y-46162693D01*
X67657507Y-46132332D01*
X67606031Y-46087359D01*
X67602997Y-46084523D01*
X67594529Y-46076055D01*
X67562181Y-46049049D01*
X67487996Y-45984235D01*
X67484241Y-45981991D01*
X67468373Y-45970732D01*
X67465019Y-45967932D01*
X67465018Y-45967931D01*
X67465013Y-45967927D01*
X67397614Y-45929685D01*
X67379340Y-45919316D01*
X67294764Y-45868785D01*
X67294761Y-45868783D01*
X67290669Y-45867248D01*
X67273044Y-45859002D01*
X67269245Y-45856846D01*
X67176253Y-45824307D01*
X67084029Y-45789694D01*
X67084019Y-45789691D01*
X67079723Y-45788912D01*
X67060918Y-45783949D01*
X67056784Y-45782502D01*
X67056779Y-45782501D01*
X66988837Y-45771740D01*
X66959472Y-45767089D01*
X66948221Y-45765047D01*
X66889339Y-45754361D01*
X66826892Y-45723022D01*
X66791301Y-45662897D01*
X66793867Y-45593074D01*
X66823798Y-45544675D01*
X67737819Y-44630655D01*
X67799142Y-44597170D01*
X67868834Y-44602154D01*
X67924767Y-44644026D01*
X67949184Y-44709490D01*
X67949500Y-44718336D01*
X67949500Y-45056151D01*
X67964622Y-45224186D01*
X67964623Y-45224192D01*
X68024503Y-45441160D01*
X68024508Y-45441173D01*
X68122167Y-45643966D01*
X68122171Y-45643974D01*
X68254473Y-45826072D01*
X68254474Y-45826074D01*
X68254477Y-45826077D01*
X68254478Y-45826078D01*
X68351999Y-45919317D01*
X68417176Y-45981633D01*
X68605033Y-46105636D01*
X68812004Y-46194100D01*
X68812007Y-46194101D01*
X68812012Y-46194103D01*
X69031463Y-46244191D01*
X69256330Y-46254290D01*
X69479387Y-46224075D01*
X69693464Y-46154517D01*
X69891681Y-46047852D01*
X70067666Y-45907508D01*
X70215765Y-45737996D01*
X70331215Y-45544764D01*
X70410307Y-45334024D01*
X70447394Y-45129663D01*
X70450500Y-45112549D01*
X70450500Y-43873696D01*
X70450889Y-43866758D01*
X70455237Y-43828172D01*
X70450639Y-43759976D01*
X70450500Y-43755821D01*
X70450500Y-43743850D01*
X70450500Y-43743845D01*
X70446721Y-43701859D01*
X70443225Y-43649999D01*
X70440097Y-43603592D01*
X70439028Y-43599350D01*
X70435768Y-43580158D01*
X70435726Y-43579699D01*
X70435377Y-43575812D01*
X70409167Y-43480844D01*
X70385096Y-43385316D01*
X70383290Y-43381340D01*
X70376654Y-43363039D01*
X70375493Y-43358830D01*
X70348457Y-43302690D01*
X70332749Y-43270071D01*
X70300909Y-43199973D01*
X70292007Y-43180374D01*
X70289517Y-43176780D01*
X70279725Y-43159964D01*
X70277829Y-43156027D01*
X70277828Y-43156025D01*
X70274178Y-43151001D01*
X70250701Y-43085194D01*
X70250499Y-43078119D01*
X70250499Y-41999998D01*
X70250498Y-41999981D01*
X70239999Y-41897203D01*
X70239998Y-41897200D01*
X70237806Y-41890586D01*
X70184814Y-41730666D01*
X70092712Y-41581344D01*
X69968656Y-41457288D01*
X69819334Y-41365186D01*
X69652797Y-41310001D01*
X69652795Y-41310000D01*
X69550016Y-41299500D01*
X69550009Y-41299500D01*
X68519336Y-41299500D01*
X68452297Y-41279815D01*
X68431655Y-41263181D01*
X67536819Y-40368345D01*
X67503334Y-40307022D01*
X67500500Y-40280664D01*
X67500500Y-37160132D01*
X67518960Y-37095036D01*
X67534814Y-37069334D01*
X67589999Y-36902797D01*
X67600500Y-36800009D01*
X67600499Y-35199992D01*
X67598848Y-35183834D01*
X67589999Y-35097203D01*
X67589998Y-35097200D01*
X67567698Y-35029904D01*
X67534814Y-34930666D01*
X67442712Y-34781344D01*
X67318656Y-34657288D01*
X67169334Y-34565186D01*
X67002797Y-34510001D01*
X67002795Y-34510000D01*
X66900010Y-34499500D01*
X65599998Y-34499500D01*
X65599981Y-34499501D01*
X65497203Y-34510000D01*
X65497200Y-34510001D01*
X65330668Y-34565185D01*
X65330663Y-34565187D01*
X65181342Y-34657289D01*
X65057288Y-34781343D01*
X65057285Y-34781347D01*
X64961550Y-34936558D01*
X64909602Y-34983283D01*
X64840640Y-34994504D01*
X64776558Y-34966661D01*
X64768331Y-34959143D01*
X64621078Y-34811891D01*
X64427578Y-34676399D01*
X64213492Y-34576570D01*
X64213486Y-34576567D01*
X64000000Y-34519364D01*
X64000000Y-35564498D01*
X63892315Y-35515320D01*
X63785763Y-35500000D01*
X63714237Y-35500000D01*
X63607685Y-35515320D01*
X63500000Y-35564498D01*
X63500000Y-34519364D01*
X63499999Y-34519364D01*
X63286513Y-34576567D01*
X63286507Y-34576570D01*
X63072422Y-34676399D01*
X63072420Y-34676400D01*
X62878926Y-34811886D01*
X62878920Y-34811891D01*
X62711891Y-34978920D01*
X62711886Y-34978926D01*
X62576400Y-35172420D01*
X62576399Y-35172422D01*
X62476570Y-35386507D01*
X62476566Y-35386516D01*
X62415432Y-35614673D01*
X62415430Y-35614684D01*
X62403592Y-35749999D01*
X62403593Y-35750000D01*
X63316314Y-35750000D01*
X63290507Y-35790156D01*
X63250000Y-35928111D01*
X63250000Y-36071889D01*
X63290507Y-36209844D01*
X63316314Y-36250000D01*
X62403592Y-36250000D01*
X62415430Y-36385315D01*
X62415432Y-36385326D01*
X62476566Y-36613483D01*
X62476570Y-36613492D01*
X62576399Y-36827577D01*
X62576400Y-36827579D01*
X62711886Y-37021073D01*
X62711891Y-37021079D01*
X62878917Y-37188105D01*
X63072421Y-37323600D01*
X63286507Y-37423429D01*
X63286516Y-37423433D01*
X63500000Y-37480634D01*
X63500000Y-36435501D01*
X63607685Y-36484680D01*
X63714237Y-36500000D01*
X63785763Y-36500000D01*
X63892315Y-36484680D01*
X64000000Y-36435501D01*
X64000000Y-37480633D01*
X64213483Y-37423433D01*
X64213492Y-37423429D01*
X64427577Y-37323600D01*
X64427579Y-37323599D01*
X64621073Y-37188113D01*
X64621079Y-37188108D01*
X64768331Y-37040857D01*
X64829654Y-37007372D01*
X64899346Y-37012356D01*
X64955279Y-37054228D01*
X64961550Y-37063440D01*
X64981038Y-37095034D01*
X64999500Y-37160132D01*
X64999500Y-40776293D01*
X64999110Y-40783231D01*
X64996792Y-40803804D01*
X64994762Y-40821823D01*
X64994761Y-40821831D01*
X64999359Y-40890013D01*
X64999500Y-40894186D01*
X64999500Y-40906156D01*
X65003277Y-40948124D01*
X65009903Y-41046407D01*
X65009903Y-41046412D01*
X65010972Y-41050652D01*
X65014230Y-41069824D01*
X65014623Y-41074190D01*
X65040835Y-41169165D01*
X65064903Y-41264681D01*
X65066715Y-41268670D01*
X65073340Y-41286944D01*
X65074504Y-41291162D01*
X65074507Y-41291170D01*
X65117253Y-41379935D01*
X65157993Y-41469626D01*
X65157994Y-41469629D01*
X65160483Y-41473221D01*
X65170269Y-41490026D01*
X65172166Y-41493965D01*
X65172174Y-41493979D01*
X65230078Y-41573676D01*
X65286180Y-41654655D01*
X65289273Y-41657748D01*
X65301907Y-41672539D01*
X65304478Y-41676078D01*
X65304481Y-41676081D01*
X65375679Y-41744153D01*
X65713181Y-42081655D01*
X65746666Y-42142978D01*
X65749500Y-42169336D01*
X65749500Y-43030663D01*
X65729815Y-43097702D01*
X65713181Y-43118344D01*
X63230385Y-45601139D01*
X63225199Y-45605774D01*
X63194837Y-45629988D01*
X63194833Y-45629992D01*
X63149865Y-45681460D01*
X63147021Y-45684503D01*
X63138564Y-45692961D01*
X63138554Y-45692972D01*
X63111549Y-45725318D01*
X63046734Y-45799504D01*
X63046730Y-45799510D01*
X63044481Y-45803274D01*
X63033246Y-45819108D01*
X63030434Y-45822477D01*
X62981816Y-45908159D01*
X62937333Y-45982613D01*
X62886051Y-46030067D01*
X62817254Y-46042262D01*
X62791885Y-46036721D01*
X62787654Y-46035319D01*
X62686654Y-46025000D01*
X62587500Y-46025000D01*
X62587500Y-47974999D01*
X62686640Y-47974999D01*
X62686654Y-47974998D01*
X62787652Y-47964680D01*
X62951300Y-47910453D01*
X62951307Y-47910450D01*
X63021581Y-47867104D01*
X63088973Y-47848663D01*
X63155637Y-47869585D01*
X63168264Y-47879262D01*
X63217558Y-47922329D01*
X63219611Y-47924206D01*
X63279670Y-47981628D01*
X63279672Y-47981629D01*
X63279675Y-47981632D01*
X63296620Y-47992817D01*
X63299747Y-47994882D01*
X63306384Y-47999935D01*
X63324504Y-48015765D01*
X63395849Y-48058391D01*
X63398171Y-48059850D01*
X63424750Y-48077395D01*
X63467529Y-48105634D01*
X63471903Y-48107503D01*
X63489657Y-48115092D01*
X63497088Y-48118878D01*
X63517736Y-48131215D01*
X63593411Y-48159616D01*
X63595509Y-48160404D01*
X63598090Y-48161439D01*
X63674512Y-48194103D01*
X63674519Y-48194104D01*
X63674523Y-48194106D01*
X63697965Y-48199456D01*
X63705957Y-48201855D01*
X63728476Y-48210307D01*
X63810267Y-48225149D01*
X63812889Y-48225686D01*
X63893963Y-48244191D01*
X63893969Y-48244191D01*
X63893972Y-48244192D01*
X63915661Y-48245164D01*
X63917981Y-48245269D01*
X63926283Y-48246204D01*
X63935898Y-48247949D01*
X63949953Y-48250500D01*
X64033052Y-48250500D01*
X64035808Y-48250561D01*
X64118830Y-48254290D01*
X64134473Y-48252170D01*
X64142664Y-48251062D01*
X64150995Y-48250500D01*
X66180664Y-48250500D01*
X66247703Y-48270185D01*
X66268345Y-48286819D01*
X66517640Y-48536114D01*
X66542341Y-48571390D01*
X66605964Y-48707829D01*
X66605965Y-48707831D01*
X66711242Y-48858182D01*
X66741505Y-48901401D01*
X66908599Y-49068495D01*
X67087359Y-49193664D01*
X67094594Y-49198730D01*
X67138218Y-49253307D01*
X67145411Y-49322806D01*
X67113889Y-49385160D01*
X67094593Y-49401880D01*
X67018626Y-49455072D01*
X67018625Y-49455072D01*
X67647466Y-50083913D01*
X67637685Y-50085320D01*
X67506900Y-50145048D01*
X67398239Y-50239202D01*
X67320507Y-50360156D01*
X67296923Y-50440476D01*
X66665072Y-49808625D01*
X66606401Y-49892419D01*
X66506570Y-50106507D01*
X66506566Y-50106516D01*
X66445432Y-50334673D01*
X66445430Y-50334684D01*
X66424843Y-50569998D01*
X66424843Y-50570001D01*
X66445430Y-50805315D01*
X66445432Y-50805326D01*
X66506566Y-51033483D01*
X66506570Y-51033492D01*
X66606400Y-51247579D01*
X66606402Y-51247583D01*
X66665072Y-51331373D01*
X66665073Y-51331373D01*
X67296923Y-50699523D01*
X67320507Y-50779844D01*
X67398239Y-50900798D01*
X67506900Y-50994952D01*
X67637685Y-51054680D01*
X67647466Y-51056086D01*
X67018625Y-51684925D01*
X67094594Y-51738119D01*
X67138219Y-51792696D01*
X67145413Y-51862194D01*
X67113890Y-51924549D01*
X67094595Y-51941269D01*
X66908594Y-52071508D01*
X66741505Y-52238597D01*
X66605965Y-52432169D01*
X66605964Y-52432171D01*
X66506098Y-52646335D01*
X66506094Y-52646344D01*
X66444938Y-52874586D01*
X66444936Y-52874596D01*
X66424341Y-53109999D01*
X66424341Y-53110000D01*
X66444936Y-53345403D01*
X66444938Y-53345413D01*
X66506094Y-53573655D01*
X66506096Y-53573659D01*
X66506097Y-53573663D01*
X66578062Y-53727992D01*
X66605965Y-53787830D01*
X66605967Y-53787834D01*
X66741501Y-53981395D01*
X66741506Y-53981402D01*
X66908597Y-54148493D01*
X66908603Y-54148498D01*
X67094158Y-54278425D01*
X67137783Y-54333002D01*
X67144977Y-54402500D01*
X67113454Y-54464855D01*
X67094158Y-54481575D01*
X66908597Y-54611505D01*
X66741505Y-54778597D01*
X66605965Y-54972169D01*
X66605964Y-54972171D01*
X66506098Y-55186335D01*
X66506094Y-55186344D01*
X66444938Y-55414586D01*
X66444936Y-55414596D01*
X66424341Y-55649999D01*
X66424341Y-55650000D01*
X66444936Y-55885403D01*
X66444938Y-55885413D01*
X66506094Y-56113655D01*
X66506096Y-56113659D01*
X66506097Y-56113663D01*
X66596764Y-56308099D01*
X66605965Y-56327830D01*
X66605967Y-56327834D01*
X66741501Y-56521395D01*
X66741506Y-56521402D01*
X66908597Y-56688493D01*
X66908603Y-56688498D01*
X67094158Y-56818425D01*
X67137783Y-56873002D01*
X67144977Y-56942500D01*
X67113454Y-57004855D01*
X67094158Y-57021575D01*
X66908597Y-57151505D01*
X66741505Y-57318597D01*
X66605965Y-57512169D01*
X66605964Y-57512171D01*
X66506098Y-57726335D01*
X66506094Y-57726344D01*
X66444938Y-57954586D01*
X66444936Y-57954596D01*
X66424341Y-58189999D01*
X66424341Y-58190000D01*
X66444936Y-58425403D01*
X66444938Y-58425413D01*
X66506094Y-58653655D01*
X66506096Y-58653659D01*
X66506097Y-58653663D01*
X66552014Y-58752132D01*
X66605965Y-58867830D01*
X66605967Y-58867834D01*
X66741501Y-59061395D01*
X66741506Y-59061402D01*
X66908597Y-59228493D01*
X66908603Y-59228498D01*
X67094158Y-59358425D01*
X67137783Y-59413002D01*
X67144977Y-59482500D01*
X67113454Y-59544855D01*
X67094158Y-59561575D01*
X66908597Y-59691505D01*
X66741505Y-59858597D01*
X66605965Y-60052169D01*
X66605964Y-60052171D01*
X66506098Y-60266335D01*
X66506094Y-60266344D01*
X66444938Y-60494586D01*
X66444936Y-60494596D01*
X66424341Y-60729999D01*
X66424341Y-60730000D01*
X66444936Y-60965403D01*
X66444938Y-60965413D01*
X66506094Y-61193655D01*
X66506096Y-61193659D01*
X66506097Y-61193663D01*
X66561195Y-61311821D01*
X66605965Y-61407830D01*
X66605967Y-61407834D01*
X66714281Y-61562521D01*
X66741505Y-61601401D01*
X66908599Y-61768495D01*
X67087359Y-61893664D01*
X67094594Y-61898730D01*
X67138218Y-61953307D01*
X67145411Y-62022806D01*
X67113889Y-62085160D01*
X67094593Y-62101880D01*
X67018626Y-62155072D01*
X67018625Y-62155072D01*
X67647466Y-62783913D01*
X67637685Y-62785320D01*
X67506900Y-62845048D01*
X67398239Y-62939202D01*
X67320507Y-63060156D01*
X67296923Y-63140476D01*
X66665072Y-62508625D01*
X66606401Y-62592419D01*
X66506570Y-62806507D01*
X66506566Y-62806516D01*
X66445432Y-63034673D01*
X66445430Y-63034684D01*
X66424843Y-63269998D01*
X66424843Y-63270001D01*
X66445430Y-63505315D01*
X66445432Y-63505326D01*
X66506566Y-63733483D01*
X66506570Y-63733492D01*
X66606400Y-63947579D01*
X66606402Y-63947583D01*
X66665072Y-64031373D01*
X66665073Y-64031373D01*
X67296923Y-63399523D01*
X67320507Y-63479844D01*
X67398239Y-63600798D01*
X67506900Y-63694952D01*
X67637685Y-63754680D01*
X67647466Y-63756086D01*
X67018625Y-64384925D01*
X67095031Y-64438425D01*
X67138655Y-64493002D01*
X67145848Y-64562501D01*
X67114326Y-64624855D01*
X67095029Y-64641576D01*
X67018625Y-64695072D01*
X67647466Y-65323913D01*
X67637685Y-65325320D01*
X67506900Y-65385048D01*
X67398239Y-65479202D01*
X67320507Y-65600156D01*
X67296923Y-65680476D01*
X66665072Y-65048625D01*
X66606401Y-65132419D01*
X66506570Y-65346507D01*
X66506566Y-65346516D01*
X66445432Y-65574673D01*
X66445430Y-65574684D01*
X66424843Y-65809998D01*
X66424843Y-65810001D01*
X66445430Y-66045315D01*
X66445432Y-66045326D01*
X66506566Y-66273483D01*
X66506570Y-66273492D01*
X66606400Y-66487579D01*
X66606402Y-66487583D01*
X66665072Y-66571373D01*
X66665073Y-66571373D01*
X67296923Y-65939523D01*
X67320507Y-66019844D01*
X67398239Y-66140798D01*
X67506900Y-66234952D01*
X67637685Y-66294680D01*
X67647464Y-66296086D01*
X67018625Y-66924925D01*
X67095031Y-66978425D01*
X67138655Y-67033002D01*
X67145848Y-67102501D01*
X67114326Y-67164855D01*
X67095029Y-67181576D01*
X67018625Y-67235072D01*
X67647466Y-67863913D01*
X67637685Y-67865320D01*
X67506900Y-67925048D01*
X67398239Y-68019202D01*
X67320507Y-68140156D01*
X67296923Y-68220476D01*
X66665072Y-67588625D01*
X66606401Y-67672419D01*
X66506570Y-67886507D01*
X66506566Y-67886516D01*
X66445432Y-68114673D01*
X66445430Y-68114684D01*
X66424843Y-68349998D01*
X66424843Y-68350001D01*
X66445430Y-68585315D01*
X66445432Y-68585326D01*
X66506566Y-68813483D01*
X66506570Y-68813492D01*
X66606400Y-69027579D01*
X66606402Y-69027583D01*
X66665072Y-69111373D01*
X66665073Y-69111373D01*
X67296923Y-68479523D01*
X67320507Y-68559844D01*
X67398239Y-68680798D01*
X67506900Y-68774952D01*
X67637685Y-68834680D01*
X67647464Y-68836086D01*
X67018625Y-69464925D01*
X67095031Y-69518425D01*
X67138655Y-69573002D01*
X67145848Y-69642501D01*
X67114326Y-69704855D01*
X67095029Y-69721576D01*
X67018625Y-69775072D01*
X67647466Y-70403913D01*
X67637685Y-70405320D01*
X67506900Y-70465048D01*
X67398239Y-70559202D01*
X67320507Y-70680156D01*
X67296923Y-70760476D01*
X66665072Y-70128625D01*
X66606401Y-70212419D01*
X66506570Y-70426507D01*
X66506566Y-70426516D01*
X66445432Y-70654673D01*
X66445430Y-70654684D01*
X66424843Y-70889998D01*
X66424843Y-70890001D01*
X66445430Y-71125315D01*
X66445432Y-71125326D01*
X66506566Y-71353483D01*
X66506570Y-71353492D01*
X66606400Y-71567579D01*
X66606402Y-71567583D01*
X66665072Y-71651373D01*
X66665073Y-71651373D01*
X67296923Y-71019523D01*
X67320507Y-71099844D01*
X67398239Y-71220798D01*
X67506900Y-71314952D01*
X67637685Y-71374680D01*
X67647464Y-71376086D01*
X67018625Y-72004925D01*
X67095031Y-72058425D01*
X67138655Y-72113002D01*
X67145848Y-72182501D01*
X67114326Y-72244855D01*
X67095029Y-72261576D01*
X67018625Y-72315072D01*
X67647466Y-72943913D01*
X67637685Y-72945320D01*
X67506900Y-73005048D01*
X67398239Y-73099202D01*
X67320507Y-73220156D01*
X67296923Y-73300476D01*
X66665072Y-72668625D01*
X66606401Y-72752419D01*
X66506570Y-72966507D01*
X66506566Y-72966516D01*
X66445432Y-73194673D01*
X66445430Y-73194684D01*
X66424843Y-73429998D01*
X66424843Y-73430001D01*
X66445430Y-73665315D01*
X66445432Y-73665326D01*
X66506566Y-73893483D01*
X66506570Y-73893492D01*
X66606400Y-74107579D01*
X66606402Y-74107583D01*
X66665072Y-74191373D01*
X66665073Y-74191373D01*
X67296923Y-73559523D01*
X67320507Y-73639844D01*
X67398239Y-73760798D01*
X67506900Y-73854952D01*
X67637685Y-73914680D01*
X67647464Y-73916086D01*
X67018625Y-74544925D01*
X67095031Y-74598425D01*
X67138655Y-74653002D01*
X67145848Y-74722501D01*
X67114326Y-74784855D01*
X67095029Y-74801576D01*
X67018625Y-74855072D01*
X67647466Y-75483913D01*
X67637685Y-75485320D01*
X67506900Y-75545048D01*
X67398239Y-75639202D01*
X67320507Y-75760156D01*
X67296923Y-75840476D01*
X66665072Y-75208625D01*
X66606401Y-75292419D01*
X66506570Y-75506507D01*
X66506566Y-75506516D01*
X66445432Y-75734673D01*
X66445430Y-75734684D01*
X66424843Y-75969998D01*
X66424843Y-75970001D01*
X66445430Y-76205315D01*
X66445432Y-76205326D01*
X66506566Y-76433483D01*
X66506570Y-76433492D01*
X66606400Y-76647579D01*
X66611159Y-76654375D01*
X66633487Y-76720581D01*
X66616478Y-76788348D01*
X66565531Y-76836162D01*
X66509585Y-76849500D01*
X43087709Y-76849500D01*
X43020670Y-76829815D01*
X43000028Y-76813181D01*
X41586819Y-75399971D01*
X41553334Y-75338648D01*
X41550500Y-75312290D01*
X41550500Y-64463705D01*
X41551809Y-64445735D01*
X41555289Y-64421974D01*
X41550736Y-64369939D01*
X41550500Y-64364532D01*
X41550500Y-64356297D01*
X41550500Y-64356291D01*
X41546691Y-64323707D01*
X41539998Y-64247202D01*
X41539996Y-64247197D01*
X41538538Y-64240133D01*
X41538597Y-64240120D01*
X41536967Y-64232764D01*
X41536908Y-64232779D01*
X41535242Y-64225753D01*
X41535241Y-64225745D01*
X41508973Y-64153573D01*
X41503737Y-64137771D01*
X41484815Y-64080666D01*
X41481763Y-64074121D01*
X41481817Y-64074095D01*
X41478533Y-64067312D01*
X41478480Y-64067340D01*
X41475238Y-64060885D01*
X41475237Y-64060883D01*
X41433029Y-63996709D01*
X41392711Y-63931344D01*
X41392710Y-63931343D01*
X41392709Y-63931341D01*
X41388233Y-63925681D01*
X41388280Y-63925643D01*
X41383519Y-63919799D01*
X41383474Y-63919838D01*
X41378834Y-63914308D01*
X41322964Y-63861596D01*
X35641351Y-58179983D01*
X35607866Y-58118660D01*
X35605561Y-58103743D01*
X35605214Y-58100004D01*
X35605215Y-58100000D01*
X35586397Y-57896917D01*
X35530582Y-57700750D01*
X35524099Y-57687731D01*
X35466327Y-57571708D01*
X35439673Y-57518179D01*
X35316764Y-57355421D01*
X35316762Y-57355418D01*
X35166041Y-57218019D01*
X35166039Y-57218017D01*
X34992642Y-57110655D01*
X34992635Y-57110651D01*
X34897546Y-57073814D01*
X34802456Y-57036976D01*
X34601976Y-56999500D01*
X34398024Y-56999500D01*
X34197544Y-57036976D01*
X34197541Y-57036976D01*
X34197541Y-57036977D01*
X34007364Y-57110651D01*
X34007357Y-57110655D01*
X33833960Y-57218017D01*
X33833958Y-57218019D01*
X33683237Y-57355419D01*
X33578965Y-57493497D01*
X33522856Y-57535133D01*
X33453144Y-57539824D01*
X33391962Y-57506082D01*
X33378436Y-57489893D01*
X33258494Y-57318597D01*
X33091402Y-57151506D01*
X33091396Y-57151501D01*
X32905842Y-57021575D01*
X32862217Y-56966998D01*
X32855023Y-56897500D01*
X32886546Y-56835145D01*
X32905842Y-56818425D01*
X32952295Y-56785898D01*
X33091401Y-56688495D01*
X33258495Y-56521401D01*
X33394035Y-56327830D01*
X33493903Y-56113663D01*
X33555063Y-55885408D01*
X33570721Y-55706438D01*
X33596174Y-55641371D01*
X33652764Y-55600392D01*
X33722526Y-55596514D01*
X33739043Y-55601621D01*
X33863922Y-55649999D01*
X33897544Y-55663024D01*
X34098024Y-55700500D01*
X34098026Y-55700500D01*
X34301974Y-55700500D01*
X34301976Y-55700500D01*
X34502456Y-55663024D01*
X34692637Y-55589348D01*
X34866041Y-55481981D01*
X35016764Y-55344579D01*
X35139673Y-55181821D01*
X35230582Y-54999250D01*
X35286397Y-54803083D01*
X35302871Y-54625289D01*
X35328657Y-54560354D01*
X35338653Y-54549059D01*
X35835642Y-54052070D01*
X35849271Y-54040293D01*
X35868530Y-54025956D01*
X35902101Y-53985947D01*
X35905761Y-53981952D01*
X35911590Y-53976124D01*
X35931941Y-53950385D01*
X35937948Y-53943225D01*
X35981302Y-53891560D01*
X35981306Y-53891551D01*
X35985274Y-53885521D01*
X35985325Y-53885554D01*
X35989372Y-53879202D01*
X35989320Y-53879170D01*
X35993112Y-53873021D01*
X36025575Y-53803404D01*
X36045169Y-53764388D01*
X36060040Y-53734779D01*
X36060042Y-53734767D01*
X36062509Y-53727992D01*
X36062567Y-53728013D01*
X36065043Y-53720892D01*
X36064986Y-53720873D01*
X36067255Y-53714026D01*
X36067256Y-53714021D01*
X36067257Y-53714019D01*
X36082791Y-53638783D01*
X36100500Y-53564067D01*
X36100500Y-53564065D01*
X36101339Y-53556894D01*
X36101398Y-53556900D01*
X36102164Y-53549400D01*
X36102105Y-53549395D01*
X36102734Y-53542205D01*
X36100500Y-53465428D01*
X36100500Y-53343598D01*
X36120185Y-53276559D01*
X36136814Y-53255922D01*
X42142735Y-47250000D01*
X61300001Y-47250000D01*
X61300001Y-47286654D01*
X61310319Y-47387652D01*
X61364546Y-47551300D01*
X61364551Y-47551311D01*
X61455052Y-47698034D01*
X61455055Y-47698038D01*
X61576961Y-47819944D01*
X61576965Y-47819947D01*
X61723688Y-47910448D01*
X61723699Y-47910453D01*
X61887347Y-47964680D01*
X61988351Y-47974999D01*
X62087500Y-47974998D01*
X62087500Y-47250000D01*
X61300001Y-47250000D01*
X42142735Y-47250000D01*
X42485638Y-46907097D01*
X42499267Y-46895320D01*
X42518530Y-46880980D01*
X42518532Y-46880976D01*
X42518534Y-46880976D01*
X42539520Y-46855964D01*
X42552113Y-46840955D01*
X42555767Y-46836969D01*
X42561589Y-46831148D01*
X42581928Y-46805424D01*
X42592906Y-46792341D01*
X42628436Y-46750000D01*
X61300000Y-46750000D01*
X62087500Y-46750000D01*
X62087500Y-46024999D01*
X61988360Y-46025000D01*
X61988344Y-46025001D01*
X61887347Y-46035319D01*
X61723699Y-46089546D01*
X61723688Y-46089551D01*
X61576965Y-46180052D01*
X61576961Y-46180055D01*
X61455055Y-46301961D01*
X61455052Y-46301965D01*
X61364551Y-46448688D01*
X61364546Y-46448699D01*
X61310319Y-46612347D01*
X61300000Y-46713345D01*
X61300000Y-46750000D01*
X42628436Y-46750000D01*
X42631302Y-46746584D01*
X42631304Y-46746579D01*
X42635272Y-46740549D01*
X42635323Y-46740582D01*
X42639369Y-46734230D01*
X42639317Y-46734198D01*
X42643109Y-46728049D01*
X42643111Y-46728047D01*
X42675569Y-46658439D01*
X42710040Y-46589803D01*
X42710043Y-46589787D01*
X42712510Y-46583014D01*
X42712568Y-46583035D01*
X42715043Y-46575916D01*
X42714985Y-46575897D01*
X42717256Y-46569042D01*
X42732784Y-46493837D01*
X42750500Y-46419091D01*
X42750500Y-46419090D01*
X42751339Y-46411918D01*
X42751397Y-46411924D01*
X42752164Y-46404426D01*
X42752104Y-46404421D01*
X42752733Y-46397230D01*
X42750500Y-46320473D01*
X42750500Y-42850000D01*
X60150001Y-42850000D01*
X60150001Y-43199986D01*
X60160494Y-43302697D01*
X60215641Y-43469119D01*
X60215643Y-43469124D01*
X60307684Y-43618345D01*
X60431654Y-43742315D01*
X60580875Y-43834356D01*
X60580880Y-43834358D01*
X60747302Y-43889505D01*
X60747309Y-43889506D01*
X60850019Y-43899999D01*
X62149999Y-43899999D01*
X62150000Y-43899998D01*
X62150000Y-42850000D01*
X62650000Y-42850000D01*
X62650000Y-43899999D01*
X63949972Y-43899999D01*
X63949986Y-43899998D01*
X64052697Y-43889505D01*
X64219119Y-43834358D01*
X64219124Y-43834356D01*
X64368345Y-43742315D01*
X64492315Y-43618345D01*
X64584356Y-43469124D01*
X64584358Y-43469119D01*
X64639505Y-43302697D01*
X64639506Y-43302690D01*
X64649999Y-43199986D01*
X64650000Y-43199973D01*
X64650000Y-42850000D01*
X62650000Y-42850000D01*
X62150000Y-42850000D01*
X60150001Y-42850000D01*
X42750500Y-42850000D01*
X42750500Y-42350000D01*
X60150000Y-42350000D01*
X62150000Y-42350000D01*
X62150000Y-41300000D01*
X62650000Y-41300000D01*
X62650000Y-42350000D01*
X64649999Y-42350000D01*
X64649999Y-42000028D01*
X64649998Y-42000013D01*
X64639505Y-41897302D01*
X64584358Y-41730880D01*
X64584356Y-41730875D01*
X64492315Y-41581654D01*
X64368345Y-41457684D01*
X64219124Y-41365643D01*
X64219119Y-41365641D01*
X64052697Y-41310494D01*
X64052690Y-41310493D01*
X63949986Y-41300000D01*
X62650000Y-41300000D01*
X62150000Y-41300000D01*
X60850028Y-41300000D01*
X60850012Y-41300001D01*
X60747302Y-41310494D01*
X60580880Y-41365641D01*
X60580875Y-41365643D01*
X60431654Y-41457684D01*
X60307684Y-41581654D01*
X60215643Y-41730875D01*
X60215641Y-41730880D01*
X60160494Y-41897302D01*
X60160493Y-41897309D01*
X60150000Y-42000013D01*
X60150000Y-42350000D01*
X42750500Y-42350000D01*
X42750500Y-41562229D01*
X42770185Y-41495190D01*
X42786819Y-41474548D01*
X43724548Y-40536819D01*
X43785871Y-40503334D01*
X43812229Y-40500500D01*
X43901974Y-40500500D01*
X43901976Y-40500500D01*
X44102456Y-40463024D01*
X44292637Y-40389348D01*
X44466041Y-40281981D01*
X44616764Y-40144579D01*
X44739673Y-39981821D01*
X44830582Y-39799250D01*
X44886397Y-39603083D01*
X44905215Y-39400000D01*
X44904929Y-39396918D01*
X44886397Y-39196917D01*
X44865176Y-39122335D01*
X44830582Y-39000750D01*
X44739673Y-38818179D01*
X44616764Y-38655421D01*
X44523060Y-38569999D01*
X44518823Y-38566136D01*
X44482541Y-38506425D01*
X44484302Y-38436578D01*
X44523545Y-38378770D01*
X44587812Y-38351355D01*
X44602361Y-38350499D01*
X44637871Y-38350499D01*
X44637872Y-38350499D01*
X44697483Y-38344091D01*
X44832331Y-38293796D01*
X44947546Y-38207546D01*
X45033796Y-38092331D01*
X45084091Y-37957483D01*
X45090500Y-37897873D01*
X45090499Y-36183966D01*
X48149500Y-36183966D01*
X48164936Y-36360403D01*
X48164938Y-36360413D01*
X48226094Y-36588655D01*
X48226096Y-36588659D01*
X48226097Y-36588663D01*
X48250000Y-36639922D01*
X48325964Y-36802828D01*
X48325965Y-36802830D01*
X48461505Y-36996402D01*
X48560138Y-37095034D01*
X48628599Y-37163495D01*
X48671675Y-37193657D01*
X48822165Y-37299032D01*
X48822167Y-37299033D01*
X48822170Y-37299035D01*
X49036337Y-37398903D01*
X49036343Y-37398904D01*
X49036344Y-37398905D01*
X49053732Y-37403564D01*
X49264592Y-37460063D01*
X49441034Y-37475500D01*
X49499999Y-37480659D01*
X49500000Y-37480659D01*
X49500001Y-37480659D01*
X49558966Y-37475500D01*
X49735408Y-37460063D01*
X49963663Y-37398903D01*
X50177829Y-37299035D01*
X50371401Y-37163495D01*
X50538495Y-36996401D01*
X50648426Y-36839401D01*
X50703001Y-36795778D01*
X50772500Y-36788584D01*
X50834855Y-36820106D01*
X50851571Y-36839398D01*
X50878457Y-36877795D01*
X50961506Y-36996403D01*
X51060138Y-37095034D01*
X51128599Y-37163495D01*
X51171675Y-37193657D01*
X51322165Y-37299032D01*
X51322167Y-37299033D01*
X51322170Y-37299035D01*
X51536337Y-37398903D01*
X51536343Y-37398904D01*
X51536344Y-37398905D01*
X51553732Y-37403564D01*
X51764592Y-37460063D01*
X51941034Y-37475500D01*
X51999999Y-37480659D01*
X52000000Y-37480659D01*
X52000001Y-37480659D01*
X52058966Y-37475500D01*
X52235408Y-37460063D01*
X52463663Y-37398903D01*
X52677829Y-37299035D01*
X52871401Y-37163495D01*
X53038495Y-36996401D01*
X53148426Y-36839401D01*
X53203001Y-36795778D01*
X53272500Y-36788584D01*
X53334855Y-36820106D01*
X53351571Y-36839398D01*
X53378457Y-36877795D01*
X53461506Y-36996403D01*
X53560138Y-37095034D01*
X53628599Y-37163495D01*
X53671675Y-37193657D01*
X53822165Y-37299032D01*
X53822167Y-37299033D01*
X53822170Y-37299035D01*
X54036337Y-37398903D01*
X54036343Y-37398904D01*
X54036344Y-37398905D01*
X54053732Y-37403564D01*
X54264592Y-37460063D01*
X54441034Y-37475500D01*
X54499999Y-37480659D01*
X54500000Y-37480659D01*
X54500001Y-37480659D01*
X54558966Y-37475500D01*
X54735408Y-37460063D01*
X54963663Y-37398903D01*
X55177829Y-37299035D01*
X55371401Y-37163495D01*
X55518602Y-37016293D01*
X55579924Y-36982810D01*
X55649615Y-36987794D01*
X55705549Y-37029665D01*
X55711821Y-37038879D01*
X55746458Y-37095034D01*
X55807288Y-37193656D01*
X55931344Y-37317712D01*
X56080666Y-37409814D01*
X56247203Y-37464999D01*
X56349991Y-37475500D01*
X57650008Y-37475499D01*
X57752797Y-37464999D01*
X57919334Y-37409814D01*
X58068656Y-37317712D01*
X58192712Y-37193656D01*
X58284814Y-37044334D01*
X58339999Y-36877797D01*
X58350500Y-36775009D01*
X58350499Y-35224992D01*
X58339999Y-35122203D01*
X58284814Y-34955666D01*
X58192712Y-34806344D01*
X58068656Y-34682288D01*
X57953274Y-34611120D01*
X57919336Y-34590187D01*
X57919331Y-34590185D01*
X57894570Y-34581980D01*
X57752797Y-34535001D01*
X57752795Y-34535000D01*
X57650010Y-34524500D01*
X56349998Y-34524500D01*
X56349981Y-34524501D01*
X56247203Y-34535000D01*
X56247200Y-34535001D01*
X56080668Y-34590185D01*
X56080663Y-34590187D01*
X55931342Y-34682289D01*
X55807289Y-34806342D01*
X55711821Y-34961121D01*
X55659873Y-35007845D01*
X55590910Y-35019068D01*
X55526828Y-34991224D01*
X55518601Y-34983705D01*
X55371402Y-34836506D01*
X55371395Y-34836501D01*
X55177834Y-34700967D01*
X55177830Y-34700965D01*
X55137777Y-34682288D01*
X54963663Y-34601097D01*
X54963659Y-34601096D01*
X54963655Y-34601094D01*
X54735413Y-34539938D01*
X54735403Y-34539936D01*
X54500001Y-34519341D01*
X54499999Y-34519341D01*
X54264596Y-34539936D01*
X54264586Y-34539938D01*
X54036344Y-34601094D01*
X54036335Y-34601098D01*
X53822171Y-34700964D01*
X53822169Y-34700965D01*
X53628597Y-34836505D01*
X53461505Y-35003597D01*
X53351575Y-35160595D01*
X53296998Y-35204220D01*
X53227500Y-35211414D01*
X53165145Y-35179891D01*
X53148425Y-35160595D01*
X53038494Y-35003597D01*
X52871402Y-34836506D01*
X52871395Y-34836501D01*
X52677834Y-34700967D01*
X52677830Y-34700965D01*
X52637777Y-34682288D01*
X52463663Y-34601097D01*
X52463659Y-34601096D01*
X52463655Y-34601094D01*
X52235413Y-34539938D01*
X52235403Y-34539936D01*
X52000001Y-34519341D01*
X51999999Y-34519341D01*
X51764596Y-34539936D01*
X51764586Y-34539938D01*
X51536344Y-34601094D01*
X51536335Y-34601098D01*
X51322171Y-34700964D01*
X51322169Y-34700965D01*
X51128597Y-34836505D01*
X50961505Y-35003597D01*
X50851575Y-35160595D01*
X50796998Y-35204220D01*
X50727500Y-35211414D01*
X50665145Y-35179891D01*
X50648425Y-35160595D01*
X50538494Y-35003597D01*
X50371402Y-34836506D01*
X50371395Y-34836501D01*
X50177834Y-34700967D01*
X50177830Y-34700965D01*
X50137777Y-34682288D01*
X49963663Y-34601097D01*
X49963659Y-34601096D01*
X49963655Y-34601094D01*
X49735413Y-34539938D01*
X49735403Y-34539936D01*
X49500001Y-34519341D01*
X49499999Y-34519341D01*
X49264596Y-34539936D01*
X49264586Y-34539938D01*
X49036344Y-34601094D01*
X49036335Y-34601098D01*
X48822171Y-34700964D01*
X48822169Y-34700965D01*
X48628597Y-34836505D01*
X48461505Y-35003597D01*
X48325965Y-35197169D01*
X48325964Y-35197171D01*
X48226098Y-35411335D01*
X48226094Y-35411344D01*
X48164938Y-35639586D01*
X48164936Y-35639596D01*
X48149500Y-35816034D01*
X48149500Y-36183966D01*
X45090499Y-36183966D01*
X45090499Y-36102128D01*
X45084091Y-36042517D01*
X45082810Y-36039083D01*
X45033797Y-35907671D01*
X45033793Y-35907664D01*
X44947547Y-35792455D01*
X44947544Y-35792452D01*
X44832335Y-35706206D01*
X44832324Y-35706200D01*
X44827385Y-35704358D01*
X44771453Y-35662484D01*
X44747039Y-35597019D01*
X44759723Y-35532906D01*
X44796570Y-35458907D01*
X44796569Y-35458907D01*
X44796575Y-35458897D01*
X44852390Y-35262730D01*
X44871208Y-35059647D01*
X44868451Y-35029900D01*
X44881865Y-34961334D01*
X44904238Y-34930782D01*
X45846313Y-33988707D01*
X45907634Y-33955224D01*
X45977326Y-33960208D01*
X46033259Y-34002080D01*
X46053257Y-34042453D01*
X46061181Y-34070302D01*
X46069418Y-34099249D01*
X46069422Y-34099260D01*
X46160327Y-34281821D01*
X46283237Y-34444581D01*
X46433958Y-34581980D01*
X46433960Y-34581982D01*
X46505349Y-34626184D01*
X46607363Y-34689348D01*
X46797544Y-34763024D01*
X46998024Y-34800500D01*
X46998026Y-34800500D01*
X47201974Y-34800500D01*
X47201976Y-34800500D01*
X47402456Y-34763024D01*
X47592637Y-34689348D01*
X47766041Y-34581981D01*
X47916764Y-34444579D01*
X48039673Y-34281821D01*
X48130582Y-34099250D01*
X48186397Y-33903083D01*
X48205215Y-33700000D01*
X48186397Y-33496917D01*
X48157176Y-33394216D01*
X48157762Y-33324354D01*
X48188759Y-33272607D01*
X50174549Y-31286819D01*
X50235872Y-31253334D01*
X50262230Y-31250500D01*
X67369142Y-31250500D01*
X67436181Y-31270185D01*
G37*
%TD.AperFunction*%
%TA.AperFunction,Conductor*%
G36*
X28455703Y-65092516D02*
G01*
X28462181Y-65098548D01*
X29093647Y-65730014D01*
X29127132Y-65791337D01*
X29129437Y-65806253D01*
X29148603Y-66013082D01*
X29204417Y-66209247D01*
X29204422Y-66209260D01*
X29295327Y-66391821D01*
X29418237Y-66554581D01*
X29568958Y-66691980D01*
X29568960Y-66691982D01*
X29655239Y-66745403D01*
X29742363Y-66799348D01*
X29932544Y-66873024D01*
X30133024Y-66910500D01*
X30133026Y-66910500D01*
X30336974Y-66910500D01*
X30336976Y-66910500D01*
X30537456Y-66873024D01*
X30727637Y-66799348D01*
X30901041Y-66691981D01*
X30972531Y-66626808D01*
X31035333Y-66596192D01*
X31104720Y-66604389D01*
X31157641Y-66647320D01*
X31181505Y-66681401D01*
X31348599Y-66848495D01*
X31527359Y-66973664D01*
X31534594Y-66978730D01*
X31578218Y-67033307D01*
X31585411Y-67102806D01*
X31553889Y-67165160D01*
X31534593Y-67181880D01*
X31458626Y-67235072D01*
X31458625Y-67235072D01*
X32087466Y-67863913D01*
X32077685Y-67865320D01*
X31946900Y-67925048D01*
X31838239Y-68019202D01*
X31760507Y-68140156D01*
X31736923Y-68220476D01*
X31105072Y-67588625D01*
X31046401Y-67672419D01*
X30946570Y-67886507D01*
X30946566Y-67886516D01*
X30885432Y-68114673D01*
X30885430Y-68114684D01*
X30864843Y-68349998D01*
X30864843Y-68350001D01*
X30885430Y-68585315D01*
X30885432Y-68585326D01*
X30946566Y-68813483D01*
X30946570Y-68813492D01*
X31046400Y-69027579D01*
X31046402Y-69027583D01*
X31105072Y-69111373D01*
X31105073Y-69111373D01*
X31736923Y-68479523D01*
X31760507Y-68559844D01*
X31838239Y-68680798D01*
X31946900Y-68774952D01*
X32077685Y-68834680D01*
X32087466Y-68836086D01*
X31458625Y-69464925D01*
X31534594Y-69518119D01*
X31578219Y-69572696D01*
X31585413Y-69642194D01*
X31553890Y-69704549D01*
X31534595Y-69721269D01*
X31348594Y-69851508D01*
X31181508Y-70018594D01*
X31100779Y-70133887D01*
X31046201Y-70177512D01*
X30976703Y-70184704D01*
X30914348Y-70153182D01*
X30907569Y-70146304D01*
X30906761Y-70145417D01*
X30756041Y-70008019D01*
X30756039Y-70008017D01*
X30582642Y-69900655D01*
X30582635Y-69900651D01*
X30455781Y-69851508D01*
X30392456Y-69826976D01*
X30191976Y-69789500D01*
X30191974Y-69789500D01*
X30102230Y-69789500D01*
X30035191Y-69769815D01*
X30014549Y-69753181D01*
X28286819Y-68025451D01*
X28253334Y-67964128D01*
X28250500Y-67937770D01*
X28250500Y-65186229D01*
X28270185Y-65119190D01*
X28322989Y-65073435D01*
X28392147Y-65063491D01*
X28455703Y-65092516D01*
G37*
%TD.AperFunction*%
%TA.AperFunction,Conductor*%
G36*
X34759445Y-36742047D02*
G01*
X34770202Y-36750000D01*
X35686314Y-36750000D01*
X35660507Y-36790156D01*
X35620000Y-36928111D01*
X35620000Y-37071889D01*
X35660507Y-37209844D01*
X35686314Y-37250000D01*
X34789364Y-37250000D01*
X34846567Y-37463486D01*
X34846570Y-37463492D01*
X34946399Y-37677578D01*
X35081894Y-37871082D01*
X35248917Y-38038105D01*
X35442421Y-38173600D01*
X35656507Y-38273429D01*
X35656516Y-38273433D01*
X35870000Y-38330634D01*
X35870000Y-37435501D01*
X35977685Y-37484680D01*
X36084237Y-37500000D01*
X36155763Y-37500000D01*
X36262315Y-37484680D01*
X36370000Y-37435501D01*
X36370000Y-38330633D01*
X36583483Y-38273433D01*
X36583492Y-38273429D01*
X36797578Y-38173600D01*
X36991082Y-38038105D01*
X37158105Y-37871082D01*
X37288119Y-37685405D01*
X37342696Y-37641781D01*
X37412195Y-37634588D01*
X37474549Y-37666110D01*
X37491269Y-37685405D01*
X37621505Y-37871401D01*
X37788599Y-38038495D01*
X37885384Y-38106265D01*
X37982165Y-38174032D01*
X37982167Y-38174033D01*
X37982170Y-38174035D01*
X38196337Y-38273903D01*
X38424592Y-38335063D01*
X38601034Y-38350500D01*
X38659999Y-38355659D01*
X38660000Y-38355659D01*
X38660001Y-38355659D01*
X38718966Y-38350500D01*
X38895408Y-38335063D01*
X39123663Y-38273903D01*
X39337830Y-38174035D01*
X39531401Y-38038495D01*
X39698495Y-37871401D01*
X39828425Y-37685842D01*
X39883002Y-37642217D01*
X39952500Y-37635023D01*
X40014855Y-37666546D01*
X40031575Y-37685842D01*
X40161281Y-37871082D01*
X40161505Y-37871401D01*
X40328599Y-38038495D01*
X40425384Y-38106265D01*
X40522165Y-38174032D01*
X40522167Y-38174033D01*
X40522170Y-38174035D01*
X40736337Y-38273903D01*
X40736343Y-38273904D01*
X40736344Y-38273905D01*
X40866348Y-38308739D01*
X40926009Y-38345104D01*
X40956538Y-38407950D01*
X40948244Y-38477326D01*
X40903758Y-38531204D01*
X40879049Y-38544141D01*
X40707364Y-38610651D01*
X40707357Y-38610655D01*
X40533960Y-38718017D01*
X40533958Y-38718019D01*
X40383237Y-38855418D01*
X40260327Y-39018178D01*
X40169422Y-39200739D01*
X40169417Y-39200752D01*
X40113602Y-39396917D01*
X40094785Y-39599999D01*
X40094785Y-39600000D01*
X40113602Y-39803082D01*
X40169417Y-39999247D01*
X40169422Y-39999260D01*
X40205396Y-40071505D01*
X40260327Y-40181821D01*
X40373756Y-40332026D01*
X40383237Y-40344580D01*
X40409038Y-40368101D01*
X40445320Y-40427812D01*
X40449500Y-40459738D01*
X40449500Y-45637770D01*
X40429815Y-45704809D01*
X40413181Y-45725451D01*
X34275451Y-51863181D01*
X34214128Y-51896666D01*
X34187770Y-51899500D01*
X34098024Y-51899500D01*
X33897544Y-51936976D01*
X33897541Y-51936976D01*
X33897541Y-51936977D01*
X33707364Y-52010651D01*
X33707357Y-52010655D01*
X33533962Y-52118016D01*
X33414279Y-52227121D01*
X33351474Y-52257737D01*
X33282087Y-52249539D01*
X33243060Y-52223164D01*
X33091402Y-52071506D01*
X33091401Y-52071505D01*
X32914422Y-51947583D01*
X32905405Y-51941269D01*
X32861781Y-51886692D01*
X32854588Y-51817193D01*
X32886110Y-51754839D01*
X32905405Y-51738119D01*
X32981373Y-51684925D01*
X32352534Y-51056086D01*
X32362315Y-51054680D01*
X32493100Y-50994952D01*
X32601761Y-50900798D01*
X32679493Y-50779844D01*
X32703076Y-50699524D01*
X33334925Y-51331373D01*
X33334926Y-51331373D01*
X33393598Y-51247582D01*
X33393600Y-51247578D01*
X33493429Y-51033492D01*
X33493433Y-51033483D01*
X33554567Y-50805326D01*
X33554569Y-50805315D01*
X33575157Y-50570001D01*
X33575157Y-50569998D01*
X33554569Y-50334684D01*
X33554567Y-50334673D01*
X33493433Y-50106516D01*
X33493429Y-50106507D01*
X33393600Y-49892423D01*
X33393599Y-49892421D01*
X33334925Y-49808626D01*
X33334925Y-49808625D01*
X32703076Y-50440475D01*
X32679493Y-50360156D01*
X32601761Y-50239202D01*
X32493100Y-50145048D01*
X32362315Y-50085320D01*
X32352533Y-50083913D01*
X32981373Y-49455073D01*
X32981373Y-49455072D01*
X32905405Y-49401880D01*
X32861780Y-49347304D01*
X32854586Y-49277805D01*
X32886108Y-49215451D01*
X32905399Y-49198734D01*
X33091401Y-49068495D01*
X33258495Y-48901401D01*
X33394035Y-48707830D01*
X33493903Y-48493663D01*
X33555063Y-48265408D01*
X33575659Y-48030000D01*
X33574413Y-48015764D01*
X33560663Y-47858597D01*
X33555063Y-47794592D01*
X33493903Y-47566337D01*
X33394035Y-47352171D01*
X33343072Y-47279387D01*
X33258494Y-47158597D01*
X33091402Y-46991506D01*
X33091395Y-46991501D01*
X32897834Y-46855967D01*
X32897830Y-46855965D01*
X32844610Y-46831148D01*
X32683663Y-46756097D01*
X32683659Y-46756096D01*
X32683655Y-46756094D01*
X32455413Y-46694938D01*
X32455403Y-46694936D01*
X32220001Y-46674341D01*
X32219999Y-46674341D01*
X31984596Y-46694936D01*
X31984586Y-46694938D01*
X31756344Y-46756094D01*
X31756330Y-46756099D01*
X31626904Y-46816452D01*
X31557827Y-46826944D01*
X31494043Y-46798424D01*
X31455804Y-46739947D01*
X31450500Y-46704070D01*
X31450500Y-37751316D01*
X31470185Y-37684277D01*
X31486819Y-37663635D01*
X31644885Y-37505569D01*
X31706208Y-37472084D01*
X31732566Y-37469250D01*
X33555159Y-37469250D01*
X33573129Y-37470559D01*
X33596887Y-37474039D01*
X33648932Y-37469485D01*
X33654334Y-37469250D01*
X33662568Y-37469250D01*
X33662573Y-37469250D01*
X33674191Y-37467891D01*
X33695140Y-37465443D01*
X33707892Y-37464327D01*
X33771661Y-37458749D01*
X33771669Y-37458746D01*
X33778730Y-37457289D01*
X33778742Y-37457348D01*
X33786107Y-37455715D01*
X33786093Y-37455656D01*
X33793110Y-37453991D01*
X33793119Y-37453991D01*
X33865287Y-37427724D01*
X33938198Y-37403564D01*
X33938207Y-37403557D01*
X33944746Y-37400510D01*
X33944772Y-37400566D01*
X33951554Y-37397282D01*
X33951527Y-37397228D01*
X33957970Y-37393990D01*
X33957981Y-37393987D01*
X34022147Y-37351784D01*
X34087520Y-37311462D01*
X34087526Y-37311455D01*
X34093189Y-37306979D01*
X34093226Y-37307027D01*
X34099068Y-37302268D01*
X34099028Y-37302221D01*
X34104550Y-37297586D01*
X34104560Y-37297580D01*
X34126262Y-37274575D01*
X34157250Y-37241732D01*
X34329650Y-37069331D01*
X34628436Y-36770544D01*
X34689754Y-36737063D01*
X34759445Y-36742047D01*
G37*
%TD.AperFunction*%
%TD*%
M02*
