G04*
G04 #@! TF.GenerationSoftware,Altium Limited,Altium Designer,18.1.7 (191)*
G04*
G04 Layer_Color=65535*
%FSLAX25Y25*%
%MOIN*%
G70*
G01*
G75*
%ADD10C,0.00551*%
%ADD11C,0.00984*%
%ADD12C,0.00787*%
%ADD13C,0.01181*%
%ADD14C,0.00400*%
%ADD15C,0.00433*%
%ADD16C,0.00700*%
%ADD17C,0.00600*%
%ADD18C,0.00500*%
G36*
X57600Y-44000D02*
X57600Y-52944D01*
X56782Y-52853D01*
X55206Y-52376D01*
X53743Y-51621D01*
X52441Y-50614D01*
X51343Y-49386D01*
X50486Y-47980D01*
X49899Y-46442D01*
X49600Y-44823D01*
X49600Y-44000D01*
X49600Y-44000D01*
X49600Y-43177D01*
X49899Y-41558D01*
X50486Y-40020D01*
X51343Y-38614D01*
X52441Y-37386D01*
X53743Y-36379D01*
X55206Y-35624D01*
X56782Y-35147D01*
X57600Y-35056D01*
X57600Y-35056D01*
X57600Y-44000D01*
X57100D01*
X57083Y-43657D01*
X56949Y-42984D01*
X56687Y-42350D01*
X56305Y-41780D01*
X55820Y-41295D01*
X55250Y-40913D01*
X54616Y-40651D01*
X53943Y-40517D01*
X53600Y-40500D01*
X53257Y-40517D01*
X52584Y-40651D01*
X51950Y-40913D01*
X51380Y-41295D01*
X50894Y-41780D01*
X50513Y-42350D01*
X50251Y-42984D01*
X50117Y-43657D01*
X50100Y-44000D01*
X50117Y-44343D01*
X50251Y-45016D01*
X50513Y-45650D01*
X50894Y-46220D01*
X51380Y-46706D01*
X51950Y-47087D01*
X52584Y-47349D01*
X53257Y-47483D01*
X53600Y-47500D01*
X53943Y-47483D01*
X54616Y-47349D01*
X55250Y-47087D01*
X55820Y-46705D01*
X56305Y-46220D01*
X56687Y-45650D01*
X56949Y-45016D01*
X57083Y-44343D01*
X57100Y-44000D01*
X57100Y-44000D01*
X57600Y-44000D01*
D02*
G37*
D10*
X67614Y-44000D02*
G03*
X67614Y-44000I-9014J0D01*
G01*
D11*
X41639Y17205D02*
G03*
X41639Y17205I-492J0D01*
G01*
X87811Y617D02*
G03*
X87811Y617I-492J0D01*
G01*
Y34617D02*
G03*
X87811Y34617I-492J0D01*
G01*
Y-27384D02*
G03*
X87811Y-27384I-492J0D01*
G01*
Y62616D02*
G03*
X87811Y62616I-492J0D01*
G01*
D12*
X145000Y-55000D02*
Y5000D01*
X135000Y-55000D02*
Y5000D01*
Y-55000D02*
X145000D01*
X135000Y5000D02*
X145000D01*
X-5000Y65000D02*
X5000D01*
X-5000Y45000D02*
Y65000D01*
Y45000D02*
X5000D01*
Y65000D01*
X-5000Y-55000D02*
X5000D01*
X-5000D02*
Y-15000D01*
X5000Y-55000D02*
Y-15000D01*
X-5000D02*
X5000D01*
X23332Y13268D02*
X39868D01*
X23332Y-3268D02*
X39868D01*
Y13268D01*
X23332Y-3268D02*
Y13268D01*
X145000Y5000D02*
Y45000D01*
X135000D02*
X145000D01*
X135000Y5000D02*
X145000D01*
X135000D02*
Y45000D01*
X93362Y-25289D02*
X115410D01*
X93362Y1089D02*
X115410D01*
Y-25289D02*
Y1089D01*
X93362Y-25289D02*
Y1089D01*
Y8711D02*
X115410D01*
X93362Y35089D02*
X115410D01*
Y8711D02*
Y35089D01*
X93362Y8711D02*
Y35089D01*
Y-53289D02*
X115410D01*
X93362Y-26911D02*
X115410D01*
Y-53289D02*
Y-26911D01*
X93362Y-53289D02*
Y-26911D01*
Y36711D02*
X115410D01*
X93362Y63089D02*
X115410D01*
Y36711D02*
Y63089D01*
X93362Y36711D02*
Y63089D01*
X145000Y45000D02*
Y65000D01*
X135000Y45000D02*
X145000D01*
X135000D02*
Y65000D01*
X145000D01*
X5000Y25000D02*
Y45000D01*
X-5000Y25000D02*
X5000D01*
X-5000D02*
Y45000D01*
X5000D01*
X-5000Y25000D02*
X5000D01*
Y-15000D02*
Y25000D01*
X-5000Y-15000D02*
Y25000D01*
Y-15000D02*
X5000D01*
D13*
X61100Y-32000D02*
X66100D01*
X63600Y-34500D02*
Y-29500D01*
X54800Y-34500D02*
Y-29500D01*
D14*
X128200Y6400D02*
X131000D01*
X128200Y15700D02*
X131000D01*
X128200Y43600D02*
X131000D01*
X128200Y34300D02*
X131000D01*
X128200Y25000D02*
X131000D01*
D15*
X128233Y39733D02*
Y41733D01*
X129233Y42733D01*
X130232Y41733D01*
Y39733D01*
Y41233D01*
X128233D01*
X128733Y35095D02*
X129733D01*
X129233D01*
Y38094D01*
X128733Y37595D01*
X128233Y30457D02*
Y32456D01*
X129233Y33456D01*
X130232Y32456D01*
Y30457D01*
Y31957D01*
X128233D01*
X130232Y25819D02*
X128233D01*
X130232Y27818D01*
Y28318D01*
X129733Y28818D01*
X128733D01*
X128233Y28318D01*
Y24180D02*
Y21181D01*
X129733D01*
X130232Y21681D01*
Y22180D01*
X129733Y22680D01*
X128233D01*
X129733D01*
X130232Y23180D01*
Y23680D01*
X129733Y24180D01*
X128233D01*
X128733Y16543D02*
X129733D01*
X129233D01*
Y19542D01*
X128733Y19042D01*
X128233Y14903D02*
Y11904D01*
X129733D01*
X130232Y12404D01*
Y12904D01*
X129733Y13404D01*
X128233D01*
X129733D01*
X130232Y13904D01*
Y14404D01*
X129733Y14903D01*
X128233D01*
X130232Y7266D02*
X128233D01*
X130232Y9266D01*
Y9765D01*
X129733Y10265D01*
X128733D01*
X128233Y9765D01*
D16*
X27200Y-25134D02*
X26261Y-25052D01*
X25240Y-25908D01*
X25158Y-26847D01*
X25587Y-27358D01*
X26525Y-27440D01*
X27546Y-26583D01*
X28485Y-26665D01*
X28914Y-27176D01*
X28832Y-28115D01*
X27810Y-28972D01*
X26872Y-28890D01*
X30363Y-26830D02*
X27793Y-23766D01*
X29324Y-22481D01*
X30263Y-22564D01*
X31120Y-23584D01*
X31038Y-24523D01*
X29506Y-25809D01*
X30527Y-24952D02*
X32405Y-25116D01*
X30856Y-21196D02*
X33426Y-24259D01*
X34958Y-22974D01*
X35040Y-22035D01*
X34612Y-21525D01*
X33673Y-21443D01*
X32141Y-22728D01*
X33673Y-21443D01*
X33755Y-20504D01*
X33327Y-19993D01*
X32388Y-19911D01*
X30856Y-21196D01*
X33919Y-18626D02*
X36490Y-21689D01*
X38532Y-19975D01*
X29384Y36339D02*
X29302Y37278D01*
X28281Y38135D01*
X27342Y38053D01*
X26913Y37542D01*
X26996Y36603D01*
X28017Y35746D01*
X28099Y34808D01*
X27670Y34297D01*
X26732Y34215D01*
X25710Y35072D01*
X25628Y36011D01*
X28263Y32930D02*
X30834Y35993D01*
X32365Y34708D01*
X32447Y33769D01*
X31591Y32748D01*
X30652Y32666D01*
X29120Y33951D01*
X30141Y33094D02*
X30305Y31216D01*
X31326Y30359D02*
X33040Y32401D01*
X34918Y32566D01*
X35082Y30688D01*
X33369Y28646D01*
X34654Y30177D01*
X32612Y31891D01*
X36960Y30852D02*
X34390Y27789D01*
X36432Y26076D01*
X6500Y41699D02*
Y37701D01*
X8499D01*
X9166Y38367D01*
Y41033D01*
X8499Y41699D01*
X6500D01*
X10499D02*
X11832D01*
X11165D01*
Y37701D01*
X10499D01*
X11832D01*
X13831D02*
Y41699D01*
X15830D01*
X16497Y41033D01*
Y39700D01*
X15830Y39034D01*
X13831D01*
X15164D02*
X16497Y37701D01*
X9166Y1333D02*
X8499Y1999D01*
X7166D01*
X6500Y1333D01*
Y667D01*
X7166Y0D01*
X8499D01*
X9166Y-667D01*
Y-1333D01*
X8499Y-1999D01*
X7166D01*
X6500Y-1333D01*
X13164Y1333D02*
X12498Y1999D01*
X11165D01*
X10499Y1333D01*
Y-1333D01*
X11165Y-1999D01*
X12498D01*
X13164Y-1333D01*
X14497Y1999D02*
Y-1999D01*
Y-667D01*
X17163Y1999D01*
X15164Y0D01*
X17163Y-1999D01*
X9166Y21333D02*
X8499Y21999D01*
X7166D01*
X6500Y21333D01*
Y20666D01*
X7166Y20000D01*
X8499D01*
X9166Y19333D01*
Y18667D01*
X8499Y18001D01*
X7166D01*
X6500Y18667D01*
X10499Y21999D02*
Y18001D01*
X12498D01*
X13164Y18667D01*
Y21333D01*
X12498Y21999D01*
X10499D01*
X16497D02*
X15164D01*
X14497Y21333D01*
Y18667D01*
X15164Y18001D01*
X16497D01*
X17163Y18667D01*
Y21333D01*
X16497Y21999D01*
X9166Y-18668D02*
X8499Y-18001D01*
X7166D01*
X6500Y-18668D01*
Y-21334D01*
X7166Y-22000D01*
X8499D01*
X9166Y-21334D01*
Y-20001D01*
X7833D01*
X10499Y-22000D02*
Y-18001D01*
X13164Y-22000D01*
Y-18001D01*
X14497D02*
Y-22000D01*
X16497D01*
X17163Y-21334D01*
Y-18668D01*
X16497Y-18001D01*
X14497D01*
X9166Y31332D02*
X8499Y31999D01*
X7166D01*
X6500Y31332D01*
Y30666D01*
X7166Y29999D01*
X8499D01*
X9166Y29333D01*
Y28666D01*
X8499Y28000D01*
X7166D01*
X6500Y28666D01*
X10499Y31999D02*
X13164D01*
X11832D01*
Y28000D01*
X17163Y31999D02*
X14497D01*
Y28000D01*
X17163D01*
X14497Y29999D02*
X15830D01*
X18496Y28000D02*
Y31999D01*
X20495D01*
X21162Y31332D01*
Y29999D01*
X20495Y29333D01*
X18496D01*
X9166Y11333D02*
X8499Y11999D01*
X7166D01*
X6500Y11333D01*
Y10667D01*
X7166Y10000D01*
X8499D01*
X9166Y9334D01*
Y8667D01*
X8499Y8001D01*
X7166D01*
X6500Y8667D01*
X10499Y11999D02*
Y8001D01*
X12498D01*
X13164Y8667D01*
Y11333D01*
X12498Y11999D01*
X10499D01*
X14497D02*
X15830D01*
X15164D01*
Y8001D01*
X14497D01*
X15830D01*
X9166Y-8667D02*
X8499Y-8001D01*
X7166D01*
X6500Y-8667D01*
Y-11333D01*
X7166Y-11999D01*
X8499D01*
X9166Y-11333D01*
X13164Y-8667D02*
X12498Y-8001D01*
X11165D01*
X10499Y-8667D01*
Y-9334D01*
X11165Y-10000D01*
X12498D01*
X13164Y-10667D01*
Y-11333D01*
X12498Y-11999D01*
X11165D01*
X10499Y-11333D01*
X14497Y-11999D02*
Y-8001D01*
X17163Y-11999D01*
Y-8001D01*
X8993Y51516D02*
X8370Y52139D01*
X7123D01*
X6500Y51516D01*
Y49023D01*
X7123Y48400D01*
X8370D01*
X8993Y49023D01*
Y50270D01*
X7746D01*
X10239Y48400D02*
Y52139D01*
X12732Y48400D01*
Y52139D01*
X13978D02*
Y48400D01*
X15847D01*
X16470Y49023D01*
Y51516D01*
X15847Y52139D01*
X13978D01*
X6500Y61599D02*
Y59266D01*
X7666Y58100D01*
X8833Y59266D01*
Y61599D01*
X12331Y61016D02*
X11748Y61599D01*
X10582D01*
X9999Y61016D01*
Y58683D01*
X10582Y58100D01*
X11748D01*
X12331Y58683D01*
X15830Y61016D02*
X15247Y61599D01*
X14081D01*
X13498Y61016D01*
Y58683D01*
X14081Y58100D01*
X15247D01*
X15830Y58683D01*
X16997Y57517D02*
X19329D01*
X20495Y61599D02*
X21662D01*
X21079D01*
Y58100D01*
X20495D01*
X21662D01*
X25161Y61599D02*
X23994D01*
X23411Y61016D01*
Y58683D01*
X23994Y58100D01*
X25161D01*
X25744Y58683D01*
Y61016D01*
X25161Y61599D01*
X126999Y62199D02*
Y59733D01*
X128232Y58500D01*
X129465Y59733D01*
Y62199D01*
X133163Y61582D02*
X132547Y62199D01*
X131314D01*
X130698Y61582D01*
Y60966D01*
X131314Y60349D01*
X132547D01*
X133163Y59733D01*
Y59117D01*
X132547Y58500D01*
X131314D01*
X130698Y59117D01*
X129101Y-33634D02*
X129768Y-34967D01*
X131101Y-36300D01*
X132433D01*
X133100Y-35634D01*
Y-34301D01*
X132433Y-33634D01*
X131767D01*
X131101Y-34301D01*
Y-36300D01*
X129101Y-32301D02*
X133100Y-29636D01*
X129101D02*
X133100Y-32301D01*
X129768Y-21638D02*
X129101Y-22305D01*
Y-23637D01*
X129768Y-24304D01*
X132433D01*
X133100Y-23637D01*
Y-22305D01*
X132433Y-21638D01*
X131101D01*
Y-22971D01*
X133100Y-20305D02*
X129101D01*
X133100Y-17639D01*
X129101D01*
Y-16307D02*
X133100D01*
Y-14307D01*
X132433Y-13641D01*
X129768D01*
X129101Y-14307D01*
Y-16307D01*
X129768Y47666D02*
X129101Y46999D01*
Y45666D01*
X129768Y45000D01*
X132433D01*
X133100Y45666D01*
Y46999D01*
X132433Y47666D01*
X131101D01*
Y46333D01*
X133100Y48999D02*
X129101D01*
X133100Y51665D01*
X129101D01*
Y52997D02*
X133100D01*
Y54997D01*
X132433Y55663D01*
X129768D01*
X129101Y54997D01*
Y52997D01*
D17*
X8966Y-45019D02*
X8349Y-44403D01*
X7117D01*
X6500Y-45019D01*
Y-45635D01*
X7117Y-46252D01*
X8349D01*
X8966Y-46868D01*
Y-47485D01*
X8349Y-48101D01*
X7117D01*
X6500Y-47485D01*
X12665Y-45019D02*
X12048Y-44403D01*
X10815D01*
X10199Y-45019D01*
Y-47485D01*
X10815Y-48101D01*
X12048D01*
X12665Y-47485D01*
Y-46252D01*
X11432D01*
X13898Y-48718D02*
X16364D01*
X6500Y-49801D02*
X8966D01*
X7733D01*
Y-53500D01*
X12665Y-50418D02*
X12048Y-49801D01*
X10815D01*
X10199Y-50418D01*
Y-51034D01*
X10815Y-51651D01*
X12048D01*
X12665Y-52267D01*
Y-52883D01*
X12048Y-53500D01*
X10815D01*
X10199Y-52883D01*
X13898Y-49801D02*
X16364D01*
X15131D01*
Y-53500D01*
X7826Y-38265D02*
X7122Y-37936D01*
X6088Y-38312D01*
X5760Y-39017D01*
X6512Y-41083D01*
X7217Y-41412D01*
X8250Y-41036D01*
X8579Y-40331D01*
X8672Y-37372D02*
X9800Y-40472D01*
X11867Y-39720D01*
X11772Y-36243D02*
X12900Y-39343D01*
X12524Y-38310D01*
X13838Y-35491D01*
X12853Y-37605D01*
X14967Y-38591D01*
X16000Y-38215D02*
X17033Y-37839D01*
X16517Y-38027D01*
X15388Y-34927D01*
X15060Y-35632D01*
X19522Y-33423D02*
X18676Y-34315D01*
X18019Y-35725D01*
X18395Y-36758D01*
X19100Y-37087D01*
X20133Y-36711D01*
X20462Y-36006D01*
X20274Y-35489D01*
X19569Y-35161D01*
X18019Y-35725D01*
X6036Y-27345D02*
X7000Y-30500D01*
X8577Y-30018D01*
X8942Y-29331D01*
X8299Y-27228D01*
X7613Y-26863D01*
X6036Y-27345D01*
X10155Y-29535D02*
X9190Y-26381D01*
X10768Y-25899D01*
X11454Y-26263D01*
X11776Y-27315D01*
X11411Y-28002D01*
X9833Y-28484D01*
X10885Y-28162D02*
X12258Y-28892D01*
X12345Y-25416D02*
X12988Y-27519D01*
X14361Y-28249D01*
X15091Y-26876D01*
X14448Y-24773D01*
X16625Y-28132D02*
X18728Y-27489D01*
X20758Y-22844D02*
X18655Y-23487D01*
X19619Y-26642D01*
X21722Y-25999D01*
X19137Y-25065D02*
X20188Y-24743D01*
X22774Y-25677D02*
X21809Y-22523D01*
X24877Y-25034D01*
X23913Y-21880D01*
X25929Y-24713D02*
X24964Y-21558D01*
X28032Y-24070D01*
X27067Y-20915D01*
D18*
X34600Y-15137D02*
X36866D01*
X35733D01*
Y-18536D01*
X37999D02*
Y-15137D01*
X39132Y-16270D01*
X40265Y-15137D01*
Y-18536D01*
X43664Y-15704D02*
X43097Y-15137D01*
X41964D01*
X41398Y-15704D01*
Y-17970D01*
X41964Y-18536D01*
X43097D01*
X43664Y-17970D01*
X47063Y-18536D02*
X44797D01*
X47063Y-16270D01*
Y-15704D01*
X46496Y-15137D01*
X45363D01*
X44797Y-15704D01*
X50462Y-15137D02*
X48196D01*
Y-16837D01*
X49329Y-16270D01*
X49895D01*
X50462Y-16837D01*
Y-17970D01*
X49895Y-18536D01*
X48762D01*
X48196Y-17970D01*
X51595D02*
X52161Y-18536D01*
X53294D01*
X53860Y-17970D01*
Y-15704D01*
X53294Y-15137D01*
X52161D01*
X51595Y-15704D01*
Y-16270D01*
X52161Y-16837D01*
X53860D01*
X54993Y-15704D02*
X55560Y-15137D01*
X56693D01*
X57259Y-15704D01*
Y-17970D01*
X56693Y-18536D01*
X55560D01*
X54993Y-17970D01*
Y-15704D01*
X58392Y-16837D02*
X60658D01*
X61791Y-15137D02*
Y-18536D01*
X63491D01*
X64057Y-17970D01*
Y-17403D01*
X63491Y-16837D01*
X61791D01*
X63491D01*
X64057Y-16270D01*
Y-15704D01*
X63491Y-15137D01*
X61791D01*
X66890D02*
X65757D01*
X65190Y-15704D01*
Y-17970D01*
X65757Y-18536D01*
X66890D01*
X67456Y-17970D01*
Y-15704D01*
X66890Y-15137D01*
X68589D02*
Y-18536D01*
X70288D01*
X70855Y-17970D01*
Y-17403D01*
X70288Y-16837D01*
X68589D01*
X70288D01*
X70855Y-16270D01*
Y-15704D01*
X70288Y-15137D01*
X68589D01*
X73687Y-18536D02*
Y-15137D01*
X71988Y-16837D01*
X74254D01*
X75387Y-15704D02*
X75953Y-15137D01*
X77086D01*
X77653Y-15704D01*
Y-17970D01*
X77086Y-18536D01*
X75953D01*
X75387Y-17970D01*
Y-15704D01*
X66323Y-20337D02*
Y-22603D01*
X67456Y-23736D01*
X68589Y-22603D01*
Y-20337D01*
X69722Y-23736D02*
X70855D01*
X70288D01*
Y-20337D01*
X69722Y-20904D01*
X72554Y-23736D02*
Y-23170D01*
X73121D01*
Y-23736D01*
X72554D01*
X75387Y-20904D02*
X75953Y-20337D01*
X77086D01*
X77653Y-20904D01*
Y-23170D01*
X77086Y-23736D01*
X75953D01*
X75387Y-23170D01*
Y-20904D01*
M02*
