G04*
G04 #@! TF.GenerationSoftware,Altium Limited,Altium Designer,18.1.7 (191)*
G04*
G04 Layer_Color=8388736*
%FSLAX25Y25*%
%MOIN*%
G70*
G01*
G75*
%ADD32R,0.01384X0.03943*%
%ADD33R,0.03943X0.01384*%
%ADD34R,0.12139X0.12139*%
%ADD35R,0.04737X0.05131*%
%ADD36R,0.03950X0.03950*%
%ADD37R,0.10446X0.22650*%
%ADD38R,0.10446X0.03950*%
%ADD39R,0.05131X0.04737*%
G04:AMPARAMS|DCode=40|XSize=90.68mil|YSize=165.48mil|CornerRadius=0mil|HoleSize=0mil|Usage=FLASHONLY|Rotation=220.000|XOffset=0mil|YOffset=0mil|HoleType=Round|Shape=Rectangle|*
%AMROTATEDRECTD40*
4,1,4,-0.01845,0.09253,0.08792,-0.03424,0.01845,-0.09253,-0.08792,0.03424,-0.01845,0.09253,0.0*
%
%ADD40ROTATEDRECTD40*%

G04:AMPARAMS|DCode=41|XSize=90.68mil|YSize=165.48mil|CornerRadius=0mil|HoleSize=0mil|Usage=FLASHONLY|Rotation=140.000|XOffset=0mil|YOffset=0mil|HoleType=Round|Shape=Rectangle|*
%AMROTATEDRECTD41*
4,1,4,0.08792,0.03424,-0.01845,-0.09253,-0.08792,-0.03424,0.01845,0.09253,0.08792,0.03424,0.0*
%
%ADD41ROTATEDRECTD41*%

%ADD42R,0.07887X0.05131*%
%ADD43R,0.05131X0.07887*%
G04:AMPARAMS|DCode=44|XSize=51.31mil|YSize=78.87mil|CornerRadius=0mil|HoleSize=0mil|Usage=FLASHONLY|Rotation=45.000|XOffset=0mil|YOffset=0mil|HoleType=Round|Shape=Rectangle|*
%AMROTATEDRECTD44*
4,1,4,0.00974,-0.04602,-0.04602,0.00974,-0.00974,0.04602,0.04602,-0.00974,0.00974,-0.04602,0.0*
%
%ADD44ROTATEDRECTD44*%

%ADD45C,0.06706*%
%ADD46C,0.07099*%
%ADD47C,0.03200*%
D32*
X38490Y17205D02*
D03*
X36521D02*
D03*
X34553D02*
D03*
X32584D02*
D03*
X30616D02*
D03*
X28647D02*
D03*
X26679D02*
D03*
X24710D02*
D03*
Y-7205D02*
D03*
X26679D02*
D03*
X28647D02*
D03*
X30616D02*
D03*
X32584D02*
D03*
X34553D02*
D03*
X36521D02*
D03*
X38490D02*
D03*
D33*
X19395Y11890D02*
D03*
Y9921D02*
D03*
Y7953D02*
D03*
Y5984D02*
D03*
Y4016D02*
D03*
Y2047D02*
D03*
Y79D02*
D03*
Y-1890D02*
D03*
X43805D02*
D03*
Y79D02*
D03*
Y2047D02*
D03*
Y4016D02*
D03*
Y5984D02*
D03*
Y7953D02*
D03*
Y9921D02*
D03*
Y11890D02*
D03*
D34*
X31600Y5000D02*
D03*
D35*
X56447Y-3012D02*
D03*
X49754D02*
D03*
X9253Y45000D02*
D03*
X15947D02*
D03*
X59395Y5442D02*
D03*
X52702D02*
D03*
X8054Y15040D02*
D03*
X14747D02*
D03*
D36*
X9047Y55000D02*
D03*
X14953D02*
D03*
D37*
X121453Y-12100D02*
D03*
Y21900D02*
D03*
Y-40100D02*
D03*
Y49900D02*
D03*
D38*
X87319Y-21076D02*
D03*
Y-16588D02*
D03*
Y-7612D02*
D03*
Y-3124D02*
D03*
Y12924D02*
D03*
Y17412D02*
D03*
Y26388D02*
D03*
Y30876D02*
D03*
Y-49076D02*
D03*
Y-44588D02*
D03*
Y-35612D02*
D03*
Y-31124D02*
D03*
Y40924D02*
D03*
Y45412D02*
D03*
Y54388D02*
D03*
Y58876D02*
D03*
D39*
X23100Y-12468D02*
D03*
Y-19161D02*
D03*
Y22569D02*
D03*
Y29261D02*
D03*
X61988Y-7768D02*
D03*
Y-1075D02*
D03*
X44149Y-5511D02*
D03*
Y-12204D02*
D03*
D40*
X45858Y-27492D02*
D03*
X27159Y-43182D02*
D03*
D41*
X46439Y37065D02*
D03*
X27740Y52755D02*
D03*
D42*
X69349Y4753D02*
D03*
Y-7058D02*
D03*
X72400Y-49442D02*
D03*
Y-37631D02*
D03*
D43*
X62500Y13563D02*
D03*
X74311D02*
D03*
D44*
X66416Y32228D02*
D03*
X74768Y40579D02*
D03*
D45*
X23200Y39500D02*
D03*
Y-30300D02*
D03*
X140000Y0D02*
D03*
Y-10000D02*
D03*
Y-50000D02*
D03*
Y-40000D02*
D03*
Y-30000D02*
D03*
Y-20000D02*
D03*
X0Y50000D02*
D03*
Y60000D02*
D03*
Y-20000D02*
D03*
Y-30000D02*
D03*
Y-40000D02*
D03*
Y-50000D02*
D03*
X63600Y-44000D02*
D03*
X53600D02*
D03*
X140000Y60000D02*
D03*
Y50000D02*
D03*
X0Y40000D02*
D03*
Y30000D02*
D03*
Y-10000D02*
D03*
Y0D02*
D03*
Y10000D02*
D03*
Y20000D02*
D03*
D46*
X140000D02*
D03*
Y10000D02*
D03*
Y40000D02*
D03*
Y30000D02*
D03*
D47*
X35931Y5000D02*
D03*
Y669D02*
D03*
Y9331D02*
D03*
X31600D02*
D03*
Y5000D02*
D03*
Y669D02*
D03*
X27269Y9331D02*
D03*
Y5000D02*
D03*
Y669D02*
D03*
M02*
