G04*
G04 #@! TF.GenerationSoftware,Altium Limited,Altium Designer,18.1.7 (191)*
G04*
G04 Layer_Physical_Order=2*
G04 Layer_Color=36540*
%FSLAX25Y25*%
%MOIN*%
G70*
G01*
G75*
%ADD55C,0.05906*%
%ADD57C,0.02410*%
%ADD58C,0.02600*%
%ADD59C,0.02200*%
%ADD60C,0.02400*%
G36*
X136742Y62690D02*
X136311Y62130D01*
X135886Y61102D01*
X135741Y60000D01*
X135886Y58898D01*
X136311Y57870D01*
X136988Y56988D01*
X137870Y56311D01*
X138898Y55886D01*
X140000Y55741D01*
X141102Y55886D01*
X142130Y56311D01*
X142691Y56742D01*
X143191Y56495D01*
Y53100D01*
X142691Y52918D01*
X141993Y53453D01*
X141032Y53851D01*
X140750Y53888D01*
Y50000D01*
Y46112D01*
X141032Y46149D01*
X141993Y46547D01*
X142691Y47082D01*
X143191Y46900D01*
Y42779D01*
X142717Y42619D01*
X142674Y42674D01*
X141891Y43275D01*
X140979Y43653D01*
X140000Y43782D01*
X139021Y43653D01*
X138109Y43275D01*
X137326Y42674D01*
X136725Y41891D01*
X136347Y40979D01*
X136218Y40000D01*
X136347Y39021D01*
X136725Y38109D01*
X137326Y37326D01*
X138109Y36725D01*
X139021Y36347D01*
X140000Y36218D01*
X140979Y36347D01*
X141891Y36725D01*
X142674Y37326D01*
X142717Y37382D01*
X143191Y37221D01*
X143191Y32779D01*
X142717Y32618D01*
X142674Y32674D01*
X141891Y33275D01*
X140979Y33653D01*
X140000Y33782D01*
X139021Y33653D01*
X138109Y33275D01*
X137326Y32674D01*
X136725Y31891D01*
X136347Y30979D01*
X136218Y30000D01*
X136347Y29021D01*
X136725Y28109D01*
X137326Y27326D01*
X138109Y26725D01*
X139021Y26347D01*
X140000Y26218D01*
X140979Y26347D01*
X141891Y26725D01*
X142674Y27326D01*
X142717Y27382D01*
X143191Y27221D01*
Y22779D01*
X142717Y22618D01*
X142674Y22674D01*
X141891Y23275D01*
X140979Y23653D01*
X140000Y23782D01*
X139021Y23653D01*
X138109Y23275D01*
X137326Y22674D01*
X136725Y21891D01*
X136347Y20979D01*
X136218Y20000D01*
X136347Y19021D01*
X136725Y18109D01*
X137326Y17326D01*
X138109Y16725D01*
X139021Y16347D01*
X140000Y16218D01*
X140979Y16347D01*
X141891Y16725D01*
X142674Y17326D01*
X142717Y17381D01*
X143191Y17221D01*
Y12779D01*
X142717Y12619D01*
X142674Y12674D01*
X141891Y13275D01*
X140979Y13653D01*
X140000Y13782D01*
X139021Y13653D01*
X138109Y13275D01*
X137326Y12674D01*
X136725Y11891D01*
X136347Y10979D01*
X136218Y10000D01*
X136347Y9021D01*
X136725Y8109D01*
X137326Y7326D01*
X138109Y6725D01*
X139021Y6347D01*
X140000Y6218D01*
X140979Y6347D01*
X141891Y6725D01*
X142674Y7326D01*
X142717Y7381D01*
X143191Y7221D01*
X143190Y3100D01*
X142690Y2918D01*
X141993Y3453D01*
X141032Y3851D01*
X140750Y3888D01*
Y0D01*
Y-3888D01*
X141032Y-3851D01*
X141993Y-3453D01*
X142690Y-2918D01*
X143190Y-3100D01*
Y-6900D01*
X142690Y-7082D01*
X141993Y-6547D01*
X141032Y-6149D01*
X140750Y-6112D01*
Y-10000D01*
Y-13888D01*
X141032Y-13851D01*
X141993Y-13453D01*
X142690Y-12918D01*
X143190Y-13100D01*
Y-16900D01*
X142690Y-17082D01*
X141993Y-16547D01*
X141032Y-16149D01*
X140750Y-16112D01*
Y-20000D01*
Y-23888D01*
X141032Y-23851D01*
X141993Y-23453D01*
X142690Y-22918D01*
X143190Y-23100D01*
Y-26900D01*
X142690Y-27082D01*
X141993Y-26547D01*
X141032Y-26149D01*
X140750Y-26112D01*
Y-30000D01*
Y-33888D01*
X141032Y-33851D01*
X141993Y-33453D01*
X142690Y-32918D01*
X143190Y-33100D01*
Y-36900D01*
X142690Y-37082D01*
X141993Y-36547D01*
X141032Y-36149D01*
X140750Y-36112D01*
Y-40000D01*
Y-43888D01*
X141032Y-43851D01*
X141993Y-43453D01*
X142690Y-42918D01*
X143190Y-43100D01*
Y-46900D01*
X142690Y-47082D01*
X141993Y-46547D01*
X141032Y-46149D01*
X140750Y-46112D01*
Y-50000D01*
X140000D01*
Y-50750D01*
X136112D01*
X136149Y-51032D01*
X136547Y-51993D01*
X137082Y-52690D01*
X136900Y-53190D01*
X2499D01*
X2330Y-52690D01*
X2534Y-52534D01*
X3103Y-51792D01*
X3461Y-50927D01*
X3583Y-50000D01*
X3461Y-49073D01*
X3103Y-48208D01*
X2534Y-47466D01*
X1792Y-46897D01*
X927Y-46539D01*
X0Y-46417D01*
X-927Y-46539D01*
X-1792Y-46897D01*
X-2534Y-47466D01*
X-2691Y-47670D01*
X-3190Y-47501D01*
Y-42500D01*
X-2691Y-42330D01*
X-2534Y-42534D01*
X-1792Y-43103D01*
X-927Y-43461D01*
X0Y-43583D01*
X927Y-43461D01*
X1792Y-43103D01*
X2534Y-42534D01*
X3103Y-41792D01*
X3461Y-40927D01*
X3583Y-40000D01*
X3461Y-39073D01*
X3103Y-38208D01*
X2534Y-37466D01*
X1792Y-36897D01*
X927Y-36539D01*
X0Y-36417D01*
X-927Y-36539D01*
X-1792Y-36897D01*
X-2534Y-37466D01*
X-2691Y-37670D01*
X-3190Y-37501D01*
X-3190Y-32500D01*
X-2691Y-32330D01*
X-2534Y-32534D01*
X-1792Y-33103D01*
X-927Y-33461D01*
X0Y-33583D01*
X927Y-33461D01*
X1792Y-33103D01*
X2534Y-32534D01*
X3103Y-31792D01*
X3461Y-30927D01*
X3583Y-30000D01*
X3461Y-29073D01*
X3103Y-28208D01*
X2534Y-27466D01*
X1792Y-26897D01*
X927Y-26539D01*
X0Y-26417D01*
X-927Y-26539D01*
X-1792Y-26897D01*
X-2534Y-27466D01*
X-2691Y-27670D01*
X-3190Y-27501D01*
Y-23100D01*
X-2691Y-22918D01*
X-1993Y-23453D01*
X-1032Y-23851D01*
X-750Y-23888D01*
Y-20000D01*
Y-16112D01*
X-1032Y-16149D01*
X-1993Y-16547D01*
X-2691Y-17082D01*
X-3190Y-16900D01*
Y-12499D01*
X-2691Y-12330D01*
X-2534Y-12534D01*
X-1792Y-13103D01*
X-927Y-13461D01*
X0Y-13583D01*
X927Y-13461D01*
X1792Y-13103D01*
X2534Y-12534D01*
X3103Y-11792D01*
X3461Y-10927D01*
X3583Y-10000D01*
X3461Y-9072D01*
X3103Y-8208D01*
X2534Y-7466D01*
X1792Y-6897D01*
X927Y-6539D01*
X0Y-6417D01*
X-927Y-6539D01*
X-1792Y-6897D01*
X-2534Y-7466D01*
X-2691Y-7670D01*
X-3190Y-7501D01*
Y-2499D01*
X-2691Y-2330D01*
X-2534Y-2534D01*
X-1792Y-3103D01*
X-927Y-3461D01*
X0Y-3583D01*
X927Y-3461D01*
X1792Y-3103D01*
X2534Y-2534D01*
X3103Y-1792D01*
X3461Y-927D01*
X3583Y0D01*
X3461Y927D01*
X3103Y1792D01*
X2534Y2534D01*
X1792Y3103D01*
X927Y3461D01*
X0Y3583D01*
X-927Y3461D01*
X-1792Y3103D01*
X-2534Y2534D01*
X-2691Y2330D01*
X-3190Y2499D01*
Y7501D01*
X-2691Y7670D01*
X-2534Y7466D01*
X-1792Y6897D01*
X-927Y6539D01*
X0Y6417D01*
X927Y6539D01*
X1792Y6897D01*
X2534Y7466D01*
X3103Y8208D01*
X3461Y9072D01*
X3583Y10000D01*
X3461Y10927D01*
X3103Y11792D01*
X2534Y12534D01*
X1792Y13103D01*
X927Y13461D01*
X0Y13583D01*
X-927Y13461D01*
X-1792Y13103D01*
X-2534Y12534D01*
X-2691Y12330D01*
X-3190Y12499D01*
Y17501D01*
X-2691Y17670D01*
X-2534Y17466D01*
X-1792Y16897D01*
X-927Y16539D01*
X0Y16417D01*
X927Y16539D01*
X1792Y16897D01*
X2534Y17466D01*
X3103Y18208D01*
X3461Y19073D01*
X3583Y20000D01*
X3461Y20927D01*
X3103Y21792D01*
X2534Y22534D01*
X1792Y23103D01*
X927Y23461D01*
X0Y23583D01*
X-927Y23461D01*
X-1792Y23103D01*
X-2534Y22534D01*
X-2691Y22330D01*
X-3190Y22499D01*
Y27501D01*
X-2691Y27670D01*
X-2534Y27466D01*
X-1792Y26897D01*
X-927Y26539D01*
X0Y26417D01*
X927Y26539D01*
X1792Y26897D01*
X2534Y27466D01*
X3103Y28208D01*
X3461Y29073D01*
X3583Y30000D01*
X3461Y30927D01*
X3103Y31792D01*
X2534Y32534D01*
X1792Y33103D01*
X927Y33461D01*
X0Y33583D01*
X-927Y33461D01*
X-1792Y33103D01*
X-2534Y32534D01*
X-2691Y32330D01*
X-3190Y32499D01*
Y37501D01*
X-2691Y37670D01*
X-2534Y37466D01*
X-1792Y36897D01*
X-927Y36539D01*
X0Y36417D01*
X927Y36539D01*
X1792Y36897D01*
X2534Y37466D01*
X3103Y38208D01*
X3461Y39073D01*
X3583Y40000D01*
X3461Y40927D01*
X3103Y41792D01*
X2534Y42534D01*
X1792Y43103D01*
X927Y43461D01*
X0Y43583D01*
X-927Y43461D01*
X-1792Y43103D01*
X-2534Y42534D01*
X-2691Y42330D01*
X-3190Y42499D01*
Y46900D01*
X-2691Y47082D01*
X-1993Y46547D01*
X-1032Y46149D01*
X-750Y46112D01*
Y50000D01*
Y53888D01*
X-1032Y53851D01*
X-1993Y53453D01*
X-2691Y52918D01*
X-3190Y53100D01*
Y57501D01*
X-2691Y57670D01*
X-2534Y57466D01*
X-1792Y56897D01*
X-927Y56539D01*
X0Y56417D01*
X927Y56539D01*
X1792Y56897D01*
X2534Y57466D01*
X3103Y58208D01*
X3461Y59073D01*
X3583Y60000D01*
X3461Y60927D01*
X3103Y61792D01*
X2534Y62534D01*
X2330Y62690D01*
X2499Y63190D01*
X136495D01*
X136742Y62690D01*
D02*
G37*
%LPC*%
G36*
X129453Y61124D02*
X128985Y61030D01*
X128588Y60765D01*
X128323Y60368D01*
X128229Y59900D01*
X128323Y59432D01*
X128588Y59035D01*
X128985Y58770D01*
X129453Y58676D01*
X129921Y58770D01*
X130318Y59035D01*
X130583Y59432D01*
X130676Y59900D01*
X130583Y60368D01*
X130318Y60765D01*
X129921Y61030D01*
X129453Y61124D01*
D02*
G37*
G36*
X107453D02*
X106985Y61030D01*
X106588Y60765D01*
X106323Y60368D01*
X106229Y59900D01*
X106323Y59432D01*
X106588Y59035D01*
X106985Y58770D01*
X107453Y58676D01*
X107921Y58770D01*
X108318Y59035D01*
X108583Y59432D01*
X108677Y59900D01*
X108583Y60368D01*
X108318Y60765D01*
X107921Y61030D01*
X107453Y61124D01*
D02*
G37*
G36*
X80092Y60426D02*
X79584Y60325D01*
X79154Y60037D01*
X78867Y59607D01*
X78766Y59100D01*
X78841Y58723D01*
X78564Y58527D01*
X78398Y58464D01*
X78007Y58725D01*
X77500Y58825D01*
X76993Y58725D01*
X76563Y58437D01*
X76275Y58007D01*
X76174Y57500D01*
X76275Y56993D01*
X76563Y56563D01*
X76993Y56275D01*
X77500Y56174D01*
X78007Y56275D01*
X78437Y56563D01*
X78447Y56577D01*
X78451Y56583D01*
X78867Y56307D01*
X78766Y55800D01*
X78867Y55293D01*
X79154Y54863D01*
X79584Y54575D01*
X80092Y54475D01*
X80599Y54575D01*
X81029Y54863D01*
X81316Y55293D01*
X81417Y55800D01*
X81316Y56307D01*
X81029Y56737D01*
X80599Y57025D01*
X80092Y57126D01*
X79584Y57025D01*
X79154Y56737D01*
X79145Y56722D01*
X79141Y56717D01*
X78725Y56993D01*
X78825Y57500D01*
X78750Y57877D01*
X79027Y58073D01*
X79194Y58136D01*
X79584Y57875D01*
X80092Y57775D01*
X80599Y57875D01*
X81029Y58163D01*
X81316Y58593D01*
X81417Y59100D01*
X81316Y59607D01*
X81029Y60037D01*
X80599Y60325D01*
X80092Y60426D01*
D02*
G37*
G36*
X111453Y57124D02*
X110985Y57030D01*
X110588Y56765D01*
X110323Y56368D01*
X110229Y55900D01*
X110323Y55432D01*
X110588Y55035D01*
X110985Y54770D01*
X111453Y54677D01*
X111921Y54770D01*
X112318Y55035D01*
X112583Y55432D01*
X112677Y55900D01*
X112583Y56368D01*
X112318Y56765D01*
X111921Y57030D01*
X111453Y57124D01*
D02*
G37*
G36*
X129453Y56124D02*
X128985Y56030D01*
X128588Y55765D01*
X128323Y55368D01*
X128229Y54900D01*
X128323Y54432D01*
X128588Y54035D01*
X128985Y53770D01*
X129453Y53676D01*
X129921Y53770D01*
X130318Y54035D01*
X130583Y54432D01*
X130676Y54900D01*
X130583Y55368D01*
X130318Y55765D01*
X129921Y56030D01*
X129453Y56124D01*
D02*
G37*
G36*
X750Y53888D02*
Y50750D01*
X3888D01*
X3851Y51032D01*
X3453Y51993D01*
X2819Y52819D01*
X1993Y53453D01*
X1032Y53851D01*
X750Y53888D01*
D02*
G37*
G36*
X139250Y53888D02*
X138968Y53851D01*
X138007Y53453D01*
X137181Y52819D01*
X136547Y51993D01*
X136149Y51032D01*
X136112Y50750D01*
X139250D01*
Y53888D01*
D02*
G37*
G36*
X107453Y53123D02*
X106985Y53030D01*
X106588Y52765D01*
X106323Y52368D01*
X106229Y51900D01*
X106323Y51432D01*
X106588Y51035D01*
X106985Y50770D01*
X107453Y50677D01*
X107921Y50770D01*
X108318Y51035D01*
X108583Y51432D01*
X108677Y51900D01*
X108583Y52368D01*
X108318Y52765D01*
X107921Y53030D01*
X107453Y53123D01*
D02*
G37*
G36*
X129453Y51123D02*
X128985Y51030D01*
X128588Y50765D01*
X128323Y50368D01*
X128229Y49900D01*
X128323Y49432D01*
X128588Y49035D01*
X128985Y48770D01*
X129453Y48676D01*
X129921Y48770D01*
X130318Y49035D01*
X130583Y49432D01*
X130676Y49900D01*
X130583Y50368D01*
X130318Y50765D01*
X129921Y51030D01*
X129453Y51123D01*
D02*
G37*
G36*
X111453Y49123D02*
X110985Y49030D01*
X110588Y48765D01*
X110323Y48368D01*
X110229Y47900D01*
X110323Y47432D01*
X110588Y47035D01*
X110985Y46770D01*
X111453Y46676D01*
X111921Y46770D01*
X112318Y47035D01*
X112583Y47432D01*
X112677Y47900D01*
X112583Y48368D01*
X112318Y48765D01*
X111921Y49030D01*
X111453Y49123D01*
D02*
G37*
G36*
X78800Y48433D02*
X78137Y48301D01*
X77574Y47926D01*
X77199Y47363D01*
X77067Y46700D01*
X76992Y46625D01*
X76700Y46683D01*
X76037Y46551D01*
X75474Y46176D01*
X75099Y45613D01*
X74967Y44950D01*
X75099Y44287D01*
X75474Y43724D01*
X76037Y43349D01*
X76700Y43217D01*
X77142Y42820D01*
X77199Y42537D01*
X77574Y41974D01*
X78137Y41599D01*
X78800Y41467D01*
X79463Y41599D01*
X80026Y41974D01*
X80401Y42537D01*
X80533Y43200D01*
X80401Y43863D01*
X80026Y44426D01*
X79664Y44668D01*
Y45232D01*
X80026Y45474D01*
X80401Y46037D01*
X80533Y46700D01*
X80401Y47363D01*
X80026Y47926D01*
X79463Y48301D01*
X78800Y48433D01*
D02*
G37*
G36*
X139250Y49250D02*
X136112D01*
X136149Y48968D01*
X136547Y48007D01*
X137181Y47181D01*
X138007Y46547D01*
X138968Y46149D01*
X139250Y46112D01*
Y49250D01*
D02*
G37*
G36*
X3888D02*
X750D01*
Y46112D01*
X1032Y46149D01*
X1993Y46547D01*
X2819Y47181D01*
X3453Y48007D01*
X3851Y48968D01*
X3888Y49250D01*
D02*
G37*
G36*
X129453Y46123D02*
X128985Y46030D01*
X128588Y45765D01*
X128323Y45368D01*
X128229Y44900D01*
X128323Y44432D01*
X128588Y44035D01*
X128985Y43770D01*
X129453Y43676D01*
X129921Y43770D01*
X130318Y44035D01*
X130583Y44432D01*
X130676Y44900D01*
X130583Y45368D01*
X130318Y45765D01*
X129921Y46030D01*
X129453Y46123D01*
D02*
G37*
G36*
X107453Y45123D02*
X106985Y45030D01*
X106588Y44765D01*
X106323Y44368D01*
X106229Y43900D01*
X106323Y43432D01*
X106588Y43035D01*
X106985Y42770D01*
X107453Y42676D01*
X107921Y42770D01*
X108318Y43035D01*
X108583Y43432D01*
X108677Y43900D01*
X108583Y44368D01*
X108318Y44765D01*
X107921Y45030D01*
X107453Y45123D01*
D02*
G37*
G36*
X129453Y41124D02*
X128985Y41030D01*
X128588Y40765D01*
X128323Y40368D01*
X128229Y39900D01*
X128323Y39432D01*
X128588Y39035D01*
X128985Y38770D01*
X129453Y38677D01*
X129921Y38770D01*
X130318Y39035D01*
X130583Y39432D01*
X130676Y39900D01*
X130583Y40368D01*
X130318Y40765D01*
X129921Y41030D01*
X129453Y41124D01*
D02*
G37*
G36*
X111453D02*
X110985Y41030D01*
X110588Y40765D01*
X110323Y40368D01*
X110229Y39900D01*
X110323Y39432D01*
X110588Y39035D01*
X110985Y38770D01*
X111453Y38677D01*
X111921Y38770D01*
X112318Y39035D01*
X112583Y39432D01*
X112677Y39900D01*
X112583Y40368D01*
X112318Y40765D01*
X111921Y41030D01*
X111453Y41124D01*
D02*
G37*
G36*
X15049Y39318D02*
X14581Y39225D01*
X14184Y38960D01*
X13919Y38563D01*
X13826Y38094D01*
X13919Y37626D01*
X14184Y37229D01*
X14581Y36964D01*
X15049Y36871D01*
X15518Y36964D01*
X15915Y37229D01*
X16180Y37626D01*
X16273Y38094D01*
X16180Y38563D01*
X15915Y38960D01*
X15518Y39225D01*
X15049Y39318D01*
D02*
G37*
G36*
X22888Y43070D02*
X21974Y42867D01*
X21145Y42435D01*
X20455Y41803D01*
X19952Y41014D01*
X19671Y40122D01*
X19630Y39188D01*
X19833Y38274D01*
X20265Y37445D01*
X20897Y36755D01*
X21686Y36252D01*
X22578Y35971D01*
X23512Y35930D01*
X24426Y36133D01*
X25255Y36565D01*
X25945Y37197D01*
X26448Y37986D01*
X26729Y38878D01*
X26770Y39812D01*
X26567Y40726D01*
X26135Y41555D01*
X25503Y42245D01*
X24714Y42748D01*
X23822Y43029D01*
X22888Y43070D01*
D02*
G37*
G36*
X84105Y36226D02*
X83598Y36125D01*
X83168Y35837D01*
X82881Y35407D01*
X82780Y34900D01*
X82881Y34393D01*
X83168Y33963D01*
X83598Y33675D01*
X84105Y33575D01*
X84613Y33675D01*
X85043Y33963D01*
X85330Y34393D01*
X85431Y34900D01*
X85330Y35407D01*
X85043Y35837D01*
X84613Y36125D01*
X84105Y36226D01*
D02*
G37*
G36*
X87319Y36202D02*
X86812Y36101D01*
X86382Y35814D01*
X86094Y35384D01*
X85994Y34876D01*
X86094Y34369D01*
X86382Y33939D01*
X86812Y33652D01*
X87319Y33551D01*
X87826Y33652D01*
X88256Y33939D01*
X88544Y34369D01*
X88645Y34876D01*
X88544Y35384D01*
X88256Y35814D01*
X87826Y36101D01*
X87319Y36202D01*
D02*
G37*
G36*
X90533Y36178D02*
X90026Y36077D01*
X89595Y35790D01*
X89308Y35360D01*
X89207Y34853D01*
X89308Y34345D01*
X89595Y33915D01*
X90026Y33628D01*
X90533Y33527D01*
X91040Y33628D01*
X91470Y33915D01*
X91757Y34345D01*
X91858Y34853D01*
X91757Y35360D01*
X91470Y35790D01*
X91040Y36077D01*
X90533Y36178D01*
D02*
G37*
G36*
X129453Y33123D02*
X128985Y33030D01*
X128588Y32765D01*
X128323Y32368D01*
X128229Y31900D01*
X128323Y31432D01*
X128588Y31035D01*
X128985Y30770D01*
X129453Y30676D01*
X129921Y30770D01*
X130318Y31035D01*
X130583Y31432D01*
X130676Y31900D01*
X130583Y32368D01*
X130318Y32765D01*
X129921Y33030D01*
X129453Y33123D01*
D02*
G37*
G36*
X111453D02*
X110985Y33030D01*
X110588Y32765D01*
X110323Y32368D01*
X110229Y31900D01*
X110323Y31432D01*
X110588Y31035D01*
X110985Y30770D01*
X111453Y30676D01*
X111921Y30770D01*
X112318Y31035D01*
X112583Y31432D01*
X112677Y31900D01*
X112583Y32368D01*
X112318Y32765D01*
X111921Y33030D01*
X111453Y33123D01*
D02*
G37*
G36*
X107453Y29123D02*
X106985Y29030D01*
X106588Y28765D01*
X106323Y28368D01*
X106229Y27900D01*
X106323Y27432D01*
X106588Y27035D01*
X106985Y26770D01*
X107453Y26676D01*
X107921Y26770D01*
X108318Y27035D01*
X108583Y27432D01*
X108677Y27900D01*
X108583Y28368D01*
X108318Y28765D01*
X107921Y29030D01*
X107453Y29123D01*
D02*
G37*
G36*
X129453Y28124D02*
X128985Y28030D01*
X128588Y27765D01*
X128323Y27368D01*
X128229Y26900D01*
X128323Y26432D01*
X128588Y26035D01*
X128985Y25770D01*
X129453Y25677D01*
X129921Y25770D01*
X130318Y26035D01*
X130583Y26432D01*
X130676Y26900D01*
X130583Y27368D01*
X130318Y27765D01*
X129921Y28030D01*
X129453Y28124D01*
D02*
G37*
G36*
X61400Y26524D02*
X60932Y26430D01*
X60535Y26165D01*
X60270Y25768D01*
X60176Y25300D01*
X60270Y24832D01*
X60535Y24435D01*
X60932Y24170D01*
X61400Y24077D01*
X61868Y24170D01*
X62265Y24435D01*
X62530Y24832D01*
X62624Y25300D01*
X62530Y25768D01*
X62265Y26165D01*
X61868Y26430D01*
X61400Y26524D01*
D02*
G37*
G36*
X31600Y24623D02*
X31132Y24530D01*
X30735Y24265D01*
X30470Y23868D01*
X30429Y23662D01*
X30028Y23615D01*
X29912Y23630D01*
X29665Y24001D01*
X29268Y24266D01*
X28800Y24359D01*
X28332Y24266D01*
X27935Y24001D01*
X27670Y23604D01*
X27577Y23135D01*
X27670Y22667D01*
X27935Y22270D01*
X28332Y22005D01*
X28800Y21912D01*
X29268Y22005D01*
X29665Y22270D01*
X29930Y22667D01*
X29971Y22873D01*
X30372Y22920D01*
X30487Y22905D01*
X30735Y22535D01*
X31132Y22270D01*
X31600Y22176D01*
X32068Y22270D01*
X32465Y22535D01*
X32730Y22932D01*
X32824Y23400D01*
X32730Y23868D01*
X32465Y24265D01*
X32068Y24530D01*
X31600Y24623D01*
D02*
G37*
G36*
X111453Y25124D02*
X110985Y25030D01*
X110588Y24765D01*
X110323Y24368D01*
X110229Y23900D01*
X110323Y23432D01*
X110588Y23035D01*
X110985Y22770D01*
X111453Y22677D01*
X111921Y22770D01*
X112318Y23035D01*
X112583Y23432D01*
X112677Y23900D01*
X112583Y24368D01*
X112318Y24765D01*
X111921Y25030D01*
X111453Y25124D01*
D02*
G37*
G36*
X129453Y23123D02*
X128985Y23030D01*
X128588Y22765D01*
X128323Y22368D01*
X128229Y21900D01*
X128323Y21432D01*
X128588Y21035D01*
X128985Y20770D01*
X129453Y20676D01*
X129921Y20770D01*
X130318Y21035D01*
X130583Y21432D01*
X130676Y21900D01*
X130583Y22368D01*
X130318Y22765D01*
X129921Y23030D01*
X129453Y23123D01*
D02*
G37*
G36*
X84105Y23169D02*
X83442Y23037D01*
X82880Y22661D01*
X82504Y22099D01*
X82372Y21435D01*
X82504Y20772D01*
X82880Y20210D01*
X83442Y19834D01*
X84105Y19702D01*
X84769Y19834D01*
X85331Y20210D01*
X85404Y20319D01*
X86005D01*
X86093Y20186D01*
X86656Y19811D01*
X87319Y19679D01*
X87982Y19811D01*
X88545Y20186D01*
X88617Y20295D01*
X89219D01*
X89307Y20163D01*
X89869Y19787D01*
X90533Y19655D01*
X91196Y19787D01*
X91758Y20163D01*
X92134Y20725D01*
X92266Y21388D01*
X92134Y22051D01*
X91758Y22614D01*
X91196Y22989D01*
X90533Y23122D01*
X89869Y22989D01*
X89307Y22614D01*
X89235Y22505D01*
X88633D01*
X88545Y22637D01*
X87982Y23013D01*
X87319Y23145D01*
X86656Y23013D01*
X86093Y22637D01*
X86021Y22529D01*
X85419D01*
X85331Y22661D01*
X84769Y23037D01*
X84105Y23169D01*
D02*
G37*
G36*
X62400Y21887D02*
X61932Y21794D01*
X61535Y21529D01*
X61270Y21132D01*
X61177Y20664D01*
X61270Y20196D01*
X61535Y19799D01*
X61932Y19533D01*
X62400Y19440D01*
X62868Y19533D01*
X63265Y19799D01*
X63530Y20196D01*
X63623Y20664D01*
X63530Y21132D01*
X63265Y21529D01*
X62868Y21794D01*
X62400Y21887D01*
D02*
G37*
G36*
X107453Y21124D02*
X106985Y21030D01*
X106588Y20765D01*
X106323Y20368D01*
X106229Y19900D01*
X106323Y19432D01*
X106588Y19035D01*
X106985Y18770D01*
X107453Y18677D01*
X107921Y18770D01*
X108318Y19035D01*
X108583Y19432D01*
X108677Y19900D01*
X108583Y20368D01*
X108318Y20765D01*
X107921Y21030D01*
X107453Y21124D01*
D02*
G37*
G36*
X129453Y18124D02*
X128985Y18030D01*
X128588Y17765D01*
X128323Y17368D01*
X128229Y16900D01*
X128323Y16432D01*
X128588Y16035D01*
X128985Y15770D01*
X129453Y15676D01*
X129921Y15770D01*
X130318Y16035D01*
X130583Y16432D01*
X130676Y16900D01*
X130583Y17368D01*
X130318Y17765D01*
X129921Y18030D01*
X129453Y18124D01*
D02*
G37*
G36*
X111453Y17123D02*
X110985Y17030D01*
X110588Y16765D01*
X110323Y16368D01*
X110229Y15900D01*
X110323Y15432D01*
X110588Y15035D01*
X110985Y14770D01*
X111453Y14676D01*
X111921Y14770D01*
X112318Y15035D01*
X112583Y15432D01*
X112677Y15900D01*
X112583Y16368D01*
X112318Y16765D01*
X111921Y17030D01*
X111453Y17123D01*
D02*
G37*
G36*
X107453Y13124D02*
X106985Y13030D01*
X106588Y12765D01*
X106323Y12368D01*
X106229Y11900D01*
X106323Y11432D01*
X106588Y11035D01*
X106985Y10770D01*
X107453Y10677D01*
X107921Y10770D01*
X108318Y11035D01*
X108583Y11432D01*
X108677Y11900D01*
X108583Y12368D01*
X108318Y12765D01*
X107921Y13030D01*
X107453Y13124D01*
D02*
G37*
G36*
X77600Y15233D02*
X76937Y15101D01*
X76374Y14726D01*
X75999Y14163D01*
X75867Y13500D01*
X75999Y12837D01*
X76374Y12274D01*
X76927Y11905D01*
X77040Y11820D01*
X77205Y11421D01*
X77199Y11412D01*
X77067Y10749D01*
X77199Y10086D01*
X77574Y9523D01*
X78137Y9148D01*
X78800Y9015D01*
X79463Y9148D01*
X80026Y9523D01*
X80401Y10086D01*
X80533Y10749D01*
X80401Y11412D01*
X80026Y11975D01*
X79473Y12344D01*
X79360Y12429D01*
X79195Y12827D01*
X79201Y12837D01*
X79333Y13500D01*
X79201Y14163D01*
X78826Y14726D01*
X78263Y15101D01*
X77600Y15233D01*
D02*
G37*
G36*
X13400Y11224D02*
X12932Y11130D01*
X12535Y10865D01*
X12270Y10468D01*
X12177Y10000D01*
X12270Y9532D01*
X12535Y9135D01*
X12932Y8870D01*
X13400Y8777D01*
X13868Y8870D01*
X14265Y9135D01*
X14530Y9532D01*
X14624Y10000D01*
X14530Y10468D01*
X14265Y10865D01*
X13868Y11130D01*
X13400Y11224D01*
D02*
G37*
G36*
X51188Y10587D02*
X50720Y10494D01*
X50323Y10228D01*
X50058Y9832D01*
X49965Y9363D01*
X50058Y8895D01*
X50323Y8498D01*
X50720Y8233D01*
X51188Y8140D01*
X51657Y8233D01*
X52053Y8498D01*
X52319Y8895D01*
X52412Y9363D01*
X52319Y9832D01*
X52053Y10228D01*
X51657Y10494D01*
X51188Y10587D01*
D02*
G37*
G36*
X75700Y9233D02*
X75037Y9101D01*
X74474Y8726D01*
X74099Y8163D01*
X73967Y7500D01*
X74099Y6837D01*
X74474Y6274D01*
X75037Y5899D01*
X75700Y5767D01*
X76363Y5899D01*
X76926Y6274D01*
X77301Y6837D01*
X77433Y7500D01*
X77301Y8163D01*
X76926Y8726D01*
X76363Y9101D01*
X75700Y9233D01*
D02*
G37*
G36*
X13800Y5023D02*
X13332Y4930D01*
X12935Y4665D01*
X12670Y4268D01*
X12576Y3800D01*
X12670Y3332D01*
X12935Y2935D01*
X13332Y2670D01*
X13800Y2576D01*
X14268Y2670D01*
X14665Y2935D01*
X14930Y3332D01*
X15023Y3800D01*
X14930Y4268D01*
X14665Y4665D01*
X14268Y4930D01*
X13800Y5023D01*
D02*
G37*
G36*
X139250Y3888D02*
X138968Y3851D01*
X138007Y3453D01*
X137181Y2819D01*
X136547Y1993D01*
X136149Y1032D01*
X136112Y750D01*
X139250D01*
Y3888D01*
D02*
G37*
G36*
X48300Y4912D02*
X47832Y4819D01*
X47435Y4554D01*
X47170Y4157D01*
X47076Y3689D01*
X47170Y3220D01*
X47435Y2823D01*
X47832Y2558D01*
X48006Y2524D01*
X48029Y2067D01*
X48020Y2011D01*
X47635Y1754D01*
X47370Y1357D01*
X47276Y889D01*
X47370Y420D01*
X47635Y23D01*
X48032Y-242D01*
X48500Y-335D01*
X48968Y-242D01*
X49365Y23D01*
X49630Y420D01*
X49724Y889D01*
X49630Y1357D01*
X49365Y1754D01*
X48968Y2019D01*
X48794Y2054D01*
X48771Y2510D01*
X48780Y2566D01*
X49165Y2823D01*
X49430Y3220D01*
X49523Y3689D01*
X49430Y4157D01*
X49165Y4554D01*
X48768Y4819D01*
X48300Y4912D01*
D02*
G37*
G36*
X84105Y1825D02*
X83598Y1725D01*
X83168Y1437D01*
X82881Y1007D01*
X82780Y500D01*
X82881Y-7D01*
X83168Y-437D01*
X83598Y-725D01*
X84105Y-826D01*
X84613Y-725D01*
X85043Y-437D01*
X85330Y-7D01*
X85431Y500D01*
X85330Y1007D01*
X85043Y1437D01*
X84613Y1725D01*
X84105Y1825D01*
D02*
G37*
G36*
X87319Y1802D02*
X86812Y1701D01*
X86382Y1414D01*
X86094Y984D01*
X85994Y476D01*
X86094Y-31D01*
X86382Y-461D01*
X86812Y-748D01*
X87319Y-849D01*
X87826Y-748D01*
X88256Y-461D01*
X88544Y-31D01*
X88645Y476D01*
X88544Y984D01*
X88256Y1414D01*
X87826Y1701D01*
X87319Y1802D01*
D02*
G37*
G36*
X90533Y1778D02*
X90026Y1677D01*
X89595Y1390D01*
X89308Y960D01*
X89207Y453D01*
X89308Y-55D01*
X89595Y-484D01*
X90026Y-772D01*
X90533Y-873D01*
X91040Y-772D01*
X91470Y-484D01*
X91757Y-55D01*
X91858Y453D01*
X91757Y960D01*
X91470Y1390D01*
X91040Y1677D01*
X90533Y1778D01*
D02*
G37*
G36*
X129453Y-876D02*
X128985Y-970D01*
X128588Y-1235D01*
X128323Y-1632D01*
X128229Y-2100D01*
X128323Y-2568D01*
X128588Y-2965D01*
X128985Y-3230D01*
X129453Y-3323D01*
X129921Y-3230D01*
X130318Y-2965D01*
X130583Y-2568D01*
X130676Y-2100D01*
X130583Y-1632D01*
X130318Y-1235D01*
X129921Y-970D01*
X129453Y-876D01*
D02*
G37*
G36*
X111453D02*
X110985Y-970D01*
X110588Y-1235D01*
X110323Y-1632D01*
X110229Y-2100D01*
X110323Y-2568D01*
X110588Y-2965D01*
X110985Y-3230D01*
X111453Y-3323D01*
X111921Y-3230D01*
X112318Y-2965D01*
X112583Y-2568D01*
X112677Y-2100D01*
X112583Y-1632D01*
X112318Y-1235D01*
X111921Y-970D01*
X111453Y-876D01*
D02*
G37*
G36*
X139250Y-750D02*
X136112D01*
X136149Y-1032D01*
X136547Y-1993D01*
X137181Y-2819D01*
X138007Y-3453D01*
X138968Y-3851D01*
X139250Y-3888D01*
Y-750D01*
D02*
G37*
G36*
X69349Y-1525D02*
X68686Y-1657D01*
X68123Y-2032D01*
X67747Y-2595D01*
X67615Y-3258D01*
X67747Y-3921D01*
X68123Y-4484D01*
X68686Y-4859D01*
X69349Y-4991D01*
X70012Y-4859D01*
X70574Y-4484D01*
X70950Y-3921D01*
X71082Y-3258D01*
X70950Y-2595D01*
X70574Y-2032D01*
X70012Y-1657D01*
X69349Y-1525D01*
D02*
G37*
G36*
X50600Y-5825D02*
X49937Y-5957D01*
X49374Y-6332D01*
X49346Y-6374D01*
X49026D01*
X48463Y-5999D01*
X47800Y-5867D01*
X47137Y-5999D01*
X46574Y-6374D01*
X46199Y-6937D01*
X46067Y-7600D01*
X46199Y-8263D01*
X46574Y-8826D01*
X47137Y-9201D01*
X47800Y-9333D01*
X48463Y-9201D01*
X49026Y-8826D01*
X49054Y-8783D01*
X49374D01*
X49937Y-9159D01*
X50600Y-9291D01*
X51263Y-9159D01*
X51826Y-8783D01*
X52201Y-8221D01*
X52333Y-7558D01*
X52201Y-6895D01*
X51826Y-6332D01*
X51263Y-5957D01*
X50600Y-5825D01*
D02*
G37*
G36*
X107453Y-4876D02*
X106985Y-4970D01*
X106588Y-5235D01*
X106323Y-5632D01*
X106229Y-6100D01*
X106323Y-6568D01*
X106588Y-6965D01*
X106985Y-7230D01*
X107453Y-7323D01*
X107921Y-7230D01*
X108318Y-6965D01*
X108583Y-6568D01*
X108677Y-6100D01*
X108583Y-5632D01*
X108318Y-5235D01*
X107921Y-4970D01*
X107453Y-4876D01*
D02*
G37*
G36*
X18900Y-5277D02*
X18432Y-5370D01*
X18035Y-5635D01*
X17770Y-6032D01*
X17676Y-6500D01*
X17770Y-6968D01*
X18035Y-7365D01*
X18432Y-7630D01*
X18900Y-7723D01*
X19368Y-7630D01*
X19765Y-7365D01*
X20030Y-6968D01*
X20123Y-6500D01*
X20030Y-6032D01*
X19765Y-5635D01*
X19368Y-5370D01*
X18900Y-5277D01*
D02*
G37*
G36*
X129453Y-5877D02*
X128985Y-5970D01*
X128588Y-6235D01*
X128323Y-6632D01*
X128229Y-7100D01*
X128323Y-7568D01*
X128588Y-7965D01*
X128985Y-8230D01*
X129453Y-8324D01*
X129921Y-8230D01*
X130318Y-7965D01*
X130583Y-7568D01*
X130676Y-7100D01*
X130583Y-6632D01*
X130318Y-6235D01*
X129921Y-5970D01*
X129453Y-5877D01*
D02*
G37*
G36*
X74549Y-5325D02*
X73886Y-5457D01*
X73323Y-5832D01*
X72947Y-6395D01*
X72816Y-7058D01*
X72947Y-7721D01*
X73323Y-8283D01*
X73886Y-8659D01*
X74549Y-8791D01*
X75212Y-8659D01*
X75774Y-8283D01*
X76150Y-7721D01*
X76282Y-7058D01*
X76150Y-6395D01*
X75774Y-5832D01*
X75212Y-5457D01*
X74549Y-5325D01*
D02*
G37*
G36*
X139250Y-6112D02*
X138968Y-6149D01*
X138007Y-6547D01*
X137181Y-7181D01*
X136547Y-8007D01*
X136149Y-8968D01*
X136112Y-9250D01*
X139250D01*
Y-6112D01*
D02*
G37*
G36*
X79300Y-7377D02*
X78832Y-7470D01*
X78435Y-7735D01*
X78170Y-8132D01*
X78076Y-8600D01*
X78170Y-9068D01*
X78435Y-9465D01*
X78832Y-9730D01*
X79300Y-9824D01*
X79768Y-9730D01*
X80165Y-9465D01*
X80430Y-9068D01*
X80524Y-8600D01*
X80430Y-8132D01*
X80165Y-7735D01*
X79768Y-7470D01*
X79300Y-7377D01*
D02*
G37*
G36*
X111453Y-8877D02*
X110985Y-8970D01*
X110588Y-9235D01*
X110323Y-9632D01*
X110229Y-10100D01*
X110323Y-10568D01*
X110588Y-10965D01*
X110985Y-11230D01*
X111453Y-11323D01*
X111921Y-11230D01*
X112318Y-10965D01*
X112583Y-10568D01*
X112677Y-10100D01*
X112583Y-9632D01*
X112318Y-9235D01*
X111921Y-8970D01*
X111453Y-8877D01*
D02*
G37*
G36*
X129453Y-10876D02*
X128985Y-10970D01*
X128588Y-11235D01*
X128323Y-11632D01*
X128229Y-12100D01*
X128323Y-12568D01*
X128588Y-12965D01*
X128985Y-13230D01*
X129453Y-13323D01*
X129921Y-13230D01*
X130318Y-12965D01*
X130583Y-12568D01*
X130676Y-12100D01*
X130583Y-11632D01*
X130318Y-11235D01*
X129921Y-10970D01*
X129453Y-10876D01*
D02*
G37*
G36*
X139250Y-10750D02*
X136112D01*
X136149Y-11032D01*
X136547Y-11993D01*
X137181Y-12819D01*
X138007Y-13453D01*
X138968Y-13851D01*
X139250Y-13888D01*
Y-10750D01*
D02*
G37*
G36*
X79418Y-12867D02*
X78754Y-12999D01*
X78192Y-13374D01*
X77816Y-13937D01*
X77232Y-14309D01*
X77018Y-14267D01*
X76354Y-14399D01*
X75792Y-14774D01*
X75416Y-15337D01*
X75284Y-16000D01*
X75416Y-16663D01*
X75792Y-17226D01*
X76354Y-17601D01*
X77018Y-17733D01*
X77215Y-17694D01*
X77799Y-18063D01*
X78174Y-18626D01*
X78737Y-19001D01*
X79400Y-19133D01*
X80063Y-19001D01*
X80626Y-18626D01*
X81001Y-18063D01*
X81133Y-17400D01*
X81001Y-16737D01*
X80626Y-16174D01*
X80755Y-15659D01*
X81019Y-15263D01*
X81151Y-14600D01*
X81019Y-13937D01*
X80643Y-13374D01*
X80081Y-12999D01*
X79418Y-12867D01*
D02*
G37*
G36*
X107453Y-12877D02*
X106985Y-12970D01*
X106588Y-13235D01*
X106323Y-13632D01*
X106229Y-14100D01*
X106323Y-14568D01*
X106588Y-14965D01*
X106985Y-15230D01*
X107453Y-15324D01*
X107921Y-15230D01*
X108318Y-14965D01*
X108583Y-14568D01*
X108677Y-14100D01*
X108583Y-13632D01*
X108318Y-13235D01*
X107921Y-12970D01*
X107453Y-12877D01*
D02*
G37*
G36*
X29810Y-14566D02*
X29342Y-14659D01*
X28945Y-14924D01*
X28680Y-15321D01*
X28586Y-15789D01*
X28680Y-16258D01*
X28945Y-16655D01*
X29342Y-16920D01*
X29810Y-17013D01*
X30278Y-16920D01*
X30675Y-16655D01*
X30940Y-16258D01*
X31033Y-15789D01*
X30940Y-15321D01*
X30675Y-14924D01*
X30278Y-14659D01*
X29810Y-14566D01*
D02*
G37*
G36*
X26817Y-14577D02*
X26349Y-14670D01*
X25952Y-14935D01*
X25687Y-15332D01*
X25594Y-15800D01*
X25687Y-16268D01*
X25952Y-16665D01*
X26349Y-16930D01*
X26817Y-17023D01*
X27285Y-16930D01*
X27682Y-16665D01*
X27947Y-16268D01*
X28041Y-15800D01*
X27947Y-15332D01*
X27682Y-14935D01*
X27285Y-14670D01*
X26817Y-14577D01*
D02*
G37*
G36*
X35909Y-14840D02*
X35440Y-14933D01*
X35044Y-15198D01*
X34778Y-15595D01*
X34685Y-16063D01*
X34778Y-16532D01*
X35044Y-16929D01*
X35440Y-17194D01*
X35909Y-17287D01*
X36377Y-17194D01*
X36774Y-16929D01*
X37039Y-16532D01*
X37132Y-16063D01*
X37039Y-15595D01*
X36774Y-15198D01*
X36377Y-14933D01*
X35909Y-14840D01*
D02*
G37*
G36*
X32810Y-14866D02*
X32342Y-14959D01*
X31945Y-15224D01*
X31680Y-15621D01*
X31586Y-16089D01*
X31680Y-16558D01*
X31945Y-16955D01*
X32342Y-17220D01*
X32810Y-17313D01*
X33278Y-17220D01*
X33675Y-16955D01*
X33940Y-16558D01*
X34033Y-16089D01*
X33940Y-15621D01*
X33675Y-15224D01*
X33278Y-14959D01*
X32810Y-14866D01*
D02*
G37*
G36*
X129453Y-15877D02*
X128985Y-15970D01*
X128588Y-16235D01*
X128323Y-16632D01*
X128229Y-17100D01*
X128323Y-17568D01*
X128588Y-17965D01*
X128985Y-18230D01*
X129453Y-18324D01*
X129921Y-18230D01*
X130318Y-17965D01*
X130583Y-17568D01*
X130676Y-17100D01*
X130583Y-16632D01*
X130318Y-16235D01*
X129921Y-15970D01*
X129453Y-15877D01*
D02*
G37*
G36*
X750Y-16112D02*
Y-19250D01*
X3888D01*
X3851Y-18968D01*
X3453Y-18007D01*
X2819Y-17181D01*
X1993Y-16547D01*
X1032Y-16149D01*
X750Y-16112D01*
D02*
G37*
G36*
X139250Y-16112D02*
X138968Y-16149D01*
X138007Y-16547D01*
X137181Y-17181D01*
X136547Y-18007D01*
X136149Y-18968D01*
X136112Y-19250D01*
X139250D01*
Y-16112D01*
D02*
G37*
G36*
X111453Y-16876D02*
X110985Y-16970D01*
X110588Y-17235D01*
X110323Y-17632D01*
X110229Y-18100D01*
X110323Y-18568D01*
X110588Y-18965D01*
X110985Y-19230D01*
X111453Y-19323D01*
X111921Y-19230D01*
X112318Y-18965D01*
X112583Y-18568D01*
X112677Y-18100D01*
X112583Y-17632D01*
X112318Y-17235D01*
X111921Y-16970D01*
X111453Y-16876D01*
D02*
G37*
G36*
X58700Y-17676D02*
X58232Y-17770D01*
X57835Y-18035D01*
X57570Y-18432D01*
X57477Y-18900D01*
X57570Y-19368D01*
X57835Y-19765D01*
X58232Y-20030D01*
X58700Y-20123D01*
X59168Y-20030D01*
X59565Y-19765D01*
X59830Y-19368D01*
X59923Y-18900D01*
X59830Y-18432D01*
X59565Y-18035D01*
X59168Y-17770D01*
X58700Y-17676D01*
D02*
G37*
G36*
X129453Y-20877D02*
X128985Y-20970D01*
X128588Y-21235D01*
X128323Y-21632D01*
X128229Y-22100D01*
X128323Y-22568D01*
X128588Y-22965D01*
X128985Y-23230D01*
X129453Y-23324D01*
X129921Y-23230D01*
X130318Y-22965D01*
X130583Y-22568D01*
X130676Y-22100D01*
X130583Y-21632D01*
X130318Y-21235D01*
X129921Y-20970D01*
X129453Y-20877D01*
D02*
G37*
G36*
X107453D02*
X106985Y-20970D01*
X106588Y-21235D01*
X106323Y-21632D01*
X106229Y-22100D01*
X106323Y-22568D01*
X106588Y-22965D01*
X106985Y-23230D01*
X107453Y-23324D01*
X107921Y-23230D01*
X108318Y-22965D01*
X108583Y-22568D01*
X108677Y-22100D01*
X108583Y-21632D01*
X108318Y-21235D01*
X107921Y-20970D01*
X107453Y-20877D01*
D02*
G37*
G36*
X139250Y-20750D02*
X136112D01*
X136149Y-21032D01*
X136547Y-21993D01*
X137181Y-22819D01*
X138007Y-23453D01*
X138968Y-23851D01*
X139250Y-23888D01*
Y-20750D01*
D02*
G37*
G36*
X3888D02*
X750D01*
Y-23888D01*
X1032Y-23851D01*
X1993Y-23453D01*
X2819Y-22819D01*
X3453Y-21993D01*
X3851Y-21032D01*
X3888Y-20750D01*
D02*
G37*
G36*
X84105Y-25774D02*
X83598Y-25875D01*
X83168Y-26163D01*
X82881Y-26593D01*
X82780Y-27100D01*
X82881Y-27607D01*
X83168Y-28037D01*
X83598Y-28325D01*
X84105Y-28425D01*
X84613Y-28325D01*
X85043Y-28037D01*
X85330Y-27607D01*
X85431Y-27100D01*
X85330Y-26593D01*
X85043Y-26163D01*
X84613Y-25875D01*
X84105Y-25774D01*
D02*
G37*
G36*
X87319Y-25798D02*
X86812Y-25899D01*
X86382Y-26186D01*
X86094Y-26616D01*
X85994Y-27124D01*
X86094Y-27631D01*
X86382Y-28061D01*
X86812Y-28348D01*
X87319Y-28449D01*
X87826Y-28348D01*
X88256Y-28061D01*
X88544Y-27631D01*
X88645Y-27124D01*
X88544Y-26616D01*
X88256Y-26186D01*
X87826Y-25899D01*
X87319Y-25798D01*
D02*
G37*
G36*
X90533Y-25822D02*
X90026Y-25923D01*
X89595Y-26210D01*
X89308Y-26640D01*
X89207Y-27147D01*
X89308Y-27654D01*
X89595Y-28084D01*
X90026Y-28372D01*
X90533Y-28473D01*
X91040Y-28372D01*
X91470Y-28084D01*
X91757Y-27654D01*
X91858Y-27147D01*
X91757Y-26640D01*
X91470Y-26210D01*
X91040Y-25923D01*
X90533Y-25822D01*
D02*
G37*
G36*
X139250Y-26112D02*
X138968Y-26149D01*
X138007Y-26547D01*
X137181Y-27181D01*
X136547Y-28007D01*
X136149Y-28968D01*
X136112Y-29250D01*
X139250D01*
Y-26112D01*
D02*
G37*
G36*
X129453Y-28877D02*
X128985Y-28970D01*
X128588Y-29235D01*
X128323Y-29632D01*
X128229Y-30100D01*
X128323Y-30568D01*
X128588Y-30965D01*
X128985Y-31230D01*
X129453Y-31324D01*
X129921Y-31230D01*
X130318Y-30965D01*
X130583Y-30568D01*
X130676Y-30100D01*
X130583Y-29632D01*
X130318Y-29235D01*
X129921Y-28970D01*
X129453Y-28877D01*
D02*
G37*
G36*
X111453D02*
X110985Y-28970D01*
X110588Y-29235D01*
X110323Y-29632D01*
X110229Y-30100D01*
X110323Y-30568D01*
X110588Y-30965D01*
X110985Y-31230D01*
X111453Y-31324D01*
X111921Y-31230D01*
X112318Y-30965D01*
X112583Y-30568D01*
X112677Y-30100D01*
X112583Y-29632D01*
X112318Y-29235D01*
X111921Y-28970D01*
X111453Y-28877D01*
D02*
G37*
G36*
X23512Y-26730D02*
X22578Y-26771D01*
X21686Y-27052D01*
X20897Y-27555D01*
X20265Y-28245D01*
X19833Y-29074D01*
X19630Y-29988D01*
X19671Y-30922D01*
X19952Y-31814D01*
X20455Y-32603D01*
X21145Y-33235D01*
X21974Y-33667D01*
X22888Y-33870D01*
X23822Y-33829D01*
X24714Y-33548D01*
X25503Y-33045D01*
X26135Y-32355D01*
X26567Y-31526D01*
X26770Y-30612D01*
X26729Y-29678D01*
X26448Y-28786D01*
X25945Y-27997D01*
X25255Y-27365D01*
X24426Y-26933D01*
X23512Y-26730D01*
D02*
G37*
G36*
X139250Y-30750D02*
X136112D01*
X136149Y-31032D01*
X136547Y-31993D01*
X137181Y-32819D01*
X138007Y-33453D01*
X138968Y-33851D01*
X139250Y-33888D01*
Y-30750D01*
D02*
G37*
G36*
X107453Y-32256D02*
X106985Y-32350D01*
X106588Y-32615D01*
X106323Y-33012D01*
X106229Y-33480D01*
X106323Y-33948D01*
X106588Y-34345D01*
X106985Y-34610D01*
X107453Y-34703D01*
X107921Y-34610D01*
X108318Y-34345D01*
X108583Y-33948D01*
X108677Y-33480D01*
X108583Y-33012D01*
X108318Y-32615D01*
X107921Y-32350D01*
X107453Y-32256D01*
D02*
G37*
G36*
X129453Y-33101D02*
X128985Y-33195D01*
X128588Y-33460D01*
X128323Y-33857D01*
X128229Y-34325D01*
X128323Y-34793D01*
X128588Y-35190D01*
X128985Y-35455D01*
X129453Y-35548D01*
X129921Y-35455D01*
X130318Y-35190D01*
X130583Y-34793D01*
X130676Y-34325D01*
X130583Y-33857D01*
X130318Y-33460D01*
X129921Y-33195D01*
X129453Y-33101D01*
D02*
G37*
G36*
X80020Y-34863D02*
X79552Y-34956D01*
X79155Y-35222D01*
X78890Y-35619D01*
X78797Y-36087D01*
X78890Y-36555D01*
X79155Y-36952D01*
X79552Y-37217D01*
X80020Y-37310D01*
X80489Y-37217D01*
X80886Y-36952D01*
X81151Y-36555D01*
X81244Y-36087D01*
X81151Y-35619D01*
X80886Y-35222D01*
X80489Y-34956D01*
X80020Y-34863D01*
D02*
G37*
G36*
X111453Y-35636D02*
X110985Y-35730D01*
X110588Y-35995D01*
X110323Y-36392D01*
X110229Y-36860D01*
X110323Y-37328D01*
X110588Y-37725D01*
X110985Y-37990D01*
X111453Y-38083D01*
X111921Y-37990D01*
X112318Y-37725D01*
X112583Y-37328D01*
X112677Y-36860D01*
X112583Y-36392D01*
X112318Y-35995D01*
X111921Y-35730D01*
X111453Y-35636D01*
D02*
G37*
G36*
X139250Y-36112D02*
X138968Y-36149D01*
X138007Y-36547D01*
X137181Y-37181D01*
X136547Y-38007D01*
X136149Y-38968D01*
X136112Y-39250D01*
X139250D01*
Y-36112D01*
D02*
G37*
G36*
X90919Y-38690D02*
X90256Y-38822D01*
X89693Y-39198D01*
X89327Y-39746D01*
X89239Y-39760D01*
X88899D01*
X88811Y-39746D01*
X88445Y-39198D01*
X87882Y-38822D01*
X87219Y-38690D01*
X86556Y-38822D01*
X85993Y-39198D01*
X85627Y-39746D01*
X85539Y-39760D01*
X85199D01*
X85111Y-39746D01*
X84745Y-39198D01*
X84182Y-38822D01*
X83519Y-38690D01*
X82856Y-38822D01*
X82293Y-39198D01*
X81918Y-39760D01*
X81786Y-40424D01*
X81918Y-41087D01*
X82293Y-41649D01*
X82856Y-42025D01*
X83519Y-42157D01*
X84182Y-42025D01*
X84745Y-41649D01*
X85111Y-41101D01*
X85199Y-41087D01*
X85539D01*
X85627Y-41101D01*
X85993Y-41649D01*
X86556Y-42025D01*
X87219Y-42157D01*
X87882Y-42025D01*
X88445Y-41649D01*
X88811Y-41101D01*
X88899Y-41087D01*
X89239D01*
X89327Y-41101D01*
X89693Y-41649D01*
X90256Y-42025D01*
X90919Y-42157D01*
X91582Y-42025D01*
X92145Y-41649D01*
X92520Y-41087D01*
X92652Y-40424D01*
X92520Y-39760D01*
X92145Y-39198D01*
X91582Y-38822D01*
X90919Y-38690D01*
D02*
G37*
G36*
X129453Y-37326D02*
X128985Y-37420D01*
X128588Y-37685D01*
X128323Y-38082D01*
X128229Y-38550D01*
X128323Y-39018D01*
X128588Y-39415D01*
X128985Y-39680D01*
X129453Y-39773D01*
X129921Y-39680D01*
X130318Y-39415D01*
X130583Y-39018D01*
X130676Y-38550D01*
X130583Y-38082D01*
X130318Y-37685D01*
X129921Y-37420D01*
X129453Y-37326D01*
D02*
G37*
G36*
X107453Y-39017D02*
X106985Y-39110D01*
X106588Y-39375D01*
X106323Y-39772D01*
X106229Y-40240D01*
X106323Y-40708D01*
X106588Y-41105D01*
X106985Y-41370D01*
X107453Y-41464D01*
X107921Y-41370D01*
X108318Y-41105D01*
X108583Y-40708D01*
X108677Y-40240D01*
X108583Y-39772D01*
X108318Y-39375D01*
X107921Y-39110D01*
X107453Y-39017D01*
D02*
G37*
G36*
X54350Y-40112D02*
Y-43250D01*
X57488D01*
X57451Y-42968D01*
X57053Y-42007D01*
X56419Y-41181D01*
X55593Y-40547D01*
X54632Y-40149D01*
X54350Y-40112D01*
D02*
G37*
G36*
X52850Y-40112D02*
X52568Y-40149D01*
X51607Y-40547D01*
X50781Y-41181D01*
X50147Y-42007D01*
X49749Y-42968D01*
X49712Y-43250D01*
X52850D01*
Y-40112D01*
D02*
G37*
G36*
X139250Y-40750D02*
X136112D01*
X136149Y-41032D01*
X136547Y-41993D01*
X137181Y-42819D01*
X138007Y-43453D01*
X138968Y-43851D01*
X139250Y-43888D01*
Y-40750D01*
D02*
G37*
G36*
X129453Y-41552D02*
X128985Y-41645D01*
X128588Y-41910D01*
X128323Y-42307D01*
X128229Y-42775D01*
X128323Y-43243D01*
X128588Y-43640D01*
X128985Y-43905D01*
X129453Y-43999D01*
X129921Y-43905D01*
X130318Y-43640D01*
X130583Y-43243D01*
X130676Y-42775D01*
X130583Y-42307D01*
X130318Y-41910D01*
X129921Y-41645D01*
X129453Y-41552D01*
D02*
G37*
G36*
X111453Y-42397D02*
X110985Y-42490D01*
X110588Y-42755D01*
X110323Y-43152D01*
X110229Y-43620D01*
X110323Y-44088D01*
X110588Y-44485D01*
X110985Y-44750D01*
X111453Y-44844D01*
X111921Y-44750D01*
X112318Y-44485D01*
X112583Y-44088D01*
X112677Y-43620D01*
X112583Y-43152D01*
X112318Y-42755D01*
X111921Y-42490D01*
X111453Y-42397D01*
D02*
G37*
G36*
X52850Y-44750D02*
X49712D01*
X49749Y-45032D01*
X50147Y-45993D01*
X50781Y-46819D01*
X51607Y-47453D01*
X52568Y-47851D01*
X52850Y-47888D01*
Y-44750D01*
D02*
G37*
G36*
X57488D02*
X54350D01*
Y-47888D01*
X54632Y-47851D01*
X55593Y-47453D01*
X56419Y-46819D01*
X57053Y-45993D01*
X57451Y-45032D01*
X57488Y-44750D01*
D02*
G37*
G36*
X129453Y-45777D02*
X128985Y-45870D01*
X128588Y-46135D01*
X128323Y-46532D01*
X128229Y-47000D01*
X128323Y-47468D01*
X128588Y-47865D01*
X128985Y-48130D01*
X129453Y-48224D01*
X129921Y-48130D01*
X130318Y-47865D01*
X130583Y-47468D01*
X130676Y-47000D01*
X130583Y-46532D01*
X130318Y-46135D01*
X129921Y-45870D01*
X129453Y-45777D01*
D02*
G37*
G36*
X107453D02*
X106985Y-45870D01*
X106588Y-46135D01*
X106323Y-46532D01*
X106229Y-47000D01*
X106323Y-47468D01*
X106588Y-47865D01*
X106985Y-48130D01*
X107453Y-48224D01*
X107921Y-48130D01*
X108318Y-47865D01*
X108583Y-47468D01*
X108677Y-47000D01*
X108583Y-46532D01*
X108318Y-46135D01*
X107921Y-45870D01*
X107453Y-45777D01*
D02*
G37*
G36*
X63600Y-39741D02*
X62498Y-39886D01*
X61470Y-40311D01*
X60588Y-40988D01*
X59911Y-41870D01*
X59486Y-42898D01*
X59341Y-44000D01*
X59486Y-45102D01*
X59911Y-46130D01*
X60588Y-47012D01*
X61470Y-47689D01*
X62498Y-48114D01*
X63600Y-48259D01*
X64702Y-48114D01*
X65730Y-47689D01*
X66612Y-47012D01*
X67289Y-46130D01*
X67714Y-45102D01*
X67859Y-44000D01*
X67714Y-42898D01*
X67289Y-41870D01*
X66612Y-40988D01*
X65730Y-40311D01*
X64702Y-39886D01*
X63600Y-39741D01*
D02*
G37*
G36*
X94100Y-46576D02*
X93632Y-46670D01*
X93235Y-46935D01*
X92970Y-47332D01*
X92876Y-47800D01*
X92970Y-48268D01*
X93235Y-48665D01*
X93632Y-48930D01*
X94100Y-49024D01*
X94568Y-48930D01*
X94965Y-48665D01*
X95230Y-48268D01*
X95323Y-47800D01*
X95230Y-47332D01*
X94965Y-46935D01*
X94568Y-46670D01*
X94100Y-46576D01*
D02*
G37*
G36*
X139250Y-46112D02*
X138968Y-46149D01*
X138007Y-46547D01*
X137181Y-47181D01*
X136547Y-48007D01*
X136149Y-48968D01*
X136112Y-49250D01*
X139250D01*
Y-46112D01*
D02*
G37*
%LPD*%
D55*
X140000Y0D02*
D03*
Y-10000D02*
D03*
Y-50000D02*
D03*
Y-40000D02*
D03*
Y-30000D02*
D03*
Y-20000D02*
D03*
X0Y50000D02*
D03*
Y-20000D02*
D03*
X53600Y-44000D02*
D03*
X140000Y50000D02*
D03*
D57*
X100600Y-3700D02*
D03*
X46373Y52527D02*
D03*
X8873Y37527D02*
D03*
X12623Y60027D02*
D03*
X50123Y15027D02*
D03*
X100600Y11300D02*
D03*
Y3800D02*
D03*
X36600Y45700D02*
D03*
X57623Y-49973D02*
D03*
X100600Y57200D02*
D03*
Y-11200D02*
D03*
Y49700D02*
D03*
X50123Y-49973D02*
D03*
X57623Y60027D02*
D03*
X35400Y-36800D02*
D03*
X35123Y60027D02*
D03*
X100600Y-43200D02*
D03*
Y18800D02*
D03*
X12623Y-29973D02*
D03*
X100600Y-50700D02*
D03*
X9800Y-48900D02*
D03*
X8873Y-37473D02*
D03*
Y22527D02*
D03*
X5123Y-29973D02*
D03*
X100600Y-18700D02*
D03*
X35123Y-49973D02*
D03*
X5123Y-14973D02*
D03*
X46373Y60027D02*
D03*
D58*
X21820Y-47727D02*
D03*
X22400Y57300D02*
D03*
X18886Y-43598D02*
D03*
X19164Y53425D02*
D03*
X25592Y61085D02*
D03*
X66300Y13600D02*
D03*
X63500Y2989D02*
D03*
X69626Y8874D02*
D03*
X63500Y7465D02*
D03*
X8100Y19300D02*
D03*
X25313Y-51259D02*
D03*
X58636Y13500D02*
D03*
X56400Y1156D02*
D03*
D59*
X43800Y13700D02*
D03*
D60*
X62900Y29500D02*
D03*
X64800Y27700D02*
D03*
X60965Y31400D02*
D03*
X41100Y18200D02*
D03*
X21800Y-8185D02*
D03*
X35931Y5000D02*
D03*
Y669D02*
D03*
X2200Y-5000D02*
D03*
X35931Y9331D02*
D03*
X31600D02*
D03*
Y5000D02*
D03*
Y669D02*
D03*
X27269Y9331D02*
D03*
Y5000D02*
D03*
Y669D02*
D03*
X69700Y-45000D02*
D03*
X75100D02*
D03*
X72400D02*
D03*
X69057Y34853D02*
D03*
M02*
