G04*
G04 #@! TF.GenerationSoftware,Altium Limited,Altium Designer,18.1.7 (191)*
G04*
G04 Layer_Physical_Order=1*
G04 Layer_Color=255*
%FSLAX25Y25*%
%MOIN*%
G70*
G01*
G75*
%ADD19R,0.00984X0.03543*%
%ADD20R,0.03543X0.00984*%
%ADD21R,0.11339X0.11339*%
%ADD22R,0.03937X0.04331*%
%ADD23R,0.03150X0.03150*%
%ADD24R,0.09646X0.21850*%
%ADD25R,0.09646X0.03150*%
%ADD26R,0.04331X0.03937*%
G04:AMPARAMS|DCode=27|XSize=82.68mil|YSize=157.48mil|CornerRadius=0mil|HoleSize=0mil|Usage=FLASHONLY|Rotation=220.000|XOffset=0mil|YOffset=0mil|HoleType=Round|Shape=Rectangle|*
%AMROTATEDRECTD27*
4,1,4,-0.01895,0.08689,0.08228,-0.03375,0.01895,-0.08689,-0.08228,0.03375,-0.01895,0.08689,0.0*
%
%ADD27ROTATEDRECTD27*%

G04:AMPARAMS|DCode=28|XSize=82.68mil|YSize=157.48mil|CornerRadius=0mil|HoleSize=0mil|Usage=FLASHONLY|Rotation=140.000|XOffset=0mil|YOffset=0mil|HoleType=Round|Shape=Rectangle|*
%AMROTATEDRECTD28*
4,1,4,0.08228,0.03375,-0.01895,-0.08689,-0.08228,-0.03375,0.01895,0.08689,0.08228,0.03375,0.0*
%
%ADD28ROTATEDRECTD28*%

%ADD29R,0.07087X0.04331*%
%ADD30R,0.04331X0.07087*%
G04:AMPARAMS|DCode=31|XSize=43.31mil|YSize=70.87mil|CornerRadius=0mil|HoleSize=0mil|Usage=FLASHONLY|Rotation=45.000|XOffset=0mil|YOffset=0mil|HoleType=Round|Shape=Rectangle|*
%AMROTATEDRECTD31*
4,1,4,0.00974,-0.04037,-0.04037,0.00974,-0.00974,0.04037,0.04037,-0.00974,0.00974,-0.04037,0.0*
%
%ADD31ROTATEDRECTD31*%

%ADD48C,0.01000*%
%ADD49C,0.01000*%
%ADD50C,0.00800*%
%ADD51C,0.01200*%
%ADD52C,0.02500*%
%ADD53C,0.02000*%
%ADD54C,0.05000*%
%ADD55C,0.05906*%
%ADD56C,0.06299*%
%ADD57C,0.02410*%
%ADD58C,0.02600*%
%ADD59C,0.02200*%
%ADD60C,0.02400*%
G36*
X86500Y60146D02*
Y57479D01*
X85584Y56563D01*
X81896D01*
Y53944D01*
X80286Y52333D01*
X74116D01*
X49174Y27390D01*
X28579D01*
X28125Y27300D01*
X24300Y27300D01*
X21000Y30600D01*
X21000Y31100D01*
X22969Y31915D01*
X22969D01*
X24906Y32746D01*
X28717Y34548D01*
X32435Y36536D01*
X36051Y38703D01*
X39557Y41045D01*
X42943Y43556D01*
X46202Y46231D01*
X49325Y49062D01*
X50834Y50534D01*
X58256Y57956D01*
X58256Y57956D01*
X58256Y57956D01*
X58861Y58561D01*
X60283Y59511D01*
X61864Y60166D01*
X63541Y60500D01*
X64397Y60500D01*
X86146Y60500D01*
X86500Y60146D01*
D02*
G37*
G36*
X136742Y62690D02*
X136311Y62130D01*
X135886Y61102D01*
X135741Y60000D01*
X135886Y58898D01*
X136311Y57870D01*
X136988Y56988D01*
X137870Y56311D01*
X138898Y55886D01*
X140000Y55741D01*
X141102Y55886D01*
X142130Y56311D01*
X142691Y56742D01*
X143191Y56495D01*
Y53100D01*
X142691Y52918D01*
X141993Y53453D01*
X141032Y53851D01*
X140750Y53888D01*
Y50000D01*
Y46112D01*
X141032Y46149D01*
X141993Y46547D01*
X142691Y47082D01*
X143191Y46900D01*
Y42779D01*
X142717Y42619D01*
X142674Y42674D01*
X141891Y43275D01*
X140979Y43653D01*
X140000Y43782D01*
X139021Y43653D01*
X138109Y43275D01*
X137326Y42674D01*
X136725Y41891D01*
X136347Y40979D01*
X136218Y40000D01*
X136347Y39021D01*
X136572Y38479D01*
X136148Y38195D01*
X132580Y41763D01*
Y44900D01*
Y49900D01*
Y51900D01*
X132473Y52709D01*
X132161Y53463D01*
X132102Y53540D01*
Y62900D01*
X132297Y63190D01*
X136495D01*
X136742Y62690D01*
D02*
G37*
G36*
X131453Y36900D02*
X104953D01*
Y62900D01*
X131453D01*
Y36900D01*
D02*
G37*
G36*
X87319Y46981D02*
X87319Y43768D01*
X81226D01*
Y39386D01*
X75520Y33680D01*
X68274Y40926D01*
X68274Y41426D01*
X75019Y48171D01*
X86129Y48171D01*
X87319Y46981D01*
D02*
G37*
G36*
X-2534Y37466D02*
X-1792Y36897D01*
X-927Y36539D01*
X0Y36417D01*
X927Y36539D01*
X1700Y36858D01*
X5080Y33478D01*
Y31980D01*
X5158Y31590D01*
X5205Y31520D01*
X4938Y31020D01*
X3423D01*
X3103Y31792D01*
X2534Y32534D01*
X1792Y33103D01*
X927Y33461D01*
X0Y33583D01*
X-927Y33461D01*
X-1792Y33103D01*
X-2534Y32534D01*
X-2691Y32330D01*
X-3190Y32499D01*
Y37501D01*
X-2691Y37670D01*
X-2534Y37466D01*
D02*
G37*
G36*
X92142Y31376D02*
X87319Y30876D01*
X82319D01*
Y36053D01*
X85015Y38749D01*
X92142D01*
Y31376D01*
D02*
G37*
G36*
X81670Y34750D02*
Y30876D01*
X81860Y30417D01*
X81896Y30402D01*
Y28702D01*
X81896D01*
Y28563D01*
X81896D01*
Y27612D01*
X74585D01*
X74378Y28112D01*
X81208Y34941D01*
X81670Y34750D01*
D02*
G37*
G36*
X16391Y18267D02*
X16199Y17806D01*
X12178D01*
Y12275D01*
X14611D01*
X15432Y11454D01*
X15254Y11020D01*
X14776Y11001D01*
X14626Y11226D01*
X14063Y11601D01*
X13400Y11733D01*
X12737Y11601D01*
X12174Y11226D01*
X11799Y10663D01*
X11667Y10000D01*
X11782Y9420D01*
X11528Y8920D01*
X3906D01*
X3507Y9420D01*
X3583Y10000D01*
X3461Y10927D01*
X3103Y11792D01*
X2534Y12534D01*
X1792Y13103D01*
X927Y13461D01*
X0Y13583D01*
X-927Y13461D01*
X-1792Y13103D01*
X-2534Y12534D01*
X-2691Y12330D01*
X-3190Y12499D01*
Y17501D01*
X-2691Y17670D01*
X-2534Y17466D01*
X-1792Y16897D01*
X-927Y16539D01*
X0Y16417D01*
X927Y16539D01*
X1792Y16897D01*
X2534Y17466D01*
X3103Y18208D01*
X3461Y19073D01*
X3583Y20000D01*
X3461Y20927D01*
X3103Y21792D01*
X2534Y22534D01*
X1792Y23103D01*
X927Y23461D01*
X0Y23583D01*
X-927Y23461D01*
X-1792Y23103D01*
X-2534Y22534D01*
X-2691Y22330D01*
X-3190Y22499D01*
Y27501D01*
X-2691Y27670D01*
X-2534Y27466D01*
X-1792Y26897D01*
X-927Y26539D01*
X0Y26417D01*
X927Y26539D01*
X1792Y26897D01*
X2534Y27466D01*
X3103Y28208D01*
X3423Y28980D01*
X5678D01*
X16391Y18267D01*
D02*
G37*
G36*
X67068Y40479D02*
X67077Y40431D01*
X67358Y40010D01*
X74604Y32765D01*
X74604Y32765D01*
X74760Y32661D01*
X74853Y32050D01*
X74850Y32045D01*
X66993Y24187D01*
X63231D01*
X63039Y24547D01*
X63011Y24687D01*
X63133Y25300D01*
X63001Y25963D01*
X62626Y26526D01*
X62063Y26901D01*
X61400Y27033D01*
X60737Y26901D01*
X60174Y26526D01*
X59799Y25963D01*
X59724Y25590D01*
X52125D01*
X51934Y26052D01*
X66525Y40644D01*
X67068Y40479D01*
D02*
G37*
G36*
X104304Y62900D02*
Y36900D01*
X104494Y36441D01*
X104953Y36251D01*
X129074D01*
X129228Y36049D01*
X128981Y35549D01*
X104953D01*
X104494Y35359D01*
X104304Y34900D01*
Y8900D01*
X104494Y8441D01*
X104953Y8251D01*
X131453D01*
X131912Y8441D01*
X132102Y8900D01*
Y32744D01*
X132564Y32935D01*
X136327Y29172D01*
X136347Y29021D01*
X136725Y28109D01*
X137326Y27326D01*
X138109Y26725D01*
X139021Y26347D01*
X140000Y26218D01*
X140979Y26347D01*
X141891Y26725D01*
X142674Y27326D01*
X142717Y27382D01*
X143191Y27221D01*
Y22779D01*
X142717Y22618D01*
X142674Y22674D01*
X141891Y23275D01*
X140979Y23653D01*
X140000Y23782D01*
X139021Y23653D01*
X138109Y23275D01*
X137326Y22674D01*
X136725Y21891D01*
X136347Y20979D01*
X136218Y20000D01*
X136347Y19021D01*
X136725Y18109D01*
X137326Y17326D01*
X138109Y16725D01*
X139021Y16347D01*
X140000Y16218D01*
X140979Y16347D01*
X141891Y16725D01*
X142674Y17326D01*
X142717Y17381D01*
X143191Y17221D01*
Y12779D01*
X142717Y12619D01*
X142674Y12674D01*
X141891Y13275D01*
X140979Y13653D01*
X140000Y13782D01*
X139021Y13653D01*
X138109Y13275D01*
X137326Y12674D01*
X136725Y11891D01*
X136365Y11024D01*
X131542Y6200D01*
X131045Y5553D01*
X130733Y4798D01*
X130626Y3989D01*
X130626Y3989D01*
Y1549D01*
X104953D01*
X104494Y1359D01*
X104304Y900D01*
Y-25100D01*
X104494Y-25559D01*
X104953Y-25749D01*
X128596D01*
X128843Y-26249D01*
X128689Y-26451D01*
X104953D01*
X104494Y-26641D01*
X104304Y-27100D01*
Y-53100D01*
X104243Y-53190D01*
X29504D01*
X29322Y-52690D01*
X32160Y-50309D01*
X27067Y-44239D01*
X23862Y-46928D01*
X28697Y-52690D01*
X28464Y-53190D01*
X2499D01*
X2330Y-52690D01*
X2534Y-52534D01*
X3103Y-51792D01*
X3461Y-50927D01*
X3583Y-50000D01*
X3461Y-49073D01*
X3142Y-48300D01*
X15721Y-35721D01*
X15942Y-35390D01*
X16020Y-35000D01*
Y-10822D01*
X18657Y-8185D01*
X18900Y-8233D01*
X19563Y-8101D01*
X20126Y-7726D01*
X20501Y-7163D01*
X20633Y-6500D01*
X20501Y-5837D01*
X20126Y-5274D01*
X19563Y-4899D01*
X18900Y-4767D01*
X18237Y-4899D01*
X17674Y-5274D01*
X17299Y-5837D01*
X17167Y-6500D01*
X17215Y-6743D01*
X14279Y-9679D01*
X14058Y-10010D01*
X13980Y-10400D01*
Y-34578D01*
X1700Y-46859D01*
X927Y-46539D01*
X0Y-46417D01*
X-927Y-46539D01*
X-1792Y-46897D01*
X-2534Y-47466D01*
X-2691Y-47670D01*
X-3190Y-47501D01*
Y-42500D01*
X-2691Y-42330D01*
X-2534Y-42534D01*
X-1792Y-43103D01*
X-927Y-43461D01*
X0Y-43583D01*
X927Y-43461D01*
X1792Y-43103D01*
X2534Y-42534D01*
X3103Y-41792D01*
X3461Y-40927D01*
X3583Y-40000D01*
X3461Y-39073D01*
X3142Y-38300D01*
X10621Y-30821D01*
X10842Y-30490D01*
X10920Y-30100D01*
Y-9522D01*
X17460Y-2982D01*
X21767D01*
Y955D01*
Y4892D01*
Y8829D01*
Y12238D01*
X22229Y12429D01*
X22579Y12079D01*
X22910Y11858D01*
X23300Y11780D01*
X24760D01*
X25131Y11469D01*
X25131Y11280D01*
Y5750D01*
X31600D01*
X38069D01*
Y11182D01*
X38569Y11389D01*
X40758Y9200D01*
X41089Y8979D01*
X41433Y8911D01*
Y4892D01*
Y-128D01*
X40763D01*
Y-2273D01*
X40713D01*
Y-8585D01*
X40243Y-8822D01*
X39582Y-8161D01*
Y-4833D01*
X23618D01*
Y-6679D01*
X23580Y-6736D01*
X23487Y-7205D01*
Y-9900D01*
X20335D01*
Y-14915D01*
X20279Y-14939D01*
X20279Y-14939D01*
X20088Y-15398D01*
X20088Y-21344D01*
X20088Y-21521D01*
X20122Y-21602D01*
X20110Y-21689D01*
X20202Y-22032D01*
X20255Y-22101D01*
X20266Y-22188D01*
X20443Y-22495D01*
X20512Y-22549D01*
X20546Y-22630D01*
X20796Y-22881D01*
X20877Y-22915D01*
X20930Y-22985D01*
X21083Y-23074D01*
X46536Y-37888D01*
X46536D01*
X46874Y-38085D01*
X46966Y-38098D01*
X47041Y-38153D01*
X47800Y-38347D01*
X47892Y-38333D01*
X47979Y-38366D01*
X48763Y-38344D01*
X48847Y-38306D01*
X48940Y-38314D01*
X49687Y-38078D01*
X49758Y-38018D01*
X49849Y-38000D01*
X50176Y-37784D01*
X50176Y-37784D01*
X50176Y-37784D01*
X53745Y-35423D01*
X54549Y-34932D01*
X56266Y-34127D01*
X58070Y-33584D01*
X59946Y-33308D01*
X60889Y-33274D01*
X65452Y-33274D01*
X65720Y-33773D01*
X65667Y-33852D01*
X65487Y-34286D01*
X65487Y-34286D01*
X65487Y-34286D01*
X65451Y-34468D01*
X65389Y-34782D01*
X65389Y-34782D01*
X65389Y-34782D01*
X65389Y-35017D01*
X65389Y-39629D01*
X64910Y-39972D01*
X64702Y-39886D01*
X63600Y-39741D01*
X62498Y-39886D01*
X61470Y-40311D01*
X60588Y-40988D01*
X59911Y-41870D01*
X59486Y-42898D01*
X59341Y-44000D01*
X59486Y-45102D01*
X59911Y-46130D01*
X60588Y-47012D01*
X61470Y-47689D01*
X62498Y-48114D01*
X63600Y-48259D01*
X64702Y-48114D01*
X65730Y-47689D01*
X66612Y-47012D01*
X67289Y-46130D01*
X67714Y-45102D01*
X67846Y-44104D01*
X67875Y-44038D01*
X67960Y-43936D01*
X68290Y-43725D01*
X68328Y-43728D01*
X68805Y-43823D01*
X68932Y-43823D01*
X69057Y-43848D01*
X69317Y-43848D01*
X75133Y-43848D01*
X75707Y-43876D01*
X76856Y-44104D01*
X77910Y-44541D01*
X78885Y-45192D01*
X79308Y-45576D01*
X80030Y-46298D01*
X80081Y-46332D01*
X80119Y-46379D01*
X80492Y-46688D01*
X80551Y-46720D01*
X80598Y-46767D01*
X80827Y-46920D01*
X80945Y-46969D01*
X81051Y-47040D01*
X81226Y-47112D01*
Y-47433D01*
X81896D01*
Y-51251D01*
X92742D01*
Y-49325D01*
X93322D01*
X93437Y-49401D01*
X94100Y-49533D01*
X94763Y-49401D01*
X95326Y-49026D01*
X95701Y-48463D01*
X95833Y-47800D01*
X95701Y-47137D01*
X95326Y-46574D01*
X94763Y-46199D01*
X94100Y-46067D01*
X93912Y-46104D01*
X93412Y-45694D01*
Y-43926D01*
X93437Y-43801D01*
X93437Y-38457D01*
X93338Y-37961D01*
X93058Y-37541D01*
X92742Y-37330D01*
Y-33437D01*
X92742D01*
Y-33298D01*
X92742D01*
Y-31243D01*
X92791Y-31124D01*
Y-23251D01*
X92742Y-23132D01*
Y-19433D01*
X93412D01*
Y-13743D01*
X93395D01*
X93395Y-10457D01*
X93296Y-9961D01*
X93015Y-9541D01*
X92742Y-9358D01*
Y-5437D01*
X92742D01*
Y-5298D01*
X92742D01*
Y-2396D01*
X92750Y-2378D01*
X92750Y800D01*
X92750Y800D01*
X92750Y1058D01*
X92700Y1178D01*
X92700Y1307D01*
X92502Y1785D01*
X92411Y1876D01*
X92361Y1995D01*
X91996Y2361D01*
X91876Y2411D01*
X91785Y2502D01*
X91307Y2700D01*
X91178Y2700D01*
X91059Y2749D01*
X90800Y2749D01*
X83900Y2750D01*
X83900Y2749D01*
X83622Y2750D01*
X83502Y2700D01*
X83373Y2700D01*
X82995Y2544D01*
X82607Y2724D01*
X82495Y2830D01*
Y10749D01*
X92742D01*
Y14567D01*
X93412D01*
Y18074D01*
X93437Y18199D01*
Y23543D01*
X93338Y24039D01*
X93058Y24459D01*
X92742Y24670D01*
Y28563D01*
X92742D01*
Y28702D01*
X92742D01*
Y31257D01*
X92791Y31376D01*
Y38749D01*
X92742Y38868D01*
Y42567D01*
X93412D01*
Y48257D01*
X87875D01*
X87045Y49087D01*
X87045Y49087D01*
X87045Y49087D01*
X86828Y49231D01*
X86624Y49368D01*
X86624Y49368D01*
X86624Y49368D01*
X86406Y49411D01*
X86129Y49466D01*
X86129Y49466D01*
X86129Y49466D01*
X81533Y49466D01*
X81341Y49928D01*
X83627Y52213D01*
X92742D01*
Y56563D01*
X92742Y56563D01*
Y56702D01*
X92742D01*
X92742Y57063D01*
Y61051D01*
X86384D01*
X86146Y61149D01*
X64397Y61149D01*
X63541Y61149D01*
X63480Y61124D01*
X63415Y61137D01*
X61737Y60803D01*
X61682Y60766D01*
X61615D01*
X60035Y60111D01*
X59988Y60064D01*
X59922Y60051D01*
X58500Y59101D01*
X58463Y59046D01*
X58402Y59020D01*
X57797Y58416D01*
X57797Y58416D01*
X50378Y50997D01*
X48880Y49535D01*
X45777Y46723D01*
X42543Y44069D01*
X39183Y41576D01*
X35704Y39252D01*
X32115Y37101D01*
X28425Y35129D01*
X24640Y33338D01*
X22716Y32514D01*
X21065Y31830D01*
X20335D01*
Y26693D01*
X24198D01*
X24300Y26651D01*
X26679Y26651D01*
X26870Y26189D01*
X25819Y25137D01*
X20335D01*
Y20000D01*
X23487D01*
Y17205D01*
X23580Y16736D01*
X23218Y16391D01*
X23156Y16366D01*
X7120Y32402D01*
Y33900D01*
X7042Y34290D01*
X6821Y34621D01*
X3142Y38300D01*
X3461Y39073D01*
X3583Y40000D01*
X3461Y40927D01*
X3103Y41792D01*
X2534Y42534D01*
X1792Y43103D01*
X927Y43461D01*
X0Y43583D01*
X-927Y43461D01*
X-1792Y43103D01*
X-2534Y42534D01*
X-2691Y42330D01*
X-3190Y42499D01*
Y46900D01*
X-2691Y47082D01*
X-1993Y46547D01*
X-1032Y46149D01*
X-750Y46112D01*
Y50000D01*
X-0D01*
D01*
X-750D01*
Y53888D01*
X-1032Y53851D01*
X-1993Y53453D01*
X-2691Y52918D01*
X-3190Y53100D01*
Y57501D01*
X-2691Y57670D01*
X-2534Y57466D01*
X-1792Y56897D01*
X-927Y56539D01*
X0Y56417D01*
X927Y56539D01*
X1792Y56897D01*
X2534Y57466D01*
X3103Y58208D01*
X3461Y59073D01*
X3583Y60000D01*
X3461Y60927D01*
X3103Y61792D01*
X2534Y62534D01*
X2330Y62690D01*
X2499Y63190D01*
X104110D01*
X104304Y62900D01*
D02*
G37*
G36*
X81711Y24665D02*
X81403Y24459D01*
X81123Y24039D01*
X81024Y23543D01*
Y17640D01*
X80524Y17433D01*
X78116Y19841D01*
X77719Y20107D01*
X77251Y20200D01*
X71371D01*
X70903Y20107D01*
X70506Y19841D01*
X70261Y19597D01*
X69775Y19644D01*
X69592Y20087D01*
X74669Y25165D01*
X81592D01*
X81711Y24665D01*
D02*
G37*
G36*
X92142Y18199D02*
X91319Y17376D01*
X87319Y17412D01*
X87284Y17376D01*
X82319D01*
Y23543D01*
X92142D01*
Y18199D01*
D02*
G37*
G36*
X79274Y13720D02*
X79278Y13714D01*
X80374Y12619D01*
X80992Y12206D01*
X81200Y12164D01*
Y-6693D01*
X80226D01*
X80119Y-6622D01*
X79300Y-6459D01*
X78481Y-6622D01*
X77786Y-7086D01*
X77322Y-7781D01*
X77159Y-8600D01*
X77322Y-9419D01*
X77786Y-10114D01*
X78481Y-10578D01*
X79300Y-10741D01*
X80119Y-10578D01*
X80226Y-10507D01*
X86331D01*
X86582Y-10457D01*
X92100D01*
X92100Y-17878D01*
X91746Y-18232D01*
X81226D01*
Y-20193D01*
X66169D01*
X60085Y-14110D01*
X59466Y-13696D01*
X58737Y-13551D01*
X47584D01*
Y-8966D01*
X46385D01*
Y-6996D01*
X46738Y-6643D01*
X56300Y-6643D01*
X56496Y-6447D01*
X58323D01*
Y-6768D01*
X61988D01*
Y-7768D01*
X62988D01*
Y-11236D01*
X65654D01*
Y-10223D01*
X68099D01*
Y-7058D01*
Y-3893D01*
X65424D01*
Y1318D01*
X74162D01*
Y8189D01*
X72195D01*
Y9020D01*
X73061D01*
Y13563D01*
X75561D01*
Y9020D01*
X77476D01*
Y13720D01*
X79274Y13720D01*
D02*
G37*
G36*
X131453Y34046D02*
Y8900D01*
X104953D01*
Y34900D01*
X130599D01*
X131453Y34046D01*
D02*
G37*
G36*
X59335Y17956D02*
Y14813D01*
X65665D01*
Y17140D01*
X70759D01*
X70876Y17044D01*
Y8750D01*
X70900D01*
Y8189D01*
X70679Y7918D01*
X70599D01*
Y4753D01*
X69349D01*
Y3503D01*
X64806D01*
Y2432D01*
X64508Y2233D01*
X64227Y1813D01*
X64203Y1694D01*
X62738D01*
Y-1075D01*
X61238D01*
Y1694D01*
X59023D01*
Y-46D01*
X57197D01*
Y-3012D01*
X56447D01*
Y-3762D01*
X53679D01*
Y-5198D01*
X52323D01*
Y-246D01*
X50362D01*
X50106Y166D01*
X50107Y254D01*
X50233Y889D01*
X50101Y1552D01*
X49781Y2032D01*
X49712Y2148D01*
X49986Y2667D01*
X50134Y2677D01*
X50134Y2677D01*
X55271D01*
Y8207D01*
X52991D01*
X52755Y8648D01*
X52790Y8700D01*
X52922Y9363D01*
X52790Y10027D01*
X52414Y10589D01*
X51852Y10965D01*
X51188Y11097D01*
X50525Y10965D01*
X49963Y10589D01*
X49587Y10027D01*
X49455Y9363D01*
X49587Y8700D01*
X49963Y8138D01*
X49965Y8136D01*
Y7208D01*
X49274D01*
X49253Y7212D01*
X46923D01*
X46716Y7712D01*
X47421Y8418D01*
X47642Y8748D01*
X47720Y9138D01*
Y14200D01*
X47642Y14590D01*
X47421Y14921D01*
X45821Y16521D01*
X45490Y16742D01*
X45100Y16820D01*
X41430D01*
X41040Y16742D01*
X40709Y16521D01*
X40244Y16056D01*
X39782Y16247D01*
Y16455D01*
X38490D01*
Y17955D01*
X39782D01*
Y19543D01*
X57747D01*
X59335Y17956D01*
D02*
G37*
G36*
X83900Y2100D02*
X83900Y2100D01*
X90800Y2100D01*
X91059Y2100D01*
X91536Y1902D01*
X91902Y1536D01*
X92100Y1058D01*
X92100Y800D01*
X92100D01*
X92100Y-2378D01*
X91355Y-3124D01*
X87354Y-3088D01*
X87319Y-3124D01*
X82854Y-3124D01*
X82500Y-2770D01*
X82500Y700D01*
X82500Y979D01*
X82713Y1493D01*
X83107Y1887D01*
X83622Y2100D01*
X83900Y2100D01*
D02*
G37*
G36*
X12239Y4524D02*
X12199Y4463D01*
X12067Y3800D01*
X12199Y3137D01*
X12574Y2574D01*
X13066Y2246D01*
X13240Y1712D01*
X3526Y-8002D01*
X2890Y-7931D01*
X2534Y-7466D01*
X1792Y-6897D01*
X927Y-6539D01*
X0Y-6417D01*
X-927Y-6539D01*
X-1792Y-6897D01*
X-2534Y-7466D01*
X-2691Y-7670D01*
X-3190Y-7501D01*
Y-2499D01*
X-2691Y-2330D01*
X-2534Y-2534D01*
X-1792Y-3103D01*
X-927Y-3461D01*
X0Y-3583D01*
X927Y-3461D01*
X1792Y-3103D01*
X2534Y-2534D01*
X3103Y-1792D01*
X3461Y-927D01*
X3583Y0D01*
X3461Y927D01*
X3142Y1700D01*
X6407Y4965D01*
X12003D01*
X12239Y4524D01*
D02*
G37*
G36*
X6680Y-8439D02*
Y-21878D01*
X1700Y-26858D01*
X927Y-26539D01*
X0Y-26417D01*
X-927Y-26539D01*
X-1792Y-26897D01*
X-2534Y-27466D01*
X-2691Y-27670D01*
X-3190Y-27501D01*
Y-23100D01*
X-2691Y-22918D01*
X-1993Y-23453D01*
X-1032Y-23851D01*
X-750Y-23888D01*
Y-20000D01*
Y-16112D01*
X-1032Y-16149D01*
X-1993Y-16547D01*
X-2691Y-17082D01*
X-3190Y-16900D01*
Y-12499D01*
X-2691Y-12330D01*
X-2534Y-12534D01*
X-1792Y-13103D01*
X-927Y-13461D01*
X0Y-13583D01*
X927Y-13461D01*
X1792Y-13103D01*
X2534Y-12534D01*
X3103Y-11792D01*
X3461Y-10927D01*
X3469Y-10869D01*
X3691Y-10721D01*
X6180Y-8231D01*
X6680Y-8439D01*
D02*
G37*
G36*
X130626Y-24688D02*
X130214Y-25100D01*
X104953D01*
Y900D01*
X130626D01*
Y-24688D01*
D02*
G37*
G36*
X25087Y-15784D02*
X25084Y-15800D01*
X25216Y-16463D01*
X25591Y-17026D01*
X26154Y-17401D01*
X26817Y-17533D01*
X27480Y-17401D01*
X28006Y-17050D01*
X28158Y-16989D01*
X28567D01*
X28584Y-17015D01*
X29147Y-17391D01*
X29810Y-17523D01*
X30473Y-17391D01*
X30861Y-17132D01*
X31488Y-17170D01*
X31584Y-17315D01*
X32147Y-17691D01*
X32810Y-17823D01*
X33473Y-17691D01*
X34036Y-17315D01*
X34118Y-17192D01*
X34618D01*
X34683Y-17289D01*
X35245Y-17665D01*
X35909Y-17797D01*
X36572Y-17665D01*
X37134Y-17289D01*
X37510Y-16727D01*
X37565Y-16452D01*
X38107Y-16287D01*
X39943Y-18123D01*
X40340Y-18388D01*
X40808Y-18481D01*
X56551D01*
X56967Y-18898D01*
X56967Y-18900D01*
X57099Y-19563D01*
X57474Y-20126D01*
X58037Y-20501D01*
X58700Y-20633D01*
X59363Y-20501D01*
X59926Y-20126D01*
X60301Y-19563D01*
X60318Y-19477D01*
X60861Y-19312D01*
X64514Y-22965D01*
X64911Y-23230D01*
X65379Y-23324D01*
X86343D01*
X86706Y-23251D01*
X92142D01*
Y-31124D01*
X90642Y-32624D01*
X77210Y-32624D01*
X77060Y-32594D01*
X76795Y-32541D01*
X76795Y-32541D01*
X76795Y-32541D01*
X76496Y-32541D01*
X67864Y-32541D01*
X67864Y-32541D01*
X67629Y-32541D01*
X67213Y-32624D01*
X60876Y-32624D01*
X60876Y-32624D01*
X59886Y-32660D01*
X57929Y-32948D01*
X56033Y-33519D01*
X54242Y-34359D01*
X53396Y-34875D01*
X49818Y-37242D01*
X49818Y-37242D01*
X49491Y-37458D01*
X48744Y-37695D01*
X47961Y-37717D01*
X47201Y-37524D01*
X46862Y-37327D01*
X21409Y-22512D01*
X21256Y-22423D01*
X21006Y-22172D01*
X20829Y-21864D01*
X20738Y-21521D01*
X20738Y-21344D01*
X20738Y-15398D01*
X24770Y-15398D01*
X25087Y-15784D01*
D02*
G37*
G36*
X8551Y-23081D02*
X8880Y-23233D01*
Y-29678D01*
X1700Y-36858D01*
X927Y-36539D01*
X0Y-36417D01*
X-927Y-36539D01*
X-1792Y-36897D01*
X-2534Y-37466D01*
X-2691Y-37670D01*
X-3190Y-37501D01*
X-3190Y-32500D01*
X-2691Y-32330D01*
X-2534Y-32534D01*
X-1792Y-33103D01*
X-927Y-33461D01*
X0Y-33583D01*
X927Y-33461D01*
X1792Y-33103D01*
X2534Y-32534D01*
X3103Y-31792D01*
X3461Y-30927D01*
X3583Y-30000D01*
X3461Y-29073D01*
X3142Y-28300D01*
X8380Y-23062D01*
X8551Y-23081D01*
D02*
G37*
G36*
X76496Y-33836D02*
X76795Y-33836D01*
X77348Y-34065D01*
X77771Y-34488D01*
X77934Y-34881D01*
X78000Y-35339D01*
Y-35340D01*
X78000D01*
X77931Y-35829D01*
X77879Y-36087D01*
X78042Y-36906D01*
X78159Y-37081D01*
X78338Y-37511D01*
X78889Y-38063D01*
X79610Y-38362D01*
X80000Y-38400D01*
X81226D01*
Y-38457D01*
X92142D01*
X92142Y-43801D01*
X89806Y-46136D01*
X82766Y-46136D01*
X82512Y-46136D01*
X82015Y-46038D01*
X81546Y-45843D01*
X81318Y-45691D01*
X80945Y-45382D01*
X80202Y-44638D01*
X79684Y-44169D01*
X78524Y-43393D01*
X77234Y-42859D01*
X75865Y-42587D01*
X75168Y-42553D01*
X75168Y-42553D01*
X75168Y-42553D01*
X69316Y-42553D01*
X69057Y-42553D01*
X68548Y-42452D01*
X68069Y-42253D01*
X67638Y-41965D01*
X67271Y-41598D01*
X66983Y-41167D01*
X66785Y-40688D01*
X66683Y-40179D01*
X66683Y-39920D01*
X66684Y-35017D01*
X66684Y-34782D01*
X66863Y-34348D01*
X67195Y-34016D01*
X67629Y-33836D01*
X67864Y-33836D01*
X67864Y-33836D01*
X76496Y-33836D01*
D02*
G37*
G36*
X135964Y-28194D02*
X136338Y-28512D01*
X136149Y-28968D01*
X136112Y-29250D01*
X140000D01*
Y-30000D01*
X140750D01*
Y-33888D01*
X141032Y-33851D01*
X141993Y-33453D01*
X142690Y-32918D01*
X143190Y-33100D01*
Y-36900D01*
X142690Y-37082D01*
X141993Y-36547D01*
X141032Y-36149D01*
X140750Y-36112D01*
Y-40000D01*
Y-43888D01*
X141032Y-43851D01*
X141993Y-43453D01*
X142690Y-42918D01*
X143190Y-43100D01*
Y-46900D01*
X142690Y-47082D01*
X141993Y-46547D01*
X141032Y-46149D01*
X140750Y-46112D01*
Y-50000D01*
X140000D01*
Y-50750D01*
X136112D01*
X136149Y-51032D01*
X136547Y-51993D01*
X137082Y-52690D01*
X136900Y-53190D01*
X132163D01*
X132102Y-53100D01*
Y-39740D01*
X132161Y-39663D01*
X132473Y-38909D01*
X132580Y-38100D01*
Y-31578D01*
X135964Y-28194D01*
X135964Y-28194D01*
D02*
G37*
G36*
X131453Y-53100D02*
X104953D01*
Y-27100D01*
X131453D01*
Y-53100D01*
D02*
G37*
%LPC*%
G36*
X139250Y53888D02*
X138968Y53851D01*
X138007Y53453D01*
X137181Y52819D01*
X136547Y51993D01*
X136149Y51032D01*
X136112Y50750D01*
X139250D01*
Y53888D01*
D02*
G37*
G36*
Y49250D02*
X136112D01*
X136149Y48968D01*
X136547Y48007D01*
X137181Y47181D01*
X138007Y46547D01*
X138968Y46149D01*
X139250Y46112D01*
Y49250D01*
D02*
G37*
G36*
X127276Y61825D02*
X124453D01*
Y52900D01*
X127276D01*
Y61825D01*
D02*
G37*
G36*
X118453D02*
X115630D01*
Y52900D01*
X118453D01*
Y61825D01*
D02*
G37*
G36*
X127276Y46900D02*
X124453D01*
Y37975D01*
X127276D01*
Y46900D01*
D02*
G37*
G36*
X118453D02*
X115630D01*
Y37975D01*
X118453D01*
Y46900D01*
D02*
G37*
G36*
X73793Y46030D02*
X72439Y44676D01*
X74768Y42347D01*
X76122Y43701D01*
X73793Y46030D01*
D02*
G37*
G36*
X70671Y42908D02*
X69317Y41554D01*
X71645Y39225D01*
X73000Y40579D01*
X70671Y42908D01*
D02*
G37*
G36*
X77890Y41934D02*
X76535Y40579D01*
X78864Y38251D01*
X80218Y39605D01*
X77890Y41934D01*
D02*
G37*
G36*
X74768Y38812D02*
X73413Y37457D01*
X75742Y35129D01*
X77096Y36483D01*
X74768Y38812D01*
D02*
G37*
G36*
X10822Y18006D02*
X8804D01*
Y15790D01*
X10822D01*
Y18006D01*
D02*
G37*
G36*
X7304D02*
X5285D01*
Y15790D01*
X7304D01*
Y18006D01*
D02*
G37*
G36*
X10822Y14290D02*
X8804D01*
Y12075D01*
X10822D01*
Y14290D01*
D02*
G37*
G36*
X7304D02*
X5285D01*
Y12075D01*
X7304D01*
Y14290D01*
D02*
G37*
G36*
X65442Y37679D02*
X64087Y36324D01*
X66416Y33996D01*
X67770Y35350D01*
X65442Y37679D01*
D02*
G37*
G36*
X62319Y34556D02*
X60965Y33202D01*
X63294Y30873D01*
X64648Y32228D01*
X62319Y34556D01*
D02*
G37*
G36*
X69538Y33582D02*
X68184Y32228D01*
X70512Y29899D01*
X71867Y31253D01*
X69538Y33582D01*
D02*
G37*
G36*
X66416Y30460D02*
X65062Y29106D01*
X67390Y26777D01*
X68745Y28131D01*
X66416Y30460D01*
D02*
G37*
G36*
X17328Y57375D02*
X15703D01*
Y55750D01*
X17328D01*
Y57375D01*
D02*
G37*
G36*
X14203D02*
X12578D01*
Y55750D01*
X14203D01*
Y57375D01*
D02*
G37*
G36*
X29536Y62571D02*
X24443Y56501D01*
X27647Y53812D01*
X32741Y59882D01*
X29536Y62571D01*
D02*
G37*
G36*
X17328Y54250D02*
X15703D01*
Y52625D01*
X17328D01*
Y54250D01*
D02*
G37*
G36*
X14203D02*
X12578D01*
Y52625D01*
X14203D01*
Y54250D01*
D02*
G37*
G36*
X750Y53888D02*
Y50750D01*
X3888D01*
X3851Y51032D01*
X3453Y51993D01*
X2819Y52819D01*
X1993Y53453D01*
X1032Y53851D01*
X750Y53888D01*
D02*
G37*
G36*
X33890Y58918D02*
X28796Y52848D01*
X32002Y50159D01*
X37095Y56229D01*
X33890Y58918D01*
D02*
G37*
G36*
X23478Y55352D02*
X18385Y49282D01*
X21590Y46593D01*
X26683Y52663D01*
X23478Y55352D01*
D02*
G37*
G36*
X3888Y49250D02*
X750D01*
Y46112D01*
X1032Y46149D01*
X1993Y46547D01*
X2819Y47181D01*
X3453Y48007D01*
X3851Y48968D01*
X3888Y49250D01*
D02*
G37*
G36*
X27832Y51699D02*
X22739Y45629D01*
X24638Y44035D01*
X24619Y43939D01*
X24719Y43432D01*
X24822Y43278D01*
Y43238D01*
X24322Y42871D01*
X23822Y43029D01*
X22888Y43070D01*
X21974Y42867D01*
X21145Y42435D01*
X20455Y41803D01*
X19952Y41014D01*
X19671Y40122D01*
X19630Y39188D01*
X19833Y38274D01*
X20265Y37445D01*
X20897Y36755D01*
X21686Y36252D01*
X22578Y35971D01*
X23512Y35930D01*
X24426Y36133D01*
X25255Y36565D01*
X25945Y37197D01*
X26448Y37986D01*
X26729Y38878D01*
X26770Y39812D01*
X26567Y40726D01*
X26481Y40891D01*
X26737Y41146D01*
X26737Y41146D01*
X26980Y41510D01*
X27066Y41939D01*
X27066Y41939D01*
Y43278D01*
X27169Y43432D01*
X27269Y43939D01*
X27176Y44408D01*
X31038Y49009D01*
X27832Y51699D01*
D02*
G37*
G36*
X11222Y57175D02*
X6872D01*
Y52825D01*
X8030D01*
Y47765D01*
X6685D01*
Y42235D01*
X11822D01*
Y47765D01*
X10477D01*
Y52825D01*
X11222D01*
Y57175D01*
D02*
G37*
G36*
X18515Y47765D02*
X13378D01*
Y42235D01*
X13826D01*
Y39442D01*
X13752Y39392D01*
X13354Y38797D01*
X13214Y38094D01*
X13354Y37392D01*
X13752Y36797D01*
X14347Y36399D01*
X15049Y36259D01*
X15752Y36399D01*
X16347Y36797D01*
X16745Y37392D01*
X16885Y38094D01*
X16745Y38797D01*
X16347Y39392D01*
X16273Y39442D01*
Y42235D01*
X18515D01*
Y47765D01*
D02*
G37*
G36*
X38069Y4250D02*
X32350D01*
Y-1469D01*
X38069D01*
Y4250D01*
D02*
G37*
G36*
X30850D02*
X25131D01*
Y-1469D01*
X30850D01*
Y4250D01*
D02*
G37*
G36*
X23512Y-26730D02*
X22578Y-26771D01*
X21686Y-27052D01*
X20897Y-27555D01*
X20265Y-28245D01*
X19833Y-29074D01*
X19630Y-29988D01*
X19671Y-30922D01*
X19952Y-31814D01*
X20455Y-32603D01*
X21145Y-33235D01*
X21974Y-33667D01*
X22888Y-33870D01*
X23492Y-33843D01*
X23882Y-34208D01*
X23849Y-34637D01*
X22158Y-36055D01*
X27252Y-42126D01*
X30457Y-39436D01*
X26460Y-34673D01*
X26425Y-34493D01*
X26322Y-34339D01*
Y-33000D01*
X26322Y-33000D01*
X26236Y-32571D01*
X26110Y-32383D01*
X26135Y-32355D01*
X26567Y-31526D01*
X26770Y-30612D01*
X26729Y-29678D01*
X26448Y-28786D01*
X25945Y-27997D01*
X25255Y-27365D01*
X24426Y-26933D01*
X23512Y-26730D01*
D02*
G37*
G36*
X54350Y-40112D02*
Y-43250D01*
X57488D01*
X57451Y-42968D01*
X57053Y-42007D01*
X56419Y-41181D01*
X55593Y-40547D01*
X54632Y-40149D01*
X54350Y-40112D01*
D02*
G37*
G36*
X52850Y-40112D02*
X52568Y-40149D01*
X51607Y-40547D01*
X50781Y-41181D01*
X50147Y-42007D01*
X49749Y-42968D01*
X49712Y-43250D01*
X52850D01*
Y-40112D01*
D02*
G37*
G36*
X21009Y-37020D02*
X17804Y-39709D01*
X22898Y-45779D01*
X26103Y-43090D01*
X21009Y-37020D01*
D02*
G37*
G36*
X52850Y-44750D02*
X49712D01*
X49749Y-45032D01*
X50147Y-45993D01*
X50781Y-46819D01*
X51607Y-47453D01*
X52568Y-47851D01*
X52850Y-47888D01*
Y-44750D01*
D02*
G37*
G36*
X57488D02*
X54350D01*
Y-47888D01*
X54632Y-47851D01*
X55593Y-47453D01*
X56419Y-46819D01*
X57053Y-45993D01*
X57451Y-45032D01*
X57488Y-44750D01*
D02*
G37*
G36*
X76943Y-46276D02*
X73650D01*
Y-48192D01*
X76943D01*
Y-46276D01*
D02*
G37*
G36*
X71150D02*
X67857D01*
Y-48192D01*
X71150D01*
Y-46276D01*
D02*
G37*
G36*
X31421Y-40585D02*
X28216Y-43275D01*
X33309Y-49345D01*
X36514Y-46655D01*
X31421Y-40585D01*
D02*
G37*
G36*
X76943Y-50692D02*
X73650D01*
Y-52607D01*
X76943D01*
Y-50692D01*
D02*
G37*
G36*
X71150D02*
X67857D01*
Y-52607D01*
X71150D01*
Y-50692D01*
D02*
G37*
G36*
X73892Y-3893D02*
X70599D01*
Y-5808D01*
X73892D01*
Y-3893D01*
D02*
G37*
G36*
Y-8308D02*
X70599D01*
Y-10223D01*
X73892D01*
Y-8308D01*
D02*
G37*
G36*
X60988Y-8768D02*
X58323D01*
Y-11236D01*
X60988D01*
Y-8768D01*
D02*
G37*
G36*
X127276Y33825D02*
X124453D01*
Y24900D01*
X127276D01*
Y33825D01*
D02*
G37*
G36*
X118453D02*
X115630D01*
Y24900D01*
X118453D01*
Y33825D01*
D02*
G37*
G36*
X127276Y18900D02*
X124453D01*
Y9975D01*
X127276D01*
Y18900D01*
D02*
G37*
G36*
X118453D02*
X115630D01*
Y9975D01*
X118453D01*
Y18900D01*
D02*
G37*
G36*
X65665Y12313D02*
X63750D01*
Y9020D01*
X65665D01*
Y12313D01*
D02*
G37*
G36*
X61250D02*
X59335D01*
Y9020D01*
X61250D01*
Y12313D01*
D02*
G37*
G36*
X62164Y8407D02*
X60145D01*
Y6192D01*
X62164D01*
Y8407D01*
D02*
G37*
G36*
X58645D02*
X56627D01*
Y6192D01*
X58645D01*
Y8407D01*
D02*
G37*
G36*
X68099Y7918D02*
X64806D01*
Y6003D01*
X68099D01*
Y7918D01*
D02*
G37*
G36*
X62164Y4692D02*
X60145D01*
Y2477D01*
X62164D01*
Y4692D01*
D02*
G37*
G36*
X58645D02*
X56627D01*
Y2477D01*
X58645D01*
Y4692D01*
D02*
G37*
G36*
X55697Y-46D02*
X53679D01*
Y-2262D01*
X55697D01*
Y-46D01*
D02*
G37*
G36*
X750Y-16112D02*
Y-19250D01*
X3888D01*
X3851Y-18968D01*
X3453Y-18007D01*
X2819Y-17181D01*
X1993Y-16547D01*
X1032Y-16149D01*
X750Y-16112D01*
D02*
G37*
G36*
X3888Y-20750D02*
X750D01*
Y-23888D01*
X1032Y-23851D01*
X1993Y-23453D01*
X2819Y-22819D01*
X3453Y-21993D01*
X3851Y-21032D01*
X3888Y-20750D01*
D02*
G37*
G36*
X127276Y-175D02*
X124453D01*
Y-9100D01*
X127276D01*
Y-175D01*
D02*
G37*
G36*
X118453D02*
X115630D01*
Y-9100D01*
X118453D01*
Y-175D01*
D02*
G37*
G36*
X127276Y-15100D02*
X124453D01*
Y-24025D01*
X127276D01*
Y-15100D01*
D02*
G37*
G36*
X118453D02*
X115630D01*
Y-24025D01*
X118453D01*
Y-15100D01*
D02*
G37*
G36*
X76943Y-34465D02*
X73650D01*
Y-36381D01*
X76943D01*
Y-34465D01*
D02*
G37*
G36*
X71150D02*
X67857D01*
Y-36381D01*
X71150D01*
Y-34465D01*
D02*
G37*
G36*
X76943Y-38881D02*
X73650D01*
Y-40796D01*
X76943D01*
Y-38881D01*
D02*
G37*
G36*
X71150D02*
X67857D01*
Y-40796D01*
X71150D01*
Y-38881D01*
D02*
G37*
G36*
X139250Y-30750D02*
X136112D01*
X136149Y-31032D01*
X136547Y-31993D01*
X137181Y-32819D01*
X138007Y-33453D01*
X138968Y-33851D01*
X139250Y-33888D01*
Y-30750D01*
D02*
G37*
G36*
Y-36112D02*
X138968Y-36149D01*
X138007Y-36547D01*
X137181Y-37181D01*
X136547Y-38007D01*
X136149Y-38968D01*
X136112Y-39250D01*
X139250D01*
Y-36112D01*
D02*
G37*
G36*
Y-40750D02*
X136112D01*
X136149Y-41032D01*
X136547Y-41993D01*
X137181Y-42819D01*
X138007Y-43453D01*
X138968Y-43851D01*
X139250Y-43888D01*
Y-40750D01*
D02*
G37*
G36*
Y-46112D02*
X138968Y-46149D01*
X138007Y-46547D01*
X137181Y-47181D01*
X136547Y-48007D01*
X136149Y-48968D01*
X136112Y-49250D01*
X139250D01*
Y-46112D01*
D02*
G37*
G36*
X127276Y-28175D02*
X124453D01*
Y-37100D01*
X127276D01*
Y-28175D01*
D02*
G37*
G36*
X118453D02*
X115630D01*
Y-37100D01*
X118453D01*
Y-28175D01*
D02*
G37*
G36*
X127276Y-43100D02*
X124453D01*
Y-52025D01*
X127276D01*
Y-43100D01*
D02*
G37*
G36*
X118453D02*
X115630D01*
Y-52025D01*
X118453D01*
Y-43100D01*
D02*
G37*
%LPD*%
D19*
X38490Y17205D02*
D03*
X36521D02*
D03*
X34553D02*
D03*
X32584D02*
D03*
X30616D02*
D03*
X28647D02*
D03*
X26679D02*
D03*
X24710D02*
D03*
Y-7205D02*
D03*
X26679D02*
D03*
X28647D02*
D03*
X30616D02*
D03*
X32584D02*
D03*
X34553D02*
D03*
X36521D02*
D03*
X38490D02*
D03*
D20*
X19395Y11890D02*
D03*
Y9921D02*
D03*
Y7953D02*
D03*
Y5984D02*
D03*
Y4016D02*
D03*
Y2047D02*
D03*
Y79D02*
D03*
Y-1890D02*
D03*
X43805D02*
D03*
Y79D02*
D03*
Y2047D02*
D03*
Y4016D02*
D03*
Y5984D02*
D03*
Y7953D02*
D03*
Y9921D02*
D03*
Y11890D02*
D03*
D21*
X31600Y5000D02*
D03*
D22*
X56447Y-3012D02*
D03*
X49754D02*
D03*
X9253Y45000D02*
D03*
X15947D02*
D03*
X59395Y5442D02*
D03*
X52702D02*
D03*
X8054Y15040D02*
D03*
X14747D02*
D03*
D23*
X9047Y55000D02*
D03*
X14953D02*
D03*
D24*
X121453Y-12100D02*
D03*
Y21900D02*
D03*
Y-40100D02*
D03*
Y49900D02*
D03*
D25*
X87319Y-21076D02*
D03*
Y-16588D02*
D03*
Y-7612D02*
D03*
Y-3124D02*
D03*
Y12924D02*
D03*
Y17412D02*
D03*
Y26388D02*
D03*
Y30876D02*
D03*
Y-49076D02*
D03*
Y-44588D02*
D03*
Y-35612D02*
D03*
Y-31124D02*
D03*
Y40924D02*
D03*
Y45412D02*
D03*
Y54388D02*
D03*
Y58876D02*
D03*
D26*
X23100Y-12468D02*
D03*
Y-19161D02*
D03*
Y22569D02*
D03*
Y29261D02*
D03*
X61988Y-7768D02*
D03*
Y-1075D02*
D03*
X44149Y-5511D02*
D03*
Y-12204D02*
D03*
D27*
X45858Y-27492D02*
D03*
X27159Y-43182D02*
D03*
D28*
X46439Y37065D02*
D03*
X27740Y52755D02*
D03*
D29*
X69349Y4753D02*
D03*
Y-7058D02*
D03*
X72400Y-49442D02*
D03*
Y-37631D02*
D03*
D30*
X62500Y13563D02*
D03*
X74311D02*
D03*
D31*
X66416Y32228D02*
D03*
X74768Y40579D02*
D03*
D48*
X25944Y43939D02*
D03*
Y41939D02*
D03*
X25200Y-35000D02*
D03*
Y-33000D02*
D03*
D49*
X23200Y39500D02*
X23505D01*
X25944Y41939D01*
X23200Y-31000D02*
Y-30300D01*
Y-31000D02*
X25200Y-33000D01*
X25944Y50959D02*
X27740Y52755D01*
X25944Y43939D02*
Y50959D01*
Y41939D02*
Y43939D01*
X25200Y-35000D02*
Y-33000D01*
X13800Y3800D02*
X14016Y4016D01*
X19395D01*
X47973D02*
X48300Y3689D01*
X43805Y4016D02*
X47973D01*
X30616D02*
X31600Y5000D01*
D50*
X15000Y-10400D02*
X18900Y-6500D01*
X15000Y-35000D02*
Y-10400D01*
X0Y-50000D02*
X15000Y-35000D01*
X41430Y15800D02*
X45100D01*
X39830Y14200D02*
X41430Y15800D01*
X9900Y-30100D02*
Y-9100D01*
X0Y-40000D02*
X9900Y-30100D01*
Y-9100D02*
X17110Y-1890D01*
X0Y-10000D02*
X2970D01*
X15070Y2100D01*
X19342D01*
X17110Y-1890D02*
X19395D01*
X47055Y1955D02*
X48121Y889D01*
X48500D01*
X43897Y1955D02*
X47055D01*
X43805Y2047D02*
X43897Y1955D01*
X0Y40000D02*
X6100Y33900D01*
Y31980D02*
Y33900D01*
Y31980D02*
X23880Y14200D01*
X7700Y-7900D02*
X15679Y79D01*
X0Y-30000D02*
X7700Y-22300D01*
Y-7900D01*
X19342Y2100D02*
X19395Y2047D01*
X0Y0D02*
X5984Y5984D01*
X19395D01*
X0Y10000D02*
X2100Y7900D01*
X19342D01*
X19395Y7953D01*
X13400Y10000D02*
X13479Y9921D01*
X19395D01*
X45100Y15800D02*
X46700Y14200D01*
Y9138D02*
Y14200D01*
X45514Y7953D02*
X46700Y9138D01*
X43805Y7953D02*
X45514D01*
X41479Y9921D02*
X43805D01*
X38600Y12800D02*
X41479Y9921D01*
X23300Y12800D02*
X38600D01*
X6100Y30000D02*
X23300Y12800D01*
X23880Y14200D02*
X39830D01*
X0Y30000D02*
X6100D01*
X15679Y79D02*
X19395D01*
X48151Y-1211D02*
X49949Y-3009D01*
X47630Y-1211D02*
X48151D01*
X46432Y-13D02*
X47630Y-1211D01*
X43897Y-13D02*
X46432D01*
X49949Y-3158D02*
Y-3009D01*
X43805Y79D02*
X43897Y-13D01*
D51*
X62400Y20664D02*
X68438D01*
X36575Y22567D02*
X61050D01*
X37321Y20767D02*
X58254D01*
X67500Y22964D02*
X85460Y40924D01*
X61447Y22964D02*
X67500D01*
X61050Y22567D02*
X61447Y22964D01*
X50318Y26167D02*
X74251Y50100D01*
X28579Y26167D02*
X50318D01*
X26500Y24088D02*
X28579Y26167D01*
X31600Y22683D02*
Y23400D01*
X26500Y21592D02*
Y24088D01*
Y21592D02*
X26679Y21413D01*
Y17205D02*
Y21413D01*
X23000Y22468D02*
X24710Y20758D01*
Y17205D02*
Y20758D01*
X34553Y20544D02*
X36575Y22567D01*
X36521Y19967D02*
X37321Y20767D01*
X36521Y17205D02*
Y19967D01*
X43800Y12100D02*
Y13700D01*
X61400Y25300D02*
Y25462D01*
X68438Y20664D02*
X74163Y26388D01*
X60305Y24367D02*
X61400Y25462D01*
X71371Y18976D02*
X77251D01*
X70759Y18364D02*
X71371Y18976D01*
X60657Y18364D02*
X70759D01*
X28647Y22983D02*
X28800Y23135D01*
X85460Y40924D02*
X87319D01*
X77251Y18976D02*
X80626Y15601D01*
X86343Y-22100D02*
X87319Y-21124D01*
X65379Y-22100D02*
X86343D01*
X58737Y-15458D02*
X65379Y-22100D01*
X15049Y38094D02*
Y45000D01*
X51188Y6645D02*
X51849Y5984D01*
X51188Y6645D02*
Y9363D01*
X30616Y21698D02*
X31600Y22683D01*
X30616Y17205D02*
Y21698D01*
X32584Y21121D02*
X35830Y24367D01*
X32584Y17205D02*
Y21121D01*
X34553Y17205D02*
Y20544D01*
X79300Y-8600D02*
X86331D01*
X87319Y-7612D01*
X79783Y50100D02*
X84071Y54388D01*
X74251Y50100D02*
X79783D01*
X80020Y-36087D02*
X80496Y-35612D01*
X26700Y-15916D02*
Y-7900D01*
X16726Y11890D02*
X19395D01*
X13402Y15214D02*
X16726Y11890D01*
X29810Y-15789D02*
Y-15389D01*
X32810Y-16089D02*
Y-15311D01*
X30637Y-13138D02*
X32810Y-15311D01*
X30637Y-13138D02*
Y-7900D01*
X32606Y-12335D02*
X35909Y-15638D01*
X32606Y-12335D02*
Y-7900D01*
X34574Y-11024D02*
X40808Y-17258D01*
X34574Y-11024D02*
Y-7900D01*
X36543Y-10447D02*
X41554Y-15458D01*
X36543Y-10447D02*
Y-7900D01*
X26700Y-15916D02*
X26817Y-15800D01*
X35909Y-16063D02*
Y-15638D01*
X49257Y5984D02*
X51849D01*
X49253Y5989D02*
X49257Y5984D01*
X45571Y5989D02*
X49253D01*
X74163Y26388D02*
X87319D01*
X45567Y5984D02*
X45571Y5989D01*
X28647Y17205D02*
Y22983D01*
X35830Y24367D02*
X60305D01*
X42872Y-10927D02*
X44149Y-12204D01*
X40618Y-10927D02*
X42872D01*
X38599Y-8908D02*
X40618Y-10927D01*
X93528Y-48102D02*
X93829Y-47800D01*
X94100D01*
X88294Y-48102D02*
X93528D01*
X41554Y-15458D02*
X58737D01*
X40808Y-17258D02*
X57058D01*
X9253Y45000D02*
Y54794D01*
X57849Y-2358D02*
X60705D01*
X61988Y-1075D01*
X81722Y13967D02*
X86276D01*
X80626Y15062D02*
Y15601D01*
Y15062D02*
X81722Y13967D01*
X57058Y-17258D02*
X58700Y-18900D01*
X28669Y-14248D02*
X29810Y-15389D01*
X28669Y-14248D02*
Y-7900D01*
X58254Y20767D02*
X60657Y18364D01*
X84071Y54388D02*
X87319D01*
X24710Y-10758D02*
Y-7205D01*
X23000Y-12468D02*
X24710Y-10758D01*
X80496Y-35612D02*
X87319D01*
X58983Y413D02*
X60500D01*
X58636Y760D02*
X58983Y413D01*
X60500D02*
X61988Y-1075D01*
X9047Y55000D02*
X9253Y54794D01*
X87319Y-49076D02*
X88294Y-48102D01*
X15049Y45000D02*
X15947D01*
X86276Y13967D02*
X87319Y12924D01*
D52*
X69500Y4405D02*
X70500Y5405D01*
X69500Y4405D02*
Y5079D01*
X77776Y13500D02*
X79894Y11382D01*
X50558Y-7600D02*
X50726Y-7768D01*
X44149Y-5511D02*
X46237Y-7600D01*
X47800D02*
X50558D01*
X50600Y-7558D01*
X46237Y-7600D02*
X47800D01*
X44149Y-5511D02*
Y-2700D01*
X69626Y8874D02*
Y11038D01*
Y5931D02*
Y8874D01*
X69300Y5605D02*
X69626Y5931D01*
X77600Y13500D02*
X77776D01*
X75468D02*
X77600D01*
X75405Y13563D02*
X75468Y13500D01*
X70300Y5605D02*
X70500Y5405D01*
X50726Y-7768D02*
X61988D01*
X62500Y13563D02*
X63594D01*
X140000Y-20000D02*
Y-10000D01*
Y0D01*
D53*
X62350Y-7406D02*
X69500D01*
X61988Y-7768D02*
X62350Y-7406D01*
D54*
X129453Y40468D02*
X140000Y29921D01*
X133753Y3989D02*
X140000Y10236D01*
X129453Y-30283D02*
X133753Y-25983D01*
X129453Y-38100D02*
Y-30283D01*
Y49900D02*
Y51900D01*
Y44900D02*
Y49900D01*
Y40468D02*
Y44900D01*
Y39900D02*
Y40468D01*
X133753Y-25983D02*
Y3989D01*
D55*
X23200Y39500D02*
D03*
Y-30300D02*
D03*
X140000Y0D02*
D03*
Y-10000D02*
D03*
Y-50000D02*
D03*
Y-40000D02*
D03*
Y-30000D02*
D03*
Y-20000D02*
D03*
X0Y50000D02*
D03*
Y60000D02*
D03*
Y-20000D02*
D03*
Y-30000D02*
D03*
Y-40000D02*
D03*
Y-50000D02*
D03*
X63600Y-44000D02*
D03*
X53600D02*
D03*
X140000Y60000D02*
D03*
Y50000D02*
D03*
X0Y40000D02*
D03*
Y30000D02*
D03*
Y-10000D02*
D03*
Y0D02*
D03*
Y10000D02*
D03*
Y20000D02*
D03*
D56*
X140000D02*
D03*
Y10000D02*
D03*
Y40000D02*
D03*
Y30000D02*
D03*
D57*
X100600Y-3700D02*
D03*
X46373Y52527D02*
D03*
X8873Y37527D02*
D03*
X12623Y60027D02*
D03*
X50123Y15027D02*
D03*
X100600Y11300D02*
D03*
Y3800D02*
D03*
X36600Y45700D02*
D03*
X57623Y-49973D02*
D03*
X100600Y57200D02*
D03*
Y-11200D02*
D03*
Y49700D02*
D03*
X50123Y-49973D02*
D03*
X57623Y60027D02*
D03*
X35400Y-36800D02*
D03*
X35123Y60027D02*
D03*
X100600Y-43200D02*
D03*
Y18800D02*
D03*
X12623Y-29973D02*
D03*
X100600Y-50700D02*
D03*
X9800Y-48900D02*
D03*
X8873Y-37473D02*
D03*
Y22527D02*
D03*
X5123Y-29973D02*
D03*
X100600Y-18700D02*
D03*
X35123Y-49973D02*
D03*
X5123Y-14973D02*
D03*
X46373Y60027D02*
D03*
D58*
X21820Y-47727D02*
D03*
X22400Y57300D02*
D03*
X18886Y-43598D02*
D03*
X19164Y53425D02*
D03*
X25592Y61085D02*
D03*
X84105Y500D02*
D03*
X87319Y476D02*
D03*
X90533Y453D02*
D03*
X47800Y-7600D02*
D03*
X50600Y-7558D02*
D03*
X75700Y7500D02*
D03*
X79418Y-14600D02*
D03*
X66300Y13600D02*
D03*
X63500Y2989D02*
D03*
X69626Y8874D02*
D03*
X74549Y-7058D02*
D03*
X77018Y-16000D02*
D03*
X69349Y-3258D02*
D03*
X79400Y-17400D02*
D03*
X80092Y55800D02*
D03*
X77600Y13500D02*
D03*
X77500Y57500D02*
D03*
X80092Y59100D02*
D03*
X76700Y44950D02*
D03*
X63500Y7465D02*
D03*
X8100Y19300D02*
D03*
X84105Y34900D02*
D03*
X87319Y34876D02*
D03*
X90533Y34853D02*
D03*
Y-27147D02*
D03*
X87319Y-27124D02*
D03*
X84105Y-27100D02*
D03*
X83519Y-40424D02*
D03*
X90919D02*
D03*
X87219D02*
D03*
X25313Y-51259D02*
D03*
X78800Y10749D02*
D03*
X90533Y21388D02*
D03*
X87319Y21412D02*
D03*
X84105Y21435D02*
D03*
X58636Y13500D02*
D03*
X56400Y1156D02*
D03*
X78800Y43200D02*
D03*
Y46700D02*
D03*
D59*
X62400Y20664D02*
D03*
X31600Y23400D02*
D03*
X43800Y13700D02*
D03*
X61400Y25300D02*
D03*
X28800Y23135D02*
D03*
X13800Y3800D02*
D03*
X18900Y-6500D02*
D03*
X48500Y889D02*
D03*
X13400Y10000D02*
D03*
X51188Y9363D02*
D03*
X79300Y-8600D02*
D03*
X80020Y-36087D02*
D03*
X29810Y-15789D02*
D03*
X32810Y-16089D02*
D03*
X26817Y-15800D02*
D03*
X35909Y-16063D02*
D03*
X48300Y3689D02*
D03*
X94100Y-47800D02*
D03*
X58700Y-18900D02*
D03*
D60*
X62900Y29500D02*
D03*
X64800Y27700D02*
D03*
X60965Y31400D02*
D03*
X41100Y18200D02*
D03*
X21800Y-8185D02*
D03*
X35931Y5000D02*
D03*
Y669D02*
D03*
X2200Y-5000D02*
D03*
X35931Y9331D02*
D03*
X31600D02*
D03*
Y5000D02*
D03*
Y669D02*
D03*
X27269Y9331D02*
D03*
Y5000D02*
D03*
Y669D02*
D03*
X69700Y-45000D02*
D03*
X75100D02*
D03*
X72400D02*
D03*
X15049Y38094D02*
D03*
X69057Y34853D02*
D03*
X111453Y55900D02*
D03*
Y47900D02*
D03*
Y39900D02*
D03*
X107453Y59900D02*
D03*
Y51900D02*
D03*
Y43900D02*
D03*
X129453Y59900D02*
D03*
Y39900D02*
D03*
Y16900D02*
D03*
Y21900D02*
D03*
X107453Y11900D02*
D03*
X111453Y15900D02*
D03*
X107453Y19900D02*
D03*
X111453Y23900D02*
D03*
X107453Y27900D02*
D03*
X111453Y31900D02*
D03*
X129453Y-22100D02*
D03*
Y-17100D02*
D03*
Y-12100D02*
D03*
Y-7100D02*
D03*
X107453Y-22100D02*
D03*
X111453Y-18100D02*
D03*
X107453Y-14100D02*
D03*
X111453Y-10100D02*
D03*
X107453Y-6100D02*
D03*
X111453Y-2100D02*
D03*
X129453Y-47000D02*
D03*
Y-42775D02*
D03*
Y-38550D02*
D03*
Y-34325D02*
D03*
Y-30100D02*
D03*
X107453Y-47000D02*
D03*
X111453Y-43620D02*
D03*
X107453Y-40240D02*
D03*
X111453Y-36860D02*
D03*
X107453Y-33480D02*
D03*
X111453Y-30100D02*
D03*
X129453Y26900D02*
D03*
Y31900D02*
D03*
Y-2100D02*
D03*
Y54900D02*
D03*
Y44900D02*
D03*
Y49900D02*
D03*
M02*
