G04*
G04 #@! TF.GenerationSoftware,Altium Limited,Altium Designer,18.1.7 (191)*
G04*
G04 Layer_Physical_Order=3*
G04 Layer_Color=16440176*
%FSLAX25Y25*%
%MOIN*%
G70*
G01*
G75*
%ADD53C,0.02000*%
%ADD55C,0.05906*%
%ADD57C,0.02410*%
%ADD58C,0.02600*%
%ADD59C,0.02200*%
%ADD60C,0.02400*%
%ADD61C,0.06000*%
G36*
X87897Y62729D02*
X81736Y56567D01*
X81097Y56635D01*
X81029Y56737D01*
X80599Y57025D01*
X80092Y57126D01*
X79584Y57025D01*
X79154Y56737D01*
X79145Y56722D01*
X79141Y56717D01*
X78725Y56993D01*
X78825Y57500D01*
X78750Y57877D01*
X79027Y58073D01*
X79194Y58136D01*
X79584Y57875D01*
X80092Y57775D01*
X80599Y57875D01*
X81029Y58163D01*
X81316Y58593D01*
X81417Y59100D01*
X81316Y59607D01*
X81029Y60037D01*
X80599Y60325D01*
X80092Y60426D01*
X79584Y60325D01*
X79154Y60037D01*
X78867Y59607D01*
X78766Y59100D01*
X78841Y58723D01*
X78564Y58527D01*
X78398Y58464D01*
X78007Y58725D01*
X77500Y58825D01*
X76993Y58725D01*
X76563Y58437D01*
X76275Y58007D01*
X76174Y57500D01*
X76275Y56993D01*
X76563Y56563D01*
X76993Y56275D01*
X77500Y56174D01*
X78007Y56275D01*
X78437Y56563D01*
X78447Y56577D01*
X78451Y56583D01*
X78867Y56307D01*
X78766Y55800D01*
X78867Y55293D01*
X79154Y54863D01*
X79256Y54795D01*
X79325Y54156D01*
X75798Y50630D01*
X75798Y50629D01*
X75381Y50213D01*
X75346Y50159D01*
X75296Y50118D01*
X74548Y49207D01*
X74518Y49150D01*
X74473Y49105D01*
X73818Y48125D01*
X73793Y48066D01*
X73752Y48016D01*
X73197Y46976D01*
X73178Y46915D01*
X73142Y46861D01*
X72691Y45772D01*
X72679Y45709D01*
X72648Y45653D01*
X72306Y44524D01*
X72300Y44460D01*
X72275Y44401D01*
X72045Y43245D01*
Y43181D01*
X72027Y43119D01*
X71911Y41946D01*
X71917Y41882D01*
X71905Y41819D01*
X71905Y41230D01*
X71905Y34040D01*
X71905Y34040D01*
X71874Y32772D01*
X71627Y30263D01*
X71138Y27807D01*
X70411Y25410D01*
X69453Y23096D01*
X68273Y20888D01*
X66881Y18805D01*
X65580Y17220D01*
X65505Y17080D01*
X65411Y16952D01*
X65387Y16859D01*
X65342Y16775D01*
X65327Y16617D01*
X65288Y16462D01*
X65302Y16367D01*
X65293Y16272D01*
X65339Y16120D01*
X65362Y15963D01*
X65559Y15414D01*
X65640Y15278D01*
X65701Y15131D01*
X65769Y15063D01*
X65818Y14980D01*
X65946Y14886D01*
X66058Y14773D01*
X66147Y14737D01*
X66224Y14680D01*
X66378Y14641D01*
X66525Y14580D01*
X66692Y14547D01*
X67025Y14325D01*
X67247Y13992D01*
X67325Y13600D01*
X67247Y13208D01*
X67025Y12875D01*
X66692Y12653D01*
X66300Y12575D01*
X65908Y12653D01*
X65575Y12875D01*
X65353Y13208D01*
X65333Y13309D01*
X65260Y13484D01*
X65205Y13667D01*
X65164Y13716D01*
X65140Y13776D01*
X65005Y13910D01*
X64885Y14057D01*
X64828Y14087D01*
X64783Y14133D01*
X64607Y14206D01*
X64439Y14295D01*
X63897Y14460D01*
X63707Y14478D01*
X63521Y14515D01*
X63458Y14503D01*
X63394Y14509D01*
X63212Y14454D01*
X63025Y14417D01*
X62972Y14381D01*
X62910Y14363D01*
X62763Y14242D01*
X62605Y14136D01*
X51944Y3475D01*
X51944Y3475D01*
X51095Y2626D01*
X51059Y2572D01*
X51010Y2532D01*
X50090Y1412D01*
X49526Y1512D01*
X49365Y1754D01*
X48968Y2019D01*
X48794Y2054D01*
X48771Y2510D01*
X48780Y2566D01*
X49165Y2823D01*
X49430Y3220D01*
X49523Y3689D01*
X49430Y4157D01*
X49165Y4554D01*
X48768Y4819D01*
X48300Y4912D01*
X47832Y4819D01*
X47435Y4554D01*
X47170Y4157D01*
X47076Y3689D01*
X47170Y3220D01*
X47435Y2823D01*
X47832Y2558D01*
X48006Y2524D01*
X48029Y2067D01*
X48020Y2011D01*
X47635Y1754D01*
X47370Y1357D01*
X47276Y889D01*
X47370Y420D01*
X47635Y23D01*
X48032Y-242D01*
X48237Y-283D01*
X48487Y-809D01*
X48076Y-1424D01*
X48051Y-1483D01*
X48011Y-1533D01*
X46878Y-3651D01*
X46860Y-3713D01*
X46824Y-3766D01*
X45905Y-5985D01*
X45893Y-6048D01*
X45862Y-6105D01*
X45720Y-6573D01*
X45633Y-6703D01*
X45543Y-7156D01*
X45165Y-8403D01*
X45159Y-8467D01*
X45134Y-8526D01*
X44666Y-10882D01*
Y-10946D01*
X44647Y-11007D01*
X44411Y-13398D01*
X44418Y-13462D01*
X44405Y-13525D01*
X44405Y-14726D01*
X44405Y-19229D01*
X44405Y-19229D01*
X44405Y-19949D01*
X44417Y-20012D01*
X44411Y-20076D01*
X44552Y-21509D01*
X44571Y-21571D01*
Y-21635D01*
X44852Y-23047D01*
X44876Y-23106D01*
X44883Y-23170D01*
X45300Y-24548D01*
X45331Y-24605D01*
X45343Y-24668D01*
X45894Y-25998D01*
X45930Y-26051D01*
X45948Y-26113D01*
X46627Y-27383D01*
X46668Y-27432D01*
X46693Y-27492D01*
X47493Y-28689D01*
X47538Y-28734D01*
X47568Y-28791D01*
X48482Y-29904D01*
X48531Y-29945D01*
X48567Y-29998D01*
X49076Y-30507D01*
X49076Y-30507D01*
X59293Y-40725D01*
Y-44200D01*
X59440Y-45315D01*
X59870Y-46353D01*
X60555Y-47245D01*
X61447Y-47930D01*
X62485Y-48360D01*
X63600Y-48507D01*
X64715Y-48360D01*
X65753Y-47930D01*
X66645Y-47245D01*
X67330Y-46353D01*
X67760Y-45315D01*
X67907Y-44200D01*
Y-43995D01*
X90403Y-43995D01*
X90874Y-43995D01*
X91339Y-43995D01*
X91339Y-43995D01*
X91339Y-43995D01*
X91576Y-43995D01*
X91701Y-43970D01*
X91828Y-43970D01*
X93205Y-43696D01*
X93323Y-43647D01*
X93448Y-43622D01*
X94745Y-43086D01*
X94851Y-43015D01*
X94969Y-42966D01*
X96136Y-42186D01*
X96226Y-42096D01*
X96332Y-42025D01*
X97325Y-41033D01*
X97395Y-40927D01*
X97486Y-40836D01*
X98265Y-39669D01*
X98314Y-39551D01*
X98385Y-39445D01*
X98922Y-38149D01*
X98947Y-38024D01*
X98996Y-37906D01*
X99270Y-36529D01*
X99270Y-36402D01*
X99295Y-36277D01*
X99295Y-35575D01*
X99295Y-33321D01*
X99312Y-32977D01*
X99452Y-32272D01*
X99715Y-31638D01*
X100114Y-31041D01*
X100345Y-30786D01*
X107114Y-24017D01*
X107185Y-23911D01*
X107275Y-23821D01*
X107324Y-23704D01*
X107394Y-23597D01*
X107419Y-23472D01*
X107468Y-23355D01*
Y-23321D01*
X107921Y-23230D01*
X108318Y-22965D01*
X108583Y-22568D01*
X108674Y-22115D01*
X108707D01*
X108825Y-22066D01*
X108950Y-22041D01*
X109056Y-21971D01*
X109174Y-21922D01*
X109265Y-21832D01*
X109371Y-21761D01*
X111114Y-20018D01*
X111185Y-19911D01*
X111275Y-19821D01*
X111324Y-19703D01*
X111394Y-19598D01*
X111419Y-19472D01*
X111468Y-19355D01*
Y-19320D01*
X111921Y-19230D01*
X112318Y-18965D01*
X112583Y-18568D01*
X112673Y-18115D01*
X112708D01*
X112825Y-18066D01*
X112951Y-18042D01*
X113057Y-17971D01*
X113174Y-17922D01*
X113265Y-17832D01*
X113371Y-17761D01*
X125431Y-5701D01*
X126090Y-5104D01*
X127587Y-4103D01*
X128410Y-3762D01*
X128516Y-3691D01*
X128634Y-3642D01*
X128724Y-3552D01*
X128830Y-3481D01*
X128901Y-3375D01*
X128991Y-3285D01*
X129011Y-3236D01*
X129453Y-3323D01*
X129921Y-3230D01*
X130318Y-2965D01*
X130373Y-2883D01*
X130447Y-2913D01*
X130584Y-2995D01*
X130678Y-3009D01*
X130767Y-3046D01*
X130926D01*
X131083Y-3069D01*
X131874Y-3031D01*
X135698Y-3031D01*
X135823Y-3006D01*
X135951D01*
X136069Y-2957D01*
X136194Y-2932D01*
X136300Y-2861D01*
X136418Y-2812D01*
X136490Y-2740D01*
X136573Y-2679D01*
X136614Y-2651D01*
X137051Y-2726D01*
X137144Y-2771D01*
X137181Y-2819D01*
X138007Y-3453D01*
X138968Y-3851D01*
X139250Y-3888D01*
Y0D01*
X140750D01*
Y-3888D01*
X141032Y-3851D01*
X141993Y-3453D01*
X142690Y-2918D01*
X143190Y-3100D01*
Y-6900D01*
X142690Y-7082D01*
X141993Y-6547D01*
X141032Y-6149D01*
X140750Y-6112D01*
Y-10000D01*
Y-13888D01*
X141032Y-13851D01*
X141993Y-13453D01*
X142690Y-12918D01*
X143190Y-13100D01*
Y-16900D01*
X142690Y-17082D01*
X141993Y-16547D01*
X141032Y-16149D01*
X140750Y-16112D01*
Y-20000D01*
Y-23888D01*
X141032Y-23851D01*
X141993Y-23453D01*
X142690Y-22918D01*
X143190Y-23100D01*
Y-26900D01*
X142690Y-27082D01*
X141993Y-26547D01*
X141032Y-26149D01*
X140750Y-26112D01*
Y-30000D01*
Y-33888D01*
X141032Y-33851D01*
X141993Y-33453D01*
X142690Y-32918D01*
X143190Y-33100D01*
Y-36900D01*
X142690Y-37082D01*
X141993Y-36547D01*
X141032Y-36149D01*
X140750Y-36112D01*
Y-40000D01*
Y-43888D01*
X141032Y-43851D01*
X141993Y-43453D01*
X142690Y-42918D01*
X143190Y-43100D01*
Y-46900D01*
X142690Y-47082D01*
X141993Y-46547D01*
X141032Y-46149D01*
X140750Y-46112D01*
Y-50000D01*
X140000D01*
Y-50750D01*
X136112D01*
X136149Y-51032D01*
X136547Y-51993D01*
X137082Y-52690D01*
X136900Y-53190D01*
X2499D01*
X2330Y-52690D01*
X2534Y-52534D01*
X3103Y-51792D01*
X3461Y-50927D01*
X3583Y-50000D01*
X3461Y-49073D01*
X3103Y-48208D01*
X2534Y-47466D01*
X1792Y-46897D01*
X927Y-46539D01*
X0Y-46417D01*
X-927Y-46539D01*
X-1792Y-46897D01*
X-2534Y-47466D01*
X-2691Y-47670D01*
X-3190Y-47501D01*
Y-42500D01*
X-2691Y-42330D01*
X-2534Y-42534D01*
X-1792Y-43103D01*
X-927Y-43461D01*
X0Y-43583D01*
X927Y-43461D01*
X1792Y-43103D01*
X2534Y-42534D01*
X3103Y-41792D01*
X3461Y-40927D01*
X3583Y-40000D01*
X3461Y-39073D01*
X3103Y-38208D01*
X2534Y-37466D01*
X1792Y-36897D01*
X927Y-36539D01*
X0Y-36417D01*
X-927Y-36539D01*
X-1792Y-36897D01*
X-2534Y-37466D01*
X-2691Y-37670D01*
X-3190Y-37501D01*
X-3190Y-32500D01*
X-2691Y-32330D01*
X-2534Y-32534D01*
X-1792Y-33103D01*
X-927Y-33461D01*
X0Y-33583D01*
X927Y-33461D01*
X1792Y-33103D01*
X2534Y-32534D01*
X3103Y-31792D01*
X3461Y-30927D01*
X3583Y-30000D01*
X3461Y-29073D01*
X3103Y-28208D01*
X2534Y-27466D01*
X1792Y-26897D01*
X927Y-26539D01*
X0Y-26417D01*
X-927Y-26539D01*
X-1792Y-26897D01*
X-2534Y-27466D01*
X-2691Y-27670D01*
X-3190Y-27501D01*
Y-23100D01*
X-2691Y-22918D01*
X-1993Y-23453D01*
X-1032Y-23851D01*
X-750Y-23888D01*
Y-20000D01*
Y-16112D01*
X-1032Y-16149D01*
X-1993Y-16547D01*
X-2691Y-17082D01*
X-3190Y-16900D01*
Y-12499D01*
X-2691Y-12330D01*
X-2534Y-12534D01*
X-1792Y-13103D01*
X-927Y-13461D01*
X0Y-13583D01*
X927Y-13461D01*
X1792Y-13103D01*
X2534Y-12534D01*
X3103Y-11792D01*
X3461Y-10927D01*
X3583Y-10000D01*
X3461Y-9072D01*
X3103Y-8208D01*
X2534Y-7466D01*
X1792Y-6897D01*
X927Y-6539D01*
X0Y-6417D01*
X-927Y-6539D01*
X-1792Y-6897D01*
X-2534Y-7466D01*
X-2691Y-7670D01*
X-3190Y-7501D01*
Y-2499D01*
X-2691Y-2330D01*
X-2534Y-2534D01*
X-1792Y-3103D01*
X-927Y-3461D01*
X0Y-3583D01*
X927Y-3461D01*
X1792Y-3103D01*
X2534Y-2534D01*
X3103Y-1792D01*
X3461Y-927D01*
X3583Y0D01*
X3461Y927D01*
X3103Y1792D01*
X2534Y2534D01*
X1792Y3103D01*
X927Y3461D01*
X0Y3583D01*
X-927Y3461D01*
X-1792Y3103D01*
X-2534Y2534D01*
X-2691Y2330D01*
X-3190Y2499D01*
Y7501D01*
X-2691Y7670D01*
X-2534Y7466D01*
X-1792Y6897D01*
X-927Y6539D01*
X0Y6417D01*
X927Y6539D01*
X1792Y6897D01*
X2534Y7466D01*
X3103Y8208D01*
X3461Y9072D01*
X3583Y10000D01*
X3461Y10927D01*
X3103Y11792D01*
X2534Y12534D01*
X1792Y13103D01*
X927Y13461D01*
X0Y13583D01*
X-927Y13461D01*
X-1792Y13103D01*
X-2534Y12534D01*
X-2691Y12330D01*
X-3190Y12499D01*
Y17501D01*
X-2691Y17670D01*
X-2534Y17466D01*
X-1792Y16897D01*
X-927Y16539D01*
X0Y16417D01*
X927Y16539D01*
X1792Y16897D01*
X2534Y17466D01*
X3103Y18208D01*
X3461Y19073D01*
X3583Y20000D01*
X3461Y20927D01*
X3103Y21792D01*
X2534Y22534D01*
X1792Y23103D01*
X927Y23461D01*
X0Y23583D01*
X-927Y23461D01*
X-1792Y23103D01*
X-2534Y22534D01*
X-2691Y22330D01*
X-3190Y22499D01*
Y27501D01*
X-2691Y27670D01*
X-2534Y27466D01*
X-1792Y26897D01*
X-927Y26539D01*
X0Y26417D01*
X927Y26539D01*
X1792Y26897D01*
X2534Y27466D01*
X3103Y28208D01*
X3461Y29073D01*
X3583Y30000D01*
X3461Y30927D01*
X3103Y31792D01*
X2534Y32534D01*
X1792Y33103D01*
X927Y33461D01*
X0Y33583D01*
X-927Y33461D01*
X-1792Y33103D01*
X-2534Y32534D01*
X-2691Y32330D01*
X-3190Y32499D01*
Y37501D01*
X-2691Y37670D01*
X-2534Y37466D01*
X-1792Y36897D01*
X-927Y36539D01*
X0Y36417D01*
X927Y36539D01*
X1792Y36897D01*
X2534Y37466D01*
X3103Y38208D01*
X3461Y39073D01*
X3583Y40000D01*
X3461Y40927D01*
X3103Y41792D01*
X2534Y42534D01*
X1792Y43103D01*
X927Y43461D01*
X0Y43583D01*
X-927Y43461D01*
X-1792Y43103D01*
X-2534Y42534D01*
X-2691Y42330D01*
X-3190Y42499D01*
Y46900D01*
X-2691Y47082D01*
X-1993Y46547D01*
X-1032Y46149D01*
X-750Y46112D01*
Y50000D01*
X-0D01*
D01*
X-750D01*
Y53888D01*
X-1032Y53851D01*
X-1993Y53453D01*
X-2691Y52918D01*
X-3190Y53100D01*
Y57501D01*
X-2691Y57670D01*
X-2534Y57466D01*
X-1792Y56897D01*
X-927Y56539D01*
X0Y56417D01*
X927Y56539D01*
X1088Y56605D01*
X13418Y44275D01*
Y38893D01*
X13354Y38797D01*
X13214Y38094D01*
X13354Y37392D01*
X13418Y37296D01*
Y25750D01*
X13542Y25126D01*
X13896Y24597D01*
X21181Y17312D01*
X21710Y16958D01*
X22335Y16834D01*
X33759D01*
X42383Y8210D01*
X42912Y7856D01*
X43537Y7732D01*
X50676D01*
X51188Y7630D01*
X51852Y7762D01*
X52414Y8138D01*
X52790Y8700D01*
X52922Y9363D01*
X52790Y10027D01*
X52414Y10589D01*
X51852Y10965D01*
X51188Y11097D01*
X50676Y10995D01*
X44212D01*
X35588Y19619D01*
X35059Y19973D01*
X34435Y20097D01*
X23010D01*
X16681Y26426D01*
Y37296D01*
X16745Y37392D01*
X16885Y38094D01*
X16745Y38797D01*
X16681Y38893D01*
Y44951D01*
X16557Y45575D01*
X16203Y46104D01*
X3395Y58912D01*
X3461Y59073D01*
X3583Y60000D01*
X3461Y60927D01*
X3103Y61792D01*
X2534Y62534D01*
X2330Y62690D01*
X2499Y63190D01*
X87706D01*
X87897Y62729D01*
D02*
G37*
G36*
X141887Y63053D02*
X142586Y62586D01*
X143053Y61887D01*
X143204Y61129D01*
X143191Y61063D01*
Y53505D01*
X142691Y53258D01*
X142130Y53689D01*
X141102Y54114D01*
X140000Y54259D01*
X138898Y54114D01*
X137870Y53689D01*
X136988Y53012D01*
X136311Y52130D01*
X135886Y51102D01*
X135741Y50000D01*
X135886Y48898D01*
X136311Y47870D01*
X136988Y46988D01*
X137870Y46311D01*
X138898Y45886D01*
X140000Y45741D01*
X141102Y45886D01*
X142130Y46311D01*
X142691Y46742D01*
X143191Y46495D01*
Y43753D01*
X142691Y43506D01*
X142229Y43861D01*
X141154Y44306D01*
X140000Y44458D01*
X138846Y44306D01*
X137771Y43861D01*
X136848Y43152D01*
X136140Y42229D01*
X135694Y41154D01*
X135542Y40000D01*
X135694Y38846D01*
X136140Y37771D01*
X136848Y36848D01*
X137771Y36140D01*
X138846Y35694D01*
X140000Y35542D01*
X141154Y35694D01*
X142229Y36140D01*
X142691Y36494D01*
X143191Y36247D01*
Y33753D01*
X142691Y33506D01*
X142229Y33860D01*
X141154Y34306D01*
X140000Y34458D01*
X138846Y34306D01*
X137771Y33860D01*
X136848Y33152D01*
X136140Y32229D01*
X135694Y31154D01*
X135542Y30000D01*
X135694Y28846D01*
X136140Y27771D01*
X136848Y26848D01*
X137771Y26140D01*
X138846Y25694D01*
X140000Y25542D01*
X141154Y25694D01*
X142229Y26140D01*
X142691Y26494D01*
X143191Y26247D01*
Y23753D01*
X142691Y23506D01*
X142229Y23860D01*
X141154Y24306D01*
X140000Y24458D01*
X138846Y24306D01*
X137771Y23860D01*
X136848Y23152D01*
X136140Y22229D01*
X135694Y21154D01*
X135542Y20000D01*
X135694Y18846D01*
X136140Y17771D01*
X136848Y16848D01*
X137771Y16139D01*
X138846Y15694D01*
X140000Y15542D01*
X141154Y15694D01*
X142229Y16139D01*
X142691Y16494D01*
X143191Y16247D01*
Y13753D01*
X142691Y13506D01*
X142229Y13860D01*
X141154Y14306D01*
X140000Y14458D01*
X138846Y14306D01*
X137771Y13860D01*
X136848Y13152D01*
X136140Y12229D01*
X135694Y11154D01*
X135542Y10000D01*
X135694Y8846D01*
X136140Y7771D01*
X136848Y6848D01*
X137771Y6140D01*
X138846Y5694D01*
X140000Y5542D01*
X141154Y5694D01*
X142229Y6140D01*
X142690Y6494D01*
X143191Y6247D01*
X143190Y3505D01*
X142690Y3258D01*
X142130Y3689D01*
X141102Y4114D01*
X140000Y4259D01*
X138898Y4114D01*
X137870Y3689D01*
X136988Y3012D01*
X136311Y2130D01*
X135886Y1102D01*
X135741Y0D01*
X135886Y-1102D01*
X135976Y-1320D01*
X135698Y-1736D01*
X131843Y-1736D01*
X131020Y-1776D01*
X130960Y-1476D01*
X130606Y-946D01*
X130077Y-593D01*
X129453Y-469D01*
X128829Y-593D01*
X128299Y-946D01*
X127946Y-1476D01*
X127822Y-2100D01*
X127914Y-2566D01*
X126974Y-2955D01*
X125291Y-4080D01*
X124540Y-4761D01*
X124540Y-4761D01*
X124540Y-4761D01*
X112455Y-16845D01*
X112077Y-16593D01*
X111453Y-16469D01*
X110829Y-16593D01*
X110299Y-16947D01*
X109946Y-17476D01*
X109822Y-18100D01*
X109946Y-18724D01*
X110198Y-19102D01*
X108455Y-20845D01*
X108077Y-20593D01*
X107453Y-20469D01*
X106829Y-20593D01*
X106299Y-20946D01*
X105946Y-21476D01*
X105822Y-22100D01*
X105946Y-22724D01*
X106198Y-23102D01*
X99407Y-29893D01*
X99091Y-30242D01*
X98568Y-31025D01*
X98207Y-31895D01*
X98024Y-32816D01*
X98024Y-32818D01*
X98001Y-33289D01*
X98001D01*
X98001Y-33289D01*
X98000Y-35575D01*
X98000Y-36277D01*
X97726Y-37653D01*
X97189Y-38950D01*
X96409Y-40117D01*
X95416Y-41109D01*
X94249Y-41889D01*
X92953Y-42426D01*
X91576Y-42700D01*
X91339Y-42700D01*
X90874Y-42700D01*
X90403Y-42700D01*
X63100Y-42700D01*
X49992Y-29592D01*
X49483Y-29082D01*
X48569Y-27969D01*
X47769Y-26772D01*
X47091Y-25502D01*
X46540Y-24172D01*
X46122Y-22794D01*
X45841Y-21382D01*
X45700Y-19949D01*
X45700Y-19229D01*
X45700Y-19229D01*
X45700Y-14726D01*
X45700Y-13525D01*
X45935Y-11134D01*
X46404Y-8779D01*
X47101Y-6481D01*
X48020Y-4262D01*
X49153Y-2143D01*
X50487Y-146D01*
X52011Y1710D01*
X52860Y2560D01*
X52860Y2560D01*
X63521Y13221D01*
X64063Y13056D01*
X64134Y12703D01*
X64642Y11942D01*
X65403Y11434D01*
X66300Y11255D01*
X67197Y11434D01*
X67958Y11942D01*
X68467Y12703D01*
X68645Y13600D01*
X68467Y14497D01*
X67958Y15258D01*
X67197Y15767D01*
X66778Y15850D01*
X66581Y16399D01*
X67922Y18033D01*
X69384Y20221D01*
X70625Y22542D01*
X71632Y24974D01*
X72396Y27492D01*
X72909Y30073D01*
X73167Y32692D01*
X73199Y34008D01*
X73200Y34008D01*
X73200Y41230D01*
X73200Y41819D01*
X73315Y42992D01*
X73545Y44149D01*
X73887Y45277D01*
X74339Y46366D01*
X74894Y47405D01*
X75549Y48386D01*
X76297Y49297D01*
X76714Y49714D01*
X76714Y49714D01*
X90190Y63190D01*
X141063D01*
X141129Y63204D01*
X141887Y63053D01*
D02*
G37*
%LPC*%
G36*
X750Y53888D02*
Y50750D01*
X3888D01*
X3851Y51032D01*
X3453Y51993D01*
X2819Y52819D01*
X1993Y53453D01*
X1032Y53851D01*
X750Y53888D01*
D02*
G37*
G36*
X3888Y49250D02*
X750D01*
Y46112D01*
X1032Y46149D01*
X1993Y46547D01*
X2819Y47181D01*
X3453Y48007D01*
X3851Y48968D01*
X3888Y49250D01*
D02*
G37*
G36*
X22888Y43070D02*
X21974Y42867D01*
X21145Y42435D01*
X20455Y41803D01*
X19952Y41014D01*
X19671Y40122D01*
X19630Y39188D01*
X19833Y38274D01*
X20265Y37445D01*
X20897Y36755D01*
X21686Y36252D01*
X22578Y35971D01*
X23512Y35930D01*
X24426Y36133D01*
X25255Y36565D01*
X25945Y37197D01*
X26448Y37986D01*
X26729Y38878D01*
X26770Y39812D01*
X26567Y40726D01*
X26135Y41555D01*
X25503Y42245D01*
X24714Y42748D01*
X23822Y43029D01*
X22888Y43070D01*
D02*
G37*
G36*
X61400Y26524D02*
X60932Y26430D01*
X60535Y26165D01*
X60270Y25768D01*
X60176Y25300D01*
X60270Y24832D01*
X60535Y24435D01*
X60932Y24170D01*
X61400Y24077D01*
X61868Y24170D01*
X62265Y24435D01*
X62530Y24832D01*
X62624Y25300D01*
X62530Y25768D01*
X62265Y26165D01*
X61868Y26430D01*
X61400Y26524D01*
D02*
G37*
G36*
X31600Y24623D02*
X31132Y24530D01*
X30735Y24265D01*
X30470Y23868D01*
X30429Y23662D01*
X30028Y23615D01*
X29912Y23630D01*
X29665Y24001D01*
X29268Y24266D01*
X28800Y24359D01*
X28332Y24266D01*
X27935Y24001D01*
X27670Y23604D01*
X27577Y23135D01*
X27670Y22667D01*
X27935Y22270D01*
X28332Y22005D01*
X28800Y21912D01*
X29268Y22005D01*
X29665Y22270D01*
X29930Y22667D01*
X29971Y22873D01*
X30372Y22920D01*
X30487Y22905D01*
X30735Y22535D01*
X31132Y22270D01*
X31600Y22176D01*
X32068Y22270D01*
X32465Y22535D01*
X32730Y22932D01*
X32824Y23400D01*
X32730Y23868D01*
X32465Y24265D01*
X32068Y24530D01*
X31600Y24623D01*
D02*
G37*
G36*
X62400Y21887D02*
X61932Y21794D01*
X61535Y21529D01*
X61270Y21132D01*
X61177Y20664D01*
X61270Y20196D01*
X61535Y19799D01*
X61932Y19533D01*
X62400Y19440D01*
X62868Y19533D01*
X63265Y19799D01*
X63530Y20196D01*
X63623Y20664D01*
X63530Y21132D01*
X63265Y21529D01*
X62868Y21794D01*
X62400Y21887D01*
D02*
G37*
G36*
X13400Y11224D02*
X12932Y11130D01*
X12535Y10865D01*
X12270Y10468D01*
X12177Y10000D01*
X12270Y9532D01*
X12535Y9135D01*
X12932Y8870D01*
X13400Y8777D01*
X13868Y8870D01*
X14265Y9135D01*
X14530Y9532D01*
X14624Y10000D01*
X14530Y10468D01*
X14265Y10865D01*
X13868Y11130D01*
X13400Y11224D01*
D02*
G37*
G36*
X13800Y5023D02*
X13332Y4930D01*
X12935Y4665D01*
X12670Y4268D01*
X12576Y3800D01*
X12670Y3332D01*
X12935Y2935D01*
X13332Y2670D01*
X13800Y2576D01*
X14268Y2670D01*
X14665Y2935D01*
X14930Y3332D01*
X15023Y3800D01*
X14930Y4268D01*
X14665Y4665D01*
X14268Y4930D01*
X13800Y5023D01*
D02*
G37*
G36*
X18900Y-5277D02*
X18432Y-5370D01*
X18035Y-5635D01*
X17770Y-6032D01*
X17676Y-6500D01*
X17770Y-6968D01*
X18035Y-7365D01*
X18432Y-7630D01*
X18900Y-7723D01*
X19368Y-7630D01*
X19765Y-7365D01*
X20030Y-6968D01*
X20123Y-6500D01*
X20030Y-6032D01*
X19765Y-5635D01*
X19368Y-5370D01*
X18900Y-5277D01*
D02*
G37*
G36*
X129453Y-5877D02*
X128985Y-5970D01*
X128588Y-6235D01*
X128323Y-6632D01*
X128229Y-7100D01*
X128323Y-7568D01*
X128588Y-7965D01*
X128985Y-8230D01*
X129453Y-8324D01*
X129921Y-8230D01*
X130318Y-7965D01*
X130583Y-7568D01*
X130676Y-7100D01*
X130583Y-6632D01*
X130318Y-6235D01*
X129921Y-5970D01*
X129453Y-5877D01*
D02*
G37*
G36*
X139250Y-6112D02*
X138968Y-6149D01*
X138007Y-6547D01*
X137181Y-7181D01*
X136547Y-8007D01*
X136149Y-8968D01*
X136112Y-9250D01*
X139250D01*
Y-6112D01*
D02*
G37*
G36*
X129453Y-10876D02*
X128985Y-10970D01*
X128588Y-11235D01*
X128323Y-11632D01*
X128229Y-12100D01*
X128323Y-12568D01*
X128588Y-12965D01*
X128985Y-13230D01*
X129453Y-13323D01*
X129921Y-13230D01*
X130318Y-12965D01*
X130583Y-12568D01*
X130676Y-12100D01*
X130583Y-11632D01*
X130318Y-11235D01*
X129921Y-10970D01*
X129453Y-10876D01*
D02*
G37*
G36*
X139250Y-10750D02*
X136112D01*
X136149Y-11032D01*
X136547Y-11993D01*
X137181Y-12819D01*
X138007Y-13453D01*
X138968Y-13851D01*
X139250Y-13888D01*
Y-10750D01*
D02*
G37*
G36*
X29810Y-14566D02*
X29342Y-14659D01*
X28945Y-14924D01*
X28680Y-15321D01*
X28586Y-15789D01*
X28680Y-16258D01*
X28945Y-16655D01*
X29342Y-16920D01*
X29810Y-17013D01*
X30278Y-16920D01*
X30675Y-16655D01*
X30940Y-16258D01*
X31033Y-15789D01*
X30940Y-15321D01*
X30675Y-14924D01*
X30278Y-14659D01*
X29810Y-14566D01*
D02*
G37*
G36*
X26817Y-14577D02*
X26349Y-14670D01*
X25952Y-14935D01*
X25687Y-15332D01*
X25594Y-15800D01*
X25687Y-16268D01*
X25952Y-16665D01*
X26349Y-16930D01*
X26817Y-17023D01*
X27285Y-16930D01*
X27682Y-16665D01*
X27947Y-16268D01*
X28041Y-15800D01*
X27947Y-15332D01*
X27682Y-14935D01*
X27285Y-14670D01*
X26817Y-14577D01*
D02*
G37*
G36*
X35909Y-14840D02*
X35440Y-14933D01*
X35044Y-15198D01*
X34778Y-15595D01*
X34685Y-16063D01*
X34778Y-16532D01*
X35044Y-16929D01*
X35440Y-17194D01*
X35909Y-17287D01*
X36377Y-17194D01*
X36774Y-16929D01*
X37039Y-16532D01*
X37132Y-16063D01*
X37039Y-15595D01*
X36774Y-15198D01*
X36377Y-14933D01*
X35909Y-14840D01*
D02*
G37*
G36*
X32810Y-14866D02*
X32342Y-14959D01*
X31945Y-15224D01*
X31680Y-15621D01*
X31586Y-16089D01*
X31680Y-16558D01*
X31945Y-16955D01*
X32342Y-17220D01*
X32810Y-17313D01*
X33278Y-17220D01*
X33675Y-16955D01*
X33940Y-16558D01*
X34033Y-16089D01*
X33940Y-15621D01*
X33675Y-15224D01*
X33278Y-14959D01*
X32810Y-14866D01*
D02*
G37*
G36*
X129453Y-15877D02*
X128985Y-15970D01*
X128588Y-16235D01*
X128323Y-16632D01*
X128229Y-17100D01*
X128323Y-17568D01*
X128588Y-17965D01*
X128985Y-18230D01*
X129453Y-18324D01*
X129921Y-18230D01*
X130318Y-17965D01*
X130583Y-17568D01*
X130676Y-17100D01*
X130583Y-16632D01*
X130318Y-16235D01*
X129921Y-15970D01*
X129453Y-15877D01*
D02*
G37*
G36*
X750Y-16112D02*
Y-19250D01*
X3888D01*
X3851Y-18968D01*
X3453Y-18007D01*
X2819Y-17181D01*
X1993Y-16547D01*
X1032Y-16149D01*
X750Y-16112D01*
D02*
G37*
G36*
X139250Y-16112D02*
X138968Y-16149D01*
X138007Y-16547D01*
X137181Y-17181D01*
X136547Y-18007D01*
X136149Y-18968D01*
X136112Y-19250D01*
X139250D01*
Y-16112D01*
D02*
G37*
G36*
X129453Y-20877D02*
X128985Y-20970D01*
X128588Y-21235D01*
X128323Y-21632D01*
X128229Y-22100D01*
X128323Y-22568D01*
X128588Y-22965D01*
X128985Y-23230D01*
X129453Y-23324D01*
X129921Y-23230D01*
X130318Y-22965D01*
X130583Y-22568D01*
X130676Y-22100D01*
X130583Y-21632D01*
X130318Y-21235D01*
X129921Y-20970D01*
X129453Y-20877D01*
D02*
G37*
G36*
X139250Y-20750D02*
X136112D01*
X136149Y-21032D01*
X136547Y-21993D01*
X137181Y-22819D01*
X138007Y-23453D01*
X138968Y-23851D01*
X139250Y-23888D01*
Y-20750D01*
D02*
G37*
G36*
X3888D02*
X750D01*
Y-23888D01*
X1032Y-23851D01*
X1993Y-23453D01*
X2819Y-22819D01*
X3453Y-21993D01*
X3851Y-21032D01*
X3888Y-20750D01*
D02*
G37*
G36*
X139250Y-26112D02*
X138968Y-26149D01*
X138007Y-26547D01*
X137181Y-27181D01*
X136547Y-28007D01*
X136149Y-28968D01*
X136112Y-29250D01*
X139250D01*
Y-26112D01*
D02*
G37*
G36*
X129453Y-28877D02*
X128985Y-28970D01*
X128588Y-29235D01*
X128323Y-29632D01*
X128229Y-30100D01*
X128323Y-30568D01*
X128588Y-30965D01*
X128985Y-31230D01*
X129453Y-31324D01*
X129921Y-31230D01*
X130318Y-30965D01*
X130583Y-30568D01*
X130676Y-30100D01*
X130583Y-29632D01*
X130318Y-29235D01*
X129921Y-28970D01*
X129453Y-28877D01*
D02*
G37*
G36*
X111453D02*
X110985Y-28970D01*
X110588Y-29235D01*
X110323Y-29632D01*
X110229Y-30100D01*
X110323Y-30568D01*
X110588Y-30965D01*
X110985Y-31230D01*
X111453Y-31324D01*
X111921Y-31230D01*
X112318Y-30965D01*
X112583Y-30568D01*
X112677Y-30100D01*
X112583Y-29632D01*
X112318Y-29235D01*
X111921Y-28970D01*
X111453Y-28877D01*
D02*
G37*
G36*
X23512Y-26730D02*
X22578Y-26771D01*
X21686Y-27052D01*
X20897Y-27555D01*
X20265Y-28245D01*
X19833Y-29074D01*
X19630Y-29988D01*
X19671Y-30922D01*
X19952Y-31814D01*
X20455Y-32603D01*
X21145Y-33235D01*
X21974Y-33667D01*
X22888Y-33870D01*
X23822Y-33829D01*
X24714Y-33548D01*
X25503Y-33045D01*
X26135Y-32355D01*
X26567Y-31526D01*
X26770Y-30612D01*
X26729Y-29678D01*
X26448Y-28786D01*
X25945Y-27997D01*
X25255Y-27365D01*
X24426Y-26933D01*
X23512Y-26730D01*
D02*
G37*
G36*
X139250Y-30750D02*
X136112D01*
X136149Y-31032D01*
X136547Y-31993D01*
X137181Y-32819D01*
X138007Y-33453D01*
X138968Y-33851D01*
X139250Y-33888D01*
Y-30750D01*
D02*
G37*
G36*
X107453Y-32256D02*
X106985Y-32350D01*
X106588Y-32615D01*
X106323Y-33012D01*
X106229Y-33480D01*
X106323Y-33948D01*
X106588Y-34345D01*
X106985Y-34610D01*
X107453Y-34703D01*
X107921Y-34610D01*
X108318Y-34345D01*
X108583Y-33948D01*
X108677Y-33480D01*
X108583Y-33012D01*
X108318Y-32615D01*
X107921Y-32350D01*
X107453Y-32256D01*
D02*
G37*
G36*
X129453Y-33101D02*
X128985Y-33195D01*
X128588Y-33460D01*
X128323Y-33857D01*
X128229Y-34325D01*
X128323Y-34793D01*
X128588Y-35190D01*
X128985Y-35455D01*
X129453Y-35548D01*
X129921Y-35455D01*
X130318Y-35190D01*
X130583Y-34793D01*
X130676Y-34325D01*
X130583Y-33857D01*
X130318Y-33460D01*
X129921Y-33195D01*
X129453Y-33101D01*
D02*
G37*
G36*
X111453Y-35636D02*
X110985Y-35730D01*
X110588Y-35995D01*
X110323Y-36392D01*
X110229Y-36860D01*
X110323Y-37328D01*
X110588Y-37725D01*
X110985Y-37990D01*
X111453Y-38083D01*
X111921Y-37990D01*
X112318Y-37725D01*
X112583Y-37328D01*
X112677Y-36860D01*
X112583Y-36392D01*
X112318Y-35995D01*
X111921Y-35730D01*
X111453Y-35636D01*
D02*
G37*
G36*
X139250Y-36112D02*
X138968Y-36149D01*
X138007Y-36547D01*
X137181Y-37181D01*
X136547Y-38007D01*
X136149Y-38968D01*
X136112Y-39250D01*
X139250D01*
Y-36112D01*
D02*
G37*
G36*
X129453Y-37326D02*
X128985Y-37420D01*
X128588Y-37685D01*
X128323Y-38082D01*
X128229Y-38550D01*
X128323Y-39018D01*
X128588Y-39415D01*
X128985Y-39680D01*
X129453Y-39773D01*
X129921Y-39680D01*
X130318Y-39415D01*
X130583Y-39018D01*
X130676Y-38550D01*
X130583Y-38082D01*
X130318Y-37685D01*
X129921Y-37420D01*
X129453Y-37326D01*
D02*
G37*
G36*
X107453Y-39017D02*
X106985Y-39110D01*
X106588Y-39375D01*
X106323Y-39772D01*
X106229Y-40240D01*
X106323Y-40708D01*
X106588Y-41105D01*
X106985Y-41370D01*
X107453Y-41464D01*
X107921Y-41370D01*
X108318Y-41105D01*
X108583Y-40708D01*
X108677Y-40240D01*
X108583Y-39772D01*
X108318Y-39375D01*
X107921Y-39110D01*
X107453Y-39017D01*
D02*
G37*
G36*
X54350Y-40112D02*
Y-43250D01*
X57488D01*
X57451Y-42968D01*
X57053Y-42007D01*
X56419Y-41181D01*
X55593Y-40547D01*
X54632Y-40149D01*
X54350Y-40112D01*
D02*
G37*
G36*
X52850Y-40112D02*
X52568Y-40149D01*
X51607Y-40547D01*
X50781Y-41181D01*
X50147Y-42007D01*
X49749Y-42968D01*
X49712Y-43250D01*
X52850D01*
Y-40112D01*
D02*
G37*
G36*
X139250Y-40750D02*
X136112D01*
X136149Y-41032D01*
X136547Y-41993D01*
X137181Y-42819D01*
X138007Y-43453D01*
X138968Y-43851D01*
X139250Y-43888D01*
Y-40750D01*
D02*
G37*
G36*
X129453Y-41552D02*
X128985Y-41645D01*
X128588Y-41910D01*
X128323Y-42307D01*
X128229Y-42775D01*
X128323Y-43243D01*
X128588Y-43640D01*
X128985Y-43905D01*
X129453Y-43999D01*
X129921Y-43905D01*
X130318Y-43640D01*
X130583Y-43243D01*
X130676Y-42775D01*
X130583Y-42307D01*
X130318Y-41910D01*
X129921Y-41645D01*
X129453Y-41552D01*
D02*
G37*
G36*
X111453Y-42397D02*
X110985Y-42490D01*
X110588Y-42755D01*
X110323Y-43152D01*
X110229Y-43620D01*
X110323Y-44088D01*
X110588Y-44485D01*
X110985Y-44750D01*
X111453Y-44844D01*
X111921Y-44750D01*
X112318Y-44485D01*
X112583Y-44088D01*
X112677Y-43620D01*
X112583Y-43152D01*
X112318Y-42755D01*
X111921Y-42490D01*
X111453Y-42397D01*
D02*
G37*
G36*
X52850Y-44750D02*
X49712D01*
X49749Y-45032D01*
X50147Y-45993D01*
X50781Y-46819D01*
X51607Y-47453D01*
X52568Y-47851D01*
X52850Y-47888D01*
Y-44750D01*
D02*
G37*
G36*
X57488D02*
X54350D01*
Y-47888D01*
X54632Y-47851D01*
X55593Y-47453D01*
X56419Y-46819D01*
X57053Y-45993D01*
X57451Y-45032D01*
X57488Y-44750D01*
D02*
G37*
G36*
X129453Y-45777D02*
X128985Y-45870D01*
X128588Y-46135D01*
X128323Y-46532D01*
X128229Y-47000D01*
X128323Y-47468D01*
X128588Y-47865D01*
X128985Y-48130D01*
X129453Y-48224D01*
X129921Y-48130D01*
X130318Y-47865D01*
X130583Y-47468D01*
X130676Y-47000D01*
X130583Y-46532D01*
X130318Y-46135D01*
X129921Y-45870D01*
X129453Y-45777D01*
D02*
G37*
G36*
X107453D02*
X106985Y-45870D01*
X106588Y-46135D01*
X106323Y-46532D01*
X106229Y-47000D01*
X106323Y-47468D01*
X106588Y-47865D01*
X106985Y-48130D01*
X107453Y-48224D01*
X107921Y-48130D01*
X108318Y-47865D01*
X108583Y-47468D01*
X108677Y-47000D01*
X108583Y-46532D01*
X108318Y-46135D01*
X107921Y-45870D01*
X107453Y-45777D01*
D02*
G37*
G36*
X94100Y-46576D02*
X93632Y-46670D01*
X93235Y-46935D01*
X92970Y-47332D01*
X92876Y-47800D01*
X92970Y-48268D01*
X93235Y-48665D01*
X93632Y-48930D01*
X94100Y-49024D01*
X94568Y-48930D01*
X94965Y-48665D01*
X95230Y-48268D01*
X95323Y-47800D01*
X95230Y-47332D01*
X94965Y-46935D01*
X94568Y-46670D01*
X94100Y-46576D01*
D02*
G37*
G36*
X139250Y-46112D02*
X138968Y-46149D01*
X138007Y-46547D01*
X137181Y-47181D01*
X136547Y-48007D01*
X136149Y-48968D01*
X136112Y-49250D01*
X139250D01*
Y-46112D01*
D02*
G37*
G36*
X129453Y61531D02*
X128829Y61407D01*
X128299Y61054D01*
X127946Y60524D01*
X127822Y59900D01*
X127946Y59276D01*
X128299Y58746D01*
X128829Y58393D01*
X129453Y58269D01*
X130077Y58393D01*
X130606Y58746D01*
X130960Y59276D01*
X131084Y59900D01*
X130960Y60524D01*
X130606Y61054D01*
X130077Y61407D01*
X129453Y61531D01*
D02*
G37*
G36*
X107453D02*
X106829Y61407D01*
X106299Y61054D01*
X105946Y60524D01*
X105822Y59900D01*
X105946Y59276D01*
X106299Y58746D01*
X106829Y58393D01*
X107453Y58269D01*
X108077Y58393D01*
X108607Y58746D01*
X108960Y59276D01*
X109084Y59900D01*
X108960Y60524D01*
X108607Y61054D01*
X108077Y61407D01*
X107453Y61531D01*
D02*
G37*
G36*
X100600Y58831D02*
X99976Y58707D01*
X99446Y58354D01*
X99093Y57824D01*
X98969Y57200D01*
X99093Y56576D01*
X99446Y56046D01*
X99976Y55693D01*
X100600Y55569D01*
X101224Y55693D01*
X101753Y56046D01*
X102107Y56576D01*
X102231Y57200D01*
X102107Y57824D01*
X101753Y58354D01*
X101224Y58707D01*
X100600Y58831D01*
D02*
G37*
G36*
X111453Y57531D02*
X110829Y57407D01*
X110299Y57054D01*
X109946Y56524D01*
X109822Y55900D01*
X109946Y55276D01*
X110299Y54747D01*
X110829Y54393D01*
X111453Y54269D01*
X112077Y54393D01*
X112607Y54747D01*
X112960Y55276D01*
X113084Y55900D01*
X112960Y56524D01*
X112607Y57054D01*
X112077Y57407D01*
X111453Y57531D01*
D02*
G37*
G36*
X129453Y56531D02*
X128829Y56407D01*
X128299Y56054D01*
X127946Y55524D01*
X127822Y54900D01*
X127946Y54276D01*
X128299Y53746D01*
X128829Y53393D01*
X129453Y53269D01*
X130077Y53393D01*
X130606Y53746D01*
X130960Y54276D01*
X131084Y54900D01*
X130960Y55524D01*
X130606Y56054D01*
X130077Y56407D01*
X129453Y56531D01*
D02*
G37*
G36*
X107453Y53531D02*
X106829Y53407D01*
X106299Y53053D01*
X105946Y52524D01*
X105822Y51900D01*
X105946Y51276D01*
X106299Y50747D01*
X106829Y50393D01*
X107453Y50269D01*
X108077Y50393D01*
X108607Y50747D01*
X108960Y51276D01*
X109084Y51900D01*
X108960Y52524D01*
X108607Y53053D01*
X108077Y53407D01*
X107453Y53531D01*
D02*
G37*
G36*
X129453Y51531D02*
X128829Y51407D01*
X128299Y51054D01*
X127946Y50524D01*
X127822Y49900D01*
X127946Y49276D01*
X128299Y48746D01*
X128829Y48393D01*
X129453Y48269D01*
X130077Y48393D01*
X130606Y48746D01*
X130960Y49276D01*
X131084Y49900D01*
X130960Y50524D01*
X130606Y51054D01*
X130077Y51407D01*
X129453Y51531D01*
D02*
G37*
G36*
X100600Y51331D02*
X99976Y51207D01*
X99446Y50854D01*
X99093Y50324D01*
X98969Y49700D01*
X99093Y49076D01*
X99446Y48546D01*
X99976Y48193D01*
X100600Y48069D01*
X101224Y48193D01*
X101753Y48546D01*
X102107Y49076D01*
X102231Y49700D01*
X102107Y50324D01*
X101753Y50854D01*
X101224Y51207D01*
X100600Y51331D01*
D02*
G37*
G36*
X111453Y49531D02*
X110829Y49407D01*
X110299Y49053D01*
X109946Y48524D01*
X109822Y47900D01*
X109946Y47276D01*
X110299Y46747D01*
X110829Y46393D01*
X111453Y46269D01*
X112077Y46393D01*
X112607Y46747D01*
X112960Y47276D01*
X113084Y47900D01*
X112960Y48524D01*
X112607Y49053D01*
X112077Y49407D01*
X111453Y49531D01*
D02*
G37*
G36*
X129453Y46531D02*
X128829Y46407D01*
X128299Y46053D01*
X127946Y45524D01*
X127822Y44900D01*
X127946Y44276D01*
X128299Y43747D01*
X128829Y43393D01*
X129453Y43269D01*
X130077Y43393D01*
X130606Y43747D01*
X130960Y44276D01*
X131084Y44900D01*
X130960Y45524D01*
X130606Y46053D01*
X130077Y46407D01*
X129453Y46531D01*
D02*
G37*
G36*
X107453Y45531D02*
X106829Y45407D01*
X106299Y45053D01*
X105946Y44524D01*
X105822Y43900D01*
X105946Y43276D01*
X106299Y42746D01*
X106829Y42393D01*
X107453Y42269D01*
X108077Y42393D01*
X108607Y42746D01*
X108960Y43276D01*
X109084Y43900D01*
X108960Y44524D01*
X108607Y45053D01*
X108077Y45407D01*
X107453Y45531D01*
D02*
G37*
G36*
X129453Y41531D02*
X128829Y41407D01*
X128299Y41054D01*
X127946Y40524D01*
X127822Y39900D01*
X127946Y39276D01*
X128299Y38747D01*
X128829Y38393D01*
X129453Y38269D01*
X130077Y38393D01*
X130606Y38747D01*
X130960Y39276D01*
X131084Y39900D01*
X130960Y40524D01*
X130606Y41054D01*
X130077Y41407D01*
X129453Y41531D01*
D02*
G37*
G36*
X111453D02*
X110829Y41407D01*
X110299Y41054D01*
X109946Y40524D01*
X109822Y39900D01*
X109946Y39276D01*
X110299Y38747D01*
X110829Y38393D01*
X111453Y38269D01*
X112077Y38393D01*
X112607Y38747D01*
X112960Y39276D01*
X113084Y39900D01*
X112960Y40524D01*
X112607Y41054D01*
X112077Y41407D01*
X111453Y41531D01*
D02*
G37*
G36*
X84105Y36633D02*
X83442Y36501D01*
X82880Y36126D01*
X82504Y35563D01*
X82372Y34900D01*
X82504Y34237D01*
X82880Y33674D01*
X83442Y33299D01*
X84105Y33167D01*
X84769Y33299D01*
X85331Y33674D01*
X85404Y33783D01*
X86005D01*
X86093Y33651D01*
X86656Y33275D01*
X87319Y33143D01*
X87982Y33275D01*
X88545Y33651D01*
X88617Y33759D01*
X89219D01*
X89307Y33627D01*
X89869Y33251D01*
X90533Y33119D01*
X91196Y33251D01*
X91758Y33627D01*
X92134Y34189D01*
X92266Y34853D01*
X92134Y35516D01*
X91758Y36078D01*
X91196Y36454D01*
X90533Y36586D01*
X89869Y36454D01*
X89307Y36078D01*
X89235Y35970D01*
X88633D01*
X88545Y36102D01*
X87982Y36478D01*
X87319Y36610D01*
X86656Y36478D01*
X86093Y36102D01*
X86021Y35993D01*
X85419D01*
X85331Y36126D01*
X84769Y36501D01*
X84105Y36633D01*
D02*
G37*
G36*
X129453Y33531D02*
X128829Y33407D01*
X128299Y33053D01*
X127946Y32524D01*
X127822Y31900D01*
X127946Y31276D01*
X128299Y30746D01*
X128829Y30393D01*
X129453Y30269D01*
X130077Y30393D01*
X130606Y30746D01*
X130960Y31276D01*
X131084Y31900D01*
X130960Y32524D01*
X130606Y33053D01*
X130077Y33407D01*
X129453Y33531D01*
D02*
G37*
G36*
X111453D02*
X110829Y33407D01*
X110299Y33053D01*
X109946Y32524D01*
X109822Y31900D01*
X109946Y31276D01*
X110299Y30746D01*
X110829Y30393D01*
X111453Y30269D01*
X112077Y30393D01*
X112607Y30746D01*
X112960Y31276D01*
X113084Y31900D01*
X112960Y32524D01*
X112607Y33053D01*
X112077Y33407D01*
X111453Y33531D01*
D02*
G37*
G36*
X107453Y29531D02*
X106829Y29407D01*
X106299Y29054D01*
X105946Y28524D01*
X105822Y27900D01*
X105946Y27276D01*
X106299Y26746D01*
X106829Y26393D01*
X107453Y26269D01*
X108077Y26393D01*
X108607Y26746D01*
X108960Y27276D01*
X109084Y27900D01*
X108960Y28524D01*
X108607Y29054D01*
X108077Y29407D01*
X107453Y29531D01*
D02*
G37*
G36*
X129453Y28531D02*
X128829Y28407D01*
X128299Y28054D01*
X127946Y27524D01*
X127822Y26900D01*
X127946Y26276D01*
X128299Y25747D01*
X128829Y25393D01*
X129453Y25269D01*
X130077Y25393D01*
X130606Y25747D01*
X130960Y26276D01*
X131084Y26900D01*
X130960Y27524D01*
X130606Y28054D01*
X130077Y28407D01*
X129453Y28531D01*
D02*
G37*
G36*
X111453Y25531D02*
X110829Y25407D01*
X110299Y25054D01*
X109946Y24524D01*
X109822Y23900D01*
X109946Y23276D01*
X110299Y22747D01*
X110829Y22393D01*
X111453Y22269D01*
X112077Y22393D01*
X112607Y22747D01*
X112960Y23276D01*
X113084Y23900D01*
X112960Y24524D01*
X112607Y25054D01*
X112077Y25407D01*
X111453Y25531D01*
D02*
G37*
G36*
X129453Y23531D02*
X128829Y23407D01*
X128299Y23054D01*
X127946Y22524D01*
X127822Y21900D01*
X127946Y21276D01*
X128299Y20746D01*
X128829Y20393D01*
X129453Y20269D01*
X130077Y20393D01*
X130606Y20746D01*
X130960Y21276D01*
X131084Y21900D01*
X130960Y22524D01*
X130606Y23054D01*
X130077Y23407D01*
X129453Y23531D01*
D02*
G37*
G36*
X107453Y21531D02*
X106829Y21407D01*
X106299Y21054D01*
X105946Y20524D01*
X105822Y19900D01*
X105946Y19276D01*
X106299Y18746D01*
X106829Y18393D01*
X107453Y18269D01*
X108077Y18393D01*
X108607Y18746D01*
X108960Y19276D01*
X109084Y19900D01*
X108960Y20524D01*
X108607Y21054D01*
X108077Y21407D01*
X107453Y21531D01*
D02*
G37*
G36*
X100600Y20431D02*
X99976Y20307D01*
X99446Y19953D01*
X99093Y19424D01*
X98969Y18800D01*
X99093Y18176D01*
X99446Y17647D01*
X99976Y17293D01*
X100600Y17169D01*
X101224Y17293D01*
X101753Y17647D01*
X102107Y18176D01*
X102231Y18800D01*
X102107Y19424D01*
X101753Y19953D01*
X101224Y20307D01*
X100600Y20431D01*
D02*
G37*
G36*
X129453Y18531D02*
X128829Y18407D01*
X128299Y18054D01*
X127946Y17524D01*
X127822Y16900D01*
X127946Y16276D01*
X128299Y15746D01*
X128829Y15393D01*
X129453Y15269D01*
X130077Y15393D01*
X130606Y15746D01*
X130960Y16276D01*
X131084Y16900D01*
X130960Y17524D01*
X130606Y18054D01*
X130077Y18407D01*
X129453Y18531D01*
D02*
G37*
G36*
X111453Y17531D02*
X110829Y17407D01*
X110299Y17053D01*
X109946Y16524D01*
X109822Y15900D01*
X109946Y15276D01*
X110299Y14747D01*
X110829Y14393D01*
X111453Y14269D01*
X112077Y14393D01*
X112607Y14747D01*
X112960Y15276D01*
X113084Y15900D01*
X112960Y16524D01*
X112607Y17053D01*
X112077Y17407D01*
X111453Y17531D01*
D02*
G37*
G36*
X107453Y13531D02*
X106829Y13407D01*
X106299Y13054D01*
X105946Y12524D01*
X105822Y11900D01*
X105946Y11276D01*
X106299Y10746D01*
X106829Y10393D01*
X107453Y10269D01*
X108077Y10393D01*
X108607Y10746D01*
X108960Y11276D01*
X109084Y11900D01*
X108960Y12524D01*
X108607Y13054D01*
X108077Y13407D01*
X107453Y13531D01*
D02*
G37*
G36*
X100600Y12931D02*
X99976Y12807D01*
X99446Y12454D01*
X99093Y11924D01*
X98969Y11300D01*
X99093Y10676D01*
X99446Y10147D01*
X99976Y9793D01*
X100600Y9669D01*
X101224Y9793D01*
X101753Y10147D01*
X102107Y10676D01*
X102231Y11300D01*
X102107Y11924D01*
X101753Y12454D01*
X101224Y12807D01*
X100600Y12931D01*
D02*
G37*
G36*
X69626Y10608D02*
X68962Y10476D01*
X68400Y10100D01*
X68024Y9538D01*
X67892Y8874D01*
X68024Y8211D01*
X68400Y7649D01*
X68962Y7273D01*
X69626Y7141D01*
X70289Y7273D01*
X70851Y7649D01*
X71227Y8211D01*
X71359Y8874D01*
X71227Y9538D01*
X70851Y10100D01*
X70289Y10476D01*
X69626Y10608D01*
D02*
G37*
G36*
X63500Y9198D02*
X62837Y9066D01*
X62274Y8690D01*
X61899Y8128D01*
X61767Y7465D01*
X61899Y6801D01*
X62274Y6239D01*
X62837Y5863D01*
X63500Y5731D01*
X64163Y5863D01*
X64726Y6239D01*
X65101Y6801D01*
X65233Y7465D01*
X65101Y8128D01*
X64726Y8690D01*
X64163Y9066D01*
X63500Y9198D01*
D02*
G37*
G36*
X100600Y5431D02*
X99976Y5307D01*
X99446Y4953D01*
X99093Y4424D01*
X98969Y3800D01*
X99093Y3176D01*
X99446Y2647D01*
X99976Y2293D01*
X100600Y2169D01*
X101224Y2293D01*
X101753Y2647D01*
X102107Y3176D01*
X102231Y3800D01*
X102107Y4424D01*
X101753Y4953D01*
X101224Y5307D01*
X100600Y5431D01*
D02*
G37*
G36*
X63500Y4722D02*
X62837Y4590D01*
X62274Y4214D01*
X61899Y3652D01*
X61767Y2989D01*
X61899Y2326D01*
X62274Y1763D01*
X62837Y1388D01*
X63500Y1256D01*
X64163Y1388D01*
X64726Y1763D01*
X65101Y2326D01*
X65233Y2989D01*
X65101Y3652D01*
X64726Y4214D01*
X64163Y4590D01*
X63500Y4722D01*
D02*
G37*
G36*
X56400Y2889D02*
X55737Y2757D01*
X55174Y2382D01*
X54799Y1819D01*
X54667Y1156D01*
X54799Y493D01*
X55174Y-70D01*
X55737Y-445D01*
X56400Y-577D01*
X57063Y-445D01*
X57626Y-70D01*
X58001Y493D01*
X58133Y1156D01*
X58001Y1819D01*
X57626Y2382D01*
X57063Y2757D01*
X56400Y2889D01*
D02*
G37*
G36*
X84105Y2233D02*
X83442Y2101D01*
X82880Y1726D01*
X82504Y1163D01*
X82372Y500D01*
X82504Y-163D01*
X82880Y-726D01*
X83442Y-1101D01*
X84105Y-1233D01*
X84769Y-1101D01*
X85331Y-726D01*
X85404Y-617D01*
X86005D01*
X86093Y-749D01*
X86656Y-1125D01*
X87319Y-1257D01*
X87982Y-1125D01*
X88545Y-749D01*
X88617Y-641D01*
X89219D01*
X89307Y-773D01*
X89869Y-1149D01*
X90533Y-1280D01*
X91196Y-1149D01*
X91758Y-773D01*
X92134Y-211D01*
X92266Y453D01*
X92134Y1116D01*
X91758Y1678D01*
X91196Y2054D01*
X90533Y2186D01*
X89869Y2054D01*
X89307Y1678D01*
X89235Y1570D01*
X88633D01*
X88545Y1702D01*
X87982Y2078D01*
X87319Y2210D01*
X86656Y2078D01*
X86093Y1702D01*
X86021Y1593D01*
X85419D01*
X85331Y1726D01*
X84769Y2101D01*
X84105Y2233D01*
D02*
G37*
G36*
X111453Y-469D02*
X110829Y-593D01*
X110299Y-946D01*
X109946Y-1476D01*
X109822Y-2100D01*
X109946Y-2724D01*
X110299Y-3254D01*
X110829Y-3607D01*
X111453Y-3731D01*
X112077Y-3607D01*
X112607Y-3254D01*
X112960Y-2724D01*
X113084Y-2100D01*
X112960Y-1476D01*
X112607Y-946D01*
X112077Y-593D01*
X111453Y-469D01*
D02*
G37*
G36*
X100600Y-2069D02*
X99976Y-2193D01*
X99446Y-2547D01*
X99093Y-3076D01*
X98969Y-3700D01*
X99093Y-4324D01*
X99446Y-4854D01*
X99976Y-5207D01*
X100600Y-5331D01*
X101224Y-5207D01*
X101753Y-4854D01*
X102107Y-4324D01*
X102231Y-3700D01*
X102107Y-3076D01*
X101753Y-2547D01*
X101224Y-2193D01*
X100600Y-2069D01*
D02*
G37*
G36*
X107453Y-4469D02*
X106829Y-4593D01*
X106299Y-4947D01*
X105946Y-5476D01*
X105822Y-6100D01*
X105946Y-6724D01*
X106299Y-7254D01*
X106829Y-7607D01*
X107453Y-7731D01*
X108077Y-7607D01*
X108607Y-7254D01*
X108960Y-6724D01*
X109084Y-6100D01*
X108960Y-5476D01*
X108607Y-4947D01*
X108077Y-4593D01*
X107453Y-4469D01*
D02*
G37*
G36*
X79300Y-6969D02*
X78676Y-7093D01*
X78146Y-7446D01*
X77793Y-7976D01*
X77669Y-8600D01*
X77793Y-9224D01*
X78146Y-9753D01*
X78676Y-10107D01*
X79300Y-10231D01*
X79924Y-10107D01*
X80453Y-9753D01*
X80807Y-9224D01*
X80931Y-8600D01*
X80807Y-7976D01*
X80453Y-7446D01*
X79924Y-7093D01*
X79300Y-6969D01*
D02*
G37*
G36*
X111453Y-8469D02*
X110829Y-8593D01*
X110299Y-8946D01*
X109946Y-9476D01*
X109822Y-10100D01*
X109946Y-10724D01*
X110299Y-11253D01*
X110829Y-11607D01*
X111453Y-11731D01*
X112077Y-11607D01*
X112607Y-11253D01*
X112960Y-10724D01*
X113084Y-10100D01*
X112960Y-9476D01*
X112607Y-8946D01*
X112077Y-8593D01*
X111453Y-8469D01*
D02*
G37*
G36*
X100600Y-9569D02*
X99976Y-9693D01*
X99446Y-10046D01*
X99093Y-10576D01*
X98969Y-11200D01*
X99093Y-11824D01*
X99446Y-12353D01*
X99976Y-12707D01*
X100600Y-12831D01*
X101224Y-12707D01*
X101753Y-12353D01*
X102107Y-11824D01*
X102231Y-11200D01*
X102107Y-10576D01*
X101753Y-10046D01*
X101224Y-9693D01*
X100600Y-9569D01*
D02*
G37*
G36*
X107453Y-12469D02*
X106829Y-12593D01*
X106299Y-12946D01*
X105946Y-13476D01*
X105822Y-14100D01*
X105946Y-14724D01*
X106299Y-15254D01*
X106829Y-15607D01*
X107453Y-15731D01*
X108077Y-15607D01*
X108607Y-15254D01*
X108960Y-14724D01*
X109084Y-14100D01*
X108960Y-13476D01*
X108607Y-12946D01*
X108077Y-12593D01*
X107453Y-12469D01*
D02*
G37*
G36*
X100600Y-17069D02*
X99976Y-17193D01*
X99446Y-17547D01*
X99093Y-18076D01*
X98969Y-18700D01*
X99093Y-19324D01*
X99446Y-19853D01*
X99976Y-20207D01*
X100600Y-20331D01*
X101224Y-20207D01*
X101753Y-19853D01*
X102107Y-19324D01*
X102231Y-18700D01*
X102107Y-18076D01*
X101753Y-17547D01*
X101224Y-17193D01*
X100600Y-17069D01*
D02*
G37*
G36*
X58700Y-17269D02*
X58076Y-17393D01*
X57547Y-17747D01*
X57193Y-18276D01*
X57069Y-18900D01*
X57193Y-19524D01*
X57547Y-20053D01*
X58076Y-20407D01*
X58700Y-20531D01*
X59324Y-20407D01*
X59854Y-20053D01*
X60207Y-19524D01*
X60331Y-18900D01*
X60207Y-18276D01*
X59854Y-17747D01*
X59324Y-17393D01*
X58700Y-17269D01*
D02*
G37*
G36*
X84105Y-25367D02*
X83442Y-25499D01*
X82880Y-25874D01*
X82504Y-26437D01*
X82372Y-27100D01*
X82504Y-27763D01*
X82880Y-28326D01*
X83442Y-28701D01*
X84105Y-28833D01*
X84769Y-28701D01*
X85331Y-28326D01*
X85404Y-28217D01*
X86005D01*
X86093Y-28349D01*
X86656Y-28725D01*
X87319Y-28857D01*
X87982Y-28725D01*
X88545Y-28349D01*
X88617Y-28241D01*
X89219D01*
X89307Y-28373D01*
X89869Y-28749D01*
X90533Y-28881D01*
X91196Y-28749D01*
X91758Y-28373D01*
X92134Y-27811D01*
X92266Y-27147D01*
X92134Y-26484D01*
X91758Y-25922D01*
X91196Y-25546D01*
X90533Y-25414D01*
X89869Y-25546D01*
X89307Y-25922D01*
X89235Y-26030D01*
X88633D01*
X88545Y-25898D01*
X87982Y-25522D01*
X87319Y-25390D01*
X86656Y-25522D01*
X86093Y-25898D01*
X86021Y-26007D01*
X85419D01*
X85331Y-25874D01*
X84769Y-25499D01*
X84105Y-25367D01*
D02*
G37*
G36*
X80020Y-34456D02*
X79396Y-34580D01*
X78867Y-34933D01*
X78513Y-35463D01*
X78389Y-36087D01*
X78513Y-36711D01*
X78867Y-37240D01*
X79396Y-37594D01*
X80020Y-37718D01*
X80645Y-37594D01*
X81174Y-37240D01*
X81528Y-36711D01*
X81652Y-36087D01*
X81528Y-35463D01*
X81174Y-34933D01*
X80645Y-34580D01*
X80020Y-34456D01*
D02*
G37*
%LPD*%
D53*
X43537Y9363D02*
X51188D01*
X34435Y18465D02*
X43537Y9363D01*
X22335Y18465D02*
X34435D01*
X15049Y25750D02*
X22335Y18465D01*
X15049Y25750D02*
Y38094D01*
Y44951D01*
X0Y60000D02*
X15049Y44951D01*
D55*
X140000Y0D02*
D03*
Y-10000D02*
D03*
Y-50000D02*
D03*
Y-40000D02*
D03*
Y-30000D02*
D03*
Y-20000D02*
D03*
X0Y50000D02*
D03*
Y60000D02*
D03*
Y-20000D02*
D03*
X63600Y-44000D02*
D03*
X53600D02*
D03*
X140000Y60000D02*
D03*
D57*
X46373Y52527D02*
D03*
X8873Y37527D02*
D03*
X12623Y60027D02*
D03*
X50123Y15027D02*
D03*
X36600Y45700D02*
D03*
X57623Y-49973D02*
D03*
X50123D02*
D03*
X57623Y60027D02*
D03*
X35400Y-36800D02*
D03*
X35123Y60027D02*
D03*
X100600Y-43200D02*
D03*
X12623Y-29973D02*
D03*
X100600Y-50700D02*
D03*
X9800Y-48900D02*
D03*
X8873Y-37473D02*
D03*
Y22527D02*
D03*
X5123Y-29973D02*
D03*
X35123Y-49973D02*
D03*
X5123Y-14973D02*
D03*
X46373Y60027D02*
D03*
D58*
X21820Y-47727D02*
D03*
X22400Y57300D02*
D03*
X18886Y-43598D02*
D03*
X19164Y53425D02*
D03*
X25592Y61085D02*
D03*
X47800Y-7600D02*
D03*
X50600Y-7558D02*
D03*
X75700Y7500D02*
D03*
X79418Y-14600D02*
D03*
X66300Y13600D02*
D03*
X74549Y-7058D02*
D03*
X77018Y-16000D02*
D03*
X69349Y-3258D02*
D03*
X79400Y-17400D02*
D03*
X77600Y13500D02*
D03*
X76700Y44950D02*
D03*
X8100Y19300D02*
D03*
X83519Y-40424D02*
D03*
X90919D02*
D03*
X87219D02*
D03*
X25313Y-51259D02*
D03*
X78800Y10749D02*
D03*
X90533Y21388D02*
D03*
X87319Y21412D02*
D03*
X84105Y21435D02*
D03*
X58636Y13500D02*
D03*
X78800Y43200D02*
D03*
Y46700D02*
D03*
D59*
X43800Y13700D02*
D03*
X51188Y9363D02*
D03*
D60*
X62900Y29500D02*
D03*
X64800Y27700D02*
D03*
X60965Y31400D02*
D03*
X41100Y18200D02*
D03*
X21800Y-8185D02*
D03*
X35931Y5000D02*
D03*
Y669D02*
D03*
X2200Y-5000D02*
D03*
X35931Y9331D02*
D03*
X31600D02*
D03*
Y5000D02*
D03*
Y669D02*
D03*
X27269Y9331D02*
D03*
Y5000D02*
D03*
Y669D02*
D03*
X69700Y-45000D02*
D03*
X75100D02*
D03*
X72400D02*
D03*
X15049Y38094D02*
D03*
X69057Y34853D02*
D03*
D61*
X63600Y-44200D02*
Y-39700D01*
M02*
