G04*
G04 #@! TF.GenerationSoftware,Altium Limited,Altium Designer,18.1.7 (191)*
G04*
G04 Layer_Color=32896*
%FSLAX25Y25*%
%MOIN*%
G70*
G01*
G75*
%ADD12C,0.00787*%
%ADD16C,0.00700*%
%ADD50C,0.00800*%
G36*
X68493Y-1825D02*
X68567Y-1830D01*
X68696Y-1858D01*
X68812Y-1895D01*
X68863Y-1918D01*
X68909Y-1941D01*
X68955Y-1964D01*
X68992Y-1987D01*
X69024Y-2005D01*
X69047Y-2024D01*
X69071Y-2038D01*
X69085Y-2052D01*
X69094Y-2056D01*
X69098Y-2061D01*
X69145Y-2107D01*
X69191Y-2158D01*
X69265Y-2264D01*
X69325Y-2380D01*
X69371Y-2491D01*
X69389Y-2541D01*
X69403Y-2588D01*
X69412Y-2629D01*
X69426Y-2666D01*
X69431Y-2699D01*
X69436Y-2722D01*
X69440Y-2736D01*
Y-2740D01*
X68830Y-2828D01*
X68807Y-2726D01*
X68780Y-2643D01*
X68752Y-2574D01*
X68724Y-2518D01*
X68701Y-2477D01*
X68683Y-2449D01*
X68669Y-2431D01*
X68664Y-2426D01*
X68622Y-2389D01*
X68576Y-2361D01*
X68535Y-2338D01*
X68493Y-2324D01*
X68456Y-2315D01*
X68428Y-2310D01*
X68405D01*
X68354Y-2315D01*
X68308Y-2324D01*
X68267Y-2343D01*
X68230Y-2361D01*
X68202Y-2380D01*
X68184Y-2398D01*
X68170Y-2407D01*
X68165Y-2412D01*
X68133Y-2454D01*
X68110Y-2495D01*
X68091Y-2541D01*
X68082Y-2583D01*
X68073Y-2620D01*
X68068Y-2648D01*
Y-2666D01*
Y-2675D01*
X68073Y-2712D01*
X68077Y-2754D01*
X68087Y-2791D01*
X68096Y-2828D01*
X68110Y-2856D01*
X68119Y-2879D01*
X68124Y-2897D01*
X68128Y-2902D01*
X68151Y-2948D01*
X68184Y-2999D01*
X68216Y-3050D01*
X68253Y-3096D01*
X68285Y-3137D01*
X68313Y-3170D01*
X68331Y-3188D01*
X68336Y-3198D01*
X68354Y-3216D01*
X68378Y-3239D01*
X68433Y-3299D01*
X68502Y-3364D01*
X68572Y-3433D01*
X68636Y-3498D01*
X68692Y-3549D01*
X68710Y-3572D01*
X68729Y-3585D01*
X68738Y-3595D01*
X68743Y-3599D01*
X68821Y-3673D01*
X68891Y-3743D01*
X68955Y-3807D01*
X69015Y-3867D01*
X69071Y-3918D01*
X69117Y-3969D01*
X69163Y-4011D01*
X69200Y-4052D01*
X69232Y-4084D01*
X69260Y-4117D01*
X69283Y-4140D01*
X69302Y-4158D01*
X69325Y-4186D01*
X69334Y-4195D01*
X69389Y-4265D01*
X69440Y-4334D01*
X69486Y-4399D01*
X69528Y-4459D01*
X69560Y-4510D01*
X69583Y-4551D01*
X69597Y-4579D01*
X69602Y-4583D01*
Y-4588D01*
X69639Y-4667D01*
X69667Y-4750D01*
X69690Y-4824D01*
X69708Y-4893D01*
X69722Y-4948D01*
X69731Y-4995D01*
Y-5013D01*
X69736Y-5027D01*
Y-5032D01*
Y-5036D01*
X67795D01*
X67675Y-4463D01*
X68784D01*
X68720Y-4385D01*
X68692Y-4348D01*
X68664Y-4315D01*
X68641Y-4292D01*
X68622Y-4274D01*
X68613Y-4260D01*
X68609Y-4255D01*
X68562Y-4209D01*
X68507Y-4154D01*
X68442Y-4094D01*
X68378Y-4034D01*
X68318Y-3974D01*
X68267Y-3927D01*
X68248Y-3909D01*
X68234Y-3900D01*
X68225Y-3890D01*
X68221Y-3886D01*
X68119Y-3789D01*
X68031Y-3706D01*
X67957Y-3632D01*
X67897Y-3572D01*
X67851Y-3525D01*
X67819Y-3493D01*
X67800Y-3470D01*
X67795Y-3465D01*
X67731Y-3387D01*
X67680Y-3313D01*
X67634Y-3244D01*
X67597Y-3184D01*
X67569Y-3133D01*
X67551Y-3096D01*
X67541Y-3073D01*
X67537Y-3063D01*
X67509Y-2990D01*
X67491Y-2920D01*
X67477Y-2856D01*
X67467Y-2800D01*
X67463Y-2749D01*
X67458Y-2712D01*
Y-2689D01*
Y-2680D01*
X67463Y-2611D01*
X67467Y-2546D01*
X67500Y-2426D01*
X67541Y-2320D01*
X67588Y-2232D01*
X67611Y-2195D01*
X67634Y-2163D01*
X67657Y-2135D01*
X67675Y-2107D01*
X67694Y-2089D01*
X67708Y-2075D01*
X67712Y-2070D01*
X67717Y-2066D01*
X67768Y-2024D01*
X67819Y-1982D01*
X67874Y-1950D01*
X67934Y-1922D01*
X68050Y-1881D01*
X68165Y-1853D01*
X68216Y-1839D01*
X68262Y-1835D01*
X68308Y-1830D01*
X68345Y-1825D01*
X68378Y-1821D01*
X68419D01*
X68493Y-1825D01*
D02*
G37*
G36*
X73501Y-3253D02*
X71265D01*
Y-2694D01*
X73501D01*
Y-3253D01*
D02*
G37*
G36*
X88341Y-3327D02*
X87722D01*
X87602Y-2722D01*
X88221D01*
X88341Y-3327D01*
D02*
G37*
G36*
X110507Y-2675D02*
X110646Y-2694D01*
X110706Y-2708D01*
X110761Y-2722D01*
X110817Y-2736D01*
X110863Y-2754D01*
X110905Y-2772D01*
X110942Y-2786D01*
X110974Y-2800D01*
X111002Y-2814D01*
X111020Y-2823D01*
X111034Y-2833D01*
X111043Y-2842D01*
X111048D01*
X111136Y-2911D01*
X111214Y-2990D01*
X111274Y-3073D01*
X111325Y-3147D01*
X111362Y-3216D01*
X111390Y-3271D01*
X111399Y-3294D01*
X111404Y-3308D01*
X111408Y-3318D01*
Y-3322D01*
X110799Y-3373D01*
X110785Y-3331D01*
X110766Y-3294D01*
X110743Y-3262D01*
X110720Y-3234D01*
X110702Y-3211D01*
X110683Y-3198D01*
X110674Y-3188D01*
X110669Y-3184D01*
X110627Y-3161D01*
X110586Y-3142D01*
X110540Y-3133D01*
X110498Y-3124D01*
X110461Y-3119D01*
X110429Y-3114D01*
X110401D01*
X110346Y-3119D01*
X110295Y-3124D01*
X110258Y-3137D01*
X110221Y-3147D01*
X110193Y-3161D01*
X110175Y-3174D01*
X110166Y-3179D01*
X110161Y-3184D01*
X110133Y-3211D01*
X110115Y-3239D01*
X110096Y-3267D01*
X110087Y-3294D01*
X110082Y-3318D01*
X110078Y-3331D01*
Y-3345D01*
Y-3350D01*
Y-3382D01*
X110082Y-3415D01*
X110096Y-3484D01*
X110106Y-3512D01*
X110115Y-3535D01*
X110119Y-3553D01*
Y-3558D01*
X110152Y-3567D01*
X110189Y-3576D01*
X110230Y-3585D01*
X110276Y-3595D01*
X110373Y-3613D01*
X110475Y-3622D01*
X110567Y-3636D01*
X110609Y-3641D01*
X110641Y-3646D01*
X110674D01*
X110697Y-3650D01*
X110715D01*
X110812Y-3660D01*
X110900Y-3673D01*
X110979Y-3687D01*
X111053Y-3706D01*
X111122Y-3724D01*
X111182Y-3743D01*
X111237Y-3766D01*
X111284Y-3784D01*
X111325Y-3807D01*
X111362Y-3826D01*
X111390Y-3844D01*
X111413Y-3858D01*
X111431Y-3872D01*
X111445Y-3881D01*
X111450Y-3886D01*
X111454Y-3890D01*
X111492Y-3927D01*
X111519Y-3969D01*
X111570Y-4057D01*
X111607Y-4145D01*
X111630Y-4232D01*
X111649Y-4306D01*
X111653Y-4339D01*
Y-4366D01*
X111658Y-4389D01*
Y-4408D01*
Y-4417D01*
Y-4422D01*
X111649Y-4528D01*
X111630Y-4625D01*
X111598Y-4708D01*
X111565Y-4778D01*
X111533Y-4838D01*
X111501Y-4879D01*
X111482Y-4902D01*
X111473Y-4911D01*
X111399Y-4972D01*
X111320Y-5018D01*
X111237Y-5050D01*
X111163Y-5073D01*
X111099Y-5087D01*
X111043Y-5092D01*
X111025Y-5096D01*
X110997D01*
X110928Y-5092D01*
X110863Y-5082D01*
X110803Y-5069D01*
X110748Y-5055D01*
X110702Y-5041D01*
X110669Y-5027D01*
X110646Y-5018D01*
X110637Y-5013D01*
X110572Y-4981D01*
X110512Y-4939D01*
X110457Y-4902D01*
X110410Y-4865D01*
X110373Y-4828D01*
X110341Y-4801D01*
X110323Y-4782D01*
X110318Y-4778D01*
X110309Y-4874D01*
X110300Y-4916D01*
X110295Y-4958D01*
X110286Y-4990D01*
X110276Y-5013D01*
X110272Y-5032D01*
Y-5036D01*
X109667D01*
X109685Y-4972D01*
X109694Y-4907D01*
X109704Y-4851D01*
X109713Y-4805D01*
Y-4764D01*
X109717Y-4736D01*
Y-4713D01*
Y-4708D01*
Y-4676D01*
X109713Y-4634D01*
X109704Y-4546D01*
X109690Y-4454D01*
X109671Y-4357D01*
X109657Y-4269D01*
X109648Y-4232D01*
X109643Y-4195D01*
X109639Y-4168D01*
X109634Y-4149D01*
X109630Y-4135D01*
Y-4131D01*
X109611Y-4043D01*
X109593Y-3960D01*
X109574Y-3886D01*
X109560Y-3821D01*
X109551Y-3766D01*
X109542Y-3715D01*
X109533Y-3669D01*
X109523Y-3632D01*
X109519Y-3599D01*
X109510Y-3576D01*
Y-3553D01*
X109505Y-3539D01*
X109500Y-3516D01*
Y-3512D01*
X109486Y-3424D01*
X109482Y-3387D01*
Y-3354D01*
X109477Y-3327D01*
Y-3308D01*
Y-3294D01*
Y-3290D01*
Y-3239D01*
X109486Y-3193D01*
X109510Y-3110D01*
X109546Y-3036D01*
X109583Y-2971D01*
X109625Y-2916D01*
X109662Y-2879D01*
X109685Y-2856D01*
X109690Y-2846D01*
X109694D01*
X109736Y-2814D01*
X109782Y-2786D01*
X109888Y-2740D01*
X109995Y-2708D01*
X110106Y-2689D01*
X110203Y-2675D01*
X110244Y-2671D01*
X110281D01*
X110313Y-2666D01*
X110355D01*
X110507Y-2675D01*
D02*
G37*
G36*
X108405Y-3853D02*
X109468Y-5036D01*
X108701D01*
X108128Y-4394D01*
X107791Y-5036D01*
X107126D01*
X107712Y-3923D01*
X106636Y-2717D01*
X107398D01*
X107990Y-3378D01*
X108327Y-2717D01*
X108992D01*
X108405Y-3853D01*
D02*
G37*
G36*
X115405Y-5036D02*
X114809D01*
X114305Y-2366D01*
X114185Y-5036D01*
X113561D01*
X112374Y-2384D01*
X112928Y-5036D01*
X112332D01*
X111750Y-1839D01*
X112697D01*
X113700Y-4038D01*
X113802Y-1839D01*
X114739D01*
X115405Y-5036D01*
D02*
G37*
G36*
X81632Y-5036D02*
X81036D01*
X80533Y-2366D01*
X80413Y-5036D01*
X79789D01*
X78602Y-2384D01*
X79156Y-5036D01*
X78560D01*
X77978Y-1839D01*
X78925D01*
X79928Y-4038D01*
X80029Y-1839D01*
X80967D01*
X81632Y-5036D01*
D02*
G37*
G36*
X73501Y-4223D02*
X71265D01*
Y-3660D01*
X73501D01*
Y-4223D01*
D02*
G37*
G36*
X102949Y-2675D02*
X103078Y-2699D01*
X103194Y-2726D01*
X103296Y-2763D01*
X103342Y-2782D01*
X103383Y-2800D01*
X103416Y-2814D01*
X103448Y-2828D01*
X103471Y-2842D01*
X103490Y-2851D01*
X103499Y-2856D01*
X103504Y-2860D01*
X103614Y-2939D01*
X103711Y-3026D01*
X103790Y-3114D01*
X103855Y-3198D01*
X103910Y-3276D01*
X103928Y-3308D01*
X103947Y-3336D01*
X103956Y-3359D01*
X103965Y-3378D01*
X103975Y-3387D01*
Y-3391D01*
X104026Y-3521D01*
X104067Y-3646D01*
X104095Y-3766D01*
X104113Y-3877D01*
X104118Y-3927D01*
X104123Y-3969D01*
X104127Y-4011D01*
Y-4043D01*
X104132Y-4071D01*
Y-4089D01*
Y-4103D01*
Y-4108D01*
X104127Y-4191D01*
X104123Y-4269D01*
X104109Y-4348D01*
X104090Y-4417D01*
X104072Y-4482D01*
X104049Y-4542D01*
X104026Y-4593D01*
X104002Y-4643D01*
X103979Y-4685D01*
X103956Y-4727D01*
X103933Y-4759D01*
X103915Y-4782D01*
X103896Y-4805D01*
X103882Y-4819D01*
X103878Y-4828D01*
X103873Y-4833D01*
X103822Y-4879D01*
X103767Y-4921D01*
X103711Y-4953D01*
X103656Y-4985D01*
X103596Y-5009D01*
X103536Y-5032D01*
X103425Y-5064D01*
X103374Y-5073D01*
X103323Y-5082D01*
X103282Y-5087D01*
X103245Y-5092D01*
X103212Y-5096D01*
X103171D01*
X103097Y-5092D01*
X103028Y-5087D01*
X102898Y-5064D01*
X102783Y-5032D01*
X102681Y-4990D01*
X102640Y-4972D01*
X102603Y-4953D01*
X102566Y-4935D01*
X102538Y-4921D01*
X102515Y-4907D01*
X102501Y-4898D01*
X102492Y-4888D01*
X102487D01*
X102381Y-4801D01*
X102293Y-4704D01*
X102215Y-4602D01*
X102150Y-4500D01*
X102104Y-4412D01*
X102085Y-4376D01*
X102067Y-4339D01*
X102053Y-4311D01*
X102048Y-4292D01*
X102039Y-4279D01*
Y-4274D01*
X102649Y-4172D01*
X102681Y-4251D01*
X102718Y-4315D01*
X102755Y-4371D01*
X102787Y-4417D01*
X102820Y-4454D01*
X102848Y-4477D01*
X102866Y-4496D01*
X102871Y-4500D01*
X102921Y-4537D01*
X102972Y-4560D01*
X103023Y-4579D01*
X103065Y-4593D01*
X103102Y-4602D01*
X103129Y-4607D01*
X103157D01*
X103212Y-4602D01*
X103259Y-4588D01*
X103305Y-4570D01*
X103342Y-4551D01*
X103369Y-4533D01*
X103393Y-4514D01*
X103407Y-4500D01*
X103411Y-4496D01*
X103443Y-4450D01*
X103466Y-4399D01*
X103485Y-4348D01*
X103494Y-4297D01*
X103504Y-4251D01*
X103508Y-4214D01*
Y-4191D01*
Y-4182D01*
X103504Y-4089D01*
X103494Y-4001D01*
X103480Y-3914D01*
X103466Y-3835D01*
X103453Y-3770D01*
X103439Y-3720D01*
X103434Y-3701D01*
X103430Y-3687D01*
X103425Y-3678D01*
Y-3673D01*
X103393Y-3576D01*
X103351Y-3493D01*
X103314Y-3424D01*
X103272Y-3368D01*
X103240Y-3322D01*
X103212Y-3290D01*
X103189Y-3271D01*
X103185Y-3267D01*
X103125Y-3221D01*
X103065Y-3188D01*
X103009Y-3161D01*
X102958Y-3147D01*
X102912Y-3137D01*
X102880Y-3128D01*
X102848D01*
X102792Y-3133D01*
X102741Y-3142D01*
X102700Y-3161D01*
X102663Y-3174D01*
X102630Y-3193D01*
X102612Y-3211D01*
X102598Y-3221D01*
X102593Y-3225D01*
X102561Y-3262D01*
X102533Y-3308D01*
X102515Y-3354D01*
X102496Y-3401D01*
X102487Y-3447D01*
X102478Y-3479D01*
X102473Y-3502D01*
Y-3512D01*
X101877Y-3452D01*
X101886Y-3387D01*
X101900Y-3327D01*
X101933Y-3216D01*
X101979Y-3119D01*
X102030Y-3036D01*
X102076Y-2971D01*
X102118Y-2920D01*
X102131Y-2906D01*
X102145Y-2892D01*
X102150Y-2888D01*
X102155Y-2883D01*
X102201Y-2846D01*
X102252Y-2809D01*
X102362Y-2759D01*
X102469Y-2717D01*
X102575Y-2694D01*
X102667Y-2675D01*
X102709Y-2671D01*
X102741D01*
X102769Y-2666D01*
X102811D01*
X102949Y-2675D01*
D02*
G37*
G36*
X89680Y-2347D02*
X89754Y-2717D01*
X90059D01*
X90156Y-3184D01*
X89847D01*
X90045Y-4117D01*
X90059Y-4186D01*
X90073Y-4251D01*
X90082Y-4306D01*
X90092Y-4357D01*
X90101Y-4403D01*
X90110Y-4445D01*
X90115Y-4477D01*
X90119Y-4510D01*
X90124Y-4556D01*
X90129Y-4588D01*
Y-4607D01*
Y-4611D01*
X90124Y-4694D01*
X90105Y-4764D01*
X90082Y-4828D01*
X90055Y-4879D01*
X90027Y-4916D01*
X90004Y-4948D01*
X89985Y-4967D01*
X89981Y-4972D01*
X89916Y-5013D01*
X89842Y-5046D01*
X89759Y-5064D01*
X89680Y-5082D01*
X89606Y-5092D01*
X89579D01*
X89551Y-5096D01*
X89496D01*
X89371Y-5092D01*
X89315Y-5082D01*
X89265Y-5078D01*
X89223Y-5069D01*
X89191Y-5064D01*
X89172Y-5059D01*
X89163D01*
X89066Y-4597D01*
X89121Y-4602D01*
X89168Y-4607D01*
X89205Y-4611D01*
X89232D01*
X89251Y-4616D01*
X89315D01*
X89352Y-4611D01*
X89385Y-4602D01*
X89408Y-4593D01*
X89422Y-4588D01*
X89436Y-4579D01*
X89440Y-4574D01*
X89445D01*
X89468Y-4537D01*
X89482Y-4505D01*
X89486Y-4473D01*
Y-4468D01*
Y-4463D01*
Y-4454D01*
X89482Y-4440D01*
X89477Y-4399D01*
X89468Y-4352D01*
X89459Y-4297D01*
X89450Y-4246D01*
X89440Y-4205D01*
X89436Y-4186D01*
X89431Y-4172D01*
Y-4168D01*
Y-4163D01*
X89228Y-3184D01*
X88844D01*
X88747Y-2717D01*
X89131D01*
X88969Y-1918D01*
X89680Y-2347D01*
D02*
G37*
G36*
X101526Y-4011D02*
X101540Y-4075D01*
X101554Y-4135D01*
X101563Y-4191D01*
X101572Y-4237D01*
X101577Y-4283D01*
X101586Y-4320D01*
X101595Y-4385D01*
X101600Y-4436D01*
X101605Y-4468D01*
Y-4486D01*
Y-4491D01*
X101600Y-4588D01*
X101582Y-4676D01*
X101558Y-4754D01*
X101531Y-4814D01*
X101503Y-4865D01*
X101480Y-4902D01*
X101462Y-4925D01*
X101457Y-4935D01*
X101397Y-4990D01*
X101328Y-5027D01*
X101258Y-5055D01*
X101193Y-5078D01*
X101133Y-5087D01*
X101083Y-5092D01*
X101064Y-5096D01*
X101041D01*
X100962Y-5092D01*
X100889Y-5082D01*
X100815Y-5064D01*
X100745Y-5041D01*
X100616Y-4985D01*
X100556Y-4953D01*
X100501Y-4916D01*
X100450Y-4884D01*
X100408Y-4851D01*
X100366Y-4824D01*
X100334Y-4796D01*
X100311Y-4773D01*
X100288Y-4754D01*
X100279Y-4745D01*
X100274Y-4741D01*
X100339Y-5036D01*
X99752D01*
X99230Y-2717D01*
X99854D01*
X100103Y-3826D01*
X100122Y-3900D01*
X100136Y-3960D01*
X100149Y-4015D01*
X100163Y-4057D01*
X100172Y-4094D01*
X100182Y-4117D01*
X100186Y-4131D01*
Y-4135D01*
X100205Y-4186D01*
X100228Y-4232D01*
X100246Y-4269D01*
X100265Y-4306D01*
X100279Y-4329D01*
X100293Y-4352D01*
X100297Y-4362D01*
X100302Y-4366D01*
X100348Y-4426D01*
X100394Y-4473D01*
X100413Y-4491D01*
X100427Y-4505D01*
X100436Y-4514D01*
X100440Y-4519D01*
X100496Y-4560D01*
X100542Y-4593D01*
X100561Y-4602D01*
X100574Y-4611D01*
X100584Y-4616D01*
X100588D01*
X100639Y-4634D01*
X100685Y-4643D01*
X100704Y-4648D01*
X100732D01*
X100768Y-4643D01*
X100801Y-4639D01*
X100829Y-4625D01*
X100856Y-4611D01*
X100875Y-4602D01*
X100889Y-4588D01*
X100898Y-4583D01*
X100902Y-4579D01*
X100926Y-4551D01*
X100939Y-4519D01*
X100958Y-4463D01*
X100962Y-4440D01*
X100967Y-4422D01*
Y-4408D01*
Y-4403D01*
X100962Y-4371D01*
X100958Y-4329D01*
X100949Y-4279D01*
X100939Y-4228D01*
X100930Y-4177D01*
X100921Y-4135D01*
X100912Y-4108D01*
Y-4103D01*
Y-4098D01*
X100602Y-2717D01*
X101235D01*
X101526Y-4011D01*
D02*
G37*
G36*
X94282Y-2671D02*
X94397Y-2689D01*
X94504Y-2712D01*
X94601Y-2745D01*
X94693Y-2782D01*
X94776Y-2823D01*
X94855Y-2869D01*
X94924Y-2916D01*
X94984Y-2967D01*
X95040Y-3008D01*
X95081Y-3054D01*
X95123Y-3091D01*
X95151Y-3124D01*
X95169Y-3147D01*
X95183Y-3165D01*
X95187Y-3170D01*
X95234Y-3239D01*
X95275Y-3313D01*
X95308Y-3387D01*
X95340Y-3461D01*
X95363Y-3535D01*
X95386Y-3604D01*
X95419Y-3733D01*
X95428Y-3793D01*
X95437Y-3849D01*
X95442Y-3900D01*
X95446Y-3941D01*
X95451Y-3974D01*
Y-3997D01*
Y-4015D01*
Y-4020D01*
X95446Y-4108D01*
X95437Y-4191D01*
X95423Y-4274D01*
X95405Y-4348D01*
X95381Y-4417D01*
X95358Y-4482D01*
X95331Y-4537D01*
X95303Y-4593D01*
X95280Y-4639D01*
X95252Y-4681D01*
X95229Y-4717D01*
X95206Y-4745D01*
X95187Y-4768D01*
X95174Y-4787D01*
X95164Y-4796D01*
X95160Y-4801D01*
X95104Y-4851D01*
X95044Y-4898D01*
X94980Y-4939D01*
X94920Y-4972D01*
X94855Y-4999D01*
X94790Y-5022D01*
X94670Y-5059D01*
X94615Y-5073D01*
X94564Y-5082D01*
X94518Y-5087D01*
X94476Y-5092D01*
X94444Y-5096D01*
X94397D01*
X94273Y-5087D01*
X94162Y-5069D01*
X94056Y-5046D01*
X93968Y-5013D01*
X93889Y-4981D01*
X93862Y-4967D01*
X93834Y-4958D01*
X93815Y-4944D01*
X93801Y-4939D01*
X93792Y-4930D01*
X93788D01*
X93691Y-4861D01*
X93603Y-4778D01*
X93524Y-4694D01*
X93460Y-4611D01*
X93413Y-4533D01*
X93390Y-4500D01*
X93376Y-4473D01*
X93363Y-4450D01*
X93353Y-4431D01*
X93344Y-4422D01*
Y-4417D01*
X93903Y-4325D01*
X93936Y-4380D01*
X93972Y-4431D01*
X94014Y-4473D01*
X94056Y-4510D01*
X94093Y-4542D01*
X94134Y-4570D01*
X94176Y-4593D01*
X94213Y-4607D01*
X94282Y-4630D01*
X94314Y-4639D01*
X94342Y-4643D01*
X94361Y-4648D01*
X94393D01*
X94462Y-4643D01*
X94527Y-4625D01*
X94582Y-4602D01*
X94629Y-4579D01*
X94670Y-4551D01*
X94698Y-4533D01*
X94716Y-4514D01*
X94721Y-4510D01*
X94762Y-4454D01*
X94795Y-4389D01*
X94818Y-4329D01*
X94832Y-4269D01*
X94841Y-4214D01*
X94850Y-4172D01*
Y-4145D01*
Y-4140D01*
Y-4135D01*
Y-4117D01*
X94846Y-4098D01*
Y-4080D01*
Y-4075D01*
X93275D01*
X93247Y-3937D01*
X93238Y-3867D01*
X93233Y-3803D01*
X93229Y-3752D01*
Y-3706D01*
Y-3678D01*
Y-3673D01*
Y-3669D01*
X93233Y-3581D01*
X93238Y-3502D01*
X93252Y-3424D01*
X93270Y-3354D01*
X93289Y-3285D01*
X93307Y-3225D01*
X93330Y-3170D01*
X93353Y-3119D01*
X93381Y-3077D01*
X93404Y-3036D01*
X93423Y-3003D01*
X93441Y-2976D01*
X93460Y-2957D01*
X93474Y-2943D01*
X93478Y-2934D01*
X93483Y-2929D01*
X93533Y-2883D01*
X93584Y-2842D01*
X93640Y-2809D01*
X93695Y-2777D01*
X93751Y-2749D01*
X93806Y-2731D01*
X93917Y-2699D01*
X93968Y-2689D01*
X94014Y-2680D01*
X94056Y-2675D01*
X94093Y-2671D01*
X94120Y-2666D01*
X94162D01*
X94282Y-2671D01*
D02*
G37*
G36*
X106682Y-5036D02*
X106063D01*
X105943Y-4431D01*
X106562D01*
X106682Y-5036D01*
D02*
G37*
G36*
X97428Y-2671D02*
X97497Y-2689D01*
X97567Y-2712D01*
X97627Y-2745D01*
X97692Y-2782D01*
X97747Y-2823D01*
X97853Y-2916D01*
X97899Y-2962D01*
X97941Y-3008D01*
X97978Y-3050D01*
X98010Y-3087D01*
X98033Y-3119D01*
X98052Y-3142D01*
X98061Y-3161D01*
X98066Y-3165D01*
X97973Y-2717D01*
X98555D01*
X99041Y-5036D01*
X98422D01*
X98269Y-4311D01*
X98251Y-4232D01*
X98237Y-4154D01*
X98218Y-4084D01*
X98200Y-4024D01*
X98186Y-3964D01*
X98172Y-3909D01*
X98154Y-3863D01*
X98140Y-3821D01*
X98130Y-3784D01*
X98117Y-3752D01*
X98107Y-3724D01*
X98098Y-3701D01*
X98093Y-3687D01*
X98089Y-3673D01*
X98084Y-3664D01*
X98047Y-3590D01*
X98006Y-3525D01*
X97960Y-3470D01*
X97918Y-3424D01*
X97881Y-3391D01*
X97853Y-3364D01*
X97835Y-3345D01*
X97825Y-3341D01*
X97761Y-3299D01*
X97701Y-3267D01*
X97645Y-3248D01*
X97594Y-3230D01*
X97553Y-3221D01*
X97521Y-3216D01*
X97493D01*
X97424Y-3221D01*
X97364Y-3230D01*
X97340Y-3239D01*
X97322Y-3244D01*
X97313Y-3248D01*
X97308D01*
X97068Y-2736D01*
X97123Y-2712D01*
X97179Y-2694D01*
X97229Y-2685D01*
X97271Y-2675D01*
X97308Y-2671D01*
X97336Y-2666D01*
X97359D01*
X97428Y-2671D01*
D02*
G37*
G36*
X95691D02*
X95760Y-2689D01*
X95830Y-2712D01*
X95890Y-2745D01*
X95954Y-2782D01*
X96010Y-2823D01*
X96116Y-2916D01*
X96162Y-2962D01*
X96204Y-3008D01*
X96241Y-3050D01*
X96273Y-3087D01*
X96296Y-3119D01*
X96315Y-3142D01*
X96324Y-3161D01*
X96329Y-3165D01*
X96236Y-2717D01*
X96818D01*
X97303Y-5036D01*
X96684D01*
X96532Y-4311D01*
X96513Y-4232D01*
X96500Y-4154D01*
X96481Y-4084D01*
X96463Y-4024D01*
X96449Y-3964D01*
X96435Y-3909D01*
X96416Y-3863D01*
X96403Y-3821D01*
X96393Y-3784D01*
X96380Y-3752D01*
X96370Y-3724D01*
X96361Y-3701D01*
X96356Y-3687D01*
X96352Y-3673D01*
X96347Y-3664D01*
X96310Y-3590D01*
X96269Y-3525D01*
X96222Y-3470D01*
X96181Y-3424D01*
X96144Y-3391D01*
X96116Y-3364D01*
X96098Y-3345D01*
X96088Y-3341D01*
X96024Y-3299D01*
X95964Y-3267D01*
X95908Y-3248D01*
X95857Y-3230D01*
X95816Y-3221D01*
X95784Y-3216D01*
X95756D01*
X95687Y-3221D01*
X95626Y-3230D01*
X95603Y-3239D01*
X95585Y-3244D01*
X95576Y-3248D01*
X95571D01*
X95331Y-2736D01*
X95386Y-2712D01*
X95442Y-2694D01*
X95492Y-2685D01*
X95534Y-2675D01*
X95571Y-2671D01*
X95599Y-2666D01*
X95622D01*
X95691Y-2671D01*
D02*
G37*
G36*
X91270D02*
X91344Y-2680D01*
X91413Y-2694D01*
X91473Y-2708D01*
X91524Y-2722D01*
X91565Y-2736D01*
X91588Y-2745D01*
X91598Y-2749D01*
X91672Y-2786D01*
X91746Y-2828D01*
X91815Y-2874D01*
X91880Y-2916D01*
X91935Y-2957D01*
X91981Y-2990D01*
X92009Y-3013D01*
X92014Y-3022D01*
X92018D01*
X91958Y-2717D01*
X92550D01*
X93035Y-5036D01*
X92415D01*
X92217Y-4089D01*
X92198Y-4015D01*
X92185Y-3946D01*
X92166Y-3881D01*
X92152Y-3826D01*
X92138Y-3775D01*
X92124Y-3729D01*
X92111Y-3692D01*
X92101Y-3655D01*
X92092Y-3627D01*
X92083Y-3599D01*
X92069Y-3562D01*
X92060Y-3539D01*
X92055Y-3535D01*
X92014Y-3465D01*
X91972Y-3405D01*
X91926Y-3354D01*
X91884Y-3313D01*
X91847Y-3276D01*
X91815Y-3253D01*
X91796Y-3234D01*
X91787Y-3230D01*
X91723Y-3193D01*
X91667Y-3165D01*
X91616Y-3142D01*
X91570Y-3128D01*
X91528Y-3119D01*
X91501Y-3114D01*
X91478D01*
X91431Y-3119D01*
X91390Y-3124D01*
X91357Y-3137D01*
X91330Y-3147D01*
X91307Y-3161D01*
X91293Y-3174D01*
X91284Y-3179D01*
X91279Y-3184D01*
X91256Y-3211D01*
X91237Y-3244D01*
X91224Y-3276D01*
X91214Y-3304D01*
X91210Y-3331D01*
X91205Y-3354D01*
Y-3368D01*
Y-3373D01*
Y-3387D01*
X91210Y-3405D01*
X91219Y-3452D01*
X91228Y-3512D01*
X91237Y-3572D01*
X91251Y-3627D01*
X91260Y-3678D01*
X91265Y-3696D01*
Y-3710D01*
X91270Y-3720D01*
Y-3724D01*
X91552Y-5036D01*
X90933D01*
X90651Y-3729D01*
X90637Y-3669D01*
X90623Y-3613D01*
X90614Y-3562D01*
X90605Y-3516D01*
X90591Y-3433D01*
X90581Y-3373D01*
X90572Y-3322D01*
X90567Y-3290D01*
Y-3271D01*
Y-3267D01*
X90577Y-3170D01*
X90595Y-3087D01*
X90618Y-3013D01*
X90651Y-2948D01*
X90683Y-2897D01*
X90706Y-2860D01*
X90725Y-2842D01*
X90734Y-2833D01*
X90803Y-2777D01*
X90877Y-2736D01*
X90951Y-2708D01*
X91025Y-2685D01*
X91090Y-2675D01*
X91145Y-2671D01*
X91163Y-2666D01*
X91191D01*
X91270Y-2671D01*
D02*
G37*
G36*
X88692Y-5036D02*
X88073D01*
X87953Y-4431D01*
X88572D01*
X88692Y-5036D01*
D02*
G37*
G36*
X86118Y-5036D02*
X85467D01*
X84793Y-1839D01*
X85448D01*
X86118Y-5036D01*
D02*
G37*
G36*
X84834D02*
X84183D01*
X83906Y-3715D01*
X83637D01*
X83554Y-3720D01*
X83485Y-3724D01*
X83430Y-3733D01*
X83383Y-3747D01*
X83351Y-3761D01*
X83328Y-3770D01*
X83314Y-3775D01*
X83310Y-3780D01*
X83282Y-3803D01*
X83254Y-3826D01*
X83199Y-3890D01*
X83152Y-3960D01*
X83111Y-4029D01*
X83074Y-4094D01*
X83046Y-4145D01*
X83037Y-4168D01*
X83028Y-4182D01*
X83023Y-4191D01*
Y-4195D01*
X82977Y-4297D01*
X82935Y-4394D01*
X82898Y-4486D01*
X82866Y-4570D01*
X82834Y-4643D01*
X82806Y-4713D01*
X82783Y-4773D01*
X82760Y-4828D01*
X82741Y-4879D01*
X82727Y-4921D01*
X82714Y-4958D01*
X82704Y-4985D01*
X82695Y-5009D01*
X82690Y-5022D01*
X82686Y-5032D01*
Y-5036D01*
X81979D01*
X82030Y-4911D01*
X82081Y-4796D01*
X82127Y-4685D01*
X82173Y-4583D01*
X82214Y-4486D01*
X82256Y-4399D01*
X82293Y-4320D01*
X82330Y-4251D01*
X82362Y-4186D01*
X82390Y-4131D01*
X82413Y-4084D01*
X82436Y-4047D01*
X82450Y-4015D01*
X82464Y-3997D01*
X82469Y-3983D01*
X82473Y-3978D01*
X82515Y-3914D01*
X82556Y-3853D01*
X82598Y-3803D01*
X82630Y-3757D01*
X82663Y-3724D01*
X82686Y-3696D01*
X82704Y-3683D01*
X82709Y-3678D01*
X82621Y-3664D01*
X82533Y-3646D01*
X82455Y-3627D01*
X82385Y-3604D01*
X82316Y-3576D01*
X82256Y-3549D01*
X82201Y-3521D01*
X82155Y-3493D01*
X82108Y-3465D01*
X82071Y-3442D01*
X82044Y-3419D01*
X82016Y-3396D01*
X81997Y-3378D01*
X81979Y-3364D01*
X81974Y-3359D01*
X81970Y-3354D01*
X81928Y-3304D01*
X81887Y-3248D01*
X81854Y-3193D01*
X81827Y-3137D01*
X81785Y-3022D01*
X81757Y-2916D01*
X81743Y-2870D01*
X81739Y-2823D01*
X81734Y-2782D01*
X81729Y-2749D01*
X81725Y-2717D01*
Y-2699D01*
Y-2685D01*
Y-2680D01*
X81729Y-2578D01*
X81743Y-2481D01*
X81766Y-2398D01*
X81789Y-2329D01*
X81813Y-2273D01*
X81836Y-2232D01*
X81850Y-2204D01*
X81854Y-2195D01*
X81905Y-2126D01*
X81956Y-2066D01*
X82011Y-2019D01*
X82067Y-1978D01*
X82113Y-1950D01*
X82150Y-1932D01*
X82173Y-1922D01*
X82178Y-1918D01*
X82182D01*
X82265Y-1890D01*
X82358Y-1871D01*
X82450Y-1858D01*
X82543Y-1848D01*
X82626Y-1844D01*
X82658Y-1839D01*
X84164D01*
X84834Y-5036D01*
D02*
G37*
G36*
X67320D02*
X66701D01*
X66580Y-4431D01*
X67199D01*
X67320Y-5036D01*
D02*
G37*
G36*
X63841D02*
X63166D01*
X62783Y-4329D01*
X61517D01*
X61411Y-5036D01*
X60787D01*
X61300Y-1839D01*
X62044D01*
X63841Y-5036D01*
D02*
G37*
G36*
X76380Y-1784D02*
X76472Y-1788D01*
X76560Y-1802D01*
X76643Y-1821D01*
X76721Y-1839D01*
X76791Y-1862D01*
X76851Y-1890D01*
X76906Y-1913D01*
X76957Y-1936D01*
X77003Y-1964D01*
X77040Y-1987D01*
X77068Y-2005D01*
X77091Y-2024D01*
X77109Y-2033D01*
X77119Y-2042D01*
X77123Y-2047D01*
X77174Y-2098D01*
X77220Y-2153D01*
X77257Y-2209D01*
X77290Y-2264D01*
X77317Y-2324D01*
X77345Y-2380D01*
X77377Y-2486D01*
X77391Y-2532D01*
X77400Y-2578D01*
X77405Y-2620D01*
X77410Y-2652D01*
X77414Y-2680D01*
Y-2703D01*
Y-2717D01*
Y-2722D01*
X77410Y-2805D01*
X77400Y-2883D01*
X77382Y-2953D01*
X77364Y-3013D01*
X77350Y-3059D01*
X77331Y-3096D01*
X77322Y-3119D01*
X77317Y-3128D01*
X77276Y-3188D01*
X77234Y-3244D01*
X77188Y-3294D01*
X77146Y-3331D01*
X77109Y-3364D01*
X77077Y-3391D01*
X77059Y-3405D01*
X77049Y-3410D01*
X77017Y-3429D01*
X76976Y-3452D01*
X76892Y-3498D01*
X76800Y-3539D01*
X76712Y-3585D01*
X76634Y-3622D01*
X76597Y-3636D01*
X76564Y-3650D01*
X76541Y-3664D01*
X76523Y-3669D01*
X76509Y-3678D01*
X76504D01*
X76439Y-3706D01*
X76375Y-3733D01*
X76324Y-3761D01*
X76273Y-3784D01*
X76232Y-3803D01*
X76195Y-3821D01*
X76162Y-3840D01*
X76135Y-3858D01*
X76093Y-3881D01*
X76065Y-3900D01*
X76051Y-3909D01*
X76047Y-3914D01*
X76005Y-3951D01*
X75977Y-3992D01*
X75954Y-4034D01*
X75941Y-4071D01*
X75931Y-4103D01*
X75927Y-4131D01*
Y-4149D01*
Y-4154D01*
X75931Y-4214D01*
X75950Y-4265D01*
X75973Y-4311D01*
X76001Y-4352D01*
X76028Y-4385D01*
X76051Y-4412D01*
X76070Y-4426D01*
X76075Y-4431D01*
X76135Y-4468D01*
X76209Y-4496D01*
X76287Y-4519D01*
X76361Y-4533D01*
X76430Y-4542D01*
X76463D01*
X76490Y-4546D01*
X76610D01*
X76675Y-4537D01*
X76735Y-4533D01*
X76786Y-4519D01*
X76837Y-4510D01*
X76878Y-4496D01*
X76920Y-4477D01*
X76952Y-4463D01*
X77008Y-4431D01*
X77045Y-4408D01*
X77063Y-4389D01*
X77073Y-4380D01*
X77105Y-4334D01*
X77128Y-4274D01*
X77146Y-4205D01*
X77156Y-4135D01*
X77165Y-4075D01*
X77170Y-4020D01*
X77174Y-4001D01*
Y-3988D01*
Y-3978D01*
Y-3974D01*
X77802Y-4011D01*
X77798Y-4126D01*
X77789Y-4232D01*
X77770Y-4329D01*
X77747Y-4412D01*
X77724Y-4482D01*
X77715Y-4510D01*
X77705Y-4533D01*
X77696Y-4556D01*
X77692Y-4570D01*
X77687Y-4574D01*
Y-4579D01*
X77631Y-4667D01*
X77567Y-4741D01*
X77498Y-4810D01*
X77428Y-4861D01*
X77364Y-4907D01*
X77313Y-4935D01*
X77290Y-4948D01*
X77276Y-4958D01*
X77267Y-4962D01*
X77262D01*
X77146Y-5009D01*
X77022Y-5041D01*
X76902Y-5064D01*
X76791Y-5078D01*
X76740Y-5087D01*
X76694D01*
X76652Y-5092D01*
X76615Y-5096D01*
X76546D01*
X76435Y-5092D01*
X76333Y-5082D01*
X76236Y-5069D01*
X76148Y-5050D01*
X76065Y-5027D01*
X75987Y-4999D01*
X75918Y-4976D01*
X75857Y-4944D01*
X75797Y-4916D01*
X75751Y-4893D01*
X75710Y-4865D01*
X75673Y-4842D01*
X75649Y-4824D01*
X75626Y-4810D01*
X75617Y-4801D01*
X75613Y-4796D01*
X75552Y-4736D01*
X75502Y-4681D01*
X75455Y-4616D01*
X75419Y-4556D01*
X75386Y-4496D01*
X75358Y-4436D01*
X75335Y-4376D01*
X75317Y-4320D01*
X75303Y-4269D01*
X75294Y-4223D01*
X75284Y-4177D01*
X75280Y-4140D01*
X75275Y-4112D01*
Y-4089D01*
Y-4075D01*
Y-4071D01*
X75280Y-4006D01*
X75284Y-3951D01*
X75312Y-3840D01*
X75345Y-3743D01*
X75386Y-3664D01*
X75428Y-3599D01*
X75465Y-3549D01*
X75479Y-3535D01*
X75492Y-3521D01*
X75497Y-3516D01*
X75502Y-3512D01*
X75534Y-3484D01*
X75576Y-3452D01*
X75622Y-3419D01*
X75677Y-3387D01*
X75793Y-3322D01*
X75913Y-3262D01*
X76024Y-3207D01*
X76075Y-3184D01*
X76121Y-3161D01*
X76158Y-3147D01*
X76185Y-3133D01*
X76204Y-3128D01*
X76209Y-3124D01*
X76273Y-3096D01*
X76333Y-3068D01*
X76389Y-3040D01*
X76435Y-3017D01*
X76481Y-2994D01*
X76518Y-2971D01*
X76550Y-2953D01*
X76583Y-2934D01*
X76629Y-2906D01*
X76657Y-2888D01*
X76675Y-2874D01*
X76680Y-2870D01*
X76717Y-2833D01*
X76740Y-2795D01*
X76758Y-2759D01*
X76772Y-2722D01*
X76781Y-2689D01*
X76786Y-2666D01*
Y-2648D01*
Y-2643D01*
X76781Y-2592D01*
X76768Y-2541D01*
X76749Y-2500D01*
X76726Y-2463D01*
X76708Y-2435D01*
X76689Y-2417D01*
X76675Y-2403D01*
X76670Y-2398D01*
X76620Y-2366D01*
X76560Y-2343D01*
X76495Y-2324D01*
X76435Y-2315D01*
X76375Y-2306D01*
X76329Y-2301D01*
X76283D01*
X76185Y-2306D01*
X76098Y-2320D01*
X76024Y-2343D01*
X75968Y-2361D01*
X75922Y-2384D01*
X75890Y-2407D01*
X75867Y-2421D01*
X75862Y-2426D01*
X75811Y-2477D01*
X75774Y-2532D01*
X75747Y-2592D01*
X75723Y-2648D01*
X75710Y-2699D01*
X75696Y-2740D01*
X75691Y-2768D01*
Y-2772D01*
Y-2777D01*
X75063Y-2749D01*
X75072Y-2671D01*
X75086Y-2592D01*
X75104Y-2523D01*
X75128Y-2454D01*
X75155Y-2394D01*
X75183Y-2334D01*
X75215Y-2283D01*
X75248Y-2232D01*
X75275Y-2190D01*
X75303Y-2153D01*
X75331Y-2121D01*
X75354Y-2093D01*
X75377Y-2075D01*
X75391Y-2061D01*
X75400Y-2052D01*
X75405Y-2047D01*
X75465Y-2001D01*
X75529Y-1959D01*
X75599Y-1922D01*
X75673Y-1890D01*
X75742Y-1867D01*
X75816Y-1844D01*
X75959Y-1812D01*
X76024Y-1802D01*
X76084Y-1793D01*
X76139Y-1788D01*
X76185Y-1784D01*
X76222Y-1779D01*
X76278D01*
X76380Y-1784D01*
D02*
G37*
G36*
X64765Y-1825D02*
X64866Y-1839D01*
X64954Y-1862D01*
X65033Y-1881D01*
X65097Y-1904D01*
X65148Y-1927D01*
X65167Y-1932D01*
X65181Y-1941D01*
X65185Y-1945D01*
X65190D01*
X65273Y-1996D01*
X65342Y-2052D01*
X65402Y-2107D01*
X65453Y-2163D01*
X65490Y-2209D01*
X65518Y-2246D01*
X65536Y-2273D01*
X65541Y-2278D01*
Y-2283D01*
X65578Y-2361D01*
X65606Y-2435D01*
X65629Y-2509D01*
X65643Y-2569D01*
X65652Y-2625D01*
X65657Y-2662D01*
Y-2689D01*
Y-2694D01*
Y-2699D01*
X65652Y-2763D01*
X65643Y-2828D01*
X65629Y-2883D01*
X65615Y-2929D01*
X65601Y-2971D01*
X65587Y-2999D01*
X65578Y-3022D01*
X65573Y-3026D01*
X65536Y-3077D01*
X65499Y-3128D01*
X65458Y-3170D01*
X65416Y-3207D01*
X65379Y-3239D01*
X65351Y-3262D01*
X65333Y-3276D01*
X65324Y-3281D01*
X65430Y-3327D01*
X65527Y-3382D01*
X65610Y-3442D01*
X65680Y-3502D01*
X65735Y-3553D01*
X65777Y-3599D01*
X65790Y-3618D01*
X65800Y-3632D01*
X65809Y-3636D01*
Y-3641D01*
X65869Y-3738D01*
X65911Y-3835D01*
X65943Y-3932D01*
X65961Y-4020D01*
X65975Y-4098D01*
X65980Y-4131D01*
Y-4158D01*
X65984Y-4182D01*
Y-4200D01*
Y-4209D01*
Y-4214D01*
X65980Y-4283D01*
X65975Y-4352D01*
X65943Y-4473D01*
X65906Y-4583D01*
X65855Y-4676D01*
X65832Y-4713D01*
X65809Y-4750D01*
X65790Y-4778D01*
X65772Y-4801D01*
X65754Y-4819D01*
X65740Y-4833D01*
X65735Y-4842D01*
X65730Y-4847D01*
X65680Y-4888D01*
X65629Y-4930D01*
X65573Y-4962D01*
X65513Y-4990D01*
X65402Y-5036D01*
X65292Y-5064D01*
X65245Y-5073D01*
X65199Y-5082D01*
X65158Y-5087D01*
X65121Y-5092D01*
X65093Y-5096D01*
X65051D01*
X64945Y-5092D01*
X64843Y-5078D01*
X64751Y-5055D01*
X64663Y-5032D01*
X64580Y-4999D01*
X64506Y-4962D01*
X64437Y-4925D01*
X64372Y-4884D01*
X64317Y-4842D01*
X64271Y-4805D01*
X64229Y-4768D01*
X64192Y-4736D01*
X64169Y-4708D01*
X64146Y-4690D01*
X64136Y-4676D01*
X64132Y-4671D01*
X64090Y-4616D01*
X64053Y-4556D01*
X64026Y-4500D01*
X63998Y-4445D01*
X63956Y-4334D01*
X63929Y-4228D01*
X63919Y-4182D01*
X63915Y-4140D01*
X63906Y-4103D01*
Y-4071D01*
X63901Y-4047D01*
Y-4025D01*
Y-4015D01*
Y-4011D01*
X63906Y-3932D01*
X63915Y-3858D01*
X63933Y-3793D01*
X63947Y-3733D01*
X63965Y-3687D01*
X63984Y-3650D01*
X63993Y-3632D01*
X63998Y-3622D01*
X64039Y-3558D01*
X64086Y-3502D01*
X64132Y-3452D01*
X64183Y-3410D01*
X64224Y-3373D01*
X64261Y-3350D01*
X64284Y-3331D01*
X64289Y-3327D01*
X64294D01*
X64196Y-3281D01*
X64113Y-3230D01*
X64044Y-3184D01*
X63989Y-3137D01*
X63942Y-3096D01*
X63910Y-3059D01*
X63892Y-3040D01*
X63887Y-3031D01*
X63841Y-2962D01*
X63809Y-2888D01*
X63781Y-2819D01*
X63767Y-2754D01*
X63758Y-2694D01*
X63748Y-2652D01*
Y-2634D01*
Y-2620D01*
Y-2615D01*
Y-2611D01*
X63753Y-2546D01*
X63758Y-2486D01*
X63785Y-2380D01*
X63822Y-2283D01*
X63868Y-2200D01*
X63915Y-2135D01*
X63952Y-2089D01*
X63965Y-2070D01*
X63979Y-2056D01*
X63984Y-2052D01*
X63989Y-2047D01*
X64035Y-2005D01*
X64086Y-1973D01*
X64141Y-1941D01*
X64196Y-1918D01*
X64307Y-1876D01*
X64414Y-1848D01*
X64464Y-1839D01*
X64511Y-1835D01*
X64552Y-1825D01*
X64589D01*
X64617Y-1821D01*
X64658D01*
X64765Y-1825D01*
D02*
G37*
G36*
X91307Y1619D02*
X91409Y1601D01*
X91501Y1573D01*
X91580Y1541D01*
X91649Y1508D01*
X91681Y1494D01*
X91704Y1481D01*
X91723Y1471D01*
X91737Y1462D01*
X91746Y1453D01*
X91751D01*
X91843Y1379D01*
X91926Y1300D01*
X92000Y1213D01*
X92060Y1130D01*
X92106Y1051D01*
X92125Y1019D01*
X92139Y991D01*
X92153Y968D01*
X92157Y949D01*
X92167Y940D01*
Y935D01*
X92217Y806D01*
X92250Y677D01*
X92277Y552D01*
X92296Y436D01*
X92300Y381D01*
X92305Y335D01*
X92310Y293D01*
Y256D01*
X92314Y229D01*
Y206D01*
Y192D01*
Y187D01*
X92310Y104D01*
X92305Y25D01*
X92296Y-49D01*
X92282Y-118D01*
X92264Y-183D01*
X92245Y-238D01*
X92227Y-289D01*
X92203Y-335D01*
X92185Y-377D01*
X92167Y-414D01*
X92148Y-446D01*
X92130Y-469D01*
X92116Y-492D01*
X92106Y-506D01*
X92097Y-511D01*
Y-515D01*
X92056Y-557D01*
X92010Y-594D01*
X91963Y-626D01*
X91917Y-649D01*
X91825Y-695D01*
X91737Y-723D01*
X91658Y-737D01*
X91626Y-742D01*
X91594Y-746D01*
X91571Y-751D01*
X91538D01*
X91469Y-746D01*
X91404Y-737D01*
X91340Y-728D01*
X91275Y-709D01*
X91159Y-668D01*
X91053Y-617D01*
X91007Y-594D01*
X90961Y-566D01*
X90928Y-543D01*
X90896Y-525D01*
X90868Y-506D01*
X90850Y-492D01*
X90841Y-488D01*
X90836Y-483D01*
X90859Y-589D01*
X90878Y-686D01*
X90896Y-765D01*
X90914Y-829D01*
X90924Y-880D01*
X90938Y-917D01*
X90947Y-940D01*
X90952Y-954D01*
Y-959D01*
X90975Y-1005D01*
X91002Y-1047D01*
X91025Y-1079D01*
X91053Y-1107D01*
X91076Y-1125D01*
X91090Y-1139D01*
X91104Y-1148D01*
X91109Y-1153D01*
X91159Y-1180D01*
X91215Y-1199D01*
X91270Y-1218D01*
X91326Y-1227D01*
X91372Y-1231D01*
X91409Y-1236D01*
X91492D01*
X91529Y-1231D01*
X91561Y-1222D01*
X91594Y-1218D01*
X91612Y-1208D01*
X91631Y-1204D01*
X91640Y-1199D01*
X91645D01*
X91691Y-1171D01*
X91723Y-1139D01*
X91742Y-1120D01*
X91746Y-1111D01*
X91755Y-1088D01*
X91765Y-1065D01*
X91774Y-1014D01*
X91778Y-996D01*
Y-977D01*
Y-963D01*
Y-959D01*
X92444Y-866D01*
X92448Y-899D01*
Y-926D01*
Y-945D01*
Y-954D01*
X92444Y-1024D01*
X92439Y-1093D01*
X92425Y-1153D01*
X92411Y-1208D01*
X92388Y-1259D01*
X92370Y-1305D01*
X92347Y-1342D01*
X92324Y-1379D01*
X92277Y-1439D01*
X92236Y-1481D01*
X92208Y-1504D01*
X92203Y-1513D01*
X92199D01*
X92148Y-1541D01*
X92097Y-1569D01*
X91977Y-1610D01*
X91857Y-1643D01*
X91737Y-1661D01*
X91681Y-1670D01*
X91626Y-1675D01*
X91580Y-1680D01*
X91538D01*
X91506Y-1684D01*
X91381D01*
X91307Y-1680D01*
X91238Y-1670D01*
X91178Y-1666D01*
X91127Y-1656D01*
X91090Y-1652D01*
X91067Y-1647D01*
X91058D01*
X90993Y-1633D01*
X90928Y-1615D01*
X90878Y-1596D01*
X90827Y-1573D01*
X90790Y-1559D01*
X90762Y-1546D01*
X90744Y-1536D01*
X90739Y-1532D01*
X90688Y-1499D01*
X90647Y-1467D01*
X90605Y-1435D01*
X90573Y-1402D01*
X90549Y-1375D01*
X90526Y-1352D01*
X90517Y-1338D01*
X90513Y-1333D01*
X90480Y-1287D01*
X90452Y-1236D01*
X90425Y-1180D01*
X90402Y-1134D01*
X90383Y-1088D01*
X90369Y-1051D01*
X90360Y-1028D01*
X90355Y-1019D01*
X90342Y-977D01*
X90328Y-936D01*
X90300Y-834D01*
X90272Y-723D01*
X90245Y-617D01*
X90222Y-520D01*
X90212Y-474D01*
X90203Y-437D01*
X90194Y-404D01*
X90189Y-381D01*
X90185Y-367D01*
Y-363D01*
X89820Y1578D01*
X90402D01*
X90485Y1166D01*
X90526Y1245D01*
X90577Y1310D01*
X90628Y1370D01*
X90674Y1416D01*
X90716Y1453D01*
X90753Y1481D01*
X90776Y1499D01*
X90785Y1504D01*
X90859Y1545D01*
X90928Y1578D01*
X91002Y1596D01*
X91067Y1615D01*
X91122Y1624D01*
X91169Y1628D01*
X91206D01*
X91307Y1619D01*
D02*
G37*
G36*
X77078Y1042D02*
X74841D01*
Y1601D01*
X77078D01*
Y1042D01*
D02*
G37*
G36*
X86706Y968D02*
X86087D01*
X85966Y1573D01*
X86586D01*
X86706Y968D01*
D02*
G37*
G36*
X96454Y1619D02*
X96592Y1601D01*
X96653Y1587D01*
X96708Y1573D01*
X96763Y1559D01*
X96810Y1541D01*
X96851Y1522D01*
X96888Y1508D01*
X96921Y1494D01*
X96948Y1481D01*
X96967Y1471D01*
X96981Y1462D01*
X96990Y1453D01*
X96994D01*
X97082Y1384D01*
X97161Y1305D01*
X97221Y1222D01*
X97272Y1148D01*
X97309Y1079D01*
X97336Y1023D01*
X97346Y1000D01*
X97350Y986D01*
X97355Y977D01*
Y972D01*
X96745Y922D01*
X96731Y963D01*
X96713Y1000D01*
X96689Y1032D01*
X96666Y1060D01*
X96648Y1083D01*
X96630Y1097D01*
X96620Y1106D01*
X96616Y1111D01*
X96574Y1134D01*
X96532Y1153D01*
X96486Y1162D01*
X96445Y1171D01*
X96408Y1176D01*
X96375Y1180D01*
X96348D01*
X96292Y1176D01*
X96241Y1171D01*
X96204Y1157D01*
X96167Y1148D01*
X96140Y1134D01*
X96121Y1120D01*
X96112Y1116D01*
X96107Y1111D01*
X96080Y1083D01*
X96061Y1056D01*
X96043Y1028D01*
X96034Y1000D01*
X96029Y977D01*
X96024Y963D01*
Y949D01*
Y945D01*
Y912D01*
X96029Y880D01*
X96043Y811D01*
X96052Y783D01*
X96061Y760D01*
X96066Y741D01*
Y737D01*
X96098Y728D01*
X96135Y718D01*
X96177Y709D01*
X96223Y700D01*
X96320Y681D01*
X96422Y672D01*
X96514Y658D01*
X96556Y654D01*
X96588Y649D01*
X96620D01*
X96643Y644D01*
X96662D01*
X96759Y635D01*
X96847Y621D01*
X96925Y607D01*
X96999Y589D01*
X97068Y570D01*
X97128Y552D01*
X97184Y529D01*
X97230Y510D01*
X97272Y487D01*
X97309Y469D01*
X97336Y450D01*
X97359Y436D01*
X97378Y423D01*
X97392Y413D01*
X97396Y409D01*
X97401Y404D01*
X97438Y367D01*
X97466Y326D01*
X97517Y238D01*
X97553Y150D01*
X97577Y62D01*
X97595Y-12D01*
X97600Y-44D01*
Y-72D01*
X97604Y-95D01*
Y-113D01*
Y-123D01*
Y-127D01*
X97595Y-233D01*
X97577Y-330D01*
X97544Y-414D01*
X97512Y-483D01*
X97479Y-543D01*
X97447Y-585D01*
X97429Y-608D01*
X97420Y-617D01*
X97346Y-677D01*
X97267Y-723D01*
X97184Y-756D01*
X97110Y-779D01*
X97045Y-793D01*
X96990Y-797D01*
X96971Y-802D01*
X96944D01*
X96874Y-797D01*
X96810Y-788D01*
X96750Y-774D01*
X96694Y-760D01*
X96648Y-746D01*
X96616Y-732D01*
X96592Y-723D01*
X96583Y-718D01*
X96519Y-686D01*
X96459Y-645D01*
X96403Y-608D01*
X96357Y-571D01*
X96320Y-534D01*
X96288Y-506D01*
X96269Y-488D01*
X96264Y-483D01*
X96255Y-580D01*
X96246Y-622D01*
X96241Y-663D01*
X96232Y-695D01*
X96223Y-718D01*
X96218Y-737D01*
Y-742D01*
X95613D01*
X95631Y-677D01*
X95641Y-612D01*
X95650Y-557D01*
X95659Y-511D01*
Y-469D01*
X95664Y-441D01*
Y-418D01*
Y-414D01*
Y-381D01*
X95659Y-340D01*
X95650Y-252D01*
X95636Y-160D01*
X95618Y-62D01*
X95604Y25D01*
X95595Y62D01*
X95590Y99D01*
X95585Y127D01*
X95581Y145D01*
X95576Y159D01*
Y164D01*
X95558Y252D01*
X95539Y335D01*
X95521Y409D01*
X95507Y473D01*
X95498Y529D01*
X95488Y580D01*
X95479Y626D01*
X95470Y663D01*
X95465Y695D01*
X95456Y718D01*
Y741D01*
X95451Y755D01*
X95447Y778D01*
Y783D01*
X95433Y871D01*
X95428Y908D01*
Y940D01*
X95424Y968D01*
Y986D01*
Y1000D01*
Y1005D01*
Y1056D01*
X95433Y1102D01*
X95456Y1185D01*
X95493Y1259D01*
X95530Y1323D01*
X95572Y1379D01*
X95608Y1416D01*
X95631Y1439D01*
X95636Y1448D01*
X95641D01*
X95682Y1481D01*
X95729Y1508D01*
X95835Y1555D01*
X95941Y1587D01*
X96052Y1605D01*
X96149Y1619D01*
X96191Y1624D01*
X96228D01*
X96260Y1628D01*
X96301D01*
X96454Y1619D01*
D02*
G37*
G36*
X72111Y2469D02*
X72199Y2455D01*
X72282Y2437D01*
X72361Y2414D01*
X72435Y2386D01*
X72499Y2354D01*
X72564Y2317D01*
X72619Y2285D01*
X72670Y2248D01*
X72712Y2211D01*
X72749Y2178D01*
X72781Y2151D01*
X72804Y2127D01*
X72823Y2109D01*
X72832Y2095D01*
X72837Y2090D01*
X72892Y2017D01*
X72938Y1943D01*
X72980Y1869D01*
X73012Y1790D01*
X73044Y1716D01*
X73067Y1647D01*
X73104Y1508D01*
X73114Y1448D01*
X73123Y1393D01*
X73132Y1342D01*
X73137Y1300D01*
X73141Y1263D01*
Y1240D01*
Y1222D01*
Y1217D01*
X73137Y1139D01*
X73132Y1060D01*
X73118Y991D01*
X73104Y926D01*
X73086Y862D01*
X73067Y806D01*
X73044Y755D01*
X73021Y704D01*
X72998Y663D01*
X72975Y626D01*
X72957Y598D01*
X72938Y570D01*
X72924Y552D01*
X72910Y538D01*
X72906Y529D01*
X72901Y524D01*
X72855Y483D01*
X72804Y441D01*
X72753Y409D01*
X72702Y381D01*
X72601Y335D01*
X72504Y307D01*
X72421Y289D01*
X72384Y284D01*
X72351Y279D01*
X72328Y275D01*
X72291D01*
X72208Y279D01*
X72130Y293D01*
X72056Y316D01*
X71991Y339D01*
X71936Y362D01*
X71899Y386D01*
X71871Y399D01*
X71862Y404D01*
X71880Y330D01*
X71903Y265D01*
X71926Y201D01*
X71949Y141D01*
X71977Y90D01*
X72000Y44D01*
X72023Y-2D01*
X72046Y-39D01*
X72065Y-72D01*
X72083Y-104D01*
X72120Y-146D01*
X72139Y-173D01*
X72148Y-183D01*
X72194Y-224D01*
X72241Y-252D01*
X72291Y-275D01*
X72333Y-289D01*
X72374Y-298D01*
X72402Y-303D01*
X72430D01*
X72476Y-298D01*
X72513Y-289D01*
X72545Y-280D01*
X72578Y-266D01*
X72596Y-252D01*
X72615Y-238D01*
X72624Y-233D01*
X72629Y-229D01*
X72652Y-197D01*
X72675Y-155D01*
X72698Y-67D01*
X72707Y-25D01*
X72712Y7D01*
X72716Y30D01*
Y39D01*
X73303Y-12D01*
X73285Y-146D01*
X73257Y-261D01*
X73215Y-358D01*
X73174Y-441D01*
X73132Y-506D01*
X73114Y-534D01*
X73095Y-557D01*
X73081Y-571D01*
X73072Y-585D01*
X73063Y-589D01*
Y-594D01*
X73021Y-631D01*
X72975Y-663D01*
X72878Y-714D01*
X72781Y-751D01*
X72684Y-774D01*
X72601Y-793D01*
X72569Y-797D01*
X72536D01*
X72513Y-802D01*
X72476D01*
X72361Y-797D01*
X72254Y-774D01*
X72153Y-746D01*
X72060Y-709D01*
X71968Y-663D01*
X71885Y-612D01*
X71811Y-557D01*
X71741Y-501D01*
X71681Y-446D01*
X71626Y-395D01*
X71580Y-344D01*
X71543Y-298D01*
X71515Y-261D01*
X71492Y-233D01*
X71478Y-210D01*
X71474Y-206D01*
X71404Y-90D01*
X71349Y30D01*
X71293Y150D01*
X71252Y275D01*
X71215Y395D01*
X71183Y520D01*
X71159Y635D01*
X71136Y746D01*
X71122Y852D01*
X71109Y949D01*
X71104Y1037D01*
X71095Y1111D01*
Y1171D01*
X71090Y1217D01*
Y1231D01*
Y1245D01*
Y1250D01*
Y1254D01*
X71095Y1356D01*
X71099Y1453D01*
X71113Y1545D01*
X71127Y1628D01*
X71145Y1707D01*
X71164Y1781D01*
X71187Y1846D01*
X71210Y1906D01*
X71233Y1961D01*
X71256Y2007D01*
X71275Y2049D01*
X71293Y2081D01*
X71307Y2109D01*
X71321Y2127D01*
X71326Y2137D01*
X71330Y2141D01*
X71377Y2201D01*
X71427Y2252D01*
X71483Y2294D01*
X71538Y2335D01*
X71598Y2368D01*
X71654Y2391D01*
X71709Y2414D01*
X71765Y2432D01*
X71815Y2446D01*
X71866Y2455D01*
X71908Y2465D01*
X71945Y2469D01*
X71977Y2474D01*
X72019D01*
X72111Y2469D01*
D02*
G37*
G36*
X77078Y71D02*
X74841D01*
Y635D01*
X77078D01*
Y71D01*
D02*
G37*
G36*
X83560Y-742D02*
X82862D01*
X81097Y2455D01*
X81748D01*
X83074Y39D01*
X83476Y2455D01*
X84128D01*
X83560Y-742D01*
D02*
G37*
G36*
X61319D02*
X60621D01*
X58856Y2455D01*
X59508D01*
X60834Y39D01*
X61236Y2455D01*
X61887D01*
X61319Y-742D01*
D02*
G37*
G36*
X102492Y-742D02*
X102529Y-820D01*
X102566Y-885D01*
X102608Y-945D01*
X102645Y-996D01*
X102686Y-1037D01*
X102728Y-1074D01*
X102765Y-1102D01*
X102802Y-1125D01*
X102834Y-1144D01*
X102866Y-1157D01*
X102922Y-1171D01*
X102940Y-1176D01*
X102954Y-1180D01*
X102968D01*
X103047Y-1176D01*
X103084Y-1167D01*
X103116Y-1162D01*
X103144Y-1153D01*
X103167Y-1148D01*
X103181Y-1144D01*
X103185D01*
X103236Y-1610D01*
X103148Y-1633D01*
X103065Y-1652D01*
X102987Y-1666D01*
X102922Y-1675D01*
X102866Y-1680D01*
X102830Y-1684D01*
X102793D01*
X102719Y-1680D01*
X102654Y-1670D01*
X102599Y-1661D01*
X102548Y-1647D01*
X102506Y-1633D01*
X102474Y-1619D01*
X102455Y-1615D01*
X102451Y-1610D01*
X102400Y-1578D01*
X102354Y-1546D01*
X102312Y-1513D01*
X102275Y-1481D01*
X102247Y-1453D01*
X102229Y-1430D01*
X102215Y-1412D01*
X102210Y-1407D01*
X102169Y-1352D01*
X102123Y-1287D01*
X102076Y-1213D01*
X102030Y-1139D01*
X101989Y-1074D01*
X101956Y-1019D01*
X101947Y-996D01*
X101938Y-982D01*
X101929Y-973D01*
Y-968D01*
X100496Y1578D01*
X101157D01*
X101711Y543D01*
X101785Y399D01*
X101855Y261D01*
X101910Y136D01*
X101961Y25D01*
X101979Y-25D01*
X101998Y-67D01*
X102012Y-109D01*
X102026Y-141D01*
X102035Y-164D01*
X102044Y-187D01*
X102049Y-197D01*
Y-164D01*
X102053Y-123D01*
X102063Y-30D01*
X102076Y71D01*
X102086Y173D01*
X102100Y270D01*
X102104Y312D01*
X102109Y344D01*
X102113Y376D01*
Y399D01*
X102118Y413D01*
Y418D01*
X102270Y1578D01*
X102894D01*
X102492Y-742D01*
D02*
G37*
G36*
X112314Y284D02*
X112328Y219D01*
X112342Y159D01*
X112351Y104D01*
X112361Y58D01*
X112365Y11D01*
X112374Y-25D01*
X112384Y-90D01*
X112388Y-141D01*
X112393Y-173D01*
Y-192D01*
Y-197D01*
X112388Y-293D01*
X112370Y-381D01*
X112347Y-460D01*
X112319Y-520D01*
X112291Y-571D01*
X112268Y-608D01*
X112250Y-631D01*
X112245Y-640D01*
X112185Y-695D01*
X112116Y-732D01*
X112046Y-760D01*
X111982Y-783D01*
X111922Y-793D01*
X111871Y-797D01*
X111852Y-802D01*
X111829D01*
X111751Y-797D01*
X111677Y-788D01*
X111603Y-769D01*
X111534Y-746D01*
X111404Y-691D01*
X111344Y-659D01*
X111289Y-622D01*
X111238Y-589D01*
X111196Y-557D01*
X111155Y-529D01*
X111122Y-501D01*
X111099Y-478D01*
X111076Y-460D01*
X111067Y-451D01*
X111062Y-446D01*
X111127Y-742D01*
X110540D01*
X110018Y1578D01*
X110642D01*
X110891Y469D01*
X110910Y395D01*
X110924Y335D01*
X110938Y279D01*
X110951Y238D01*
X110961Y201D01*
X110970Y178D01*
X110975Y164D01*
Y159D01*
X110993Y108D01*
X111016Y62D01*
X111035Y25D01*
X111053Y-12D01*
X111067Y-35D01*
X111081Y-58D01*
X111085Y-67D01*
X111090Y-72D01*
X111136Y-132D01*
X111182Y-178D01*
X111201Y-197D01*
X111215Y-210D01*
X111224Y-220D01*
X111229Y-224D01*
X111284Y-266D01*
X111330Y-298D01*
X111349Y-307D01*
X111363Y-317D01*
X111372Y-321D01*
X111377D01*
X111427Y-340D01*
X111474Y-349D01*
X111492Y-353D01*
X111520D01*
X111557Y-349D01*
X111589Y-344D01*
X111617Y-330D01*
X111644Y-317D01*
X111663Y-307D01*
X111677Y-293D01*
X111686Y-289D01*
X111691Y-284D01*
X111714Y-256D01*
X111728Y-224D01*
X111746Y-169D01*
X111751Y-146D01*
X111755Y-127D01*
Y-113D01*
Y-109D01*
X111751Y-76D01*
X111746Y-35D01*
X111737Y16D01*
X111728Y67D01*
X111718Y118D01*
X111709Y159D01*
X111700Y187D01*
Y192D01*
Y196D01*
X111390Y1578D01*
X112023D01*
X112314Y284D01*
D02*
G37*
G36*
X88429Y1624D02*
X88544Y1605D01*
X88651Y1582D01*
X88748Y1550D01*
X88840Y1513D01*
X88923Y1471D01*
X89002Y1425D01*
X89071Y1379D01*
X89131Y1328D01*
X89187Y1287D01*
X89228Y1240D01*
X89270Y1203D01*
X89297Y1171D01*
X89316Y1148D01*
X89330Y1130D01*
X89334Y1125D01*
X89381Y1056D01*
X89422Y982D01*
X89455Y908D01*
X89487Y834D01*
X89510Y760D01*
X89533Y691D01*
X89565Y561D01*
X89575Y501D01*
X89584Y446D01*
X89589Y395D01*
X89593Y353D01*
X89598Y321D01*
Y298D01*
Y279D01*
Y275D01*
X89593Y187D01*
X89584Y104D01*
X89570Y21D01*
X89552Y-53D01*
X89529Y-123D01*
X89505Y-187D01*
X89478Y-243D01*
X89450Y-298D01*
X89427Y-344D01*
X89399Y-386D01*
X89376Y-423D01*
X89353Y-451D01*
X89334Y-474D01*
X89321Y-492D01*
X89311Y-501D01*
X89307Y-506D01*
X89251Y-557D01*
X89191Y-603D01*
X89127Y-645D01*
X89066Y-677D01*
X89002Y-705D01*
X88937Y-728D01*
X88817Y-765D01*
X88762Y-779D01*
X88711Y-788D01*
X88665Y-793D01*
X88623Y-797D01*
X88591Y-802D01*
X88544D01*
X88420Y-793D01*
X88309Y-774D01*
X88203Y-751D01*
X88115Y-718D01*
X88036Y-686D01*
X88008Y-672D01*
X87981Y-663D01*
X87962Y-649D01*
X87949Y-645D01*
X87939Y-635D01*
X87935D01*
X87838Y-566D01*
X87750Y-483D01*
X87671Y-400D01*
X87607Y-317D01*
X87560Y-238D01*
X87537Y-206D01*
X87523Y-178D01*
X87510Y-155D01*
X87500Y-136D01*
X87491Y-127D01*
Y-123D01*
X88050Y-30D01*
X88082Y-86D01*
X88119Y-136D01*
X88161Y-178D01*
X88203Y-215D01*
X88240Y-247D01*
X88281Y-275D01*
X88323Y-298D01*
X88360Y-312D01*
X88429Y-335D01*
X88461Y-344D01*
X88489Y-349D01*
X88507Y-353D01*
X88540D01*
X88609Y-349D01*
X88674Y-330D01*
X88729Y-307D01*
X88775Y-284D01*
X88817Y-256D01*
X88845Y-238D01*
X88863Y-220D01*
X88868Y-215D01*
X88909Y-160D01*
X88942Y-95D01*
X88965Y-35D01*
X88979Y25D01*
X88988Y81D01*
X88997Y122D01*
Y150D01*
Y155D01*
Y159D01*
Y178D01*
X88993Y196D01*
Y215D01*
Y219D01*
X87422D01*
X87394Y358D01*
X87385Y427D01*
X87380Y492D01*
X87376Y543D01*
Y589D01*
Y617D01*
Y621D01*
Y626D01*
X87380Y714D01*
X87385Y792D01*
X87399Y871D01*
X87417Y940D01*
X87436Y1009D01*
X87454Y1069D01*
X87477Y1125D01*
X87500Y1176D01*
X87528Y1217D01*
X87551Y1259D01*
X87570Y1291D01*
X87588Y1319D01*
X87607Y1337D01*
X87621Y1351D01*
X87625Y1361D01*
X87630Y1365D01*
X87681Y1411D01*
X87731Y1453D01*
X87787Y1485D01*
X87842Y1517D01*
X87898Y1545D01*
X87953Y1564D01*
X88064Y1596D01*
X88115Y1605D01*
X88161Y1615D01*
X88203Y1619D01*
X88240Y1624D01*
X88267Y1628D01*
X88309D01*
X88429Y1624D01*
D02*
G37*
G36*
X104336Y-742D02*
X103717D01*
X103047Y2455D01*
X103666D01*
X104336Y-742D01*
D02*
G37*
G36*
X97785Y1624D02*
X97854Y1605D01*
X97923Y1582D01*
X97983Y1550D01*
X98048Y1513D01*
X98103Y1471D01*
X98210Y1379D01*
X98256Y1333D01*
X98297Y1287D01*
X98334Y1245D01*
X98367Y1208D01*
X98390Y1176D01*
X98408Y1153D01*
X98417Y1134D01*
X98422Y1130D01*
X98330Y1578D01*
X98912D01*
X99397Y-742D01*
X98778D01*
X98625Y-16D01*
X98607Y62D01*
X98593Y141D01*
X98575Y210D01*
X98556Y270D01*
X98542Y330D01*
X98528Y386D01*
X98510Y432D01*
X98496Y473D01*
X98487Y510D01*
X98473Y543D01*
X98464Y570D01*
X98454Y594D01*
X98450Y607D01*
X98445Y621D01*
X98440Y630D01*
X98404Y704D01*
X98362Y769D01*
X98316Y824D01*
X98274Y871D01*
X98237Y903D01*
X98210Y931D01*
X98191Y949D01*
X98182Y954D01*
X98117Y996D01*
X98057Y1028D01*
X98002Y1046D01*
X97951Y1065D01*
X97909Y1074D01*
X97877Y1079D01*
X97849D01*
X97780Y1074D01*
X97720Y1065D01*
X97697Y1056D01*
X97678Y1051D01*
X97669Y1046D01*
X97664D01*
X97424Y1559D01*
X97479Y1582D01*
X97535Y1601D01*
X97586Y1610D01*
X97627Y1619D01*
X97664Y1624D01*
X97692Y1628D01*
X97715D01*
X97785Y1624D01*
D02*
G37*
G36*
X93363D02*
X93437Y1615D01*
X93506Y1601D01*
X93566Y1587D01*
X93617Y1573D01*
X93659Y1559D01*
X93682Y1550D01*
X93691Y1545D01*
X93765Y1508D01*
X93839Y1467D01*
X93908Y1421D01*
X93973Y1379D01*
X94028Y1337D01*
X94075Y1305D01*
X94102Y1282D01*
X94107Y1273D01*
X94112D01*
X94051Y1578D01*
X94643D01*
X95128Y-742D01*
X94509D01*
X94310Y206D01*
X94292Y279D01*
X94278Y349D01*
X94259Y413D01*
X94245Y469D01*
X94232Y520D01*
X94218Y566D01*
X94204Y603D01*
X94195Y640D01*
X94186Y667D01*
X94176Y695D01*
X94162Y732D01*
X94153Y755D01*
X94148Y760D01*
X94107Y829D01*
X94065Y889D01*
X94019Y940D01*
X93978Y982D01*
X93941Y1019D01*
X93908Y1042D01*
X93890Y1060D01*
X93881Y1065D01*
X93816Y1102D01*
X93760Y1130D01*
X93710Y1153D01*
X93663Y1166D01*
X93622Y1176D01*
X93594Y1180D01*
X93571D01*
X93525Y1176D01*
X93483Y1171D01*
X93451Y1157D01*
X93423Y1148D01*
X93400Y1134D01*
X93386Y1120D01*
X93377Y1116D01*
X93372Y1111D01*
X93349Y1083D01*
X93331Y1051D01*
X93317Y1019D01*
X93308Y991D01*
X93303Y963D01*
X93298Y940D01*
Y926D01*
Y922D01*
Y908D01*
X93303Y889D01*
X93312Y843D01*
X93322Y783D01*
X93331Y723D01*
X93345Y667D01*
X93354Y617D01*
X93358Y598D01*
Y584D01*
X93363Y575D01*
Y570D01*
X93645Y-742D01*
X93026D01*
X92744Y566D01*
X92730Y626D01*
X92716Y681D01*
X92707Y732D01*
X92698Y778D01*
X92684Y862D01*
X92675Y922D01*
X92665Y972D01*
X92661Y1005D01*
Y1023D01*
Y1028D01*
X92670Y1125D01*
X92689Y1208D01*
X92712Y1282D01*
X92744Y1347D01*
X92776Y1397D01*
X92800Y1434D01*
X92818Y1453D01*
X92827Y1462D01*
X92896Y1517D01*
X92970Y1559D01*
X93044Y1587D01*
X93118Y1610D01*
X93183Y1619D01*
X93238Y1624D01*
X93257Y1628D01*
X93285D01*
X93363Y1624D01*
D02*
G37*
G36*
X87057Y-742D02*
X86438Y-742D01*
X86318Y-136D01*
X86937Y-136D01*
X87057Y-742D01*
D02*
G37*
G36*
X70896Y-742D02*
X70277D01*
X70157Y-136D01*
X70776D01*
X70896Y-742D01*
D02*
G37*
G36*
X69653D02*
X69034D01*
X68914Y-136D01*
X69533D01*
X69653Y-742D01*
D02*
G37*
G36*
X68410D02*
X67791D01*
X67671Y-136D01*
X68290D01*
X68410Y-742D01*
D02*
G37*
G36*
X67145Y427D02*
X67251Y-90D01*
X65994D01*
X66128Y-742D01*
X65541D01*
X65403Y-90D01*
X65015D01*
X64899Y436D01*
X65297D01*
X64872Y2455D01*
X65412D01*
X67145Y427D01*
D02*
G37*
G36*
X113978Y2511D02*
X114070Y2506D01*
X114158Y2492D01*
X114241Y2474D01*
X114319Y2455D01*
X114389Y2432D01*
X114449Y2405D01*
X114504Y2382D01*
X114555Y2358D01*
X114601Y2331D01*
X114638Y2308D01*
X114666Y2289D01*
X114689Y2271D01*
X114708Y2261D01*
X114717Y2252D01*
X114721Y2248D01*
X114772Y2197D01*
X114818Y2141D01*
X114855Y2086D01*
X114888Y2030D01*
X114915Y1970D01*
X114943Y1915D01*
X114976Y1809D01*
X114989Y1762D01*
X114999Y1716D01*
X115003Y1675D01*
X115008Y1642D01*
X115012Y1615D01*
Y1592D01*
Y1578D01*
Y1573D01*
X115008Y1490D01*
X114999Y1411D01*
X114980Y1342D01*
X114962Y1282D01*
X114948Y1236D01*
X114929Y1199D01*
X114920Y1176D01*
X114915Y1166D01*
X114874Y1106D01*
X114832Y1051D01*
X114786Y1000D01*
X114744Y963D01*
X114708Y931D01*
X114675Y903D01*
X114657Y889D01*
X114647Y885D01*
X114615Y866D01*
X114574Y843D01*
X114490Y797D01*
X114398Y755D01*
X114310Y709D01*
X114232Y672D01*
X114195Y658D01*
X114162Y644D01*
X114139Y630D01*
X114121Y626D01*
X114107Y617D01*
X114102D01*
X114038Y589D01*
X113973Y561D01*
X113922Y533D01*
X113871Y510D01*
X113830Y492D01*
X113793Y473D01*
X113760Y455D01*
X113733Y436D01*
X113691Y413D01*
X113663Y395D01*
X113649Y386D01*
X113645Y381D01*
X113603Y344D01*
X113576Y302D01*
X113552Y261D01*
X113539Y224D01*
X113529Y192D01*
X113525Y164D01*
Y145D01*
Y141D01*
X113529Y81D01*
X113548Y30D01*
X113571Y-16D01*
X113599Y-58D01*
X113626Y-90D01*
X113649Y-118D01*
X113668Y-132D01*
X113673Y-136D01*
X113733Y-173D01*
X113807Y-201D01*
X113885Y-224D01*
X113959Y-238D01*
X114028Y-247D01*
X114061D01*
X114088Y-252D01*
X114209D01*
X114273Y-243D01*
X114333Y-238D01*
X114384Y-224D01*
X114435Y-215D01*
X114477Y-201D01*
X114518Y-183D01*
X114550Y-169D01*
X114606Y-136D01*
X114643Y-113D01*
X114661Y-95D01*
X114671Y-86D01*
X114703Y-39D01*
X114726Y21D01*
X114744Y90D01*
X114754Y159D01*
X114763Y219D01*
X114768Y275D01*
X114772Y293D01*
Y307D01*
Y316D01*
Y321D01*
X115401Y284D01*
X115396Y169D01*
X115387Y62D01*
X115368Y-35D01*
X115345Y-118D01*
X115322Y-187D01*
X115313Y-215D01*
X115304Y-238D01*
X115294Y-261D01*
X115290Y-275D01*
X115285Y-280D01*
Y-284D01*
X115230Y-372D01*
X115165Y-446D01*
X115096Y-515D01*
X115026Y-566D01*
X114962Y-612D01*
X114911Y-640D01*
X114888Y-654D01*
X114874Y-663D01*
X114865Y-668D01*
X114860D01*
X114744Y-714D01*
X114620Y-746D01*
X114500Y-769D01*
X114389Y-783D01*
X114338Y-793D01*
X114292D01*
X114250Y-797D01*
X114213Y-802D01*
X114144D01*
X114033Y-797D01*
X113931Y-788D01*
X113834Y-774D01*
X113747Y-756D01*
X113663Y-732D01*
X113585Y-705D01*
X113516Y-682D01*
X113455Y-649D01*
X113395Y-622D01*
X113349Y-598D01*
X113308Y-571D01*
X113271Y-548D01*
X113248Y-529D01*
X113224Y-515D01*
X113215Y-506D01*
X113211Y-501D01*
X113151Y-441D01*
X113100Y-386D01*
X113054Y-321D01*
X113017Y-261D01*
X112984Y-201D01*
X112957Y-141D01*
X112933Y-81D01*
X112915Y-25D01*
X112901Y25D01*
X112892Y71D01*
X112883Y118D01*
X112878Y155D01*
X112873Y182D01*
Y206D01*
Y219D01*
Y224D01*
X112878Y289D01*
X112883Y344D01*
X112910Y455D01*
X112943Y552D01*
X112984Y630D01*
X113026Y695D01*
X113063Y746D01*
X113077Y760D01*
X113091Y774D01*
X113095Y778D01*
X113100Y783D01*
X113132Y811D01*
X113174Y843D01*
X113220Y875D01*
X113275Y908D01*
X113391Y972D01*
X113511Y1032D01*
X113622Y1088D01*
X113673Y1111D01*
X113719Y1134D01*
X113756Y1148D01*
X113784Y1162D01*
X113802Y1166D01*
X113807Y1171D01*
X113871Y1199D01*
X113931Y1226D01*
X113987Y1254D01*
X114033Y1277D01*
X114079Y1300D01*
X114116Y1323D01*
X114148Y1342D01*
X114181Y1361D01*
X114227Y1388D01*
X114255Y1407D01*
X114273Y1421D01*
X114278Y1425D01*
X114315Y1462D01*
X114338Y1499D01*
X114356Y1536D01*
X114370Y1573D01*
X114380Y1605D01*
X114384Y1628D01*
Y1647D01*
Y1651D01*
X114380Y1702D01*
X114366Y1753D01*
X114347Y1795D01*
X114324Y1832D01*
X114306Y1859D01*
X114287Y1878D01*
X114273Y1892D01*
X114269Y1896D01*
X114218Y1929D01*
X114158Y1952D01*
X114093Y1970D01*
X114033Y1980D01*
X113973Y1989D01*
X113927Y1993D01*
X113881D01*
X113784Y1989D01*
X113696Y1975D01*
X113622Y1952D01*
X113566Y1933D01*
X113520Y1910D01*
X113488Y1887D01*
X113465Y1873D01*
X113460Y1869D01*
X113409Y1818D01*
X113372Y1762D01*
X113345Y1702D01*
X113321Y1647D01*
X113308Y1596D01*
X113294Y1555D01*
X113289Y1527D01*
Y1522D01*
Y1517D01*
X112661Y1545D01*
X112670Y1624D01*
X112684Y1702D01*
X112702Y1772D01*
X112725Y1841D01*
X112753Y1901D01*
X112781Y1961D01*
X112813Y2012D01*
X112846Y2063D01*
X112873Y2104D01*
X112901Y2141D01*
X112929Y2174D01*
X112952Y2201D01*
X112975Y2220D01*
X112989Y2234D01*
X112998Y2243D01*
X113003Y2248D01*
X113063Y2294D01*
X113128Y2335D01*
X113197Y2372D01*
X113271Y2405D01*
X113340Y2428D01*
X113414Y2451D01*
X113557Y2483D01*
X113622Y2492D01*
X113682Y2502D01*
X113737Y2506D01*
X113784Y2511D01*
X113821Y2516D01*
X113876D01*
X113978Y2511D01*
D02*
G37*
G36*
X79956Y2511D02*
X80048Y2506D01*
X80136Y2492D01*
X80219Y2474D01*
X80298Y2455D01*
X80367Y2432D01*
X80427Y2405D01*
X80483Y2382D01*
X80533Y2358D01*
X80580Y2331D01*
X80616Y2308D01*
X80644Y2289D01*
X80667Y2271D01*
X80686Y2261D01*
X80695Y2252D01*
X80700Y2248D01*
X80751Y2197D01*
X80797Y2141D01*
X80834Y2086D01*
X80866Y2030D01*
X80894Y1970D01*
X80922Y1915D01*
X80954Y1809D01*
X80968Y1762D01*
X80977Y1716D01*
X80981Y1675D01*
X80986Y1642D01*
X80991Y1615D01*
Y1592D01*
Y1578D01*
Y1573D01*
X80986Y1490D01*
X80977Y1411D01*
X80958Y1342D01*
X80940Y1282D01*
X80926Y1236D01*
X80908Y1199D01*
X80898Y1176D01*
X80894Y1166D01*
X80852Y1106D01*
X80811Y1051D01*
X80764Y1000D01*
X80723Y963D01*
X80686Y931D01*
X80654Y903D01*
X80635Y889D01*
X80626Y885D01*
X80593Y866D01*
X80552Y843D01*
X80469Y797D01*
X80376Y755D01*
X80288Y709D01*
X80210Y672D01*
X80173Y658D01*
X80141Y644D01*
X80118Y630D01*
X80099Y626D01*
X80085Y617D01*
X80081D01*
X80016Y589D01*
X79951Y561D01*
X79900Y533D01*
X79850Y510D01*
X79808Y492D01*
X79771Y473D01*
X79739Y455D01*
X79711Y436D01*
X79669Y413D01*
X79642Y395D01*
X79628Y386D01*
X79623Y381D01*
X79582Y344D01*
X79554Y302D01*
X79531Y261D01*
X79517Y224D01*
X79508Y192D01*
X79503Y164D01*
Y145D01*
Y141D01*
X79508Y81D01*
X79526Y30D01*
X79549Y-16D01*
X79577Y-58D01*
X79605Y-90D01*
X79628Y-118D01*
X79646Y-132D01*
X79651Y-136D01*
X79711Y-173D01*
X79785Y-201D01*
X79864Y-224D01*
X79937Y-238D01*
X80007Y-247D01*
X80039D01*
X80067Y-252D01*
X80187D01*
X80252Y-243D01*
X80312Y-238D01*
X80362Y-224D01*
X80413Y-215D01*
X80455Y-201D01*
X80496Y-183D01*
X80529Y-169D01*
X80584Y-136D01*
X80621Y-113D01*
X80640Y-95D01*
X80649Y-86D01*
X80681Y-39D01*
X80704Y21D01*
X80723Y90D01*
X80732Y159D01*
X80741Y219D01*
X80746Y275D01*
X80751Y293D01*
Y307D01*
Y316D01*
Y321D01*
X81379Y284D01*
X81374Y169D01*
X81365Y62D01*
X81346Y-35D01*
X81323Y-118D01*
X81300Y-187D01*
X81291Y-215D01*
X81282Y-238D01*
X81273Y-261D01*
X81268Y-275D01*
X81263Y-280D01*
Y-284D01*
X81208Y-372D01*
X81143Y-446D01*
X81074Y-515D01*
X81005Y-566D01*
X80940Y-612D01*
X80889Y-640D01*
X80866Y-654D01*
X80852Y-663D01*
X80843Y-668D01*
X80838D01*
X80723Y-714D01*
X80598Y-746D01*
X80478Y-769D01*
X80367Y-783D01*
X80316Y-793D01*
X80270D01*
X80229Y-797D01*
X80191Y-802D01*
X80122D01*
X80011Y-797D01*
X79910Y-788D01*
X79813Y-774D01*
X79725Y-756D01*
X79642Y-732D01*
X79563Y-705D01*
X79494Y-682D01*
X79434Y-649D01*
X79374Y-622D01*
X79328Y-598D01*
X79286Y-571D01*
X79249Y-548D01*
X79226Y-529D01*
X79203Y-515D01*
X79194Y-506D01*
X79189Y-501D01*
X79129Y-441D01*
X79078Y-386D01*
X79032Y-321D01*
X78995Y-261D01*
X78963Y-201D01*
X78935Y-141D01*
X78912Y-81D01*
X78893Y-25D01*
X78879Y25D01*
X78870Y71D01*
X78861Y118D01*
X78856Y155D01*
X78852Y182D01*
Y206D01*
Y219D01*
Y224D01*
X78856Y289D01*
X78861Y344D01*
X78889Y455D01*
X78921Y552D01*
X78963Y630D01*
X79004Y695D01*
X79041Y746D01*
X79055Y760D01*
X79069Y774D01*
X79074Y778D01*
X79078Y783D01*
X79110Y811D01*
X79152Y843D01*
X79198Y875D01*
X79254Y908D01*
X79369Y972D01*
X79489Y1032D01*
X79600Y1088D01*
X79651Y1111D01*
X79697Y1134D01*
X79734Y1148D01*
X79762Y1162D01*
X79780Y1166D01*
X79785Y1171D01*
X79850Y1199D01*
X79910Y1226D01*
X79965Y1254D01*
X80011Y1277D01*
X80058Y1300D01*
X80094Y1323D01*
X80127Y1342D01*
X80159Y1361D01*
X80205Y1388D01*
X80233Y1407D01*
X80252Y1421D01*
X80256Y1425D01*
X80293Y1462D01*
X80316Y1499D01*
X80335Y1536D01*
X80349Y1573D01*
X80358Y1605D01*
X80362Y1628D01*
Y1647D01*
Y1651D01*
X80358Y1702D01*
X80344Y1753D01*
X80326Y1795D01*
X80302Y1832D01*
X80284Y1859D01*
X80265Y1878D01*
X80252Y1892D01*
X80247Y1896D01*
X80196Y1929D01*
X80136Y1952D01*
X80071Y1970D01*
X80011Y1980D01*
X79951Y1989D01*
X79905Y1993D01*
X79859D01*
X79762Y1989D01*
X79674Y1975D01*
X79600Y1952D01*
X79545Y1933D01*
X79498Y1910D01*
X79466Y1887D01*
X79443Y1873D01*
X79438Y1869D01*
X79388Y1818D01*
X79351Y1762D01*
X79323Y1702D01*
X79300Y1647D01*
X79286Y1596D01*
X79272Y1555D01*
X79268Y1527D01*
Y1522D01*
Y1517D01*
X78639Y1545D01*
X78648Y1624D01*
X78662Y1702D01*
X78681Y1772D01*
X78704Y1841D01*
X78732Y1901D01*
X78759Y1961D01*
X78792Y2012D01*
X78824Y2063D01*
X78852Y2104D01*
X78879Y2141D01*
X78907Y2174D01*
X78930Y2201D01*
X78953Y2220D01*
X78967Y2234D01*
X78976Y2243D01*
X78981Y2248D01*
X79041Y2294D01*
X79106Y2335D01*
X79175Y2372D01*
X79249Y2405D01*
X79318Y2428D01*
X79392Y2451D01*
X79536Y2483D01*
X79600Y2492D01*
X79660Y2502D01*
X79716Y2506D01*
X79762Y2511D01*
X79799Y2516D01*
X79854D01*
X79956Y2511D01*
D02*
G37*
G36*
X63296Y2469D02*
X63366Y2460D01*
X63430Y2446D01*
X63495Y2428D01*
X63615Y2382D01*
X63717Y2326D01*
X63763Y2298D01*
X63804Y2271D01*
X63841Y2248D01*
X63869Y2224D01*
X63892Y2206D01*
X63911Y2192D01*
X63920Y2183D01*
X63924Y2178D01*
X63980Y2118D01*
X64035Y2053D01*
X64091Y1984D01*
X64137Y1910D01*
X64225Y1762D01*
X64299Y1615D01*
X64331Y1545D01*
X64359Y1481D01*
X64386Y1425D01*
X64405Y1374D01*
X64419Y1333D01*
X64433Y1300D01*
X64437Y1282D01*
X64442Y1273D01*
X64497Y1088D01*
X64534Y912D01*
X64562Y746D01*
X64576Y667D01*
X64585Y598D01*
X64590Y533D01*
X64594Y473D01*
X64599Y423D01*
Y376D01*
X64604Y339D01*
Y316D01*
Y298D01*
Y293D01*
X64599Y196D01*
X64594Y104D01*
X64581Y21D01*
X64567Y-58D01*
X64544Y-132D01*
X64525Y-197D01*
X64502Y-256D01*
X64479Y-312D01*
X64456Y-363D01*
X64433Y-404D01*
X64410Y-437D01*
X64391Y-469D01*
X64377Y-492D01*
X64363Y-506D01*
X64359Y-515D01*
X64354Y-520D01*
X64303Y-571D01*
X64253Y-612D01*
X64202Y-649D01*
X64146Y-682D01*
X64091Y-709D01*
X64040Y-732D01*
X63938Y-765D01*
X63846Y-788D01*
X63809Y-793D01*
X63777Y-797D01*
X63749Y-802D01*
X63712D01*
X63638Y-797D01*
X63569Y-788D01*
X63499Y-774D01*
X63435Y-756D01*
X63319Y-709D01*
X63213Y-654D01*
X63167Y-631D01*
X63130Y-603D01*
X63093Y-580D01*
X63065Y-557D01*
X63042Y-538D01*
X63024Y-525D01*
X63014Y-515D01*
X63010Y-511D01*
X62954Y-455D01*
X62899Y-390D01*
X62802Y-256D01*
X62719Y-118D01*
X62645Y16D01*
X62617Y81D01*
X62589Y136D01*
X62566Y192D01*
X62548Y238D01*
X62534Y275D01*
X62525Y302D01*
X62515Y321D01*
Y326D01*
X62455Y529D01*
X62409Y723D01*
X62391Y811D01*
X62377Y898D01*
X62363Y977D01*
X62354Y1056D01*
X62344Y1125D01*
X62340Y1185D01*
X62335Y1240D01*
Y1282D01*
X62331Y1319D01*
Y1347D01*
Y1365D01*
Y1370D01*
X62335Y1467D01*
X62340Y1559D01*
X62354Y1642D01*
X62372Y1725D01*
X62391Y1795D01*
X62409Y1864D01*
X62432Y1924D01*
X62455Y1980D01*
X62483Y2030D01*
X62506Y2072D01*
X62525Y2104D01*
X62543Y2137D01*
X62562Y2160D01*
X62575Y2174D01*
X62580Y2183D01*
X62585Y2187D01*
X62631Y2238D01*
X62682Y2280D01*
X62737Y2321D01*
X62788Y2354D01*
X62843Y2382D01*
X62894Y2405D01*
X62996Y2437D01*
X63088Y2460D01*
X63125Y2465D01*
X63158Y2469D01*
X63185Y2474D01*
X63222D01*
X63296Y2469D01*
D02*
G37*
G36*
X108147Y1624D02*
X108216Y1619D01*
X108276Y1605D01*
X108332Y1596D01*
X108373Y1582D01*
X108411Y1568D01*
X108429Y1564D01*
X108438Y1559D01*
X108503Y1531D01*
X108563Y1494D01*
X108623Y1457D01*
X108678Y1421D01*
X108725Y1388D01*
X108762Y1361D01*
X108785Y1342D01*
X108794Y1333D01*
X108748Y1578D01*
X109335D01*
X110000Y-1624D01*
X109381D01*
X109136Y-432D01*
X109090Y-497D01*
X109039Y-552D01*
X108983Y-603D01*
X108923Y-645D01*
X108868Y-682D01*
X108808Y-709D01*
X108752Y-737D01*
X108692Y-756D01*
X108642Y-769D01*
X108591Y-783D01*
X108549Y-793D01*
X108508Y-797D01*
X108480D01*
X108452Y-802D01*
X108434D01*
X108350Y-797D01*
X108272Y-788D01*
X108193Y-769D01*
X108119Y-746D01*
X108050Y-718D01*
X107985Y-686D01*
X107930Y-654D01*
X107875Y-617D01*
X107824Y-585D01*
X107782Y-552D01*
X107741Y-520D01*
X107713Y-492D01*
X107685Y-469D01*
X107667Y-451D01*
X107657Y-441D01*
X107653Y-437D01*
X107583Y-353D01*
X107523Y-266D01*
X107473Y-178D01*
X107426Y-86D01*
X107389Y2D01*
X107357Y90D01*
X107334Y178D01*
X107311Y256D01*
X107297Y335D01*
X107283Y404D01*
X107279Y469D01*
X107269Y520D01*
Y566D01*
X107265Y598D01*
Y617D01*
Y626D01*
X107269Y718D01*
X107274Y801D01*
X107283Y880D01*
X107302Y954D01*
X107316Y1019D01*
X107334Y1083D01*
X107357Y1139D01*
X107376Y1190D01*
X107399Y1231D01*
X107417Y1268D01*
X107440Y1300D01*
X107454Y1328D01*
X107468Y1347D01*
X107482Y1365D01*
X107486Y1370D01*
X107491Y1374D01*
X107533Y1421D01*
X107579Y1457D01*
X107630Y1494D01*
X107676Y1522D01*
X107773Y1568D01*
X107865Y1596D01*
X107949Y1615D01*
X107985Y1619D01*
X108018Y1624D01*
X108041Y1628D01*
X108078D01*
X108147Y1624D01*
D02*
G37*
G36*
X105417D02*
X105486Y1619D01*
X105546Y1605D01*
X105602Y1596D01*
X105643Y1582D01*
X105680Y1568D01*
X105699Y1564D01*
X105708Y1559D01*
X105772Y1531D01*
X105833Y1494D01*
X105893Y1457D01*
X105948Y1421D01*
X105994Y1388D01*
X106031Y1361D01*
X106054Y1342D01*
X106063Y1333D01*
X106017Y1578D01*
X106604D01*
X107269Y-1624D01*
X106650D01*
X106405Y-432D01*
X106359Y-497D01*
X106308Y-552D01*
X106253Y-603D01*
X106193Y-645D01*
X106137Y-682D01*
X106077Y-709D01*
X106022Y-737D01*
X105962Y-756D01*
X105911Y-769D01*
X105860Y-783D01*
X105819Y-793D01*
X105777Y-797D01*
X105749D01*
X105722Y-802D01*
X105703D01*
X105620Y-797D01*
X105541Y-788D01*
X105463Y-769D01*
X105389Y-746D01*
X105320Y-718D01*
X105255Y-686D01*
X105200Y-654D01*
X105144Y-617D01*
X105093Y-585D01*
X105052Y-552D01*
X105010Y-520D01*
X104982Y-492D01*
X104955Y-469D01*
X104936Y-451D01*
X104927Y-441D01*
X104922Y-437D01*
X104853Y-353D01*
X104793Y-266D01*
X104742Y-178D01*
X104696Y-86D01*
X104659Y2D01*
X104627Y90D01*
X104604Y178D01*
X104580Y256D01*
X104567Y335D01*
X104553Y404D01*
X104548Y469D01*
X104539Y520D01*
Y566D01*
X104534Y598D01*
Y617D01*
Y626D01*
X104539Y718D01*
X104543Y801D01*
X104553Y880D01*
X104571Y954D01*
X104585Y1019D01*
X104604Y1083D01*
X104627Y1139D01*
X104645Y1190D01*
X104668Y1231D01*
X104687Y1268D01*
X104710Y1300D01*
X104724Y1328D01*
X104738Y1347D01*
X104751Y1365D01*
X104756Y1370D01*
X104761Y1374D01*
X104802Y1421D01*
X104848Y1457D01*
X104899Y1494D01*
X104946Y1522D01*
X105043Y1568D01*
X105135Y1596D01*
X105218Y1615D01*
X105255Y1619D01*
X105287Y1624D01*
X105310Y1628D01*
X105347D01*
X105417Y1624D01*
D02*
G37*
G36*
X84247Y6375D02*
X84321Y6370D01*
X84451Y6342D01*
X84566Y6305D01*
X84617Y6282D01*
X84663Y6259D01*
X84709Y6236D01*
X84746Y6213D01*
X84779Y6194D01*
X84802Y6176D01*
X84825Y6162D01*
X84839Y6148D01*
X84848Y6144D01*
X84853Y6139D01*
X84899Y6093D01*
X84945Y6042D01*
X85019Y5936D01*
X85079Y5820D01*
X85125Y5709D01*
X85144Y5659D01*
X85158Y5612D01*
X85167Y5571D01*
X85181Y5534D01*
X85185Y5502D01*
X85190Y5478D01*
X85194Y5464D01*
Y5460D01*
X84585Y5372D01*
X84562Y5474D01*
X84534Y5557D01*
X84506Y5626D01*
X84478Y5682D01*
X84455Y5723D01*
X84437Y5751D01*
X84423Y5769D01*
X84418Y5774D01*
X84377Y5811D01*
X84330Y5839D01*
X84289Y5862D01*
X84247Y5876D01*
X84210Y5885D01*
X84183Y5890D01*
X84160D01*
X84109Y5885D01*
X84062Y5876D01*
X84021Y5857D01*
X83984Y5839D01*
X83956Y5820D01*
X83938Y5802D01*
X83924Y5793D01*
X83919Y5788D01*
X83887Y5746D01*
X83864Y5705D01*
X83845Y5659D01*
X83836Y5617D01*
X83827Y5580D01*
X83822Y5552D01*
Y5534D01*
Y5525D01*
X83827Y5488D01*
X83832Y5446D01*
X83841Y5409D01*
X83850Y5372D01*
X83864Y5344D01*
X83873Y5321D01*
X83878Y5303D01*
X83882Y5298D01*
X83906Y5252D01*
X83938Y5201D01*
X83970Y5150D01*
X84007Y5104D01*
X84039Y5063D01*
X84067Y5030D01*
X84086Y5012D01*
X84090Y5003D01*
X84109Y4984D01*
X84132Y4961D01*
X84187Y4901D01*
X84257Y4836D01*
X84326Y4767D01*
X84391Y4702D01*
X84446Y4651D01*
X84465Y4628D01*
X84483Y4614D01*
X84492Y4605D01*
X84497Y4601D01*
X84575Y4527D01*
X84645Y4457D01*
X84709Y4393D01*
X84769Y4333D01*
X84825Y4282D01*
X84871Y4231D01*
X84917Y4189D01*
X84954Y4148D01*
X84987Y4115D01*
X85014Y4083D01*
X85037Y4060D01*
X85056Y4042D01*
X85079Y4014D01*
X85088Y4005D01*
X85144Y3935D01*
X85194Y3866D01*
X85241Y3801D01*
X85282Y3741D01*
X85315Y3690D01*
X85338Y3649D01*
X85352Y3621D01*
X85356Y3616D01*
Y3612D01*
X85393Y3533D01*
X85421Y3450D01*
X85444Y3376D01*
X85462Y3307D01*
X85476Y3252D01*
X85486Y3205D01*
Y3187D01*
X85490Y3173D01*
Y3168D01*
Y3164D01*
X83550D01*
X83430Y3737D01*
X84538D01*
X84474Y3815D01*
X84446Y3852D01*
X84418Y3884D01*
X84395Y3908D01*
X84377Y3926D01*
X84368Y3940D01*
X84363Y3945D01*
X84317Y3991D01*
X84261Y4046D01*
X84197Y4106D01*
X84132Y4166D01*
X84072Y4226D01*
X84021Y4273D01*
X84003Y4291D01*
X83989Y4300D01*
X83979Y4310D01*
X83975Y4314D01*
X83873Y4411D01*
X83785Y4494D01*
X83711Y4568D01*
X83651Y4628D01*
X83605Y4674D01*
X83573Y4707D01*
X83554Y4730D01*
X83550Y4735D01*
X83485Y4813D01*
X83434Y4887D01*
X83388Y4956D01*
X83351Y5016D01*
X83323Y5067D01*
X83305Y5104D01*
X83296Y5127D01*
X83291Y5136D01*
X83263Y5210D01*
X83245Y5280D01*
X83231Y5344D01*
X83222Y5400D01*
X83217Y5451D01*
X83213Y5488D01*
Y5511D01*
Y5520D01*
X83217Y5589D01*
X83222Y5654D01*
X83254Y5774D01*
X83296Y5880D01*
X83342Y5968D01*
X83365Y6005D01*
X83388Y6037D01*
X83411Y6065D01*
X83430Y6093D01*
X83448Y6111D01*
X83462Y6125D01*
X83467Y6130D01*
X83471Y6134D01*
X83522Y6176D01*
X83573Y6218D01*
X83628Y6250D01*
X83688Y6278D01*
X83804Y6319D01*
X83919Y6347D01*
X83970Y6361D01*
X84016Y6365D01*
X84062Y6370D01*
X84100Y6375D01*
X84132Y6379D01*
X84173D01*
X84247Y6375D01*
D02*
G37*
G36*
X82792Y4679D02*
X82279Y4642D01*
X82238Y4684D01*
X82201Y4716D01*
X82164Y4748D01*
X82131Y4772D01*
X82104Y4790D01*
X82081Y4804D01*
X82067Y4809D01*
X82062Y4813D01*
X82020Y4832D01*
X81974Y4850D01*
X81937Y4859D01*
X81900Y4864D01*
X81868Y4868D01*
X81845Y4873D01*
X81822D01*
X81762Y4868D01*
X81706Y4855D01*
X81660Y4836D01*
X81623Y4818D01*
X81591Y4795D01*
X81568Y4776D01*
X81554Y4762D01*
X81549Y4758D01*
X81512Y4712D01*
X81489Y4656D01*
X81471Y4601D01*
X81457Y4545D01*
X81448Y4499D01*
X81443Y4457D01*
Y4430D01*
Y4425D01*
Y4420D01*
X81452Y4286D01*
X81471Y4166D01*
X81503Y4065D01*
X81535Y3982D01*
X81568Y3917D01*
X81586Y3889D01*
X81600Y3871D01*
X81609Y3852D01*
X81619Y3838D01*
X81628Y3834D01*
Y3829D01*
X81660Y3792D01*
X81697Y3760D01*
X81766Y3704D01*
X81836Y3667D01*
X81900Y3644D01*
X81951Y3626D01*
X81997Y3621D01*
X82025Y3616D01*
X82034D01*
X82090Y3621D01*
X82141Y3635D01*
X82187Y3649D01*
X82224Y3672D01*
X82252Y3690D01*
X82275Y3704D01*
X82288Y3718D01*
X82293Y3723D01*
X82325Y3769D01*
X82349Y3820D01*
X82367Y3875D01*
X82376Y3931D01*
X82385Y3982D01*
X82390Y4019D01*
Y4046D01*
Y4051D01*
Y4055D01*
Y4074D01*
X82385Y4097D01*
Y4115D01*
Y4125D01*
X82995Y4069D01*
X82991Y3986D01*
X82986Y3912D01*
X82972Y3838D01*
X82954Y3774D01*
X82935Y3709D01*
X82912Y3649D01*
X82889Y3598D01*
X82861Y3552D01*
X82838Y3506D01*
X82815Y3469D01*
X82792Y3436D01*
X82774Y3409D01*
X82755Y3390D01*
X82741Y3376D01*
X82737Y3367D01*
X82732Y3362D01*
X82681Y3316D01*
X82626Y3279D01*
X82570Y3242D01*
X82515Y3215D01*
X82404Y3168D01*
X82298Y3136D01*
X82247Y3127D01*
X82201Y3118D01*
X82159Y3113D01*
X82127Y3108D01*
X82099Y3104D01*
X82057D01*
X81937Y3113D01*
X81827Y3131D01*
X81725Y3159D01*
X81632Y3192D01*
X81559Y3219D01*
X81526Y3233D01*
X81498Y3247D01*
X81475Y3261D01*
X81462Y3265D01*
X81452Y3275D01*
X81448D01*
X81341Y3344D01*
X81249Y3422D01*
X81170Y3506D01*
X81106Y3584D01*
X81055Y3658D01*
X81032Y3690D01*
X81018Y3718D01*
X81004Y3737D01*
X80995Y3755D01*
X80986Y3764D01*
Y3769D01*
X80930Y3889D01*
X80889Y4009D01*
X80861Y4120D01*
X80838Y4217D01*
X80833Y4263D01*
X80828Y4305D01*
X80824Y4337D01*
Y4370D01*
X80819Y4393D01*
Y4411D01*
Y4420D01*
Y4425D01*
X80824Y4499D01*
X80828Y4573D01*
X80856Y4702D01*
X80875Y4762D01*
X80893Y4818D01*
X80916Y4868D01*
X80939Y4910D01*
X80963Y4952D01*
X80986Y4989D01*
X81004Y5016D01*
X81023Y5040D01*
X81036Y5063D01*
X81050Y5076D01*
X81055Y5081D01*
X81059Y5086D01*
X81106Y5132D01*
X81152Y5169D01*
X81203Y5201D01*
X81254Y5229D01*
X81355Y5275D01*
X81448Y5303D01*
X81531Y5321D01*
X81568Y5326D01*
X81600Y5331D01*
X81623Y5335D01*
X81660D01*
X81729Y5331D01*
X81785Y5326D01*
X81813Y5321D01*
X81831Y5317D01*
X81840Y5312D01*
X81845D01*
X81910Y5294D01*
X81970Y5275D01*
X81993Y5266D01*
X82011Y5261D01*
X82020Y5252D01*
X82025D01*
X81882Y5746D01*
X80815D01*
X80695Y6319D01*
X82307D01*
X82792Y4679D01*
D02*
G37*
G36*
X102792Y5529D02*
X102866Y5520D01*
X102931Y5502D01*
X103000Y5483D01*
X103120Y5428D01*
X103231Y5367D01*
X103282Y5335D01*
X103323Y5308D01*
X103360Y5280D01*
X103393Y5252D01*
X103420Y5234D01*
X103439Y5215D01*
X103448Y5206D01*
X103453Y5201D01*
X103397Y5483D01*
X103984D01*
X104469Y3164D01*
X103850D01*
X103628Y4226D01*
X103614Y4277D01*
X103605Y4323D01*
X103587Y4397D01*
X103568Y4462D01*
X103559Y4508D01*
X103550Y4541D01*
X103541Y4564D01*
X103536Y4578D01*
Y4582D01*
X103513Y4642D01*
X103490Y4693D01*
X103466Y4744D01*
X103443Y4781D01*
X103425Y4813D01*
X103411Y4836D01*
X103402Y4850D01*
X103397Y4855D01*
X103365Y4892D01*
X103333Y4924D01*
X103300Y4956D01*
X103268Y4979D01*
X103245Y4998D01*
X103222Y5012D01*
X103208Y5016D01*
X103203Y5021D01*
X103162Y5044D01*
X103125Y5058D01*
X103088Y5072D01*
X103055Y5077D01*
X103028Y5081D01*
X103009Y5086D01*
X102991D01*
X102949Y5081D01*
X102917Y5077D01*
X102889Y5067D01*
X102861Y5058D01*
X102843Y5044D01*
X102829Y5035D01*
X102824Y5030D01*
X102820Y5026D01*
X102797Y5003D01*
X102783Y4975D01*
X102764Y4929D01*
X102760Y4905D01*
X102755Y4887D01*
Y4878D01*
Y4873D01*
Y4841D01*
X102764Y4795D01*
X102769Y4744D01*
X102778Y4688D01*
X102787Y4642D01*
X102797Y4601D01*
X102801Y4568D01*
X102806Y4564D01*
Y4559D01*
X103097Y3164D01*
X102478D01*
X102256Y4213D01*
X102238Y4296D01*
X102219Y4370D01*
X102201Y4439D01*
X102178Y4499D01*
X102159Y4554D01*
X102141Y4605D01*
X102122Y4651D01*
X102104Y4693D01*
X102090Y4725D01*
X102071Y4758D01*
X102057Y4781D01*
X102048Y4804D01*
X102039Y4818D01*
X102030Y4827D01*
X102025Y4836D01*
X101988Y4882D01*
X101956Y4919D01*
X101919Y4952D01*
X101882Y4979D01*
X101808Y5026D01*
X101743Y5053D01*
X101688Y5072D01*
X101642Y5081D01*
X101623Y5086D01*
X101600D01*
X101558Y5081D01*
X101526Y5077D01*
X101494Y5067D01*
X101471Y5058D01*
X101452Y5044D01*
X101438Y5035D01*
X101434Y5030D01*
X101429Y5026D01*
X101411Y5003D01*
X101392Y4979D01*
X101378Y4929D01*
X101374Y4905D01*
X101369Y4892D01*
Y4878D01*
Y4873D01*
Y4864D01*
Y4850D01*
X101378Y4813D01*
X101388Y4762D01*
X101397Y4712D01*
X101406Y4661D01*
X101415Y4614D01*
X101420Y4596D01*
Y4587D01*
X101425Y4578D01*
Y4573D01*
X101725Y3164D01*
X101106D01*
X100801Y4573D01*
X100778Y4674D01*
X100764Y4762D01*
X100750Y4836D01*
X100745Y4892D01*
X100741Y4933D01*
X100736Y4966D01*
Y4984D01*
Y4989D01*
X100741Y5077D01*
X100759Y5155D01*
X100787Y5220D01*
X100815Y5275D01*
X100842Y5321D01*
X100870Y5354D01*
X100889Y5377D01*
X100893Y5381D01*
X100953Y5432D01*
X101023Y5469D01*
X101096Y5497D01*
X101166Y5515D01*
X101226Y5525D01*
X101277Y5534D01*
X101323D01*
X101415Y5529D01*
X101498Y5515D01*
X101582Y5497D01*
X101651Y5474D01*
X101711Y5451D01*
X101752Y5432D01*
X101771Y5423D01*
X101785Y5418D01*
X101789Y5414D01*
X101794D01*
X101873Y5367D01*
X101942Y5317D01*
X101997Y5271D01*
X102048Y5224D01*
X102085Y5183D01*
X102113Y5150D01*
X102131Y5132D01*
X102136Y5123D01*
X102155Y5192D01*
X102182Y5247D01*
X102215Y5303D01*
X102242Y5344D01*
X102275Y5377D01*
X102298Y5404D01*
X102316Y5418D01*
X102321Y5423D01*
X102376Y5460D01*
X102441Y5488D01*
X102510Y5506D01*
X102575Y5520D01*
X102630Y5529D01*
X102681Y5534D01*
X102723D01*
X102792Y5529D01*
D02*
G37*
G36*
X97507Y4873D02*
X96888D01*
X96767Y5478D01*
X97387D01*
X97507Y4873D01*
D02*
G37*
G36*
X105767Y5525D02*
X105906Y5506D01*
X105966Y5492D01*
X106021Y5478D01*
X106077Y5464D01*
X106123Y5446D01*
X106165Y5428D01*
X106202Y5414D01*
X106234Y5400D01*
X106262Y5386D01*
X106280Y5377D01*
X106294Y5367D01*
X106303Y5358D01*
X106308D01*
X106396Y5289D01*
X106474Y5210D01*
X106534Y5127D01*
X106585Y5053D01*
X106622Y4984D01*
X106650Y4929D01*
X106659Y4905D01*
X106664Y4892D01*
X106668Y4882D01*
Y4878D01*
X106058Y4827D01*
X106044Y4869D01*
X106026Y4905D01*
X106003Y4938D01*
X105980Y4966D01*
X105961Y4989D01*
X105943Y5003D01*
X105934Y5012D01*
X105929Y5016D01*
X105887Y5040D01*
X105846Y5058D01*
X105800Y5067D01*
X105758Y5077D01*
X105721Y5081D01*
X105689Y5086D01*
X105661D01*
X105606Y5081D01*
X105555Y5077D01*
X105518Y5063D01*
X105481Y5053D01*
X105453Y5040D01*
X105435Y5026D01*
X105425Y5021D01*
X105421Y5016D01*
X105393Y4989D01*
X105375Y4961D01*
X105356Y4933D01*
X105347Y4905D01*
X105342Y4882D01*
X105338Y4869D01*
Y4855D01*
Y4850D01*
Y4818D01*
X105342Y4785D01*
X105356Y4716D01*
X105365Y4688D01*
X105375Y4665D01*
X105379Y4647D01*
Y4642D01*
X105412Y4633D01*
X105448Y4624D01*
X105490Y4614D01*
X105536Y4605D01*
X105633Y4587D01*
X105735Y4578D01*
X105827Y4564D01*
X105869Y4559D01*
X105901Y4554D01*
X105934D01*
X105957Y4550D01*
X105975D01*
X106072Y4541D01*
X106160Y4527D01*
X106238Y4513D01*
X106313Y4494D01*
X106382Y4476D01*
X106442Y4457D01*
X106497Y4434D01*
X106544Y4416D01*
X106585Y4393D01*
X106622Y4374D01*
X106650Y4356D01*
X106673Y4342D01*
X106691Y4328D01*
X106705Y4319D01*
X106710Y4314D01*
X106714Y4310D01*
X106751Y4273D01*
X106779Y4231D01*
X106830Y4143D01*
X106867Y4055D01*
X106890Y3968D01*
X106908Y3894D01*
X106913Y3861D01*
Y3834D01*
X106918Y3811D01*
Y3792D01*
Y3783D01*
Y3778D01*
X106908Y3672D01*
X106890Y3575D01*
X106858Y3492D01*
X106825Y3422D01*
X106793Y3362D01*
X106761Y3321D01*
X106742Y3298D01*
X106733Y3289D01*
X106659Y3229D01*
X106580Y3182D01*
X106497Y3150D01*
X106423Y3127D01*
X106359Y3113D01*
X106303Y3108D01*
X106285Y3104D01*
X106257D01*
X106188Y3108D01*
X106123Y3118D01*
X106063Y3131D01*
X106008Y3145D01*
X105961Y3159D01*
X105929Y3173D01*
X105906Y3182D01*
X105897Y3187D01*
X105832Y3219D01*
X105772Y3261D01*
X105717Y3298D01*
X105670Y3335D01*
X105633Y3372D01*
X105601Y3399D01*
X105582Y3418D01*
X105578Y3422D01*
X105569Y3325D01*
X105559Y3284D01*
X105555Y3242D01*
X105545Y3210D01*
X105536Y3187D01*
X105532Y3168D01*
Y3164D01*
X104927D01*
X104945Y3229D01*
X104954Y3293D01*
X104963Y3349D01*
X104973Y3395D01*
Y3436D01*
X104977Y3464D01*
Y3487D01*
Y3492D01*
Y3524D01*
X104973Y3566D01*
X104963Y3653D01*
X104950Y3746D01*
X104931Y3843D01*
X104917Y3931D01*
X104908Y3968D01*
X104903Y4005D01*
X104899Y4032D01*
X104894Y4051D01*
X104890Y4065D01*
Y4069D01*
X104871Y4157D01*
X104852Y4240D01*
X104834Y4314D01*
X104820Y4379D01*
X104811Y4434D01*
X104802Y4485D01*
X104792Y4531D01*
X104783Y4568D01*
X104779Y4601D01*
X104769Y4624D01*
Y4647D01*
X104765Y4661D01*
X104760Y4684D01*
Y4688D01*
X104746Y4776D01*
X104742Y4813D01*
Y4845D01*
X104737Y4873D01*
Y4892D01*
Y4905D01*
Y4910D01*
Y4961D01*
X104746Y5007D01*
X104769Y5090D01*
X104806Y5164D01*
X104843Y5229D01*
X104885Y5284D01*
X104922Y5321D01*
X104945Y5344D01*
X104950Y5354D01*
X104954D01*
X104996Y5386D01*
X105042Y5414D01*
X105148Y5460D01*
X105254Y5492D01*
X105365Y5511D01*
X105462Y5525D01*
X105504Y5529D01*
X105541D01*
X105573Y5534D01*
X105615D01*
X105767Y5525D01*
D02*
G37*
G36*
X79318Y6375D02*
X79406Y6361D01*
X79489Y6342D01*
X79567Y6319D01*
X79641Y6291D01*
X79706Y6259D01*
X79771Y6222D01*
X79826Y6190D01*
X79877Y6153D01*
X79918Y6116D01*
X79955Y6084D01*
X79988Y6056D01*
X80011Y6033D01*
X80029Y6014D01*
X80038Y6001D01*
X80043Y5996D01*
X80099Y5922D01*
X80145Y5848D01*
X80186Y5774D01*
X80219Y5695D01*
X80251Y5622D01*
X80274Y5552D01*
X80311Y5414D01*
X80320Y5354D01*
X80330Y5298D01*
X80339Y5247D01*
X80343Y5206D01*
X80348Y5169D01*
Y5146D01*
Y5127D01*
Y5123D01*
X80343Y5044D01*
X80339Y4966D01*
X80325Y4896D01*
X80311Y4832D01*
X80293Y4767D01*
X80274Y4712D01*
X80251Y4661D01*
X80228Y4610D01*
X80205Y4568D01*
X80182Y4531D01*
X80163Y4504D01*
X80145Y4476D01*
X80131Y4457D01*
X80117Y4443D01*
X80112Y4434D01*
X80108Y4430D01*
X80062Y4388D01*
X80011Y4346D01*
X79960Y4314D01*
X79909Y4286D01*
X79808Y4240D01*
X79711Y4213D01*
X79627Y4194D01*
X79590Y4189D01*
X79558Y4185D01*
X79535Y4180D01*
X79498D01*
X79415Y4185D01*
X79336Y4199D01*
X79262Y4222D01*
X79198Y4245D01*
X79142Y4268D01*
X79105Y4291D01*
X79078Y4305D01*
X79068Y4310D01*
X79087Y4236D01*
X79110Y4171D01*
X79133Y4106D01*
X79156Y4046D01*
X79184Y3995D01*
X79207Y3949D01*
X79230Y3903D01*
X79253Y3866D01*
X79272Y3834D01*
X79290Y3801D01*
X79327Y3760D01*
X79346Y3732D01*
X79355Y3723D01*
X79401Y3681D01*
X79447Y3653D01*
X79498Y3630D01*
X79540Y3616D01*
X79581Y3607D01*
X79609Y3603D01*
X79637D01*
X79683Y3607D01*
X79720Y3616D01*
X79752Y3626D01*
X79784Y3640D01*
X79803Y3653D01*
X79821Y3667D01*
X79831Y3672D01*
X79835Y3677D01*
X79858Y3709D01*
X79881Y3751D01*
X79905Y3838D01*
X79914Y3880D01*
X79918Y3912D01*
X79923Y3935D01*
Y3945D01*
X80510Y3894D01*
X80491Y3760D01*
X80464Y3644D01*
X80422Y3547D01*
X80380Y3464D01*
X80339Y3399D01*
X80320Y3372D01*
X80302Y3349D01*
X80288Y3335D01*
X80279Y3321D01*
X80269Y3316D01*
Y3312D01*
X80228Y3275D01*
X80182Y3242D01*
X80085Y3192D01*
X79988Y3154D01*
X79891Y3131D01*
X79808Y3113D01*
X79775Y3108D01*
X79743D01*
X79720Y3104D01*
X79683D01*
X79567Y3108D01*
X79461Y3131D01*
X79359Y3159D01*
X79267Y3196D01*
X79175Y3242D01*
X79091Y3293D01*
X79018Y3349D01*
X78948Y3404D01*
X78888Y3459D01*
X78833Y3510D01*
X78786Y3561D01*
X78750Y3607D01*
X78722Y3644D01*
X78699Y3672D01*
X78685Y3695D01*
X78680Y3700D01*
X78611Y3815D01*
X78556Y3935D01*
X78500Y4055D01*
X78458Y4180D01*
X78421Y4300D01*
X78389Y4425D01*
X78366Y4541D01*
X78343Y4651D01*
X78329Y4758D01*
X78315Y4855D01*
X78311Y4942D01*
X78301Y5016D01*
Y5076D01*
X78297Y5123D01*
Y5136D01*
Y5150D01*
Y5155D01*
Y5160D01*
X78301Y5261D01*
X78306Y5358D01*
X78320Y5451D01*
X78334Y5534D01*
X78352Y5612D01*
X78371Y5686D01*
X78394Y5751D01*
X78417Y5811D01*
X78440Y5866D01*
X78463Y5913D01*
X78482Y5954D01*
X78500Y5987D01*
X78514Y6014D01*
X78528Y6033D01*
X78532Y6042D01*
X78537Y6047D01*
X78583Y6107D01*
X78634Y6157D01*
X78689Y6199D01*
X78745Y6241D01*
X78805Y6273D01*
X78860Y6296D01*
X78916Y6319D01*
X78971Y6338D01*
X79022Y6352D01*
X79073Y6361D01*
X79115Y6370D01*
X79151Y6375D01*
X79184Y6379D01*
X79225D01*
X79318Y6375D01*
D02*
G37*
G36*
X92536Y3164D02*
X91940D01*
X91436Y5834D01*
X91316Y3164D01*
X90692D01*
X89505Y5816D01*
X90059Y3164D01*
X89463D01*
X88881Y6361D01*
X89828D01*
X90831Y4162D01*
X90933Y6361D01*
X91870D01*
X92536Y3164D01*
D02*
G37*
G36*
X112291Y6416D02*
X112374Y6412D01*
X112531Y6384D01*
X112674Y6342D01*
X112743Y6319D01*
X112804Y6301D01*
X112859Y6278D01*
X112910Y6255D01*
X112951Y6231D01*
X112988Y6213D01*
X113016Y6199D01*
X113039Y6185D01*
X113053Y6181D01*
X113058Y6176D01*
X113127Y6130D01*
X113196Y6079D01*
X113321Y5968D01*
X113423Y5853D01*
X113510Y5742D01*
X113547Y5686D01*
X113580Y5640D01*
X113607Y5594D01*
X113630Y5557D01*
X113649Y5525D01*
X113663Y5502D01*
X113668Y5488D01*
X113672Y5483D01*
X113709Y5395D01*
X113741Y5312D01*
X113797Y5136D01*
X113834Y4970D01*
X113852Y4887D01*
X113862Y4813D01*
X113871Y4744D01*
X113875Y4684D01*
X113885Y4624D01*
Y4578D01*
X113889Y4541D01*
Y4508D01*
Y4490D01*
Y4485D01*
X113885Y4360D01*
X113875Y4250D01*
X113857Y4139D01*
X113838Y4042D01*
X113815Y3949D01*
X113788Y3861D01*
X113755Y3788D01*
X113723Y3718D01*
X113695Y3658D01*
X113663Y3603D01*
X113635Y3557D01*
X113612Y3520D01*
X113594Y3492D01*
X113575Y3473D01*
X113566Y3460D01*
X113561Y3455D01*
X113497Y3395D01*
X113427Y3339D01*
X113353Y3293D01*
X113275Y3252D01*
X113201Y3219D01*
X113122Y3192D01*
X113048Y3168D01*
X112975Y3150D01*
X112910Y3131D01*
X112845Y3122D01*
X112790Y3113D01*
X112739Y3108D01*
X112697D01*
X112670Y3104D01*
X112642D01*
X112545Y3108D01*
X112452Y3118D01*
X112365Y3131D01*
X112282Y3150D01*
X112203Y3168D01*
X112129Y3192D01*
X112060Y3219D01*
X111995Y3247D01*
X111940Y3270D01*
X111884Y3298D01*
X111843Y3321D01*
X111806Y3344D01*
X111773Y3358D01*
X111755Y3372D01*
X111741Y3381D01*
X111736Y3385D01*
X111667Y3441D01*
X111598Y3501D01*
X111482Y3635D01*
X111381Y3769D01*
X111297Y3903D01*
X111260Y3963D01*
X111233Y4023D01*
X111210Y4074D01*
X111187Y4120D01*
X111168Y4157D01*
X111159Y4185D01*
X111150Y4203D01*
Y4208D01*
X111815Y4310D01*
X111861Y4194D01*
X111907Y4092D01*
X111963Y4009D01*
X112013Y3940D01*
X112060Y3884D01*
X112097Y3847D01*
X112124Y3824D01*
X112129Y3815D01*
X112134D01*
X112217Y3760D01*
X112295Y3723D01*
X112374Y3695D01*
X112448Y3672D01*
X112508Y3663D01*
X112559Y3658D01*
X112577Y3653D01*
X112600D01*
X112651Y3658D01*
X112697Y3663D01*
X112785Y3686D01*
X112864Y3718D01*
X112933Y3760D01*
X112984Y3797D01*
X113025Y3829D01*
X113048Y3852D01*
X113058Y3861D01*
X113118Y3949D01*
X113164Y4046D01*
X113192Y4143D01*
X113215Y4240D01*
X113229Y4323D01*
X113233Y4360D01*
Y4393D01*
X113238Y4420D01*
Y4439D01*
Y4453D01*
Y4457D01*
X113233Y4587D01*
X113215Y4716D01*
X113192Y4836D01*
X113169Y4942D01*
X113155Y4989D01*
X113141Y5030D01*
X113132Y5067D01*
X113122Y5100D01*
X113113Y5127D01*
X113104Y5146D01*
X113099Y5155D01*
Y5160D01*
X113044Y5284D01*
X112979Y5391D01*
X112914Y5483D01*
X112854Y5552D01*
X112804Y5612D01*
X112757Y5649D01*
X112730Y5672D01*
X112725Y5682D01*
X112720D01*
X112633Y5737D01*
X112540Y5779D01*
X112457Y5811D01*
X112379Y5830D01*
X112309Y5843D01*
X112258Y5848D01*
X112240Y5853D01*
X112212D01*
X112124Y5848D01*
X112046Y5834D01*
X111977Y5811D01*
X111921Y5788D01*
X111875Y5765D01*
X111843Y5742D01*
X111820Y5728D01*
X111815Y5723D01*
X111764Y5672D01*
X111723Y5608D01*
X111686Y5543D01*
X111658Y5474D01*
X111635Y5414D01*
X111621Y5367D01*
X111616Y5349D01*
Y5335D01*
X111612Y5326D01*
Y5321D01*
X110983Y5381D01*
X110997Y5469D01*
X111016Y5552D01*
X111039Y5631D01*
X111066Y5705D01*
X111099Y5770D01*
X111131Y5834D01*
X111163Y5890D01*
X111196Y5940D01*
X111228Y5987D01*
X111256Y6028D01*
X111288Y6061D01*
X111311Y6088D01*
X111334Y6111D01*
X111348Y6125D01*
X111357Y6134D01*
X111362Y6139D01*
X111422Y6190D01*
X111492Y6231D01*
X111556Y6268D01*
X111630Y6301D01*
X111699Y6329D01*
X111769Y6352D01*
X111903Y6384D01*
X111963Y6398D01*
X112023Y6407D01*
X112074Y6412D01*
X112115Y6416D01*
X112152Y6421D01*
X112203D01*
X112291Y6416D01*
D02*
G37*
G36*
X86964D02*
X87047Y6412D01*
X87204Y6384D01*
X87347Y6342D01*
X87417Y6319D01*
X87477Y6301D01*
X87532Y6278D01*
X87583Y6255D01*
X87625Y6231D01*
X87661Y6213D01*
X87689Y6199D01*
X87712Y6185D01*
X87726Y6181D01*
X87731Y6176D01*
X87800Y6130D01*
X87869Y6079D01*
X87994Y5968D01*
X88096Y5853D01*
X88184Y5742D01*
X88221Y5686D01*
X88253Y5640D01*
X88281Y5594D01*
X88304Y5557D01*
X88322Y5525D01*
X88336Y5502D01*
X88341Y5488D01*
X88345Y5483D01*
X88382Y5395D01*
X88415Y5312D01*
X88470Y5136D01*
X88507Y4970D01*
X88525Y4887D01*
X88535Y4813D01*
X88544Y4744D01*
X88549Y4684D01*
X88558Y4624D01*
Y4578D01*
X88562Y4541D01*
Y4508D01*
Y4490D01*
Y4485D01*
X88558Y4360D01*
X88549Y4250D01*
X88530Y4139D01*
X88512Y4042D01*
X88489Y3949D01*
X88461Y3861D01*
X88428Y3788D01*
X88396Y3718D01*
X88368Y3658D01*
X88336Y3603D01*
X88308Y3557D01*
X88285Y3520D01*
X88267Y3492D01*
X88248Y3473D01*
X88239Y3460D01*
X88234Y3455D01*
X88170Y3395D01*
X88100Y3339D01*
X88026Y3293D01*
X87948Y3252D01*
X87874Y3219D01*
X87796Y3192D01*
X87722Y3168D01*
X87648Y3150D01*
X87583Y3131D01*
X87518Y3122D01*
X87463Y3113D01*
X87412Y3108D01*
X87371D01*
X87343Y3104D01*
X87315D01*
X87218Y3108D01*
X87126Y3118D01*
X87038Y3131D01*
X86955Y3150D01*
X86876Y3168D01*
X86802Y3192D01*
X86733Y3219D01*
X86668Y3247D01*
X86613Y3270D01*
X86557Y3298D01*
X86516Y3321D01*
X86479Y3344D01*
X86446Y3358D01*
X86428Y3372D01*
X86414Y3381D01*
X86409Y3385D01*
X86340Y3441D01*
X86271Y3501D01*
X86155Y3635D01*
X86054Y3769D01*
X85971Y3903D01*
X85934Y3963D01*
X85906Y4023D01*
X85883Y4074D01*
X85860Y4120D01*
X85841Y4157D01*
X85832Y4185D01*
X85823Y4203D01*
Y4208D01*
X86488Y4310D01*
X86534Y4194D01*
X86580Y4092D01*
X86636Y4009D01*
X86687Y3940D01*
X86733Y3884D01*
X86770Y3847D01*
X86798Y3824D01*
X86802Y3815D01*
X86807Y3815D01*
X86890Y3760D01*
X86968Y3723D01*
X87047Y3695D01*
X87121Y3672D01*
X87181Y3663D01*
X87232Y3658D01*
X87250Y3653D01*
X87273D01*
X87324Y3658D01*
X87371Y3663D01*
X87458Y3686D01*
X87537Y3718D01*
X87606Y3760D01*
X87657Y3797D01*
X87699Y3829D01*
X87722Y3852D01*
X87731Y3861D01*
X87791Y3949D01*
X87837Y4046D01*
X87865Y4143D01*
X87888Y4240D01*
X87902Y4323D01*
X87906Y4360D01*
Y4393D01*
X87911Y4420D01*
Y4439D01*
Y4453D01*
Y4457D01*
X87906Y4587D01*
X87888Y4716D01*
X87865Y4836D01*
X87842Y4942D01*
X87828Y4989D01*
X87814Y5030D01*
X87805Y5067D01*
X87796Y5100D01*
X87786Y5127D01*
X87777Y5146D01*
X87772Y5155D01*
Y5160D01*
X87717Y5284D01*
X87652Y5391D01*
X87588Y5483D01*
X87528Y5552D01*
X87477Y5612D01*
X87431Y5649D01*
X87403Y5672D01*
X87398Y5682D01*
X87394D01*
X87306Y5737D01*
X87213Y5779D01*
X87130Y5811D01*
X87052Y5830D01*
X86982Y5843D01*
X86932Y5848D01*
X86913Y5853D01*
X86885D01*
X86798Y5848D01*
X86719Y5834D01*
X86650Y5811D01*
X86594Y5788D01*
X86548Y5765D01*
X86516Y5742D01*
X86493Y5728D01*
X86488Y5723D01*
X86437Y5672D01*
X86396Y5608D01*
X86359Y5543D01*
X86331Y5474D01*
X86308Y5414D01*
X86294Y5367D01*
X86289Y5349D01*
Y5335D01*
X86285Y5326D01*
Y5321D01*
X85656Y5381D01*
X85670Y5469D01*
X85689Y5552D01*
X85712Y5631D01*
X85740Y5705D01*
X85772Y5769D01*
X85804Y5834D01*
X85837Y5890D01*
X85869Y5940D01*
X85901Y5987D01*
X85929Y6028D01*
X85961Y6061D01*
X85984Y6088D01*
X86008Y6111D01*
X86021Y6125D01*
X86031Y6134D01*
X86035Y6139D01*
X86095Y6190D01*
X86165Y6231D01*
X86229Y6268D01*
X86303Y6301D01*
X86373Y6329D01*
X86442Y6352D01*
X86576Y6384D01*
X86636Y6398D01*
X86696Y6407D01*
X86747Y6412D01*
X86788Y6416D01*
X86825Y6421D01*
X86876D01*
X86964Y6416D01*
D02*
G37*
G36*
X99230Y5529D02*
X99345Y5511D01*
X99452Y5488D01*
X99549Y5455D01*
X99641Y5418D01*
X99724Y5377D01*
X99803Y5331D01*
X99872Y5284D01*
X99932Y5234D01*
X99988Y5192D01*
X100029Y5146D01*
X100071Y5109D01*
X100099Y5077D01*
X100117Y5053D01*
X100131Y5035D01*
X100136Y5030D01*
X100182Y4961D01*
X100223Y4887D01*
X100256Y4813D01*
X100288Y4739D01*
X100311Y4665D01*
X100334Y4596D01*
X100366Y4467D01*
X100376Y4407D01*
X100385Y4351D01*
X100390Y4300D01*
X100394Y4259D01*
X100399Y4226D01*
Y4203D01*
Y4185D01*
Y4180D01*
X100394Y4092D01*
X100385Y4009D01*
X100371Y3926D01*
X100353Y3852D01*
X100330Y3783D01*
X100306Y3718D01*
X100279Y3663D01*
X100251Y3607D01*
X100228Y3561D01*
X100200Y3520D01*
X100177Y3483D01*
X100154Y3455D01*
X100136Y3432D01*
X100122Y3413D01*
X100112Y3404D01*
X100108Y3399D01*
X100052Y3349D01*
X99992Y3302D01*
X99928Y3261D01*
X99868Y3229D01*
X99803Y3201D01*
X99738Y3178D01*
X99618Y3141D01*
X99563Y3127D01*
X99512Y3118D01*
X99466Y3113D01*
X99424Y3108D01*
X99392Y3104D01*
X99345D01*
X99221Y3113D01*
X99110Y3131D01*
X99004Y3154D01*
X98916Y3187D01*
X98837Y3219D01*
X98810Y3233D01*
X98782Y3242D01*
X98763Y3256D01*
X98750Y3261D01*
X98740Y3270D01*
X98736D01*
X98639Y3339D01*
X98551Y3422D01*
X98472Y3506D01*
X98408Y3589D01*
X98361Y3667D01*
X98338Y3700D01*
X98325Y3727D01*
X98311Y3751D01*
X98301Y3769D01*
X98292Y3778D01*
Y3783D01*
X98851Y3875D01*
X98883Y3820D01*
X98921Y3769D01*
X98962Y3727D01*
X99004Y3691D01*
X99041Y3658D01*
X99082Y3630D01*
X99124Y3607D01*
X99161Y3593D01*
X99230Y3570D01*
X99262Y3561D01*
X99290Y3557D01*
X99309Y3552D01*
X99341D01*
X99410Y3557D01*
X99475Y3575D01*
X99530Y3598D01*
X99576Y3621D01*
X99618Y3649D01*
X99646Y3667D01*
X99664Y3686D01*
X99669Y3691D01*
X99711Y3746D01*
X99743Y3811D01*
X99766Y3871D01*
X99780Y3931D01*
X99789Y3986D01*
X99798Y4028D01*
Y4055D01*
Y4060D01*
Y4065D01*
Y4083D01*
X99794Y4102D01*
Y4120D01*
Y4125D01*
X98223D01*
X98195Y4263D01*
X98186Y4333D01*
X98181Y4397D01*
X98177Y4448D01*
Y4494D01*
Y4522D01*
Y4527D01*
Y4531D01*
X98181Y4619D01*
X98186Y4698D01*
X98200Y4776D01*
X98218Y4845D01*
X98237Y4915D01*
X98255Y4975D01*
X98278Y5030D01*
X98301Y5081D01*
X98329Y5123D01*
X98352Y5164D01*
X98371Y5197D01*
X98389Y5224D01*
X98408Y5243D01*
X98422Y5257D01*
X98426Y5266D01*
X98431Y5271D01*
X98482Y5317D01*
X98532Y5358D01*
X98588Y5391D01*
X98643Y5423D01*
X98699Y5451D01*
X98754Y5469D01*
X98865Y5502D01*
X98916Y5511D01*
X98962Y5520D01*
X99004Y5525D01*
X99041Y5529D01*
X99068Y5534D01*
X99110D01*
X99230Y5529D01*
D02*
G37*
G36*
X115400Y3164D02*
X114749D01*
X114074Y6361D01*
X114730D01*
X115400Y3164D01*
D02*
G37*
G36*
X107893Y5529D02*
X107966Y5520D01*
X108036Y5506D01*
X108096Y5492D01*
X108147Y5478D01*
X108188Y5464D01*
X108211Y5455D01*
X108221Y5451D01*
X108294Y5414D01*
X108368Y5372D01*
X108438Y5326D01*
X108502Y5284D01*
X108558Y5243D01*
X108604Y5210D01*
X108632Y5187D01*
X108636Y5178D01*
X108641D01*
X108581Y5483D01*
X109172D01*
X109657Y3164D01*
X109038D01*
X108840Y4111D01*
X108821Y4185D01*
X108807Y4254D01*
X108789Y4319D01*
X108775Y4374D01*
X108761Y4425D01*
X108747Y4471D01*
X108733Y4508D01*
X108724Y4545D01*
X108715Y4573D01*
X108706Y4601D01*
X108692Y4638D01*
X108683Y4661D01*
X108678Y4665D01*
X108636Y4735D01*
X108595Y4795D01*
X108548Y4845D01*
X108507Y4887D01*
X108470Y4924D01*
X108438Y4947D01*
X108419Y4966D01*
X108410Y4970D01*
X108345Y5007D01*
X108290Y5035D01*
X108239Y5058D01*
X108193Y5072D01*
X108151Y5081D01*
X108124Y5086D01*
X108100D01*
X108054Y5081D01*
X108013Y5077D01*
X107980Y5063D01*
X107953Y5053D01*
X107930Y5040D01*
X107916Y5026D01*
X107906Y5021D01*
X107902Y5016D01*
X107879Y4989D01*
X107860Y4956D01*
X107846Y4924D01*
X107837Y4896D01*
X107832Y4869D01*
X107828Y4845D01*
Y4832D01*
Y4827D01*
Y4813D01*
X107832Y4795D01*
X107842Y4748D01*
X107851Y4688D01*
X107860Y4628D01*
X107874Y4573D01*
X107883Y4522D01*
X107888Y4504D01*
Y4490D01*
X107893Y4481D01*
Y4476D01*
X108174Y3164D01*
X107555D01*
X107273Y4471D01*
X107260Y4531D01*
X107246Y4587D01*
X107237Y4638D01*
X107227Y4684D01*
X107213Y4767D01*
X107204Y4827D01*
X107195Y4878D01*
X107190Y4910D01*
Y4929D01*
Y4933D01*
X107200Y5030D01*
X107218Y5113D01*
X107241Y5187D01*
X107273Y5252D01*
X107306Y5303D01*
X107329Y5340D01*
X107347Y5358D01*
X107357Y5367D01*
X107426Y5423D01*
X107500Y5464D01*
X107574Y5492D01*
X107648Y5515D01*
X107712Y5525D01*
X107768Y5529D01*
X107786Y5534D01*
X107814D01*
X107893Y5529D01*
D02*
G37*
G36*
X97858Y3164D02*
X97239D01*
X97119Y3769D01*
X97738D01*
X97858Y3164D01*
D02*
G37*
G36*
X94906Y5825D02*
X93972D01*
X94527Y3164D01*
X93871D01*
X93316Y5825D01*
X92383D01*
X92277Y6361D01*
X94799D01*
X94906Y5825D01*
D02*
G37*
G36*
X76717Y6375D02*
X76786Y6365D01*
X76851Y6352D01*
X76915Y6333D01*
X77035Y6287D01*
X77137Y6231D01*
X77183Y6204D01*
X77225Y6176D01*
X77262Y6153D01*
X77290Y6130D01*
X77313Y6111D01*
X77331Y6098D01*
X77340Y6088D01*
X77345Y6084D01*
X77400Y6024D01*
X77456Y5959D01*
X77511Y5890D01*
X77558Y5816D01*
X77645Y5668D01*
X77719Y5520D01*
X77752Y5451D01*
X77779Y5386D01*
X77807Y5331D01*
X77825Y5280D01*
X77839Y5238D01*
X77853Y5206D01*
X77858Y5187D01*
X77863Y5178D01*
X77918Y4993D01*
X77955Y4818D01*
X77983Y4651D01*
X77996Y4573D01*
X78006Y4504D01*
X78010Y4439D01*
X78015Y4379D01*
X78020Y4328D01*
Y4282D01*
X78024Y4245D01*
Y4222D01*
Y4203D01*
Y4199D01*
X78020Y4102D01*
X78015Y4009D01*
X78001Y3926D01*
X77987Y3847D01*
X77964Y3774D01*
X77946Y3709D01*
X77923Y3649D01*
X77899Y3593D01*
X77876Y3543D01*
X77853Y3501D01*
X77830Y3469D01*
X77812Y3436D01*
X77798Y3413D01*
X77784Y3399D01*
X77779Y3390D01*
X77775Y3385D01*
X77724Y3335D01*
X77673Y3293D01*
X77622Y3256D01*
X77567Y3224D01*
X77511Y3196D01*
X77461Y3173D01*
X77359Y3141D01*
X77267Y3118D01*
X77230Y3113D01*
X77197Y3108D01*
X77170Y3104D01*
X77132D01*
X77059Y3108D01*
X76989Y3118D01*
X76920Y3131D01*
X76855Y3150D01*
X76740Y3196D01*
X76634Y3252D01*
X76587Y3275D01*
X76550Y3302D01*
X76513Y3325D01*
X76486Y3349D01*
X76463Y3367D01*
X76444Y3381D01*
X76435Y3390D01*
X76430Y3395D01*
X76375Y3450D01*
X76319Y3515D01*
X76222Y3649D01*
X76139Y3788D01*
X76065Y3921D01*
X76038Y3986D01*
X76010Y4042D01*
X75987Y4097D01*
X75968Y4143D01*
X75954Y4180D01*
X75945Y4208D01*
X75936Y4226D01*
Y4231D01*
X75876Y4434D01*
X75830Y4628D01*
X75811Y4716D01*
X75797Y4804D01*
X75783Y4882D01*
X75774Y4961D01*
X75765Y5030D01*
X75760Y5090D01*
X75756Y5146D01*
Y5187D01*
X75751Y5224D01*
Y5252D01*
Y5271D01*
Y5275D01*
X75756Y5372D01*
X75760Y5464D01*
X75774Y5548D01*
X75793Y5631D01*
X75811Y5700D01*
X75830Y5769D01*
X75853Y5830D01*
X75876Y5885D01*
X75904Y5936D01*
X75927Y5977D01*
X75945Y6010D01*
X75964Y6042D01*
X75982Y6065D01*
X75996Y6079D01*
X76001Y6088D01*
X76005Y6093D01*
X76051Y6144D01*
X76102Y6185D01*
X76158Y6227D01*
X76209Y6259D01*
X76264Y6287D01*
X76315Y6310D01*
X76416Y6342D01*
X76509Y6365D01*
X76546Y6370D01*
X76578Y6375D01*
X76606Y6379D01*
X76643D01*
X76717Y6375D01*
D02*
G37*
%LPC*%
G36*
X110207Y-3955D02*
X110203D01*
X110221Y-4043D01*
X110240Y-4121D01*
X110258Y-4191D01*
X110276Y-4251D01*
X110295Y-4297D01*
X110309Y-4334D01*
X110323Y-4357D01*
X110327Y-4376D01*
X110332Y-4380D01*
X110355Y-4422D01*
X110387Y-4454D01*
X110420Y-4486D01*
X110447Y-4510D01*
X110475Y-4533D01*
X110498Y-4546D01*
X110517Y-4556D01*
X110521Y-4560D01*
X110567Y-4583D01*
X110614Y-4597D01*
X110660Y-4611D01*
X110702Y-4616D01*
X110734Y-4620D01*
X110761Y-4625D01*
X110785D01*
X110831Y-4620D01*
X110872Y-4611D01*
X110909Y-4602D01*
X110937Y-4588D01*
X110960Y-4574D01*
X110979Y-4560D01*
X110988Y-4556D01*
X110993Y-4551D01*
X111020Y-4523D01*
X111039Y-4491D01*
X111053Y-4459D01*
X111062Y-4431D01*
X111066Y-4403D01*
X111071Y-4385D01*
Y-4371D01*
Y-4366D01*
X111066Y-4320D01*
X111057Y-4279D01*
X111039Y-4242D01*
X111020Y-4209D01*
X111002Y-4186D01*
X110983Y-4168D01*
X110974Y-4158D01*
X110969Y-4154D01*
X110937Y-4135D01*
X110900Y-4117D01*
X110859Y-4098D01*
X110812Y-4080D01*
X110711Y-4052D01*
X110609Y-4029D01*
X110512Y-4011D01*
X110470Y-4001D01*
X110429Y-3997D01*
X110401Y-3992D01*
X110373D01*
X110360Y-3988D01*
X110355D01*
X110290Y-3978D01*
X110244Y-3964D01*
X110226Y-3960D01*
X110212D01*
X110207Y-3955D01*
D02*
G37*
G36*
X94259Y-3114D02*
X94226D01*
X94157Y-3119D01*
X94097Y-3133D01*
X94042Y-3156D01*
X94000Y-3179D01*
X93963Y-3202D01*
X93940Y-3225D01*
X93922Y-3239D01*
X93917Y-3244D01*
X93880Y-3299D01*
X93852Y-3359D01*
X93829Y-3424D01*
X93815Y-3484D01*
X93806Y-3544D01*
X93801Y-3590D01*
Y-3609D01*
Y-3622D01*
Y-3627D01*
Y-3632D01*
Y-3650D01*
Y-3669D01*
Y-3687D01*
Y-3692D01*
X94786D01*
X94762Y-3590D01*
X94730Y-3507D01*
X94693Y-3433D01*
X94661Y-3373D01*
X94629Y-3322D01*
X94601Y-3290D01*
X94582Y-3267D01*
X94578Y-3262D01*
X94518Y-3211D01*
X94458Y-3174D01*
X94397Y-3151D01*
X94342Y-3133D01*
X94296Y-3124D01*
X94259Y-3114D01*
D02*
G37*
G36*
X83624Y-2375D02*
X82801D01*
X82723Y-2384D01*
X82653Y-2394D01*
X82603Y-2403D01*
X82566Y-2412D01*
X82543Y-2421D01*
X82529Y-2426D01*
X82524Y-2431D01*
X82478Y-2468D01*
X82441Y-2509D01*
X82418Y-2551D01*
X82399Y-2592D01*
X82390Y-2629D01*
X82381Y-2662D01*
Y-2680D01*
Y-2689D01*
X82385Y-2745D01*
X82395Y-2800D01*
X82413Y-2846D01*
X82432Y-2888D01*
X82450Y-2925D01*
X82469Y-2953D01*
X82478Y-2971D01*
X82482Y-2976D01*
X82524Y-3022D01*
X82566Y-3063D01*
X82612Y-3096D01*
X82653Y-3124D01*
X82695Y-3147D01*
X82727Y-3161D01*
X82746Y-3170D01*
X82755Y-3174D01*
X82792Y-3184D01*
X82834Y-3193D01*
X82884Y-3202D01*
X82935Y-3207D01*
X83051Y-3221D01*
X83166Y-3225D01*
X83277Y-3230D01*
X83323Y-3234D01*
X83804D01*
X83624Y-2375D01*
D02*
G37*
G36*
X61785Y-2509D02*
X61595Y-3793D01*
X62487D01*
X61785Y-2509D01*
D02*
G37*
G36*
X64696Y-2301D02*
X64668D01*
X64617Y-2306D01*
X64566Y-2315D01*
X64525Y-2334D01*
X64492Y-2347D01*
X64464Y-2366D01*
X64446Y-2384D01*
X64432Y-2394D01*
X64428Y-2398D01*
X64395Y-2435D01*
X64372Y-2477D01*
X64354Y-2523D01*
X64344Y-2560D01*
X64335Y-2597D01*
X64331Y-2625D01*
Y-2643D01*
Y-2652D01*
X64335Y-2712D01*
X64349Y-2772D01*
X64372Y-2823D01*
X64395Y-2865D01*
X64418Y-2902D01*
X64441Y-2929D01*
X64455Y-2948D01*
X64460Y-2953D01*
X64511Y-2994D01*
X64561Y-3026D01*
X64612Y-3045D01*
X64654Y-3063D01*
X64696Y-3073D01*
X64728Y-3077D01*
X64756D01*
X64806Y-3073D01*
X64857Y-3063D01*
X64894Y-3050D01*
X64931Y-3031D01*
X64959Y-3013D01*
X64977Y-2999D01*
X64991Y-2990D01*
X64996Y-2985D01*
X65023Y-2948D01*
X65047Y-2906D01*
X65061Y-2865D01*
X65074Y-2828D01*
X65079Y-2791D01*
X65084Y-2763D01*
Y-2745D01*
Y-2740D01*
X65079Y-2675D01*
X65065Y-2615D01*
X65047Y-2565D01*
X65023Y-2518D01*
X65000Y-2481D01*
X64982Y-2454D01*
X64968Y-2435D01*
X64964Y-2431D01*
X64913Y-2389D01*
X64866Y-2357D01*
X64816Y-2334D01*
X64769Y-2315D01*
X64728Y-2306D01*
X64696Y-2301D01*
D02*
G37*
G36*
X64876Y-3558D02*
X64866D01*
X64811Y-3562D01*
X64760Y-3576D01*
X64714Y-3590D01*
X64677Y-3609D01*
X64649Y-3632D01*
X64626Y-3646D01*
X64612Y-3660D01*
X64608Y-3664D01*
X64575Y-3706D01*
X64548Y-3747D01*
X64529Y-3793D01*
X64520Y-3835D01*
X64511Y-3872D01*
X64506Y-3900D01*
Y-3918D01*
Y-3927D01*
X64511Y-4020D01*
X64525Y-4108D01*
X64548Y-4186D01*
X64571Y-4255D01*
X64599Y-4315D01*
X64617Y-4357D01*
X64635Y-4385D01*
X64640Y-4389D01*
Y-4394D01*
X64663Y-4431D01*
X64691Y-4463D01*
X64751Y-4519D01*
X64816Y-4556D01*
X64871Y-4579D01*
X64926Y-4597D01*
X64968Y-4602D01*
X65000Y-4607D01*
X65010D01*
X65065Y-4602D01*
X65116Y-4593D01*
X65158Y-4574D01*
X65194Y-4556D01*
X65227Y-4537D01*
X65245Y-4519D01*
X65259Y-4510D01*
X65264Y-4505D01*
X65296Y-4463D01*
X65319Y-4417D01*
X65338Y-4371D01*
X65347Y-4325D01*
X65356Y-4283D01*
X65361Y-4251D01*
Y-4232D01*
Y-4223D01*
X65356Y-4117D01*
X65338Y-4020D01*
X65315Y-3937D01*
X65287Y-3872D01*
X65259Y-3817D01*
X65236Y-3775D01*
X65218Y-3752D01*
X65213Y-3743D01*
X65153Y-3683D01*
X65093Y-3636D01*
X65037Y-3604D01*
X64982Y-3581D01*
X64936Y-3567D01*
X64899Y-3562D01*
X64876Y-3558D01*
D02*
G37*
G36*
X91122Y1180D02*
X91095D01*
X91030Y1176D01*
X90970Y1157D01*
X90914Y1134D01*
X90868Y1106D01*
X90831Y1074D01*
X90804Y1051D01*
X90785Y1032D01*
X90781Y1028D01*
X90734Y968D01*
X90702Y903D01*
X90674Y838D01*
X90660Y774D01*
X90651Y718D01*
X90642Y672D01*
Y654D01*
Y640D01*
Y635D01*
Y630D01*
X90647Y552D01*
X90656Y473D01*
X90670Y395D01*
X90684Y330D01*
X90697Y270D01*
X90711Y229D01*
X90716Y210D01*
X90720Y196D01*
X90725Y192D01*
Y187D01*
X90757Y108D01*
X90799Y35D01*
X90836Y-25D01*
X90878Y-72D01*
X90910Y-113D01*
X90938Y-141D01*
X90956Y-160D01*
X90965Y-164D01*
X91025Y-206D01*
X91081Y-233D01*
X91136Y-256D01*
X91187Y-270D01*
X91229Y-280D01*
X91261Y-284D01*
X91289D01*
X91353Y-280D01*
X91413Y-261D01*
X91464Y-243D01*
X91506Y-215D01*
X91543Y-192D01*
X91566Y-169D01*
X91584Y-155D01*
X91589Y-150D01*
X91626Y-95D01*
X91654Y-30D01*
X91677Y39D01*
X91691Y104D01*
X91700Y159D01*
X91704Y210D01*
Y229D01*
Y242D01*
Y247D01*
Y252D01*
X91700Y316D01*
X91695Y386D01*
X91681Y450D01*
X91668Y506D01*
X91658Y561D01*
X91645Y598D01*
X91640Y626D01*
X91635Y635D01*
X91598Y732D01*
X91561Y815D01*
X91524Y889D01*
X91487Y945D01*
X91455Y991D01*
X91432Y1023D01*
X91413Y1042D01*
X91409Y1046D01*
X91353Y1092D01*
X91298Y1125D01*
X91247Y1148D01*
X91196Y1162D01*
X91155Y1176D01*
X91122Y1180D01*
D02*
G37*
G36*
X96154Y339D02*
X96149D01*
X96167Y252D01*
X96186Y173D01*
X96204Y104D01*
X96223Y44D01*
X96241Y-2D01*
X96255Y-39D01*
X96269Y-62D01*
X96274Y-81D01*
X96278Y-86D01*
X96301Y-127D01*
X96334Y-160D01*
X96366Y-192D01*
X96394Y-215D01*
X96422Y-238D01*
X96445Y-252D01*
X96463Y-261D01*
X96468Y-266D01*
X96514Y-289D01*
X96560Y-303D01*
X96606Y-317D01*
X96648Y-321D01*
X96680Y-326D01*
X96708Y-330D01*
X96731D01*
X96777Y-326D01*
X96819Y-317D01*
X96856Y-307D01*
X96884Y-293D01*
X96907Y-280D01*
X96925Y-266D01*
X96934Y-261D01*
X96939Y-256D01*
X96967Y-229D01*
X96985Y-197D01*
X96999Y-164D01*
X97008Y-136D01*
X97013Y-109D01*
X97018Y-90D01*
Y-76D01*
Y-72D01*
X97013Y-25D01*
X97004Y16D01*
X96985Y53D01*
X96967Y85D01*
X96948Y108D01*
X96930Y127D01*
X96921Y136D01*
X96916Y141D01*
X96884Y159D01*
X96847Y178D01*
X96805Y196D01*
X96759Y215D01*
X96657Y242D01*
X96556Y265D01*
X96459Y284D01*
X96417Y293D01*
X96375Y298D01*
X96348Y302D01*
X96320D01*
X96306Y307D01*
X96301D01*
X96237Y316D01*
X96191Y330D01*
X96172Y335D01*
X96158D01*
X96154Y339D01*
D02*
G37*
G36*
X72051Y1975D02*
X72042D01*
X71986Y1970D01*
X71940Y1956D01*
X71899Y1933D01*
X71862Y1915D01*
X71834Y1892D01*
X71811Y1869D01*
X71797Y1855D01*
X71792Y1850D01*
X71760Y1799D01*
X71732Y1739D01*
X71714Y1679D01*
X71705Y1619D01*
X71695Y1564D01*
X71691Y1517D01*
Y1499D01*
Y1485D01*
Y1481D01*
Y1476D01*
X71695Y1397D01*
X71700Y1323D01*
X71714Y1254D01*
X71723Y1194D01*
X71737Y1143D01*
X71751Y1102D01*
X71755Y1079D01*
X71760Y1074D01*
Y1069D01*
X71788Y1000D01*
X71820Y940D01*
X71852Y889D01*
X71885Y848D01*
X71912Y820D01*
X71936Y797D01*
X71949Y783D01*
X71954Y778D01*
X72000Y746D01*
X72042Y723D01*
X72083Y709D01*
X72120Y700D01*
X72148Y691D01*
X72171Y686D01*
X72194D01*
X72245Y691D01*
X72291Y704D01*
X72333Y723D01*
X72370Y746D01*
X72398Y769D01*
X72416Y788D01*
X72430Y801D01*
X72435Y806D01*
X72467Y857D01*
X72490Y917D01*
X72508Y977D01*
X72518Y1037D01*
X72527Y1092D01*
X72531Y1134D01*
Y1153D01*
Y1166D01*
Y1171D01*
Y1176D01*
X72522Y1314D01*
X72504Y1439D01*
X72476Y1545D01*
X72444Y1633D01*
X72425Y1675D01*
X72411Y1707D01*
X72398Y1735D01*
X72384Y1758D01*
X72370Y1776D01*
X72365Y1790D01*
X72356Y1795D01*
Y1799D01*
X72305Y1859D01*
X72254Y1901D01*
X72199Y1933D01*
X72148Y1952D01*
X72106Y1966D01*
X72074Y1970D01*
X72051Y1975D01*
D02*
G37*
G36*
X88406Y1180D02*
X88374D01*
X88304Y1176D01*
X88244Y1162D01*
X88189Y1139D01*
X88147Y1116D01*
X88110Y1092D01*
X88087Y1069D01*
X88069Y1056D01*
X88064Y1051D01*
X88027Y996D01*
X87999Y935D01*
X87976Y871D01*
X87962Y811D01*
X87953Y751D01*
X87949Y704D01*
Y686D01*
Y672D01*
Y667D01*
Y663D01*
Y644D01*
Y626D01*
Y607D01*
Y603D01*
X88933D01*
X88909Y704D01*
X88877Y788D01*
X88840Y862D01*
X88808Y922D01*
X88775Y972D01*
X88748Y1005D01*
X88729Y1028D01*
X88725Y1032D01*
X88665Y1083D01*
X88604Y1120D01*
X88544Y1143D01*
X88489Y1162D01*
X88443Y1171D01*
X88406Y1180D01*
D02*
G37*
G36*
X65675Y1439D02*
X65883Y436D01*
X66516D01*
X65675Y1439D01*
D02*
G37*
G36*
X63255Y1975D02*
X63245D01*
X63199Y1970D01*
X63153Y1956D01*
X63116Y1938D01*
X63088Y1919D01*
X63060Y1901D01*
X63042Y1883D01*
X63033Y1869D01*
X63028Y1864D01*
X63001Y1818D01*
X62977Y1767D01*
X62963Y1707D01*
X62950Y1651D01*
X62945Y1601D01*
X62940Y1559D01*
Y1527D01*
Y1522D01*
Y1517D01*
Y1462D01*
X62945Y1397D01*
X62959Y1268D01*
X62977Y1134D01*
X62996Y1005D01*
X63010Y945D01*
X63019Y889D01*
X63028Y838D01*
X63037Y797D01*
X63047Y764D01*
X63051Y737D01*
X63056Y718D01*
Y714D01*
X63084Y598D01*
X63111Y492D01*
X63139Y399D01*
X63167Y312D01*
X63195Y233D01*
X63222Y164D01*
X63245Y99D01*
X63273Y48D01*
X63296Y2D01*
X63315Y-39D01*
X63333Y-72D01*
X63347Y-95D01*
X63361Y-118D01*
X63370Y-132D01*
X63379Y-136D01*
Y-141D01*
X63435Y-197D01*
X63486Y-233D01*
X63541Y-261D01*
X63587Y-284D01*
X63629Y-293D01*
X63666Y-298D01*
X63684Y-303D01*
X63693D01*
X63740Y-298D01*
X63786Y-289D01*
X63823Y-270D01*
X63851Y-252D01*
X63878Y-233D01*
X63897Y-215D01*
X63906Y-206D01*
X63911Y-201D01*
X63938Y-155D01*
X63957Y-100D01*
X63975Y-39D01*
X63985Y21D01*
X63989Y76D01*
X63994Y122D01*
Y141D01*
Y155D01*
Y159D01*
Y164D01*
X63989Y293D01*
X63975Y432D01*
X63957Y566D01*
X63934Y700D01*
X63924Y760D01*
X63915Y815D01*
X63906Y866D01*
X63897Y908D01*
X63888Y945D01*
X63883Y968D01*
X63878Y986D01*
Y991D01*
X63851Y1097D01*
X63823Y1194D01*
X63795Y1287D01*
X63767Y1365D01*
X63740Y1444D01*
X63712Y1508D01*
X63684Y1568D01*
X63657Y1624D01*
X63633Y1670D01*
X63615Y1707D01*
X63592Y1739D01*
X63578Y1767D01*
X63564Y1785D01*
X63555Y1804D01*
X63546Y1809D01*
Y1813D01*
X63495Y1869D01*
X63444Y1906D01*
X63393Y1933D01*
X63347Y1956D01*
X63305Y1966D01*
X63273Y1970D01*
X63255Y1975D01*
D02*
G37*
G36*
X108355Y1180D02*
X108323D01*
X108253Y1176D01*
X108189Y1157D01*
X108138Y1134D01*
X108092Y1111D01*
X108055Y1083D01*
X108027Y1060D01*
X108009Y1042D01*
X108004Y1037D01*
X107962Y982D01*
X107930Y917D01*
X107907Y852D01*
X107888Y788D01*
X107879Y728D01*
X107875Y681D01*
Y663D01*
Y649D01*
Y644D01*
Y640D01*
X107879Y557D01*
X107888Y469D01*
X107907Y390D01*
X107921Y316D01*
X107939Y252D01*
X107958Y201D01*
X107962Y182D01*
X107967Y169D01*
X107972Y159D01*
Y155D01*
X108009Y62D01*
X108050Y-16D01*
X108092Y-81D01*
X108129Y-132D01*
X108166Y-169D01*
X108193Y-197D01*
X108212Y-215D01*
X108216Y-220D01*
X108272Y-256D01*
X108323Y-284D01*
X108373Y-303D01*
X108420Y-317D01*
X108461Y-326D01*
X108489Y-330D01*
X108517D01*
X108581Y-326D01*
X108646Y-307D01*
X108697Y-284D01*
X108743Y-256D01*
X108785Y-229D01*
X108812Y-206D01*
X108831Y-187D01*
X108835Y-183D01*
X108882Y-118D01*
X108914Y-53D01*
X108937Y21D01*
X108951Y90D01*
X108960Y150D01*
X108969Y201D01*
Y219D01*
Y233D01*
Y242D01*
Y247D01*
X108965Y321D01*
X108956Y390D01*
X108942Y464D01*
X108928Y533D01*
X108914Y589D01*
X108900Y635D01*
X108896Y654D01*
X108891Y667D01*
X108886Y672D01*
Y677D01*
X108854Y764D01*
X108817Y838D01*
X108775Y903D01*
X108739Y954D01*
X108706Y996D01*
X108678Y1028D01*
X108660Y1046D01*
X108655Y1051D01*
X108595Y1092D01*
X108540Y1125D01*
X108484Y1148D01*
X108434Y1166D01*
X108387Y1176D01*
X108355Y1180D01*
D02*
G37*
G36*
X105625D02*
X105592D01*
X105523Y1176D01*
X105458Y1157D01*
X105408Y1134D01*
X105361Y1111D01*
X105324Y1083D01*
X105297Y1060D01*
X105278Y1042D01*
X105273Y1037D01*
X105232Y982D01*
X105200Y917D01*
X105176Y852D01*
X105158Y788D01*
X105149Y728D01*
X105144Y681D01*
Y663D01*
Y649D01*
Y644D01*
Y640D01*
X105149Y557D01*
X105158Y469D01*
X105176Y390D01*
X105190Y316D01*
X105209Y252D01*
X105227Y201D01*
X105232Y182D01*
X105236Y169D01*
X105241Y159D01*
Y155D01*
X105278Y62D01*
X105320Y-16D01*
X105361Y-81D01*
X105398Y-132D01*
X105435Y-169D01*
X105463Y-197D01*
X105481Y-215D01*
X105486Y-220D01*
X105541Y-256D01*
X105592Y-284D01*
X105643Y-303D01*
X105689Y-317D01*
X105731Y-326D01*
X105759Y-330D01*
X105786D01*
X105851Y-326D01*
X105916Y-307D01*
X105966Y-284D01*
X106013Y-256D01*
X106054Y-229D01*
X106082Y-206D01*
X106100Y-187D01*
X106105Y-183D01*
X106151Y-118D01*
X106184Y-53D01*
X106207Y21D01*
X106221Y90D01*
X106230Y150D01*
X106239Y201D01*
Y219D01*
Y233D01*
Y242D01*
Y247D01*
X106234Y321D01*
X106225Y390D01*
X106211Y464D01*
X106198Y533D01*
X106184Y589D01*
X106170Y635D01*
X106165Y654D01*
X106160Y667D01*
X106156Y672D01*
Y677D01*
X106124Y764D01*
X106087Y838D01*
X106045Y903D01*
X106008Y954D01*
X105976Y996D01*
X105948Y1028D01*
X105930Y1046D01*
X105925Y1051D01*
X105865Y1092D01*
X105809Y1125D01*
X105754Y1148D01*
X105703Y1166D01*
X105657Y1176D01*
X105625Y1180D01*
D02*
G37*
G36*
X105467Y4245D02*
X105462D01*
X105481Y4157D01*
X105499Y4078D01*
X105518Y4009D01*
X105536Y3949D01*
X105555Y3903D01*
X105569Y3866D01*
X105582Y3843D01*
X105587Y3824D01*
X105592Y3820D01*
X105615Y3778D01*
X105647Y3746D01*
X105680Y3714D01*
X105707Y3691D01*
X105735Y3667D01*
X105758Y3653D01*
X105777Y3644D01*
X105781Y3640D01*
X105827Y3616D01*
X105874Y3603D01*
X105920Y3589D01*
X105961Y3584D01*
X105994Y3580D01*
X106021Y3575D01*
X106044D01*
X106091Y3580D01*
X106132Y3589D01*
X106169Y3598D01*
X106197Y3612D01*
X106220Y3626D01*
X106238Y3640D01*
X106248Y3644D01*
X106252Y3649D01*
X106280Y3677D01*
X106299Y3709D01*
X106313Y3741D01*
X106322Y3769D01*
X106326Y3797D01*
X106331Y3815D01*
Y3829D01*
Y3834D01*
X106326Y3880D01*
X106317Y3921D01*
X106299Y3958D01*
X106280Y3991D01*
X106262Y4014D01*
X106243Y4032D01*
X106234Y4042D01*
X106229Y4046D01*
X106197Y4065D01*
X106160Y4083D01*
X106118Y4102D01*
X106072Y4120D01*
X105971Y4148D01*
X105869Y4171D01*
X105772Y4189D01*
X105730Y4199D01*
X105689Y4203D01*
X105661Y4208D01*
X105633D01*
X105620Y4213D01*
X105615D01*
X105550Y4222D01*
X105504Y4236D01*
X105485Y4240D01*
X105472D01*
X105467Y4245D01*
D02*
G37*
G36*
X79258Y5880D02*
X79248D01*
X79193Y5876D01*
X79147Y5862D01*
X79105Y5839D01*
X79068Y5820D01*
X79041Y5797D01*
X79018Y5774D01*
X79004Y5760D01*
X78999Y5756D01*
X78967Y5705D01*
X78939Y5645D01*
X78921Y5585D01*
X78911Y5525D01*
X78902Y5469D01*
X78897Y5423D01*
Y5404D01*
Y5391D01*
Y5386D01*
Y5381D01*
X78902Y5303D01*
X78907Y5229D01*
X78921Y5160D01*
X78930Y5099D01*
X78944Y5049D01*
X78957Y5007D01*
X78962Y4984D01*
X78967Y4979D01*
Y4975D01*
X78994Y4905D01*
X79027Y4845D01*
X79059Y4795D01*
X79091Y4753D01*
X79119Y4725D01*
X79142Y4702D01*
X79156Y4688D01*
X79161Y4684D01*
X79207Y4651D01*
X79248Y4628D01*
X79290Y4614D01*
X79327Y4605D01*
X79355Y4596D01*
X79378Y4591D01*
X79401D01*
X79452Y4596D01*
X79498Y4610D01*
X79540Y4628D01*
X79576Y4651D01*
X79604Y4674D01*
X79623Y4693D01*
X79637Y4707D01*
X79641Y4712D01*
X79673Y4762D01*
X79697Y4822D01*
X79715Y4882D01*
X79724Y4942D01*
X79734Y4998D01*
X79738Y5040D01*
Y5058D01*
Y5072D01*
Y5076D01*
Y5081D01*
X79729Y5220D01*
X79711Y5344D01*
X79683Y5451D01*
X79650Y5539D01*
X79632Y5580D01*
X79618Y5612D01*
X79604Y5640D01*
X79590Y5663D01*
X79576Y5682D01*
X79572Y5695D01*
X79563Y5700D01*
Y5705D01*
X79512Y5765D01*
X79461Y5806D01*
X79406Y5839D01*
X79355Y5857D01*
X79313Y5871D01*
X79281Y5876D01*
X79258Y5880D01*
D02*
G37*
G36*
X99207Y5086D02*
X99175D01*
X99105Y5081D01*
X99045Y5067D01*
X98990Y5044D01*
X98948Y5021D01*
X98911Y4998D01*
X98888Y4975D01*
X98870Y4961D01*
X98865Y4956D01*
X98828Y4901D01*
X98800Y4841D01*
X98777Y4776D01*
X98763Y4716D01*
X98754Y4656D01*
X98750Y4610D01*
Y4591D01*
Y4578D01*
Y4573D01*
Y4568D01*
Y4550D01*
Y4531D01*
Y4513D01*
Y4508D01*
X99734D01*
X99711Y4610D01*
X99678Y4693D01*
X99641Y4767D01*
X99609Y4827D01*
X99576Y4878D01*
X99549Y4910D01*
X99530Y4933D01*
X99526Y4938D01*
X99466Y4989D01*
X99406Y5026D01*
X99345Y5049D01*
X99290Y5067D01*
X99244Y5077D01*
X99207Y5086D01*
D02*
G37*
G36*
X76675Y5880D02*
X76666D01*
X76620Y5876D01*
X76573Y5862D01*
X76537Y5843D01*
X76509Y5825D01*
X76481Y5806D01*
X76463Y5788D01*
X76453Y5774D01*
X76449Y5769D01*
X76421Y5723D01*
X76398Y5672D01*
X76384Y5612D01*
X76370Y5557D01*
X76366Y5506D01*
X76361Y5464D01*
Y5432D01*
Y5428D01*
Y5423D01*
Y5367D01*
X76366Y5303D01*
X76380Y5173D01*
X76398Y5040D01*
X76416Y4910D01*
X76430Y4850D01*
X76439Y4795D01*
X76449Y4744D01*
X76458Y4702D01*
X76467Y4670D01*
X76472Y4642D01*
X76477Y4624D01*
Y4619D01*
X76504Y4504D01*
X76532Y4397D01*
X76560Y4305D01*
X76587Y4217D01*
X76615Y4139D01*
X76643Y4069D01*
X76666Y4005D01*
X76694Y3954D01*
X76717Y3908D01*
X76735Y3866D01*
X76754Y3834D01*
X76768Y3811D01*
X76781Y3788D01*
X76791Y3774D01*
X76800Y3769D01*
Y3764D01*
X76855Y3709D01*
X76906Y3672D01*
X76962Y3644D01*
X77008Y3621D01*
X77049Y3612D01*
X77086Y3607D01*
X77105Y3603D01*
X77114D01*
X77160Y3607D01*
X77206Y3616D01*
X77243Y3635D01*
X77271Y3653D01*
X77299Y3672D01*
X77317Y3690D01*
X77327Y3700D01*
X77331Y3704D01*
X77359Y3751D01*
X77377Y3806D01*
X77396Y3866D01*
X77405Y3926D01*
X77410Y3982D01*
X77414Y4028D01*
Y4046D01*
Y4060D01*
Y4065D01*
Y4069D01*
X77410Y4199D01*
X77396Y4337D01*
X77377Y4471D01*
X77354Y4605D01*
X77345Y4665D01*
X77336Y4721D01*
X77327Y4772D01*
X77317Y4813D01*
X77308Y4850D01*
X77303Y4873D01*
X77299Y4892D01*
Y4896D01*
X77271Y5003D01*
X77243Y5099D01*
X77216Y5192D01*
X77188Y5271D01*
X77160Y5349D01*
X77132Y5414D01*
X77105Y5474D01*
X77077Y5529D01*
X77054Y5575D01*
X77035Y5612D01*
X77012Y5645D01*
X76999Y5672D01*
X76985Y5691D01*
X76976Y5709D01*
X76966Y5714D01*
Y5719D01*
X76915Y5774D01*
X76865Y5811D01*
X76814Y5839D01*
X76768Y5862D01*
X76726Y5871D01*
X76694Y5876D01*
X76675Y5880D01*
D02*
G37*
%LPD*%
D12*
X145000Y-55000D02*
Y5000D01*
X135000Y-55000D02*
Y5000D01*
Y-55000D02*
X145000D01*
X135000Y5000D02*
X145000D01*
X-5000Y45000D02*
Y65000D01*
Y45000D02*
X5000D01*
Y65000D01*
X-5000D02*
X5000D01*
X-5000Y-15000D02*
X5000D01*
X-5000Y-55000D02*
Y-15000D01*
X5000Y-55000D02*
Y-15000D01*
X-5000Y-55000D02*
X5000D01*
X145000Y5000D02*
Y45000D01*
X135000D02*
X145000D01*
X135000Y5000D02*
X145000D01*
X135000D02*
Y45000D01*
Y65000D02*
X145000D01*
Y45000D02*
Y65000D01*
X135000Y45000D02*
X145000D01*
X135000D02*
Y65000D01*
X-5000Y45000D02*
X5000D01*
Y25000D02*
Y45000D01*
X-5000Y25000D02*
X5000D01*
X-5000D02*
Y45000D01*
Y-15000D02*
X5000D01*
Y25000D01*
X-5000Y-15000D02*
Y25000D01*
X5000D01*
D16*
X39428Y40933D02*
X40095Y41599D01*
X41428D01*
X42094Y40933D01*
Y40266D01*
X41428Y39600D01*
X40095D01*
X39428Y38934D01*
Y38267D01*
X40095Y37601D01*
X41428D01*
X42094Y38267D01*
X38096Y37601D02*
Y41599D01*
X36096D01*
X35430Y40933D01*
Y39600D01*
X36096Y38934D01*
X38096D01*
X36763D02*
X35430Y37601D01*
X34097D02*
Y40266D01*
X32764Y41599D01*
X31431Y40266D01*
Y37601D01*
Y39600D01*
X34097D01*
X30098Y41599D02*
Y37601D01*
X27432D01*
X39428Y-28867D02*
X40095Y-28201D01*
X41428D01*
X42094Y-28867D01*
Y-29534D01*
X41428Y-30200D01*
X40095D01*
X39428Y-30866D01*
Y-31533D01*
X40095Y-32199D01*
X41428D01*
X42094Y-31533D01*
X38096Y-32199D02*
Y-28201D01*
X36096D01*
X35430Y-28867D01*
Y-30200D01*
X36096Y-30866D01*
X38096D01*
X36763D02*
X35430Y-32199D01*
X34097Y-28201D02*
Y-32199D01*
X32097D01*
X31431Y-31533D01*
Y-30866D01*
X32097Y-30200D01*
X34097D01*
X32097D01*
X31431Y-29534D01*
Y-28867D01*
X32097Y-28201D01*
X34097D01*
X30098D02*
Y-32199D01*
X27432D01*
X129982Y-48667D02*
X130648Y-48001D01*
X131981D01*
X132648Y-48667D01*
Y-51333D01*
X131981Y-51999D01*
X130648D01*
X129982Y-51333D01*
Y-50000D01*
X131315D01*
X128649Y-51999D02*
Y-48001D01*
X125983Y-51999D01*
Y-48001D01*
X124650D02*
Y-51999D01*
X122651D01*
X121984Y-51333D01*
Y-48667D01*
X122651Y-48001D01*
X124650D01*
X129982Y-38667D02*
X130648Y-38001D01*
X131981D01*
X132648Y-38667D01*
Y-41333D01*
X131981Y-41999D01*
X130648D01*
X129982Y-41333D01*
Y-40000D01*
X131315D01*
X128649Y-41999D02*
Y-38001D01*
X125983Y-41999D01*
Y-38001D01*
X124650D02*
Y-41999D01*
X122651D01*
X121984Y-41333D01*
Y-38667D01*
X122651Y-38001D01*
X124650D01*
X30310Y-16376D02*
X32000Y-20000D01*
X30188Y-20845D01*
X29302Y-20523D01*
X28176Y-18107D01*
X28498Y-17221D01*
X30310Y-16376D01*
X28376Y-21690D02*
X26686Y-18066D01*
X24874Y-18911D01*
X24552Y-19796D01*
X25115Y-21004D01*
X26001Y-21327D01*
X27813Y-20482D01*
X26605Y-21045D02*
X25960Y-22817D01*
X23062Y-19756D02*
X24189Y-22172D01*
X23544Y-23943D01*
X21772Y-23298D01*
X20646Y-20882D01*
X21409Y-25674D02*
X18993Y-26800D01*
X13398Y-24262D02*
X15814Y-23136D01*
X17504Y-26760D01*
X15088Y-27886D01*
X16659Y-24948D02*
X15451Y-25511D01*
X13880Y-28450D02*
X12190Y-24826D01*
X11464Y-29576D01*
X9774Y-25952D01*
X10256Y-30140D02*
X8566Y-26515D01*
X7840Y-31266D01*
X6150Y-27642D01*
X18496Y31332D02*
X19163Y31999D01*
X20495D01*
X21162Y31332D01*
Y30666D01*
X20495Y29999D01*
X19163D01*
X18496Y29333D01*
Y28666D01*
X19163Y28000D01*
X20495D01*
X21162Y28666D01*
X17163Y31999D02*
X14497D01*
X15830D01*
Y28000D01*
X10499Y31999D02*
X13164D01*
Y28000D01*
X10499D01*
X13164Y29999D02*
X11832D01*
X9166Y28000D02*
Y31999D01*
X7166D01*
X6500Y31332D01*
Y29999D01*
X7166Y29333D01*
X9166D01*
X14497Y-18668D02*
X15164Y-18001D01*
X16497D01*
X17163Y-18668D01*
Y-21334D01*
X16497Y-22000D01*
X15164D01*
X14497Y-21334D01*
Y-20001D01*
X15830D01*
X13164Y-22000D02*
Y-18001D01*
X10499Y-22000D01*
Y-18001D01*
X9166D02*
Y-22000D01*
X7166D01*
X6500Y-21334D01*
Y-18668D01*
X7166Y-18001D01*
X9166D01*
X26493Y-48667D02*
X27160Y-48001D01*
X28493D01*
X29159Y-48667D01*
Y-49334D01*
X28493Y-50000D01*
X27160D01*
X26493Y-50666D01*
Y-51333D01*
X27160Y-51999D01*
X28493D01*
X29159Y-51333D01*
X22495Y-48667D02*
X23161Y-48001D01*
X24494D01*
X25161Y-48667D01*
Y-51333D01*
X24494Y-51999D01*
X23161D01*
X22495Y-51333D01*
Y-50000D01*
X23828D01*
X21162Y-52666D02*
X18496D01*
X17163Y-48001D02*
X14497D01*
X15830D01*
Y-51999D01*
X10499Y-48667D02*
X11165Y-48001D01*
X12498D01*
X13164Y-48667D01*
Y-49334D01*
X12498Y-50000D01*
X11165D01*
X10499Y-50666D01*
Y-51333D01*
X11165Y-51999D01*
X12498D01*
X13164Y-51333D01*
X9166Y-48001D02*
X6500D01*
X7833D01*
Y-51999D01*
X14497Y21333D02*
X15164Y21999D01*
X16497D01*
X17163Y21333D01*
Y20666D01*
X16497Y20000D01*
X15164D01*
X14497Y19333D01*
Y18667D01*
X15164Y18001D01*
X16497D01*
X17163Y18667D01*
X13164Y21999D02*
Y18001D01*
X11165D01*
X10499Y18667D01*
Y21333D01*
X11165Y21999D01*
X13164D01*
X7166D02*
X8499D01*
X9166Y21333D01*
Y18667D01*
X8499Y18001D01*
X7166D01*
X6500Y18667D01*
Y21333D01*
X7166Y21999D01*
X14497Y1333D02*
X15164Y1999D01*
X16497D01*
X17163Y1333D01*
Y667D01*
X16497Y0D01*
X15164D01*
X14497Y-667D01*
Y-1333D01*
X15164Y-1999D01*
X16497D01*
X17163Y-1333D01*
X10499Y1333D02*
X11165Y1999D01*
X12498D01*
X13164Y1333D01*
Y-1333D01*
X12498Y-1999D01*
X11165D01*
X10499Y-1333D01*
X9166Y1999D02*
Y-1999D01*
Y-667D01*
X6500Y1999D01*
X8499Y0D01*
X6500Y-1999D01*
X16497Y41999D02*
Y38001D01*
X14497D01*
X13831Y38667D01*
Y41333D01*
X14497Y41999D01*
X16497D01*
X12498D02*
X11165D01*
X11832D01*
Y38001D01*
X12498D01*
X11165D01*
X9166D02*
Y41999D01*
X7166D01*
X6500Y41333D01*
Y40000D01*
X7166Y39334D01*
X9166D01*
X7833D02*
X6500Y38001D01*
X13164Y11333D02*
X13831Y11999D01*
X15164D01*
X15830Y11333D01*
Y10667D01*
X15164Y10000D01*
X13831D01*
X13164Y9334D01*
Y8667D01*
X13831Y8001D01*
X15164D01*
X15830Y8667D01*
X11832Y11999D02*
Y8001D01*
X9832D01*
X9166Y8667D01*
Y11333D01*
X9832Y11999D01*
X11832D01*
X7833D02*
X6500D01*
X7166D01*
Y8001D01*
X7833D01*
X6500D01*
X14497Y-8667D02*
X15164Y-8001D01*
X16497D01*
X17163Y-8667D01*
Y-11333D01*
X16497Y-11999D01*
X15164D01*
X14497Y-11333D01*
X10499Y-8667D02*
X11165Y-8001D01*
X12498D01*
X13164Y-8667D01*
Y-9334D01*
X12498Y-10000D01*
X11165D01*
X10499Y-10667D01*
Y-11333D01*
X11165Y-11999D01*
X12498D01*
X13164Y-11333D01*
X9166Y-11999D02*
Y-8001D01*
X6500Y-11999D01*
Y-8001D01*
X21828Y-38667D02*
X22495Y-38001D01*
X23828D01*
X24494Y-38667D01*
Y-41333D01*
X23828Y-41999D01*
X22495D01*
X21828Y-41333D01*
X20495Y-38001D02*
Y-41999D01*
X17830D01*
X16497Y-38001D02*
Y-41999D01*
Y-40666D01*
X13831Y-38001D01*
X15830Y-40000D01*
X13831Y-41999D01*
X12498D02*
X11165D01*
X11832D01*
Y-38001D01*
X12498Y-38667D01*
X6500Y-38001D02*
X7833Y-38667D01*
X9166Y-40000D01*
Y-41333D01*
X8499Y-41999D01*
X7166D01*
X6500Y-41333D01*
Y-40666D01*
X7166Y-40000D01*
X9166D01*
X114925Y13568D02*
X112592D01*
X113758D01*
Y10070D01*
X111426D02*
Y13568D01*
X110259Y12402D01*
X109093Y13568D01*
Y10070D01*
X105594Y12985D02*
X106177Y13568D01*
X107344D01*
X107927Y12985D01*
Y10653D01*
X107344Y10070D01*
X106177D01*
X105594Y10653D01*
X102095Y10070D02*
X104428D01*
X102095Y12402D01*
Y12985D01*
X102678Y13568D01*
X103845D01*
X104428Y12985D01*
X98596Y13568D02*
X100929D01*
Y11819D01*
X99763Y12402D01*
X99180D01*
X98596Y11819D01*
Y10653D01*
X99180Y10070D01*
X100346D01*
X100929Y10653D01*
X97430D02*
X96847Y10070D01*
X95681D01*
X95098Y10653D01*
Y12985D01*
X95681Y13568D01*
X96847D01*
X97430Y12985D01*
Y12402D01*
X96847Y11819D01*
X95098D01*
X93931Y12985D02*
X93348Y13568D01*
X92182D01*
X91599Y12985D01*
Y10653D01*
X92182Y10070D01*
X93348D01*
X93931Y10653D01*
Y12985D01*
X90432Y11819D02*
X88100D01*
X86933Y13568D02*
Y10070D01*
X85184D01*
X84601Y10653D01*
Y11236D01*
X85184Y11819D01*
X86933D01*
X85184D01*
X84601Y12402D01*
Y12985D01*
X85184Y13568D01*
X86933D01*
X81685D02*
X82851D01*
X83435Y12985D01*
Y10653D01*
X82851Y10070D01*
X81685D01*
X81102Y10653D01*
Y12985D01*
X81685Y13568D01*
X79936D02*
Y10070D01*
X78186D01*
X77603Y10653D01*
Y11236D01*
X78186Y11819D01*
X79936D01*
X78186D01*
X77603Y12402D01*
Y12985D01*
X78186Y13568D01*
X79936D01*
X74687Y10070D02*
Y13568D01*
X76437Y11819D01*
X74104D01*
X72938Y12985D02*
X72355Y13568D01*
X71189D01*
X70605Y12985D01*
Y10653D01*
X71189Y10070D01*
X72355D01*
X72938Y10653D01*
Y12985D01*
X69439Y9487D02*
X67107D01*
X65940Y13568D02*
Y11236D01*
X64774Y10070D01*
X63608Y11236D01*
Y13568D01*
X62441Y10070D02*
X61275D01*
X61858D01*
Y13568D01*
X62441Y12985D01*
X59526Y10070D02*
Y10653D01*
X58943D01*
Y10070D01*
X59526D01*
X56610Y12985D02*
X56027Y13568D01*
X54861D01*
X54277Y12985D01*
Y10653D01*
X54861Y10070D01*
X56027D01*
X56610Y10653D01*
Y12985D01*
X129982Y-18667D02*
X130648Y-18001D01*
X131981D01*
X132648Y-18667D01*
Y-21333D01*
X131981Y-21999D01*
X130648D01*
X129982Y-21333D01*
Y-20000D01*
X131315D01*
X128649Y-21999D02*
Y-18001D01*
X125983Y-21999D01*
Y-18001D01*
X124650D02*
Y-21999D01*
X122651D01*
X121984Y-21333D01*
Y-18667D01*
X122651Y-18001D01*
X124650D01*
X129982Y-28667D02*
X130648Y-28001D01*
X131981D01*
X132648Y-28667D01*
Y-31333D01*
X131981Y-31999D01*
X130648D01*
X129982Y-31333D01*
Y-30000D01*
X131315D01*
X128649Y-31999D02*
Y-28001D01*
X125983Y-31999D01*
Y-28001D01*
X124650D02*
Y-31999D01*
X122651D01*
X121984Y-31333D01*
Y-28667D01*
X122651Y-28001D01*
X124650D01*
X14497Y51332D02*
X15164Y51999D01*
X16497D01*
X17163Y51332D01*
Y48666D01*
X16497Y48000D01*
X15164D01*
X14497Y48666D01*
Y49999D01*
X15830D01*
X13164Y48000D02*
Y51999D01*
X10499Y48000D01*
Y51999D01*
X9166D02*
Y48000D01*
X7166D01*
X6500Y48666D01*
Y51332D01*
X7166Y51999D01*
X9166D01*
X28493Y61999D02*
Y59333D01*
X27160Y58000D01*
X25827Y59333D01*
Y61999D01*
X21828Y61332D02*
X22495Y61999D01*
X23828D01*
X24494Y61332D01*
Y58666D01*
X23828Y58000D01*
X22495D01*
X21828Y58666D01*
X17830Y61332D02*
X18496Y61999D01*
X19829D01*
X20495Y61332D01*
Y58666D01*
X19829Y58000D01*
X18496D01*
X17830Y58666D01*
X16497Y57334D02*
X13831D01*
X12498Y61999D02*
X11165D01*
X11832D01*
Y58000D01*
X12498D01*
X11165D01*
X7166Y61999D02*
X8499D01*
X9166Y61332D01*
Y58666D01*
X8499Y58000D01*
X7166D01*
X6500Y58666D01*
Y61332D01*
X7166Y61999D01*
X132648Y28000D02*
Y30666D01*
X131315Y31999D01*
X129982Y30666D01*
Y28000D01*
Y29999D01*
X132648D01*
X125983Y28000D02*
X128649D01*
X125983Y30666D01*
Y31332D01*
X126649Y31999D01*
X127982D01*
X128649Y31332D01*
X132648Y38000D02*
Y40666D01*
X131315Y41999D01*
X129982Y40666D01*
Y38000D01*
Y39999D01*
X132648D01*
X128649Y38000D02*
X127316D01*
X127982D01*
Y41999D01*
X128649Y41332D01*
X132648Y11999D02*
Y8000D01*
X130648D01*
X129982Y8666D01*
Y9333D01*
X130648Y9999D01*
X132648D01*
X130648D01*
X129982Y10666D01*
Y11332D01*
X130648Y11999D01*
X132648D01*
X125983Y8000D02*
X128649D01*
X125983Y10666D01*
Y11332D01*
X126649Y11999D01*
X127982D01*
X128649Y11332D01*
X132648Y21999D02*
Y18000D01*
X130648D01*
X129982Y18666D01*
Y19333D01*
X130648Y19999D01*
X132648D01*
X130648D01*
X129982Y20666D01*
Y21332D01*
X130648Y21999D01*
X132648D01*
X128649Y18000D02*
X127316D01*
X127982D01*
Y21999D01*
X128649Y21332D01*
X132663Y61999D02*
Y59333D01*
X131330Y58000D01*
X129997Y59333D01*
Y61999D01*
X125999Y61332D02*
X126665Y61999D01*
X127998D01*
X128665Y61332D01*
Y60666D01*
X127998Y59999D01*
X126665D01*
X125999Y59333D01*
Y58666D01*
X126665Y58000D01*
X127998D01*
X128665Y58666D01*
X129997Y51333D02*
X130664Y51999D01*
X131997D01*
X132663Y51333D01*
Y48667D01*
X131997Y48001D01*
X130664D01*
X129997Y48667D01*
Y50000D01*
X131330D01*
X128665Y48001D02*
Y51999D01*
X125999Y48001D01*
Y51999D01*
X124666D02*
Y48001D01*
X122667D01*
X122000Y48667D01*
Y51333D01*
X122667Y51999D01*
X124666D01*
X129982Y-8667D02*
X130648Y-8001D01*
X131981D01*
X132648Y-8667D01*
Y-11333D01*
X131981Y-11999D01*
X130648D01*
X129982Y-11333D01*
Y-10000D01*
X131315D01*
X128649Y-11999D02*
Y-8001D01*
X125983Y-11999D01*
Y-8001D01*
X124650D02*
Y-11999D01*
X122651D01*
X121984Y-11333D01*
Y-8667D01*
X122651Y-8001D01*
X124650D01*
X129982Y1333D02*
X130648Y1999D01*
X131981D01*
X132648Y1333D01*
Y-1333D01*
X131981Y-1999D01*
X130648D01*
X129982Y-1333D01*
Y0D01*
X131315D01*
X128649Y-1999D02*
Y1999D01*
X125983Y-1999D01*
Y1999D01*
X124650D02*
Y-1999D01*
X122651D01*
X121984Y-1333D01*
Y1333D01*
X122651Y1999D01*
X124650D01*
D50*
X135000Y5000D02*
Y45000D01*
M02*
